<svg xmlns="http://www.w3.org/2000/svg" viewBox="0 0 50.31 54.57"><defs><style>.cls-1{fill:#48494a;}.cls-2{fill:#f57f20;}</style></defs><g id="Layer_2" data-name="Layer 2"><g id="Layer_1-2" data-name="Layer 1"><path class="cls-1" d="M50.18,39.56a2.54,2.54,0,0,0-2.5-1.93,5.33,5.33,0,0,0-1.79.56.62.62,0,0,1-.75-.07c-.83-.69-1.69-1.35-2.53-2a19.89,19.89,0,0,0-10.43-4.55l-1.52-.17s0-.05,0-.07a5.59,5.59,0,0,1-1,.07h-.09a6.83,6.83,0,0,1-.79-.06h0l-.19.07-.42.05A20,20,0,0,0,20,33.82a1.19,1.19,0,0,1-.83,0,9.22,9.22,0,0,0-7.46.64c-1.34.7-2.64,1.46-3.95,2.19l-2,1.11a2.43,2.43,0,0,0-3.17-.15c-.39.25-.79.47-1.19.7A2.35,2.35,0,0,0,.48,42c2.08,3.61,4.18,7.21,6.24,10.83a3.53,3.53,0,0,0,1.81,1.76H9.6c.82-.46,1.65-.89,2.46-1.36a2,2,0,0,0,1.11-2.27c-.27-.9.24-1.23.74-1.67.09-.08.19-.15.28-.24a1.69,1.69,0,0,1,1.9-.4c1.33.45,2.66.87,4,1.28a15.88,15.88,0,0,0,3.41,1,26.52,26.52,0,0,0,4.44-.21c3-.28,6-.62,8.94-.91a7.17,7.17,0,0,0,3.52-1.06l8.81-6.06A2.79,2.79,0,0,0,50.18,39.56ZM33.47,33.37a21.91,21.91,0,0,1,10.42,5.86c-2.3,1.08-4.37,2.66-6.93,2.91a12.87,12.87,0,0,0-.64-2,3.57,3.57,0,0,0-2.87-2c-2.2-.29-4.4-.54-6.59-.85a4.67,4.67,0,0,1-1.45-.48c-1.22-.64-2.41-1.34-3.6-2C24.31,33.36,29,32.45,33.47,33.37Zm14.69,8c-1.49,1-3,2.06-4.47,3.08-1.17.81-2.37,1.57-3.5,2.43a6.67,6.67,0,0,1-3.59,1.27c-3.43.32-6.85.65-10.27,1.06a10.2,10.2,0,0,1-4.84-.54c-1.64-.6-3.33-1.09-5-1.63a3.23,3.23,0,0,0-3.39.76l-1,.84-2.31-4c-.09-.15-.16-.31-.26-.45A.8.8,0,1,0,8.18,45c.15.3.33.58.5.88l2.74,4.74c.35.62.27.89-.35,1.25s-1,.62-1.56.91a.68.68,0,0,1-1.07-.3Q5.1,46.75,1.77,41c-.29-.5-.2-.8.3-1.1s1.07-.63,1.61-.93a.72.72,0,0,1,1.15.32c.46.78.9,1.57,1.36,2.35.33.57.78.73,1.22.46s.49-.71.18-1.26-.59-1-.88-1.54a.54.54,0,0,1,.06-.13c2-1.1,3.9-2.25,5.89-3.29a7.58,7.58,0,0,1,5.89-.48,17.59,17.59,0,0,1,4.63,2.09,11.75,11.75,0,0,0,5.71,1.78c1.48.13,3,.33,4.44.53a2.25,2.25,0,0,1,1.8,2.53l-3.64.25c-1.45.09-2.9.18-4.35.29-.6.05-.89.38-.85.87a.82.82,0,0,0,1,.73c3.38-.24,6.76-.47,10.13-.74a10.26,10.26,0,0,0,3.91-1.29l5.64-3a1,1,0,0,1,1.53.3A1.19,1.19,0,0,1,48.16,41.4Z"/><path class="cls-2" d="M47.93,14.73A21.58,21.58,0,0,0,39,16.55c-3.84,1.73-6.46,4.53-7.2,8.77a5,5,0,0,1-1.36,2.34c0-2.2,0-4.27,0-6.35a.85.85,0,0,1,.31-.51,12,12,0,0,0,3.58-10.22A23.13,23.13,0,0,0,30.8.73a1.23,1.23,0,0,0-2.26,0A23.46,23.46,0,0,0,25,10.23a12.06,12.06,0,0,0,3.55,10.59,1.09,1.09,0,0,1,.3.73c0,1.81,0,3.62,0,5.43,0,.15,0,.3,0,.44l-.15.07a5.25,5.25,0,0,1-.95-1.63,11.25,11.25,0,0,0-3.19-6.47c-3.69-3.58-8.32-4.58-13.25-4.64a1.31,1.31,0,0,0-1.24,1.5c1,4.91,3.65,8.55,8.43,10.43a17.45,17.45,0,0,0,7.85.93c.15,0,.37,0,.45.05a6.94,6.94,0,0,1,2,3.66l-.16.06c.69,0,1.37-.06,2.05-.07a7.68,7.68,0,0,1,1.2-2.77,1.65,1.65,0,0,1,2-.91,3.85,3.85,0,0,0,1,.06,16.16,16.16,0,0,0,7.37-1.52A.85.85,0,0,0,42.67,25a.83.83,0,0,0-1.19-.29A13.64,13.64,0,0,1,36.68,26c-.69.05-1.39,0-2.14,0,1.92-1.9,10.89-8,12.88-8.71,0,.12-.05.22-.08.31a12.89,12.89,0,0,1-2.85,4.87c-.43.47-.45.92-.07,1.26a.79.79,0,0,0,1.22-.13,14.47,14.47,0,0,0,3.68-7.18A1.34,1.34,0,0,0,47.93,14.73ZM30.52,3.67c1.6,3.17,2.65,6.46,2.2,10.07a9.81,9.81,0,0,1-2.2,4.92Zm-1.69,15a9.51,9.51,0,0,1-2.17-4.77c-.54-3.68.52-7,2.17-10.27Zm-11.3,5.75a11.54,11.54,0,0,1-5.46-7.13,83.59,83.59,0,0,1,12.79,8.59C23.71,26.44,19.58,25.61,17.53,24.46Zm8.14,0a101,101,0,0,0-11.42-7.89,16.13,16.13,0,0,1,8.53,3.32A9.26,9.26,0,0,1,25.62,24c0,.09.05.17.07.25A.7.7,0,0,1,25.67,24.48Zm13.68-4.12c-1.92,1.32-3.77,2.72-5.67,4.11a9.58,9.58,0,0,1,4.1-5.4,17.31,17.31,0,0,1,6.74-2.43l.74-.11C43.23,17.84,41.25,19.05,39.35,20.36Z"/></g></g></svg>