<svg xmlns="http://www.w3.org/2000/svg" viewBox="0 0 45.62 51.78"><defs><style>.cls-1{fill:#48494a;}.cls-2{fill:#f57f20;}</style></defs><g id="Layer_2" data-name="Layer 2"><g id="Layer_1-2" data-name="Layer 1"><path class="cls-1" d="M45.62,22.41a3,3,0,0,0,0-.6,1,1,0,0,0-1-.91c-.22,0-.44,0-.66,0H10.51c.05-.12.09-.15.14-.16l12.22-3.54c-.66,0-1.31.12-2,.18-1.29.23-2.61.42-4,.6L15,18.2a7,7,0,0,1-2.76,1.7,7,7,0,0,1-3.61.81H8.38l-.22,0a9.21,9.21,0,0,1-4.45,1.07,10.8,10.8,0,0,1-1.54-.12l-.42.05A4.87,4.87,0,0,1,1.9,22.8c0,7.76,0,15.51,0,23.27A5.31,5.31,0,0,0,4.3,50.72a14,14,0,0,0,2.48,1.06H20c.39-.28.75-.58.67-1.13a1,1,0,0,0-1.17-.89c-3,0-5.93,0-8.9,0a33.63,33.63,0,0,1-3.48-.07A3.45,3.45,0,0,1,4,46.14c0-4.5,0-9,0-13.5a1.76,1.76,0,0,1,0-.25h.54q19.2,0,38.4,0c.52,0,.64.15.64.65,0,4.28,0,8.56,0,12.85a3.62,3.62,0,0,1-2.65,3.72,6.16,6.16,0,0,1-1.35.17c-3.86,0-7.72,0-11.58,0-.83,0-1.34.51-1.14,1.21.09.31.44.55.67.81H40.78s0-.05.08-.06c3.24-.83,4.76-2.8,4.76-6.14ZM8.11,30.35c-1.37,0-2.73,0-4.13,0V23h8.8c-.09.17-.15.31-.23.43C11.29,25.59,10,27.77,8.77,30A.63.63,0,0,1,8.11,30.35Zm8.11,0c-1.74,0-3.47,0-5.31,0l.41-.72c1.19-2.07,2.39-4.13,3.57-6.2a.86.86,0,0,1,.87-.5c1.63,0,3.26,0,5,0-.08.17-.13.29-.19.4C19.24,25.55,18,27.77,16.68,30,16.59,30.13,16.37,30.33,16.22,30.33Zm8,0c-1.75,0-3.5,0-5.35,0,1.08-1.85,2.09-3.61,3.11-5.37.33-.58.66-1.17,1-1.74a.63.63,0,0,1,.41-.28c1.72,0,3.44,0,5.15,0a.25.25,0,0,1,.11.05,2.1,2.1,0,0,1-.13.26Q26.54,26.65,24.58,30C24.5,30.16,24.32,30.33,24.18,30.33Zm7.72,0c-1.68,0-3.36,0-5.1,0A4.48,4.48,0,0,1,27,29.9c1.26-2.19,2.53-4.37,3.78-6.56a.68.68,0,0,1,.71-.41c1.52,0,3,0,4.55,0l.5,0c-.09.17-.14.31-.22.43-1.26,2.19-2.52,4.37-3.77,6.57A.66.66,0,0,1,31.9,30.35Zm11.63,0H34.74c.08-.15.13-.28.21-.41,1.26-2.19,2.53-4.37,3.78-6.57a.68.68,0,0,1,.71-.4c1.35,0,2.69,0,4.09,0Z"/><path class="cls-2" d="M23.48,51.78c-.35-.21-.68-.43-.71-.89a1,1,0,1,1,1.63.65,3.81,3.81,0,0,1-.32.24Z"/><path class="cls-2" d="M19.84,41c0-1.64,0-3.27,0-4.91,0-1.07.76-1.52,1.69-1L30.06,40a1.06,1.06,0,0,1,0,2l-8.53,4.92c-.93.53-1.69.08-1.69-1C19.83,44.25,19.84,42.6,19.84,41Zm2.05-3.33v6.7L27.7,41Z"/><path class="cls-2" d="M43.82,9.73c-.52-1.84-1-3.69-1.6-5.52A5.63,5.63,0,0,0,35,.27q-10.44,3-20.88,6c-3.42,1-6.85,1.94-10.26,3A5.48,5.48,0,0,0,.11,15.64c.32,1.54.86,3,1.26,4.56a13.18,13.18,0,0,1,.51,2.35A9.69,9.69,0,0,1,4.8,21.9a10,10,0,0,1,3.3-.55h.15A9.41,9.41,0,0,1,10,21a8.5,8.5,0,0,1,2.56-.77l11.76-3.4,18.6-5.39C43.86,11.12,44.1,10.68,43.82,9.73ZM3.63,20.64c-.14-.51-.29-1-.43-1.5-.38-1.34-.81-2.67-1.1-4a3.62,3.62,0,0,1,3-4.06.41.41,0,0,1,.29.11c2.38,2.27,4.75,4.55,7.19,6.9Zm16.43-4.76L15,17.35a.48.48,0,0,1-.34-.11q-3.54-3.39-7.06-6.8s0,0,0-.1l3.54-1c.58-.16,1.22-.52,1.73-.4s.88.74,1.3,1.15l5.73,5.49a1.49,1.49,0,0,0,.29.2Zm6.94-2c-1.42.42-2.83.83-4.26,1.23a.63.63,0,0,1-.52-.11q-3.48-3.3-6.93-6.64a1.5,1.5,0,0,1-.16-.2c1.71-.5,3.36-1,5-1.45a.59.59,0,0,1,.49.1l7,6.76a.25.25,0,0,1,0,.1Zm3.34-1a.63.63,0,0,1-.49-.1l-7-6.75s0,0,0-.1.23-.09.35-.12c1.51-.45,3-.89,4.55-1.32a.74.74,0,0,1,.57.1c2.31,2.19,4.6,4.39,6.9,6.6.05,0,.1.12.2.24C33.63,12,32,12.44,30.34,12.9Zm8-2.3a1.06,1.06,0,0,1-1.23-.29C35,8.24,32.89,6.22,30.76,4.18c-.13-.13-.29-.22-.53-.41l3.13-.92c.78-.23,1.55-.45,2.33-.66a3.53,3.53,0,0,1,4.49,2.36c.53,1.59,1,3.22,1.42,4.83a1.19,1.19,0,0,1,0,.24C40.53,10,39.44,10.24,38.36,10.6Z"/></g></g></svg>