<svg xmlns="http://www.w3.org/2000/svg" viewBox="0 0 48.15 47.93"><defs><style>.cls-1{fill:#48494a;}.cls-2{fill:#f57f20;}</style></defs><g id="Layer_2" data-name="Layer 2"><g id="Layer_1-2" data-name="Layer 1"><path class="cls-1" d="M0,15.48V14.35a3.9,3.9,0,0,1,2.06-2.11Q12.26,6.39,22.43.48a3.05,3.05,0,0,1,3.32,0q8.66,5,17.35,10c1.27.74,2.55,1.46,3.81,2.22a2.55,2.55,0,0,1-1.43,4.73H45v7.69c.67,0,1.29,0,1.92,0a1.12,1.12,0,0,1,1.19,1.21c0,.77,0,1.54,0,2.31A1.19,1.19,0,0,1,46.79,30H45.61a1.56,1.56,0,0,0-.07.14c0,.57,0,1.13,0,1.7a1.11,1.11,0,0,1-1.23,1.21h-.72V40h.52c1,0,1.42.4,1.43,1.42V43h1.41a1.13,1.13,0,0,1,1.2,1.21c0,.72,0,1.44,0,2.16,0,1.12-.38,1.51-1.48,1.51H25.83a.72.72,0,0,1-.68-.75.69.69,0,0,1,.71-.67H46.71v-2H1.45v2H22.68a.7.7,0,0,1,.13,1.36,2,2,0,0,1-.6.06c-6.89,0-13.79,0-20.69,0A1.48,1.48,0,0,1,0,47.08v-3.2A1.35,1.35,0,0,1,1.46,43c.37,0,.74,0,1.07,0L2.6,43c0-.6,0-1.19,0-1.79A1.14,1.14,0,0,1,3.83,40c.24,0,.48,0,.73,0V33.09H4c-1,0-1.36-.39-1.36-1.38V30c-.4,0-.74,0-1.08,0A1.46,1.46,0,0,1,0,29.21V25.92a1.48,1.48,0,0,1,1.56-.77c.52,0,1,0,1.57,0V17.45l-.55,0A2.45,2.45,0,0,1,.43,16.34,7.66,7.66,0,0,1,0,15.48ZM1.43,28.55H46.71v-2H26.1c-.72,0-1.06-.22-1.08-.69s.34-.72,1.09-.72h17.4c0-.13,0-.17,0-.22,0-2.65,0-5.3,0-8a.69.69,0,0,0-.33-.48L24.43,5.66a.62.62,0,0,0-.72,0Q14.35,11.09,5,16.48a.66.66,0,0,0-.38.66q0,3.76,0,7.52a4.75,4.75,0,0,0,0,.5h17.5a4.47,4.47,0,0,1,.52,0,.66.66,0,0,1,.66.66.71.71,0,0,1-.65.74H1.43Zm44-12.5a1.2,1.2,0,0,0,1.25-.75c.21-.58,0-1.08-.68-1.47L25,1.69a1.65,1.65,0,0,0-1.8,0l-20.73,12a4.18,4.18,0,0,0-.63.4,1.06,1.06,0,0,0-.33,1.15,1,1,0,0,0,.9.78,1.81,1.81,0,0,0,1-.25q10-5.76,20-11.55a1.31,1.31,0,0,1,1.47,0Q34.72,10,44.67,15.7A7.33,7.33,0,0,0,45.4,16.05Zm-9.5,17h-.58c-1,0-1.36-.41-1.37-1.38V30.08H29.88V31c0,.28,0,.56,0,.85a1.15,1.15,0,0,1-1.28,1.27h-.65v6.84l.36,0c1.21,0,1.57.38,1.58,1.57V43h4a.37.37,0,0,0,0-.11c0-.56,0-1.12,0-1.69A1.17,1.17,0,0,1,35.22,40h.68ZM12.23,40h.46c1.12,0,1.5.39,1.5,1.54V43h4.08c0-.62,0-1.22,0-1.81A1.19,1.19,0,0,1,19.55,40h.65V33.09h-.45c-1.11,0-1.48-.39-1.48-1.51V30.07H14.19V31c0,.31,0,.63,0,.94a1.12,1.12,0,0,1-1.13,1.14c-.27,0-.54,0-.83,0Zm-6.2,0h4.73V33.11H6Zm31.35-6.81v6.8H42.1v-6.8Zm-11,0h-4.7v6.8h4.7Zm-13.69-3H4.07v1.57h8.67ZM35.4,31.64h8.68V30.07H35.4ZM12.74,41.43H4.07V43h8.67Zm31.35,0H35.4V43h8.69Zm-24.35-9.8H28.4V30.07H19.74Zm8.66,9.8H19.74V43H28.4Z"/><path class="cls-2" d="M11.59,19.57V17.08c0-.68.26-.93.94-.93h1.41a2,2,0,0,1,1.79,2.68.49.49,0,0,0,.1.6,2.06,2.06,0,0,1,.38,2.23A2,2,0,0,1,14.39,23c-.67,0-1.34,0-2,0s-.78-.29-.79-.85C11.58,21.32,11.59,20.45,11.59,19.57Zm1.47,2c.42,0,.78,0,1.14,0a.75.75,0,0,0,.75-.69.77.77,0,0,0-.65-.8c-.41,0-.82,0-1.24,0Zm0-4v1.1c.3,0,.56,0,.82,0a.52.52,0,0,0,.54-.53.51.51,0,0,0-.51-.56A8,8,0,0,0,13.08,17.58Z"/><path class="cls-2" d="M28.59,20.05V17c0-.57.28-.9.73-.89s.68.33.68.89c0,1.56.05,3.13.07,4.7,0,.12,0,.25,0,.37a.83.83,0,0,1-.6.85.76.76,0,0,1-.88-.39c-.6-.86-1.2-1.72-1.79-2.59a3.4,3.4,0,0,0-.57-.66v2.41a4.18,4.18,0,0,1,0,.71.67.67,0,0,1-.72.6.64.64,0,0,1-.67-.65c0-1.86,0-3.73,0-5.59a.84.84,0,0,1,.54-.59.91.91,0,0,1,.74.31c.66.89,1.28,1.82,1.91,2.74Z"/><path class="cls-2" d="M20.48,21.7a1.2,1.2,0,0,1-.19,0,1,1,0,0,0-1.31.82.65.65,0,0,1-.91.48.72.72,0,0,1-.39-1l2-5.2a.85.85,0,0,1,.83-.64.79.79,0,0,1,.78.57q1,2.64,2,5.3a.71.71,0,1,1-1.3.57c-.13-.29-.17-.72-.39-.82a3,3,0,0,0-1.1-.09Zm.61-1.44-.61-1.6-.61,1.6Z"/><path class="cls-2" d="M33.53,18l1.64-1.5c.43-.4.83-.42,1.15-.08s.22.75-.2,1.14l-1.93,1.78,2.23,2.46a.72.72,0,0,1-.05,1.16.69.69,0,0,1-.94-.15c-.56-.61-1.1-1.23-1.66-1.85l-.24.15c0,.39,0,.78,0,1.18s-.35.83-.8.78a.7.7,0,0,1-.64-.75c0-1.82,0-3.63,0-5.45a.74.74,0,0,1,.74-.76.72.72,0,0,1,.69.74C33.55,17.16,33.53,17.5,33.53,18Z"/><path class="cls-2" d="M24.2,8.08a3,3,0,1,1-3,2.93A3,3,0,0,1,24.2,8.08Zm-.06,4.51A1.53,1.53,0,1,0,22.65,11,1.51,1.51,0,0,0,24.14,12.59Z"/></g></g></svg>