<svg xmlns="http://www.w3.org/2000/svg" viewBox="0 0 50.79 50.74"><defs><style>.cls-1{fill:#48494a;}.cls-2{fill:#f57f20;}</style></defs><g id="Layer_2" data-name="Layer 2"><g id="Layer_1-2" data-name="Layer 1"><path class="cls-1" d="M14.74,50.74H3.28c0-.86,0-1.73,0-2.59a5,5,0,0,0-.48-2.47,27.15,27.15,0,0,1-2-7.83c-.25-1.52-.53-3-.74-4.54a8.78,8.78,0,0,1,2.36-7.43c.67-.73,1.38-1.43,2.1-2.1a1.17,1.17,0,0,0,.37-.94q0-9.27,0-18.53A4.07,4.07,0,0,1,9.2,0H33.37a4.08,4.08,0,0,1,4.31,4.29v7.17c1,0,1.89,0,2.82,0,.13,0,.28-.17.39-.28,1.18-1.17,2.34-2.35,3.52-3.51a3.59,3.59,0,0,1,3.77-.94,3.54,3.54,0,0,1,2.54,2.87,3.55,3.55,0,0,1-1,3.32c-.68.7-1.38,1.37-2.1,2.09,1,.62,1.72,1.77,3.16,1.32v8.24c-1.9-.18-3.53.8-5.28,1.29a8.37,8.37,0,0,1-6.83-.9l-.71-.42a3.56,3.56,0,0,0-.23.84c0,4.84,0,9.69,0,14.54a4.08,4.08,0,0,1-4.34,4.31H16.24c-.39,0-.6.11-.67.49a.09.09,0,0,1,0,0,9.2,9.2,0,0,0-.82,5C14.76,50.08,14.74,50.4,14.74,50.74Zm18-18V29.56L29.4,30.9a2.23,2.23,0,0,1-3-3c.45-1.12.88-2.25,1.35-3.36a2.49,2.49,0,0,1,.53-.79c.49-.51,1-1,1.53-1.48a3.28,3.28,0,0,1,.09-5.09c.9-.79,1.71-1.67,2.54-2.53a1.16,1.16,0,0,0,.28-.7c0-1.78,0-3.55,0-5.32,0-.15,0-.3,0-.42H9.85V31.41c.21-.54.33-1.1.5-1.65a2.73,2.73,0,0,1,5.32.44c.11.84.16,1.68.24,2.53Zm1.65-20A13.51,13.51,0,0,1,35.67,12a.54.54,0,0,0,.38-.61q0-3.47,0-6.91a2.53,2.53,0,0,0-2.83-2.85H9.41A2.54,2.54,0,0,0,6.55,4.5V36.9a.71.71,0,0,0,.58.74.65.65,0,0,0,.77-.45c.43-1,.84-1.93,1.27-2.92a1.91,1.91,0,0,1-1-1.92q0-12,0-24A1.64,1.64,0,0,1,10,6.55H32.58A1.63,1.63,0,0,1,34.4,8.38Zm-29.48,13c-.53.52-1,.93-1.39,1.39a7,7,0,0,0-1.81,5.76c.28,2,.66,4,.94,6a23.32,23.32,0,0,0,1.85,6.61c.08.16.29.37.43.37q4.08,0,8.14,0a.5.5,0,0,0,.37-.24,13.22,13.22,0,0,0,1.27-6.3c-.17-2.88-.43-5.75-.66-8.62-.06-.73-.43-1.15-1-1.2s-1,.32-1.19,1a33,33,0,0,1-2.44,7.34,2.38,2.38,0,0,1-2.68,1.39,2.35,2.35,0,0,1-1.82-2.45v-11ZM16.14,42.55l.45,0c5.61,0,11.23,0,16.84,0A2.47,2.47,0,0,0,36,40c0-4.33,0-8.66,0-13a3.83,3.83,0,0,0-.06-.43c-.48.5-.91.92-1.29,1.37a1.15,1.15,0,0,0-.28.65c0,1.28-.07,2.57,0,3.84a1.82,1.82,0,0,1-2,2c-5.26,0-10.51,0-15.77,0H16C16.13,37.14,16.7,39.83,16.14,42.55ZM45,21.29c-1.42,0-2.78,0-4.15,0a1,1,0,0,1-.53-.24l-2.48-2A4.91,4.91,0,0,0,35,18a1.26,1.26,0,0,0-1.35.95,1.23,1.23,0,0,0,.62,1.43c1.84,1.11,3.66,2.23,5.53,3.3a6.08,6.08,0,0,0,4.73.66c1.55-.42,3.07-1,4.61-1.46V18.21l-2.58-1.92-3.38,3.38H45Zm-4.12-1.92,1.94-2,5.61-5.6a2.07,2.07,0,1,0-2.92-2.93l-7.78,7.78c-.08.08-.14.18-.19.23.59.41,1.15.78,1.7,1.18S40.33,18.91,40.91,19.37Zm-4.44,4.29L33,21.57l-3,3,2.77,2.77ZM4.94,49.1h8.13V47.52H4.94ZM31,21c.63-.48,1.19-1,1-1.84a1.08,1.08,0,0,1,0-.5,2.83,2.83,0,0,1,2.92-2.28,1.49,1.49,0,0,0,1.28-.52c.79-.83,1.61-1.62,2.42-2.43.08-.09.15-.19.25-.32a4.3,4.3,0,0,0-3.48,1c-1.59,1.52-3.13,3.09-4.67,4.66A1.41,1.41,0,0,0,31,21Zm.13,7.41L28.91,26.2c-.32.8-.68,1.66-1,2.54a.53.53,0,0,0,.64.7C29.44,29.12,30.33,28.74,31.13,28.42Z"/><path class="cls-1" d="M31.1,9.86v4.85H11.5V9.86Zm-18,3.21H29.45V11.49H13.12c0,.1,0,.19,0,.27C13.1,12.18,13.1,12.61,13.1,13.07Z"/><path class="cls-2" d="M27,16.41V18H16.43V16.41Z"/><path class="cls-2" d="M27,23v1.58H16.43V23Z"/><path class="cls-2" d="M16.41,27.8V26.23h9V27.8Z"/><path class="cls-2" d="M25.37,29.52v1.57h-9V29.52Z"/><path class="cls-1" d="M23.73,19.69v1.57H16.41V19.69Z"/><path class="cls-1" d="M27,21.27H25.43V19.69H27Z"/><path class="cls-1" d="M18.05,4.88V3.3h6.48V4.88Z"/><path class="cls-1" d="M30.32,3.28a.82.82,0,1,1-.83.78A.8.8,0,0,1,30.32,3.28Z"/><path class="cls-2" d="M34.4,4.09a.81.81,0,0,1-.81.82.82.82,0,1,1,.81-.82Z"/><path class="cls-2" d="M21.29,36h3.07a1.7,1.7,0,0,1,1.83,2.11A3.27,3.27,0,0,1,23,40.94c-1.13,0-2.26,0-3.38,0a3.25,3.25,0,0,1-3.2-3.34A1.59,1.59,0,0,1,18,36C19.07,36,20.18,36,21.29,36Zm-3.24,1.66a1.6,1.6,0,0,0,1.6,1.61c1.1,0,2.21,0,3.32,0a1.57,1.57,0,0,0,1.56-1.61Z"/></g></g></svg>