<svg xmlns="http://www.w3.org/2000/svg" viewBox="0 0 48.98 48.99"><defs><style>.cls-1{fill:#48494a;}.cls-2{fill:#f57f20;}</style></defs><g id="Layer_2" data-name="Layer 2"><g id="Layer_1-2" data-name="Layer 1"><path class="cls-1" d="M0,25a2,2,0,0,1,2.06-1c1.29.05,2.58,0,3.87,0a1.6,1.6,0,0,1,1.8,1.29l1-.62c1.1-.71,2.19-1.43,3.29-2.13a.55.55,0,0,0,.3-.68A18.45,18.45,0,0,1,24.47,1.05,18.1,18.1,0,0,1,40.08,2.72c.18.1.44.26.47.43a1.15,1.15,0,0,1-.12.82c-.21.31-.57.28-.9.1-.77-.41-1.53-.86-2.33-1.2A17.06,17.06,0,0,0,13.79,15a17.66,17.66,0,0,0-.2,5.89,1.75,1.75,0,0,0,.08.33l3.3-1c-.2-.42-.48-.92-.68-1.44A1.82,1.82,0,0,1,18,16c1.74-6.11,5.62-9.8,12-10.1,5.28-.24,9.22,2.3,11.72,7a12.74,12.74,0,0,1-2.89,15.16l.34-.2a6.22,6.22,0,0,1,5.45-.67c.31.11.46.07.63-.23A17.14,17.14,0,0,0,42,5.91a1.3,1.3,0,0,1-.39-.8A.7.7,0,0,1,42,4.57a1.07,1.07,0,0,1,.82.2,17.36,17.36,0,0,1,3.25,3.8,18.4,18.4,0,0,1,2.88,11,18.15,18.15,0,0,1-2.35,8c-.08.13-.15.27-.23.42.31.28.61.54.88.82a6.32,6.32,0,0,1-2.67,10.35c-.64.2-1,.07-1.18-.41s.1-.76.73-1a4.87,4.87,0,1,0-3,0l.27.09A.71.71,0,1,1,41,39.25a6.16,6.16,0,0,1-3.77-2.89L37,36s0,0,0,0l-4.36,1a9.4,9.4,0,0,1,.57,1.57,2.32,2.32,0,0,1-.78,2.11.83.83,0,0,0-.23.56,7,7,0,0,1-5.73,7.28c-.93.18-1.86.27-2.79.41a1.77,1.77,0,0,0-.31.08H20.09c-.9-.12-1.8-.24-2.69-.39A7.05,7.05,0,0,1,11.18,42a.58.58,0,0,0-.19-.39c-1.09-.57-2.19-1.13-3.31-1.7a1.67,1.67,0,0,1-1.82,1.13c-1.31,0-2.62-.05-3.92,0A1.85,1.85,0,0,1,0,40V35.32c.29-.25.58-.52,1-.33s.44.61.44,1c0,.8,0,1.6,0,2.4v1.17H6.21V25.47H1.43V26c0,2.17,0,4.33,0,6.5,0,.41-.05.78-.49.94S.23,33.36,0,33Zm19.77-9.7.08,0c.16-.15.31-.3.48-.44a1.78,1.78,0,0,1,2.67,0A9.92,9.92,0,0,1,24,16a.55.55,0,0,0,.73.21,2.37,2.37,0,0,1,1-.15c.89.09,1.39.75,1.54,1.91l.3,0c-.23-.68-.51-1.31-.67-2a3.25,3.25,0,0,1,2-4,4.63,4.63,0,0,1,3.58-.07,4.16,4.16,0,0,1,2.55,2.55.71.71,0,0,1-.4.94.69.69,0,0,1-.93-.43,3.18,3.18,0,0,0-4.23-1.66,1.79,1.79,0,0,0-1.25,1.88,5.16,5.16,0,0,0,1,2.68.49.49,0,0,0,.37.13H31.6c.53,0,.84.26.85.7s-.29.73-.85.73-1.21,0-1.75,0a13.23,13.23,0,0,1-.25,2.35A13.52,13.52,0,0,1,28.53,24h5.55a3.71,3.71,0,0,1,.67,0,.68.68,0,0,1,.62.68.7.7,0,0,1-.62.74,2,2,0,0,1-.43,0l-6.55-.07a4.11,4.11,0,0,0-.6.08v.14a3,3,0,0,1,2.77.95,2.53,2.53,0,0,1,.15,3,2.49,2.49,0,0,0,.64.16,16.33,16.33,0,0,0,1.85-.19A11.17,11.17,0,1,0,20.08,14.4C20,14.69,19.87,15,19.77,15.29Zm2.9,11.31a2.39,2.39,0,0,0-.42,0c-1.38.3-2.76.64-4.15.88a1.78,1.78,0,0,0-1.38,1,38.66,38.66,0,0,0-4,11.83,5.64,5.64,0,0,0,4.33,6.67,21.64,21.64,0,0,0,9,0,5.56,5.56,0,0,0,4.44-3.81,3.89,3.89,0,0,0,.22-2H27.58a2.53,2.53,0,0,1-2.56-2,2.58,2.58,0,0,1,.31-1.92,2.62,2.62,0,0,1-1.09-3.28,2.54,2.54,0,0,1-1.66-4.71A2.73,2.73,0,0,1,22.67,26.6ZM11.29,40.14a40,40,0,0,1,4-12c-.29.06-.51.12-.72.14a.72.72,0,0,1-.35-1.39c.12,0,.25-.06.37-.09L26.1,24.33a1.25,1.25,0,0,0,1.08-1.4,1.22,1.22,0,0,0-1.32-1.11q-4.35,0-8.7,0a4.88,4.88,0,0,0-2.66.79Q11.23,24.7,8,26.83a.66.66,0,0,0-.28.48q0,5.36,0,10.71a.56.56,0,0,0,.23.41C9,39,10.13,39.55,11.29,40.14Zm27.4-12a13,13,0,0,1-7.21,2.94l-.35,2a2.69,2.69,0,0,1,1.22,2.35,14.42,14.42,0,0,0,3.89-.9c.09,0,.17-.26.17-.39a17.2,17.2,0,0,1,0-1.9A6.45,6.45,0,0,1,38.69,28.18Zm-17-7.84a7.94,7.94,0,0,1,1.38,0c1.31.25,2-.47,2.41-1.54a3.61,3.61,0,0,0,.26-.61,2.77,2.77,0,0,0,0-.58,2.15,2.15,0,0,0-.57,0A1.82,1.82,0,0,1,22.92,17c-.24-.33-.53-.64-.79-.95s-.6-.39-.91,0a8.47,8.47,0,0,0-.68.8,1.87,1.87,0,0,1-2.48.76.47.47,0,0,0-.42,0,.42.42,0,0,0-.06.42c.36.69.72,1.37,1.14,2a.72.72,0,0,0,.55.26C20.06,20.35,20.86,20.34,21.66,20.34ZM26.4,30.62H24a1.07,1.07,0,1,0,0,2.12h4.82a1.06,1.06,0,0,0,1.16-1.06,1,1,0,0,0-1.15-1.05Zm0-3.55c-.56,0-1.12,0-1.67,0a1,1,0,0,0-1,1,1,1,0,0,0,.89,1.09c1.17.05,2.35.05,3.52,0A1,1,0,0,0,29,28.06a1,1,0,0,0-1.07-1C27.45,27.06,26.92,27.07,26.4,27.07Zm1.76,9.21h1.62a1.05,1.05,0,1,0,.06-2.1c-1.11,0-2.22,0-3.34,0a1,1,0,0,0-1,1.11,1,1,0,0,0,1.07,1ZM29,39.84H30.7a1,1,0,0,0,1.06-1,1,1,0,0,0-1-1.08c-1.13,0-2.26,0-3.39,0a1,1,0,0,0-1,1.07,1.06,1.06,0,0,0,1.05,1ZM26.31,20.22l2,1.18c0-.56,0-1.15,0-1.73a.27.27,0,0,0-.16-.2,3.58,3.58,0,0,0-1.27,0C26.59,19.59,26.45,20,26.31,20.22Z"/><path class="cls-1" d="M46.37,28c.08-.15.15-.29.23-.42a18.15,18.15,0,0,0,2.35-8,18.4,18.4,0,0,0-2.88-11,17.36,17.36,0,0,0-3.25-3.8,1.07,1.07,0,0,0-.82-.2.7.7,0,0,0-.43.54,1.3,1.3,0,0,0,.39.8A17.14,17.14,0,0,1,45.31,27c-.17.3-.32.34-.63.23a6.22,6.22,0,0,0-5.45.67l-.34.2A12.74,12.74,0,0,0,41.78,12.9c-2.5-4.66-6.44-7.2-11.72-7-6.43.3-10.31,4-12,10.1a1.82,1.82,0,0,0-1.72,2.74c.2.52.48,1,.68,1.44l-3.3,1a1.75,1.75,0,0,1-.08-.33,17.66,17.66,0,0,1,.2-5.89A17.06,17.06,0,0,1,37.2,2.87c.8.34,1.56.79,2.33,1.2.33.18.69.21.9-.1a1.15,1.15,0,0,0,.12-.82c0-.17-.29-.33-.47-.43A18.14,18.14,0,0,0,24.47,1,18.47,18.47,0,0,0,12.28,21.83a1,1,0,0,1,0,.29,2.66,2.66,0,0,1,1.79-.64h0a2.58,2.58,0,0,1,1.8-.76,2.77,2.77,0,0,1,1.3-.3,3,3,0,0,1,.93.15,32,32,0,0,1,5.3-.06,3.41,3.41,0,0,1,.74-.09h.09a3,3,0,0,1,1.07-.2,2.65,2.65,0,0,1,1.67.54,2.46,2.46,0,0,1,.41.1l-1.08-.64c.14-.2.28-.63.55-.72a3.58,3.58,0,0,1,1.27,0,.27.27,0,0,1,.16.2c0,.58,0,1.15,0,1.71a2.71,2.71,0,0,1,.62.88l.1,0,.25.19,0,0a5.1,5.1,0,0,0,.3-.73,13.23,13.23,0,0,0,.25-2.35c.54,0,1.14,0,1.75,0s.86-.27.85-.73-.32-.7-.85-.7H29.69a.49.49,0,0,1-.37-.13,5.16,5.16,0,0,1-1-2.68,1.79,1.79,0,0,1,1.25-1.88A3.18,3.18,0,0,1,33.76,15a.69.69,0,0,0,.93.43.71.71,0,0,0,.4-.94,4.16,4.16,0,0,0-2.55-2.55A4.63,4.63,0,0,0,29,12a3.25,3.25,0,0,0-2,4c.16.65.44,1.28.67,2l-.3,0c-.15-1.16-.65-1.82-1.54-1.91a2.37,2.37,0,0,0-1,.15A.55.55,0,0,1,24,16a9.92,9.92,0,0,0-1-1.14,1.78,1.78,0,0,0-2.67,0c-.17.14-.32.29-.48.44l-.08,0c.1-.3.2-.6.31-.89a11.18,11.18,0,1,1,12.5,15.09,16.33,16.33,0,0,1-1.85.19h0a2.94,2.94,0,0,1,.72,1.78l.06-.34a13,13,0,0,0,7.21-2.94,6.45,6.45,0,0,0-2.28,4.08,17.2,17.2,0,0,0,0,1.9c0,.13-.08.36-.17.39a14.59,14.59,0,0,1-3.86.9,3.12,3.12,0,0,1,.3,1.51L37,36c.08.14.15.28.23.41A6.16,6.16,0,0,0,41,39.25a.71.71,0,1,0,.43-1.36l-.27-.09a4.89,4.89,0,1,1,3,0c-.63.21-.87.52-.73,1s.54.61,1.18.41a6.32,6.32,0,0,0,2.67-10.35C47,28.56,46.68,28.3,46.37,28ZM20.54,16.83a8.47,8.47,0,0,1,.68-.8c.31-.37.61-.34.91,0s.55.62.79.95a1.82,1.82,0,0,0,2.24.64,2.15,2.15,0,0,1,.57,0,2.77,2.77,0,0,1,0,.58,3.61,3.61,0,0,1-.26.61C25,19.88,24.35,20.6,23,20.35a7.94,7.94,0,0,0-1.38,0c-.8,0-1.6,0-2.39,0a.72.72,0,0,1-.55-.26c-.42-.65-.78-1.33-1.14-2a.42.42,0,0,1,.06-.42.47.47,0,0,1,.42,0A1.87,1.87,0,0,0,20.54,16.83Z"/><path class="cls-2" d="M34.75,24a3.71,3.71,0,0,0-.67,0H28.53c.22-.44.46-.84.67-1.25a1.71,1.71,0,0,1,0-.45,5.69,5.69,0,0,1-.87-.9v0l-1.55-.92a1.27,1.27,0,0,1-.28,0,1.16,1.16,0,0,1-.74-.25,6.43,6.43,0,0,1-1.1.1c-.21,0-.4,0-.6,0a2.31,2.31,0,0,1-1,0,7.94,7.94,0,0,0-1.38,0c-.8,0-1.6,0-2.39,0a.84.84,0,0,1-.33-.08,7.32,7.32,0,0,1-1.28.12,7,7,0,0,1-.93-.07l-2.88.89a5.5,5.5,0,0,1-1.59,1.05.63.63,0,0,1-.28.28c-1.1.7-2.19,1.42-3.29,2.13l-1,.62A1.6,1.6,0,0,0,5.93,24c-1.29,0-2.58,0-3.87,0A2,2,0,0,0,0,25v8c.23.34.51.6,1,.44s.49-.53.49-.94c0-2.17,0-4.33,0-6.5v-.55H6.21v14.1H1.43V38.4c0-.8,0-1.6,0-2.4,0-.4,0-.81-.44-1s-.71.08-1,.33V40a1.85,1.85,0,0,0,1.94,1.05c1.3-.05,2.61,0,3.92,0a1.67,1.67,0,0,0,1.82-1.13c1.12.57,2.22,1.13,3.31,1.7a.58.58,0,0,1,.19.39A7.05,7.05,0,0,0,17.4,48.6c.89.15,1.79.27,2.69.39h3.25a1.77,1.77,0,0,1,.31-.08c.93-.14,1.86-.23,2.79-.41a7,7,0,0,0,5.73-7.28.83.83,0,0,1,.23-.56,2.32,2.32,0,0,0,.78-2.11A9.4,9.4,0,0,0,32.61,37L33,36.9a3.31,3.31,0,0,1-.19-1.5l-.41.05a2.69,2.69,0,0,0-1.22-2.35l.35-2h.15c0-.05,0-.09,0-.14a2.85,2.85,0,0,1-.6-1.32l-.32,0a2.49,2.49,0,0,1-.64-.16,2.53,2.53,0,0,0-.15-3,3,3,0,0,0-2.77-.95v-.14a4.11,4.11,0,0,1,.6-.08l6.55.07a2,2,0,0,0,.43,0,.7.7,0,0,0,.62-.74A.68.68,0,0,0,34.75,24Zm-4.3,19.3A5.56,5.56,0,0,1,26,47.11a21.64,21.64,0,0,1-9,0,5.64,5.64,0,0,1-4.33-6.67,38.66,38.66,0,0,1,4-11.83,1.78,1.78,0,0,1,1.38-1c1.39-.24,2.77-.58,4.15-.88a2.39,2.39,0,0,1,.42,0,2.73,2.73,0,0,0-.09,2.86,2.54,2.54,0,0,0,1.66,4.71,2.62,2.62,0,0,0,1.09,3.28A2.58,2.58,0,0,0,25,39.37a2.53,2.53,0,0,0,2.56,2h3.09A3.89,3.89,0,0,1,30.45,43.3Zm1.31-4.46a1,1,0,0,1-1.06,1H27.45a1.06,1.06,0,0,1-1.05-1,1,1,0,0,1,1-1.07c1.13,0,2.26,0,3.39,0A1,1,0,0,1,31.76,38.84Zm-.9-3.55a1,1,0,0,1-1.08,1h-3.2a1,1,0,0,1-1.07-1,1,1,0,0,1,1-1.11c1.12,0,2.23,0,3.34,0A1,1,0,0,1,30.86,35.29Zm-.92-3.61a1.06,1.06,0,0,1-1.16,1.06H24a1.07,1.07,0,1,1,0-2.12h4.83A1,1,0,0,1,29.94,31.68Zm-2-4.6a1,1,0,0,1,1.07,1,1,1,0,0,1-.93,1.08c-1.17,0-2.35,0-3.52,0A1,1,0,0,1,23.7,28a1,1,0,0,1,1-1c.55,0,1.11,0,1.67,0S27.45,27.06,28,27.08ZM26.1,24.33,14.59,26.81c-.12,0-.25.05-.37.09a.72.72,0,0,0,.35,1.39c.21,0,.43-.08.72-.14a40,40,0,0,0-4,12C10.13,39.55,9,39,8,38.43A.56.56,0,0,1,7.73,38q0-5.35,0-10.71A.66.66,0,0,1,8,26.83q3.22-2.13,6.49-4.22a4.88,4.88,0,0,1,2.66-.79q4.35,0,8.7,0a1.22,1.22,0,0,1,1.32,1.1A1.26,1.26,0,0,1,26.1,24.33Z"/></g></g></svg>