<svg xmlns="http://www.w3.org/2000/svg" viewBox="0 0 79.2 79.18"><defs><style>.cls-1{fill:#48494a;}.cls-2{fill:#f57f20;}</style></defs><g id="Layer_2" data-name="Layer 2"><g id="Layer_1-2" data-name="Layer 1"><path class="cls-1" d="M29,60.69H4.29A4,4,0,0,1,0,56.38v-9.9a3.93,3.93,0,0,1,4.26-4.25h1V39.58H3.94A3.92,3.92,0,0,1,0,35.65q0-5.24,0-10.47a3.92,3.92,0,0,1,4-4.07H5.24V18.47H3.91A3.92,3.92,0,0,1,0,14.59Q0,9.24,0,3.87A3.88,3.88,0,0,1,3.91,0H51.49a3.89,3.89,0,0,1,3.93,3.92q0,5.24,0,10.47a3.93,3.93,0,0,1-4,4.07H50.19v2.64h1.25a3.74,3.74,0,0,1,3.48,2.09,1,1,0,0,0,1,.57,57.94,57.94,0,0,1,16.4,2.33,23.55,23.55,0,0,1,4.74,2.23,4.29,4.29,0,0,1,2.11,4q-.08,19.13,0,38.26a4.6,4.6,0,0,1-2.11,4A19.76,19.76,0,0,1,70,77.51a72.31,72.31,0,0,1-20.22,1.55A53.18,53.18,0,0,1,36.36,77a26.86,26.86,0,0,1-5.08-2.28A4.33,4.33,0,0,1,29,70.45C29.12,67.24,29,64,29,60.69Zm2.63,1.13v.9c0,2.48.08,5,0,7.42a2.49,2.49,0,0,0,1.64,2.73A52.55,52.55,0,0,0,39.46,75a53.42,53.42,0,0,0,11.41,1.42,68,68,0,0,0,18.65-1.57,18.13,18.13,0,0,0,6-2.36,2.08,2.08,0,0,0,1-1.92c0-2.66,0-5.33,0-8a3.71,3.71,0,0,0,0-.52c-2,.7-3.91,1.49-5.9,2a55,55,0,0,1-12.44,1.76,73.25,73.25,0,0,1-18.92-1.36A26,26,0,0,1,31.67,61.82ZM76.54,48.91c-2.21.74-4.37,1.63-6.61,2.19a69.63,69.63,0,0,1-19.79,1.6,54.64,54.64,0,0,1-12.6-1.79c-2-.55-3.91-1.36-5.87-2,0,2.6.09,5.32,0,8a2.58,2.58,0,0,0,1.74,2.83,55.27,55.27,0,0,0,6.12,2.11A53.33,53.33,0,0,0,50.9,63.24a67.49,67.49,0,0,0,18.64-1.57,18.15,18.15,0,0,0,6-2.37,1.93,1.93,0,0,0,1-1.85c-.06-.82,0-1.64,0-2.47Zm0-13.2c-2.21.75-4.36,1.64-6.6,2.19a69.34,69.34,0,0,1-19.8,1.6,54.71,54.71,0,0,1-12.6-1.78c-2-.56-3.9-1.36-5.87-2.06,0,2.47.13,5.05-.05,7.62a3.15,3.15,0,0,0,2.18,3.49l.59.28c4.7,2,9.68,2.57,14.69,2.92a74.32,74.32,0,0,0,15.13-.49A36.73,36.73,0,0,0,74,47c1.78-.76,2.81-1.8,2.61-4C76.37,40.55,76.54,38.05,76.54,35.71ZM27.74,15.84H51c1.34,0,1.8-.45,1.81-1.76V4.43c0-1.33-.46-1.79-1.78-1.79q-23.28,0-46.57,0c-1.36,0-1.8.45-1.8,1.84v9.4c0,1.55.4,1.95,1.94,1.95ZM53.31,26.36c-1.43.08-3.71.18-6,.34a43.1,43.1,0,0,0-11,2,20.79,20.79,0,0,0-4,1.93c-1,.61-.94,1.32,0,2a10.09,10.09,0,0,0,1.9,1.12c4.77,2,9.83,2.63,14.93,3a76,76,0,0,0,13.66-.33,39.52,39.52,0,0,0,10-2.22,14.7,14.7,0,0,0,2.95-1.58c.92-.63.86-1.28,0-2A3.17,3.17,0,0,0,75,30.1a41.2,41.2,0,0,0-4.34-1.72C65.3,26.81,59.74,26.48,53.31,26.36ZM29,37c0-1.75,0-3.39,0-5a3.28,3.28,0,0,1,1.16-2.78,16.13,16.13,0,0,1,3.14-2.08,34.49,34.49,0,0,1,10.23-2.62c2-.26,4-.42,6-.63v-.05H4.43c-1.33,0-1.79.45-1.79,1.78v9.56c0,1.43.44,1.86,1.88,1.86H29Zm0,7.91H4.47c-1.38,0-1.83.44-1.83,1.82v9.49c0,1.47.42,1.89,1.93,1.89H29ZM15.87,21.05H39.53V18.51H15.87ZM29,39.64H15.9v2.54H29ZM13.17,18.53H8v2.54h5.18Zm0,21.09H8v2.55h5.2Zm34.3-18.54V18.52H42.29v2.56Z"/><path class="cls-2" d="M52.8,72.52V70h2.56v2.52Z"/><path class="cls-2" d="M55.36,60.66H52.83V58.1h2.53Z"/><path class="cls-2" d="M55.36,46.14H52.83V43.58h2.53Z"/><path class="cls-2" d="M9.3,5.28c.83,0,1.65,0,2.48,0a1.28,1.28,0,0,1,1.41,1.44c0,1.68,0,3.35,0,5a1.28,1.28,0,0,1-1.41,1.44c-1.71,0-3.41,0-5.12,0a1.25,1.25,0,0,1-1.37-1.39c0-1.7,0-3.41,0-5.11a1.27,1.27,0,0,1,1.37-1.4C7.54,5.27,8.42,5.28,9.3,5.28ZM10.53,8H8V10.5h2.56Z"/><path class="cls-2" d="M23.75,9.3c0,.82,0,1.65,0,2.47a1.29,1.29,0,0,1-1.44,1.42h-5a1.28,1.28,0,0,1-1.43-1.42c0-1.71,0-3.41,0-5.11a1.26,1.26,0,0,1,1.39-1.38c1.71,0,3.41,0,5.11,0a1.28,1.28,0,0,1,1.4,1.38C23.77,7.54,23.75,8.42,23.75,9.3Zm-2.69,1.22V8H18.52v2.54Z"/><path class="cls-2" d="M26.45,5.32H44.82V7.85H26.45Z"/><path class="cls-2" d="M44.83,10.62v2.53H26.44V10.62Z"/><path class="cls-2" d="M47.53,7.84V5.34h2.56v2.5Z"/><path class="cls-2" d="M47.54,13.15V10.61h2.55v2.54Z"/><path class="cls-2" d="M23.75,30.37c0,.83,0,1.65,0,2.48a1.28,1.28,0,0,1-1.4,1.45c-1.71,0-3.41,0-5.12,0a1.26,1.26,0,0,1-1.38-1.38c0-1.71,0-3.41,0-5.12a1.26,1.26,0,0,1,1.44-1.4c1.68,0,3.35,0,5,0a1.28,1.28,0,0,1,1.43,1.42C23.76,28.67,23.75,29.52,23.75,30.37Zm-2.68,1.26V29.08H18.54v2.55Z"/><path class="cls-2" d="M13.2,30.39c0,.86,0,1.71,0,2.56a1.26,1.26,0,0,1-1.34,1.35c-1.73,0-3.46,0-5.19,0a1.27,1.27,0,0,1-1.37-1.41c0-1.7,0-3.4,0-5.11A1.25,1.25,0,0,1,6.67,26.4c1.71,0,3.41,0,5.11,0a1.27,1.27,0,0,1,1.41,1.44C13.21,28.69,13.2,29.54,13.2,30.39Zm-2.69,1.26V29.08H8v2.57Z"/><path class="cls-2" d="M13.2,51.52c0,.83,0,1.65,0,2.48a1.28,1.28,0,0,1-1.44,1.41c-1.67,0-3.35,0-5,0A1.28,1.28,0,0,1,5.29,54c0-1.7,0-3.41,0-5.11a1.26,1.26,0,0,1,1.4-1.37c1.7,0,3.4,0,5.11,0a1.26,1.26,0,0,1,1.39,1.37C13.21,49.76,13.2,50.64,13.2,51.52Zm-2.69,1.22V50.2H8v2.54Z"/><path class="cls-2" d="M15.84,51.4c0-.85,0-1.7,0-2.55a1.24,1.24,0,0,1,1.34-1.34c1.73,0,3.47,0,5.2,0a1.27,1.27,0,0,1,1.36,1.41c0,1.7,0,3.4,0,5.11a1.27,1.27,0,0,1-1.39,1.38c-1.7,0-3.41,0-5.11,0A1.29,1.29,0,0,1,15.84,54C15.83,53.11,15.84,52.26,15.84,51.4Zm2.67-1.23v2.56h2.56V50.17Z"/></g></g></svg>