<svg xmlns="http://www.w3.org/2000/svg" viewBox="0 0 138.68 138.71"><defs><style>.cls-1{fill:#48494a;}.cls-2{fill:#f57f20;}.cls-3{fill:#494949;}</style></defs><g id="Layer_2" data-name="Layer 2"><g id="Layer_1-2" data-name="Layer 1"><path class="cls-1" d="M60.36,17.89h53.78c2.1,0,2.1,0,2.1-2.06v-14c0-1.75.1-1.84,1.8-1.85,3.35,0,6.7,0,10,0a10.82,10.82,0,0,1,10.58,10.66q0,28.22,0,56.44,0,19.06,0,38.13a10.83,10.83,0,0,1-11.14,11.09q-25.77,0-51.54,0c-2.14,0-2.14,0-2.15,2.17q0,9.15,0,18.3c0,1.81-.07,1.87-1.89,1.89-2.66,0-2.66,0-2.66-2.66V107.39c0-.51,0-1,0-1.53-.15-2.08-.86-2.87-3-2.9-3.91-.07-7.83-.07-11.74,0-2.3,0-3,.89-3.06,3.39,0,6.28,0,12.57,0,18.85,0,4,0,7.92,0,11.88,0,1.19-.4,1.64-1.62,1.64-3,0-3,0-3-3,0-5.77,0-11.54,0-17.32,0-2.1,0-2.1-2.06-2.1H7.17c-4.66,0-7.17-2.5-7.17-7.16V25.08c0-4.67,2.5-7.19,7.14-7.19Zm0,31.38H6.43c-1.84,0-1.87,0-1.87,1.88q0,28.35,0,56.71c0,3.19.7,3.91,3.82,3.91,5.91,0,11.83,0,17.74,0,6.42,0,12.85,0,19.27,0,1.13,0,1.62-.34,1.57-1.52-.07-1.67,0-3.35,0-5a6.13,6.13,0,0,1,2.21-5.2,1.23,1.23,0,0,0,.26-1.88c-1.58-2.57-3.07-5.21-4.66-7.78A1.66,1.66,0,0,1,45,88a54.63,54.63,0,0,0,11.07-15.3,1.81,1.81,0,0,1,1.88-1.12c1.63,0,3.26,0,4.89,0a1.89,1.89,0,0,1,2,1.21,53.7,53.7,0,0,0,11,15.18,1.76,1.76,0,0,1,.26,2.57c-1.6,2.57-3.1,5.2-4.69,7.77a1.14,1.14,0,0,0,.27,1.76,6.15,6.15,0,0,1,2.24,5.18c-.07,1.49,0,3,0,4.47,0,2.1,0,2.11,2.07,2.11h48.61a31.77,31.77,0,0,0,3.89-.26,6.33,6.33,0,0,0,5.46-6.38,6.11,6.11,0,0,0-5.41-6.38c-3.33-.26-6.69-.23-10-.29-2.18,0-2.19,0-2.19-2.16V51.74c0-2.47,0-2.47-2.4-2.47Zm.06-4.55h53.91c1.9,0,1.92,0,1.92-1.83,0-6.24,0-12.48,0-18.71,0-1.36-.46-1.75-1.78-1.75q-53.08,0-106.16,0c-3,0-3.76.74-3.77,3.83,0,5.44,0,10.89,0,16.34,0,2.09,0,2.09,2.07,2.09Zm73.72,51.2V93.76q0-39.87,0-79.75a33.32,33.32,0,0,0-.24-3.61,6.27,6.27,0,0,0-5.56-5.57c-1.94-.2-3.9-.15-5.85-.28-1.27-.09-1.69.38-1.69,1.67q0,43,0,86c0,1.31.47,1.64,1.71,1.66C126.35,94,130.35,93.18,134.13,95.92Zm-76-16.36C55.54,82.85,53,86,50.64,89.14a2,2,0,0,0,0,1.71c1.22,2.19,2.51,4.35,3.89,6.44a2.56,2.56,0,0,0,1.74,1c2.7.1,5.4.11,8.09,0a2.69,2.69,0,0,0,1.88-1c1.39-2.09,2.59-4.3,3.93-6.43a1.46,1.46,0,0,0-.21-2c-2.21-2.81-4.33-5.69-6.49-8.54l-.84-1.13V91c0,3.06,0,3-3.06,3-1.19,0-1.53-.51-1.51-1.61,0-3,0-6,0-8.93Z"/><path class="cls-2" d="M60.42,53.69c1.77,0,3.54,0,5.31,0,1,0,1.37.43,1.41,1.42.08,2.88.12,2.83,2.88,3.45,11.62,2.61,19.42,9.5,23.27,20.82a3.81,3.81,0,0,0,1.58,1.75A6.82,6.82,0,0,1,98.4,88a6.27,6.27,0,0,1-3.88,5.38,6.8,6.8,0,0,1-8.82-2.89c-1.26-2.22-1.31-6.51,1.93-8.75.8-.55,1.16-1,.76-2-3.63-9-10.15-14.59-19.73-16.54-1.21-.25-1.56.11-1.56,1.3,0,2.64,0,2.64-2.67,2.64-3.07,0-6.15,0-9.22,0-1.15,0-1.54-.44-1.55-1.57,0-2.77-.07-2.8-2.79-2.12C42.07,65.65,36,71,32.54,79.37a1.69,1.69,0,0,0,.64,2.44A6.75,6.75,0,0,1,30,93.94c-3.33.23-6-1.07-7.12-3.81a6.75,6.75,0,0,1,3.07-9,3.16,3.16,0,0,0,1.58-2q6-17.31,24.08-20.79c2-.39,2-.32,2-2.37,0-2.35,0-2.36,2.41-2.36Z"/><path class="cls-1" d="M17.85,67.15c-2.46,0-4.92,0-7.38,0-1.16,0-1.56-.45-1.54-1.57,0-3.49,0-7,0-10.46,0-1.06.38-1.5,1.47-1.49q7.53,0,15.06,0c1.09,0,1.47.44,1.46,1.5,0,3.48,0,7,0,10.45,0,1.13-.38,1.59-1.54,1.57C22.87,67.12,20.36,67.15,17.85,67.15Z"/><path class="cls-2" d="M15.55,40.33c-1.72,0-3.44,0-5.16,0-1,0-1.46-.31-1.45-1.36,0-3.62,0-7.25,0-10.87,0-.87.36-1.28,1.25-1.28q5.51,0,11,0c.89,0,1.24.42,1.24,1.28,0,3.63,0,7.25,0,10.87,0,1.06-.5,1.37-1.46,1.36C19.17,40.3,17.36,40.33,15.55,40.33Zm2.33-6.72c0-2.22,0-2.22-2.06-2.22-2.32,0-2.32,0-2.32,2.09,0,2.29,0,2.29,2.13,2.29S17.88,35.78,17.88,33.61Z"/><path class="cls-2" d="M33.61,26.84c1.81,0,3.63,0,5.44,0,.87,0,1.27.36,1.27,1.25q0,5.51,0,11c0,.89-.42,1.24-1.28,1.24-3.62,0-7.25,0-10.87,0-.93,0-1.35-.36-1.35-1.32q0-5.43,0-10.87c0-1,.43-1.32,1.36-1.31C30,26.86,31.8,26.84,33.61,26.84Zm2.16,6.77c0-2.22,0-2.22-2.06-2.22-2.33,0-2.33,0-2.33,2.09,0,2.29,0,2.29,2.13,2.29S35.77,35.78,35.77,33.61Z"/><path class="cls-2" d="M58.2,33.72c0,1.72,0,3.44,0,5.16,0,1-.3,1.46-1.35,1.46-3.63,0-7.25,0-10.87,0-.87,0-1.28-.36-1.28-1.24q0-5.51,0-11c0-.89.41-1.25,1.28-1.25,3.62,0,7.25,0,10.87,0,1,0,1.37.49,1.35,1.46C58.18,30.1,58.2,31.91,58.2,33.72Zm-4.55-.13c0-2.2,0-2.2-2.08-2.2-2.3,0-2.3,0-2.31,2.11s0,2.27,2.15,2.27S53.65,35.78,53.65,33.59Z"/><path class="cls-3" d="M127.51,9c2.23,0,2.23,0,2.23,2.36,0,2.2,0,2.2-2.4,2.19-2.16,0-2.16,0-2.16-2.43C125.19,9,125.19,9,127.51,9Z"/><path class="cls-3" d="M129.74,20.22c0,2.23,0,2.23-2.36,2.23-2.2,0-2.2,0-2.2-2.4,0-2.16,0-2.16,2.43-2.16C129.74,17.9,129.74,17.9,129.74,20.22Z"/><path class="cls-3" d="M127.55,26.83c2.19,0,2.19,0,2.19,2.4,0,2.16,0,2.16-2.43,2.16-2.13,0-2.13,0-2.13-2.47C125.19,26.83,125.19,26.83,127.55,26.83Z"/></g></g></svg>