<svg xmlns="http://www.w3.org/2000/svg" viewBox="0 0 257.51 32.1"><defs><style>.cls-1{fill:#fff;}.cls-2{fill:#4368b1;}.cls-3{fill:#429cd6;}.cls-4{fill:#c13685;}.cls-5{fill:#0a88ca;}.cls-6{fill:#085e54;}.cls-7{fill:#0077b5;}</style></defs><g id="Layer_2" data-name="Layer 2"><g id="Layer_1-2" data-name="Layer 1"><g id="icon-sprite"><g id="fb"><circle class="cls-1" cx="16.05" cy="16.05" r="16.05"/><path class="cls-2" d="M15,.83h2.14L18.16,1A14.82,14.82,0,0,1,25,3.75a15,15,0,0,1,6,9.61c.1.54.16,1.07.24,1.61v2.08c-.08.56-.13,1.12-.24,1.67a15.05,15.05,0,0,1-9.13,11.37c-.52.23-1.06.39-1.63.59V19.39h3.27L24,15.6H20.27c0-1,0-2,0-3a1.21,1.21,0,0,1,1.09-1.19,6.37,6.37,0,0,1,1.15-.09c.53,0,1.05,0,1.58,0V7.86c-1.19,0-2.36-.06-3.54,0a4.15,4.15,0,0,0-2.2.7,4.45,4.45,0,0,0-2,3.74c-.05,1,0,2,0,3,0,.11,0,.22,0,.36H13.07V19.4H16.3V31.27c-.64,0-1.26,0-1.87-.1a14.52,14.52,0,0,1-7.29-2.81A14.92,14.92,0,0,1,1,13.93,14.3,14.3,0,0,1,4.49,6.15a14.88,14.88,0,0,1,8.9-5.08C13.92,1,14.45.91,15,.83Z"/></g><g id="tw"><circle class="cls-1" cx="61.13" cy="16.05" r="15.46"/><path class="cls-3" d="M62.15,30.5h-2l-.24-.05c-.49-.07-1-.1-1.45-.2a14.13,14.13,0,0,1-8.68-5.31A14.1,14.1,0,0,1,46.82,14a13.68,13.68,0,0,1,3.36-7.4,14.17,14.17,0,0,1,13-4.9,13.67,13.67,0,0,1,7.37,3.32,14.19,14.19,0,0,1,4.86,8.48c.09.5.15,1,.22,1.5v2c-.06.46-.11.91-.19,1.37A14.29,14.29,0,0,1,71,26.63a14.17,14.17,0,0,1-7.3,3.65C63.17,30.37,62.66,30.43,62.15,30.5Zm-8.86-9.24.28.19a9.33,9.33,0,0,0,4.76,1.27,9.08,9.08,0,0,0,5-1.39,9.44,9.44,0,0,0,4.39-7.7,1.48,1.48,0,0,1,.59-1.27,9.06,9.06,0,0,0,1-1.1l-.07-.06-.55.2q-.28.09-.57.15l-.55.1A3.68,3.68,0,0,0,68.88,10l-1.81.64a.35.35,0,0,1-.4-.1,3.31,3.31,0,0,0-5.35,1.24,3.54,3.54,0,0,0-.14,1.94,9.52,9.52,0,0,1-6.84-3.45,3.25,3.25,0,0,0-.43,1.93,3.38,3.38,0,0,0,1.4,2.44l-.05.08-1.39-.39a3.35,3.35,0,0,0,2.57,3.22l0,.07H55a3.43,3.43,0,0,0,3.1,2.31A6.84,6.84,0,0,1,53.29,21.26Z"/></g><circle class="cls-1" cx="106.22" cy="16.05" r="16.05"/><path class="cls-4" d="M107.28,31.29h-2.15l-1-.13A15.29,15.29,0,0,1,91.2,18.74c-.09-.54-.16-1.08-.23-1.61V15c0-.19,0-.37.07-.56a14.78,14.78,0,0,1,2.44-6.75A15,15,0,0,1,105.39.84a14.8,14.8,0,0,1,8.46,2,15.31,15.31,0,0,1,7.4,15.7,15.11,15.11,0,0,1-4.73,8.71,14.93,14.93,0,0,1-7.63,3.79C108.35,31.15,107.81,31.22,107.28,31.29Zm7.62-15.23h.1c0-1.43-.08-2.86-.17-4.28a4.63,4.63,0,0,0-1-2.58,4.85,4.85,0,0,0-4-1.82c-2.44,0-4.88,0-7.32,0a5.18,5.18,0,0,0-3.17,1,4.86,4.86,0,0,0-1.86,4c0,2.44,0,4.88,0,7.32a5.23,5.23,0,0,0,1,3.17,4.88,4.88,0,0,0,4,1.86c2.44,0,4.88,0,7.32,0a5.17,5.17,0,0,0,3.17-1,4.92,4.92,0,0,0,1.86-4C114.93,18.52,114.9,17.29,114.9,16.06Z"/><path class="cls-4" d="M99,16.06c0-1.37.07-2.74.15-4.1a3,3,0,0,1,3-3c2.59-.08,5.18-.06,7.76-.05a3.73,3.73,0,0,1,2.12.6,3,3,0,0,1,1.3,2.43c.08,2.19.09,4.38.09,6.57a9.67,9.67,0,0,1-.19,2.15,2.91,2.91,0,0,1-2.87,2.43c-2.21.08-4.42.08-6.63.09a11.27,11.27,0,0,1-2-.15,3,3,0,0,1-2.53-2.9c0-.68-.08-1.37-.09-2.05s0-1.37,0-2.05Zm7.21-4.48a4.48,4.48,0,1,0,4.5,4.46A4.44,4.44,0,0,0,106.19,11.58Zm4.69.85a1,1,0,1,0-1-1A1,1,0,0,0,110.88,12.43Z"/><path class="cls-4" d="M109.12,16.08a2.92,2.92,0,1,1-2.88-2.94A2.89,2.89,0,0,1,109.12,16.08Z"/><g id="tel"><circle class="cls-1" cx="196.38" cy="16.05" r="16.05"/><path class="cls-5" d="M197.44,31.23H195.3l-1.05-.13a15.24,15.24,0,0,1-12.82-12.34c-.1-.54-.16-1.09-.24-1.64V15c.06-.41.11-.82.17-1.23a14.47,14.47,0,0,1,4.32-8.47,14.8,14.8,0,0,1,14-4,15.18,15.18,0,0,1,11.71,17.31,15,15,0,0,1-4.74,8.7A14.79,14.79,0,0,1,199,31C198.51,31.09,198,31.16,197.44,31.23Zm-1.28-10.37.25.18,3.32,2.44c.88.65,1.41.44,1.63-.62q1.11-5.25,2.23-10.49a11.48,11.48,0,0,0,.25-1.63.68.68,0,0,0-.9-.69,1.93,1.93,0,0,0-.34.11l-11.45,4.41c-1.07.41-2.15.83-3.22,1.26-.26.1-.56.25-.54.59s.34.43.61.52L191.44,18a.57.57,0,0,0,.52-.08l5.28-3.33c1.06-.66,2.1-1.33,3.17-2a1.53,1.53,0,0,1,.54-.09,1.59,1.59,0,0,1-.26.41q-3.3,3-6.62,6a.7.7,0,0,0-.26.53c0,.49-.06,1-.09,1.48-.05.68-.09,1.35-.14,2l.07.08a3.45,3.45,0,0,0,.64-.4C194.93,22.07,195.54,21.46,196.16,20.86Z"/></g><g id="wt"><circle class="cls-1" cx="241.46" cy="16.05" r="16.05"/><path class="cls-6" d="M256.57,15.05v2a2.44,2.44,0,0,0-.06.26c-.09.62-.13,1.25-.27,1.86a14.89,14.89,0,0,1-4.58,8A14.77,14.77,0,0,1,243.74,31c-.42.07-.85.12-1.27.18h-2L239.3,31a14.8,14.8,0,0,1-5.89-2.18.58.58,0,0,0-.54-.07l-4.4,1.41-1.12.36c.05-.14.08-.24.11-.33.55-1.66,1.11-3.33,1.67-5a.53.53,0,0,0-.06-.54,15.06,15.06,0,0,1-2.39-11.73A15.15,15.15,0,0,1,243.05,1a14,14,0,0,1,6,2A15,15,0,0,1,256.4,13.8C256.47,14.21,256.51,14.63,256.57,15.05Zm-10.18,9.53,0-.1a3.23,3.23,0,0,0,.44,0,6.76,6.76,0,0,0,.78-.17c2.12-.73,2.88-1.75,2.93-3.76a.61.61,0,0,0-.38-.63c-1.13-.54-2.24-1.09-3.37-1.61a.9.9,0,0,0-1.3.35c-.28.39-.57.78-.86,1.16a1,1,0,0,1-1.53.39,11.94,11.94,0,0,1-5.76-5.11.63.63,0,0,1,.08-.88c.3-.36.61-.7.91-1.05a1.18,1.18,0,0,0,.22-1.38c-.44-1-.86-1.95-1.23-3a1.29,1.29,0,0,0-1.45-1,2.48,2.48,0,0,0-1.64.54,4.83,4.83,0,0,0-1.48,4.45,8.6,8.6,0,0,0,1.6,3.63,22.31,22.31,0,0,0,4.54,5,15.91,15.91,0,0,0,5.34,2.65C245,24.29,245.68,24.41,246.39,24.58Z"/></g><g id="in"><circle class="cls-1" cx="151.3" cy="16.05" r="16.05"/><path class="cls-7" d="M166.34,15V17.1a2.44,2.44,0,0,0-.06.26c-.07.5-.1,1-.2,1.51a14.72,14.72,0,0,1-5.55,9,14.64,14.64,0,0,1-12.05,2.91,14.37,14.37,0,0,1-8.21-4.56A14.7,14.7,0,0,1,136.4,14a14.32,14.32,0,0,1,3.49-7.71,14.77,14.77,0,0,1,8.79-5c.52-.09,1-.16,1.56-.23h2.11c.48.06,1,.11,1.42.19A14.73,14.73,0,0,1,161,4.59a14.75,14.75,0,0,1,5.08,8.84C166.2,14,166.26,14.47,166.34,15ZM152.6,23.73v-.37c0-1.91,0-3.81,0-5.72a2.3,2.3,0,0,1,.51-1.58,1.88,1.88,0,0,1,2-.65,1.6,1.6,0,0,1,1.25,1.33,3.65,3.65,0,0,1,.12.87c0,1.93,0,3.86,0,5.78v.34h3.65v-.36c0-1.73,0-3.46,0-5.2a16.7,16.7,0,0,0-.07-1.87,4,4,0,0,0-3.73-3.81A3.65,3.65,0,0,0,152.81,14l-.21.26V12.75H149v11Zm-9.31-11v11h3.6v-11Zm1.91-5.34a1.94,1.94,0,0,0-2.1,2.34,1.77,1.77,0,0,0,1.45,1.4,2.1,2.1,0,0,0,2.23-.69,1.82,1.82,0,0,0,.16-2A1.89,1.89,0,0,0,145.2,7.41Z"/></g></g></g></g></svg>