<svg xmlns="http://www.w3.org/2000/svg" viewBox="0 0 49.39 49.41"><defs><style>.cls-1{fill:#48494a;}.cls-2{fill:#f57f20;}</style></defs><g id="Layer_2" data-name="Layer 2"><g id="Layer_1-2" data-name="Layer 1"><path class="cls-1" d="M49.39,44.88v3.76l-.77.77H44.86c-.86-.38-.8-1.17-.78-1.9H27.36a1.73,1.73,0,0,1-.74,1.9H22.77C22,49,22,48.25,22,47.51H5.3c0,.77.07,1.52-.76,1.9H.77A1.28,1.28,0,0,1,0,48.29c0-1,0-2.06,0-3.09a1.08,1.08,0,0,1,1.1-1.09H1.9V27.39H1.35C.42,27.37,0,27,0,26V23.28a1.13,1.13,0,0,1,1.18-1.23c.24,0,.47,0,.72,0V5.32H1.23A1.12,1.12,0,0,1,0,4.1c0-1,0-2,0-2.94A1.06,1.06,0,0,1,1.15,0h3A1.07,1.07,0,0,1,5.3,1.15c0,.25,0,.5,0,.77H22V1.28A1.16,1.16,0,0,1,23.31,0h2.8a1.15,1.15,0,0,1,1.26,1.21c0,.23,0,.47,0,.69H44.09c0-.22,0-.41,0-.6,0-.89.4-1.29,1.29-1.3s1.7,0,2.55,0a1.41,1.41,0,0,1,1.46.78V4.55c-.38.86-1.17.79-1.9.78V22.07a1.68,1.68,0,0,1,1.9.71v3.86c-.43.76-1.16.79-1.91.76V44.13C48.26,44,49,44.05,49.39,44.88ZM44.06,3.41H27.37v.65a1.16,1.16,0,0,1-1.3,1.26h-2.8A1.13,1.13,0,0,1,22,4.14c0-.23,0-.47,0-.72H5.47C5.29,4,5.27,4.65,4.93,5s-1,.34-1.52.49V22H4A1.15,1.15,0,0,1,5.3,23.36c0,.92,0,1.84,0,2.75a1.15,1.15,0,0,1-1.24,1.28H3.41V44c.56.16,1.21.17,1.53.5s.35,1,.52,1.55H22v-.64a1.16,1.16,0,0,1,1.31-1.26h2.79a1.12,1.12,0,0,1,1.24,1.17c0,.24,0,.47,0,.72H43.92c.18-.58.2-1.23.54-1.54s1-.34,1.52-.49V27.39h-.57a1.17,1.17,0,0,1-1.32-1.33c0-.94,0-1.87,0-2.8a1.11,1.11,0,0,1,1.15-1.21c.24,0,.5,0,.75,0V5.36C44.19,5.15,44.19,5.15,44.06,3.41ZM1.47,1.48V3.85H3.83V1.48Zm46.45,0H45.57V3.85h2.35ZM3.83,48V45.57H1.47V48Zm44.09,0V45.58H45.56v2.36ZM25.84,3.85V1.5h-2.3V3.85Zm-22,22V23.57H1.49v2.32Zm44.09,0V23.56H45.56v2.32ZM23.53,47.94h2.32V45.59H23.53Z"/><path class="cls-1" d="M48.62,49.41l.77-.77v.77Z"/><path class="cls-1" d="M34.55,11.77a3,3,0,0,0-3.07-2.12q-6.77,0-13.51,0a3,3,0,0,0-3.11,2.09l.41,0h3.57c.55,0,.84.25.84.71s-.3.74-.86.74H14.39a.64.64,0,0,0-.65.36Q11,18.41,8.19,23.22a2.76,2.76,0,0,0,0,3q2.87,4.94,5.7,9.89a.65.65,0,0,0,.64.37H34.88a.58.58,0,0,0,.6-.35l2-3.51a.75.75,0,0,1,.91-.44.72.72,0,0,1,.39,1.1c-1.17,2-2.32,4.11-3.55,6.12a3.77,3.77,0,0,1-3.33,1.81H17.65A4.06,4.06,0,0,1,13.9,39q-2.57-4.41-5.11-8.84l-1.9-3.29a4.09,4.09,0,0,1,0-4.35q3.51-6.09,7-12.17a4,4,0,0,1,3.72-2.16H31.77a4,4,0,0,1,3.69,2.13Q39,16.46,42.53,22.6a4,4,0,0,1,0,4.22C41.93,27.89,41.31,29,40.69,30c-.31.53-.7.68-1.1.45s-.47-.65-.17-1.17c.59-1,1.17-2.07,1.78-3.09a2.78,2.78,0,0,0,0-3q-2.79-4.81-5.56-9.64a.63.63,0,0,0-.64-.36H22.71a2.57,2.57,0,0,1-.48,0,.7.7,0,0,1-.61-.75.67.67,0,0,1,.68-.68H34.55ZM34.39,38H15a2.66,2.66,0,0,0,2.6,1.81q7.07,0,14.12,0A2.73,2.73,0,0,0,34.39,38Z"/><path class="cls-2" d="M25.21,34.27h-4a2,2,0,1,1,0-4h8a2,2,0,1,1,0,4Zm0-1.45h4c.34,0,.62-.1.64-.49s-.27-.54-.63-.57H21.39c-.38,0-.73,0-.76.52s.23.54.75.54Z"/><path class="cls-2" d="M25.21,19.22c-1.41,0-2.83,0-4.24,0A1.81,1.81,0,0,1,19.3,18a1.87,1.87,0,0,1,.31-2,1.93,1.93,0,0,1,1.56-.72h8.11a2,2,0,0,1,2,2,2,2,0,0,1-2,2c-1.36,0-2.73,0-4.1,0Zm.05-1.45h4c.32,0,.54-.13.57-.46s-.18-.52-.51-.57a1,1,0,0,0-.24,0H21.37c-.53,0-.77.18-.74.54s.36.51.73.51Z"/><path class="cls-2" d="M19.27,21.31a3.4,3.4,0,1,1-3.44,3.38A3.4,3.4,0,0,1,19.27,21.31Zm0,1.46a1.94,1.94,0,1,0,1.95,1.93A2,2,0,0,0,19.26,22.77Z"/><path class="cls-2" d="M34.43,28.11a3.4,3.4,0,1,1,3.39-3.39A3.39,3.39,0,0,1,34.43,28.11Zm0-5.34a1.94,1.94,0,1,0,1.93,1.93A1.92,1.92,0,0,0,34.44,22.77Z"/><path class="cls-2" d="M28.47,25.45a6.11,6.11,0,0,1-.75,0,.7.7,0,0,1-.7-.76.69.69,0,0,1,.71-.7,12.51,12.51,0,0,1,1.5,0A.85.85,0,0,1,30.06,25a3.05,3.05,0,0,1-3,3.07,3.41,3.41,0,1,1,1.59-6.38c.52.3.69.69.47,1.1s-.63.48-1.17.2a1.94,1.94,0,0,0-2.91,1.79,2,2,0,0,0,2.32,1.8A1.47,1.47,0,0,0,28.47,25.45Z"/><path class="cls-2" d="M13,26.65h1.07a.74.74,0,0,1,.79.73.7.7,0,0,1-.78.73c-.56,0-1.13,0-1.69,0a.78.78,0,0,1-.84-.89c0-1.7,0-3.4,0-5.1,0-.51.26-.79.7-.8a.71.71,0,0,1,.75.8c0,1.32,0,2.63,0,3.95Z"/></g></g></svg>