<svg xmlns="http://www.w3.org/2000/svg" viewBox="0 0 46.99 49.45"><defs><style>.cls-1{fill:#48494a;}.cls-2{fill:#f57f20;}</style></defs><g id="Layer_2" data-name="Layer 2"><g id="Layer_1-2" data-name="Layer 1"><path class="cls-1" d="M28.77,38a3.8,3.8,0,0,1-.12-.74.84.84,0,0,1-.19.09A13.18,13.18,0,1,1,22,11.84a13,13,0,0,1,6.48.25c.27.07.43.19.38.49v.07A3.89,3.89,0,0,1,29,11.8a4.48,4.48,0,0,1-.25-1.39c-5.33-1.27-10.06-.24-14.1,3.41a14.12,14.12,0,0,0-4.78,10.5,14.3,14.3,0,0,0,5.76,12.12,14.63,14.63,0,0,0,13,2.61A4.53,4.53,0,0,1,28.77,38Z"/><path class="cls-1" d="M31.22,42.82A3.65,3.65,0,0,1,30.1,42l-1.3.36a.88.88,0,0,0-.78,1c0,1.44,0,2.89,0,4.36H21.44v-1.3c0-1,0-2.09,0-3.14a.84.84,0,0,0-.68-.92A18.9,18.9,0,0,1,15,40a.84.84,0,0,0-1.13.21L11.11,43l-.32.3L6.13,38.66,9,35.82c.73-.72.74-.88.23-1.74A17.78,17.78,0,0,1,7.13,29c-.2-.86-.39-1-1.3-1H2.17l-.5,0V21.44H6c.69,0,.94-.18,1.09-.84a18.61,18.61,0,0,1,2.28-5.49.84.84,0,0,0-.15-1.25l-3-3,4.66-4.67,2.94,3c.54.53.79.56,1.44.16A17.68,17.68,0,0,1,20.5,7.12c.77-.17.94-.41.94-1.21V1.68H28v1C28,3.85,28,5,28,6.1a.84.84,0,0,0,.75,1l1.3.36a2.19,2.19,0,0,1,.25-.2A4.24,4.24,0,0,1,31,6.3c.09-.09.19-.16.29-.25-.53-.14-1-.33-1.58-.51,0-1.3,0-2.57,0-3.84A1.62,1.62,0,0,0,27.92,0H21.64a1.66,1.66,0,0,0-1.86,1.87c0,1.12,0,2.23,0,3.34a.41.41,0,0,1-.35.47A17.52,17.52,0,0,0,15,7.5c-.27.17-.42.09-.61-.1C13.62,6.6,12.83,5.82,12,5A1.64,1.64,0,0,0,9.46,5Q7.23,7.23,5,9.46A1.65,1.65,0,0,0,5,12c.77.78,1.53,1.56,2.33,2.32a.51.51,0,0,1,.09.73,15.18,15.18,0,0,0-.89,1.81c-.38.93-.7,1.89-1.06,2.88H5c-1.14,0-2.28,0-3.43,0A1.57,1.57,0,0,0,0,21.41q0,3.33,0,6.66A1.58,1.58,0,0,0,1.18,29.6a3.13,3.13,0,0,0,.81.07H5.57a20.94,20.94,0,0,0,2,4.9c.06.1,0,.35-.14.46-.78.81-1.58,1.6-2.38,2.4A1.65,1.65,0,0,0,5,40c1.49,1.49,3,3,4.48,4.47a1.64,1.64,0,0,0,2.54,0c.78-.77,1.56-1.54,2.32-2.33a.51.51,0,0,1,.73-.12,26.77,26.77,0,0,0,2.48,1.17c.72.3,1.47.51,2.23.77,0,1.13,0,2.24,0,3.34A2,2,0,0,0,21,49.45h7.53a2,2,0,0,0,1.2-2.19c-.07-1.12,0-2.24,0-3.37a8,8,0,0,0,1.14-.36.77.77,0,0,1,1.08.24,1.87,1.87,0,0,0,.88.63v0A4.05,4.05,0,0,1,31.22,42.82Z"/><path class="cls-2" d="M28.63,26c.15-.32.28-.43.61-.43,3.05,0,6.09,0,9.13,0l.42,0c.86,2.31,2.56,3.53,4.5,3.24a4.12,4.12,0,0,0,.61-8.09,4,4,0,0,0-2.73.22,4.23,4.23,0,0,0-2.38,2.92h-9.6c-.16,0-.43-.09-.46-.19a4.65,4.65,0,0,0-1.32-2.09l.13-.29c.83-1.52,1.66-3.05,2.51-4.56a.55.55,0,0,1,.41-.23c.73,0,1.48,0,2.22,0,.27,0,.38.07.47.34a4.12,4.12,0,1,0,3.48-5.27,4.05,4.05,0,0,0-3.5,2.9c-.05.14-.21.33-.32.33-.75,0-1.5,0-2.23,0,0-.09-.06-.12-.06-.15,0-1.69,0-3.38,0-5.07a.58.58,0,0,1,.17-.36c.82-.83,1.63-1.65,2.46-2.46a.57.57,0,0,1,.37-.18h3.61A4.18,4.18,0,0,0,42,9.82a4.13,4.13,0,0,0-.19-8.14,4.19,4.19,0,0,0-4.68,3.25c-1,0-2.05.05-3.07,0a2.6,2.6,0,0,0-2.39,1,.53.53,0,0,1-.4.18L30.94,6a7.33,7.33,0,0,1-1.08,1.41l.31.08a2.74,2.74,0,0,0-1.29,3l-.21,0a4.74,4.74,0,0,1,0,1.8.33.33,0,0,1,.16.39.34.34,0,0,0,0,.1,7.27,7.27,0,0,1-1.27,5.14,33.64,33.64,0,0,0-1.63,2.95,4,4,0,0,0-4.68,1.75,3.8,3.8,0,0,0,0,4.41,4,4,0,0,0,4.68,1.75l2.83,5.21a1,1,0,0,1,.07.42c0,.85,0,1.71,0,2.56a.42.42,0,0,1-.31.46,9.73,9.73,0,0,1,0,1.08c0,.22,0,.44,0,.66l.31-.07a2.66,2.66,0,0,0,1.33,3L30,42a6.88,6.88,0,0,1,1.6,1.49,1.11,1.11,0,0,1,.25.24,2,2,0,0,0,1.78.76c1.16,0,2.32,0,3.47,0a4.16,4.16,0,0,0,4.62,3.25A4.13,4.13,0,0,0,42,39.63a4.17,4.17,0,0,0-4.86,3.22c-1.2,0-2.4,0-3.61,0a.76.76,0,0,1-.47-.27c-.76-.74-1.52-1.49-2.25-2.26a1.07,1.07,0,0,1-.28-.66c0-1.51,0-3,0-4.54,0-.15,0-.3,0-.48.63,0,1.22,0,1.79,0a.75.75,0,0,1,.92.62A4.09,4.09,0,0,0,38,37.83a4.14,4.14,0,1,0-4.83-5.22.4.4,0,0,1-.47.34c-.7,0-1.41,0-2.12,0a.56.56,0,0,1-.59-.37c-.79-1.47-1.6-2.94-2.39-4.4-.06-.11-.1-.23-.15-.34l.13,0A21.05,21.05,0,0,0,28.63,26ZM43,22.28a2.45,2.45,0,0,1-.16,4.89A2.45,2.45,0,1,1,43,22.28Zm-5.87-9.07a2.46,2.46,0,1,1-2.44,2.44A2.42,2.42,0,0,1,37.08,13.21ZM41.23,3.3a2.48,2.48,0,0,1,2.44,2.48,2.47,2.47,0,0,1-4.93,0A2.5,2.5,0,0,1,41.23,3.3ZM24.63,27.17a2.45,2.45,0,1,1,2.55-2.39A2.41,2.41,0,0,1,24.63,27.17ZM41.21,41.23a2.44,2.44,0,0,1,2.46,2.44,2.47,2.47,0,1,1-2.46-2.44Zm-4.1-9.9a2.44,2.44,0,0,1,2.43,2.47,2.45,2.45,0,0,1-4.9,0A2.44,2.44,0,0,1,37.11,31.33Z"/><path class="cls-2" d="M18.24,15.57c.22.21.53.4.65.67a.8.8,0,0,1-.33,1,15.34,15.34,0,0,0-1.75,1.56,7.75,7.75,0,0,0-1.95,4.92,1.93,1.93,0,0,1,0,.24.84.84,0,0,1-.92.79.83.83,0,0,1-.75-.9,9.81,9.81,0,0,1,4.43-8A4.68,4.68,0,0,1,18.24,15.57Z"/></g></g></svg>