<svg xmlns="http://www.w3.org/2000/svg" viewBox="0 0 534.48 523.44"><defs><style>.cls-1{opacity:0.31;}.cls-2,.cls-4{fill:#e2e1f1;}.cls-3{fill:#edf1f7;}.cls-3,.cls-4{opacity:0.47;}.cls-14,.cls-26,.cls-5{fill:#3f499c;}.cls-5,.cls-6{opacity:0.58;}.cls-6{fill:#f0929d;}.cls-7{opacity:0.73;}.cls-20,.cls-24,.cls-29,.cls-8{fill:#fff;}.cls-9{opacity:0.69;}.cls-10{opacity:0.55;}.cls-11,.cls-29{opacity:0.38;}.cls-12{opacity:0.61;}.cls-13{fill:#6b6bb1;opacity:0.74;}.cls-15,.cls-19,.cls-27,.cls-28{fill:#6895ce;}.cls-16,.cls-25{fill:#f7a9b4;}.cls-17{fill:none;}.cls-18{fill:#4f66af;}.cls-19,.cls-21{opacity:0.36;}.cls-20{opacity:0.43;}.cls-22{opacity:0.26;}.cls-23{opacity:0.57;}.cls-24,.cls-25{opacity:0.39;}.cls-26{opacity:0.22;}.cls-27{opacity:0.32;}.cls-28{opacity:0.42;}</style></defs><g id="Layer_2" data-name="Layer 2"><g id="Layer_1-2" data-name="Layer 1"><g class="cls-1"><circle class="cls-2" cx="224.29" cy="24.96" r="15.74" transform="translate(7.31 87.01) rotate(-22.31)"/></g><g class="cls-1"><circle class="cls-2" cx="523.33" cy="209.15" r="8.12"/></g><g class="cls-1"><circle class="cls-2" cx="150.28" cy="60.2" r="10.88" transform="translate(5.49 132.62) rotate(-48.4)"/></g><g class="cls-1"><circle class="cls-2" cx="24.78" cy="454.91" r="24.78"/></g><path class="cls-3" d="M531.38,83.72A28,28,0,0,0,519.26,46C505.5,39,479.06,39.47,472,53.23s14.12,25.57,22.75,38.4C506.78,109.53,524.32,97.48,531.38,83.72Z"/><path class="cls-4" d="M467.68,493.28a21.45,21.45,0,0,0,29.66-6.38c6.43-10,8-30.16-1.92-36.59s-20.56,8.83-31,14.44C449.87,472.58,457.72,486.86,467.68,493.28Z"/><path class="cls-4" d="M61.32,7.23A27.06,27.06,0,0,0,23.08,8.65c-10.17,11-16.6,35.68-5.65,45.84S44.9,48.06,59.1,43.38C78.89,36.86,72.27,17.4,61.32,7.23Z"/><circle class="cls-5" cx="520.91" cy="425.17" r="5.33"/><circle class="cls-5" cx="82.25" cy="474.31" r="5.33"/><circle class="cls-6" cx="418.58" cy="496.72" r="4.14"/><circle class="cls-6" cx="502.53" cy="518.11" r="5.33"/><circle class="cls-5" cx="57.6" cy="71.09" r="1.78"/><path class="cls-6" d="M437.08,47.64a6.4,6.4,0,1,1-4.92-7.6A6.4,6.4,0,0,1,437.08,47.64Z"/><path class="cls-6" d="M95.11,15.72a2.51,2.51,0,1,1-1.93-3A2.51,2.51,0,0,1,95.11,15.72Z"/><path class="cls-5" d="M43.85,516.42a2.14,2.14,0,1,1-1.64-2.53A2.14,2.14,0,0,1,43.85,516.42Z"/><g class="cls-7"><path class="cls-8" d="M118.6,209a6.59,6.59,0,0,1-1.75-.24l-9.94-2.72a6.61,6.61,0,0,1-4.62-8.09l3.33-12.15a55.38,55.38,0,0,1-16-12.42l-10.94,6.24a6.58,6.58,0,0,1-9-2.45l-5.11-9a6.59,6.59,0,0,1,2.45-9L78,153a55.45,55.45,0,0,1-2.54-20.11l-12.15-3.32a6.6,6.6,0,0,1-4.61-8.09l2.73-10a6.59,6.59,0,0,1,8.08-4.61l12.15,3.33a55.38,55.38,0,0,1,12.42-16L87.81,83.31a6.57,6.57,0,0,1,2.46-9l9-5.11a6.58,6.58,0,0,1,9,2.45l6.24,10.94a55.48,55.48,0,0,1,20.11-2.54l3.33-12.15A6.58,6.58,0,0,1,146,63.32l9.95,2.73a6.58,6.58,0,0,1,4.61,8.08L157.2,86.28a55.34,55.34,0,0,1,16,12.42l10.94-6.24a6.58,6.58,0,0,1,9,2.46l5.11,9a6.57,6.57,0,0,1-2.46,9l-10.94,6.24a55.48,55.48,0,0,1,2.54,20.11l12.15,3.33a6.57,6.57,0,0,1,4.61,8.08l-2.72,9.95a6.59,6.59,0,0,1-8.09,4.61l-12.15-3.33a55.24,55.24,0,0,1-12.42,16L175,188.8a6.58,6.58,0,0,1-2.46,9l-8.95,5.11a6.58,6.58,0,0,1-9-2.46l-6.24-10.94A55.45,55.45,0,0,1,128.26,192l-3.32,12.15A6.6,6.6,0,0,1,118.6,209ZM90.39,168.87l1,1.13a52,52,0,0,0,17.15,13.3l1.33.64-4.1,15a3,3,0,0,0,2.12,3.72l10,2.72a3,3,0,0,0,3.72-2.12l4.1-15,1.47.13a52,52,0,0,0,21.53-2.72l1.39-.49,7.7,13.49a3,3,0,0,0,4.13,1.13l9-5.11a3,3,0,0,0,1.13-4.13l-7.7-13.49,1.13-.95A51.94,51.94,0,0,0,178.65,159l.64-1.33,15,4.1a3,3,0,0,0,3.72-2.12l2.72-10a3,3,0,0,0-.29-2.3,3,3,0,0,0-1.83-1.42l-15-4.1.13-1.47A52,52,0,0,0,181,118.85l-.49-1.39L194,109.77a3,3,0,0,0,1.13-4.13l-5.11-9a3,3,0,0,0-4.13-1.13l-13.49,7.69-.95-1.13a51.94,51.94,0,0,0-17.15-13.3L153,88.17l4.1-15A3,3,0,0,0,155,69.47L145,66.75a3,3,0,0,0-3.72,2.12l-4.1,15-1.47-.12a51.9,51.9,0,0,0-21.52,2.71l-1.4.49-7.69-13.49A3,3,0,0,0,101,72.31l-9,5.11a3,3,0,0,0-1.13,4.13L98.59,95,97.46,96a51.78,51.78,0,0,0-13.29,17.15l-.65,1.33-15-4.1a3,3,0,0,0-3.72,2.12l-2.72,10a3,3,0,0,0,2.12,3.72l15,4.1-.12,1.47a52,52,0,0,0,2.71,21.53l.49,1.39-13.49,7.7a3,3,0,0,0-1.42,1.83,3,3,0,0,0,.29,2.3l5.11,9a3,3,0,0,0,4.13,1.13Zm41.06-3.13a29.5,29.5,0,0,1-7.87-1.07h0a29.45,29.45,0,1,1,7.87,1.07Zm-.08-55.81a26.21,26.21,0,1,0,6.93.94A25.94,25.94,0,0,0,131.37,109.93Z"/></g><g class="cls-9"><path class="cls-8" d="M406.55,177l-67,1.22c-1.94,0-3.54-1.19-3.56-2.73L335.19,131c0-1.54,1.52-2.82,3.46-2.85l67-1.22c1.94,0,3.54,1.19,3.56,2.73l.81,44.48C410,175.66,408.49,177,406.55,177Zm-67.89-48c-1.47,0-2.66.93-2.64,2l.81,44.48c0,1.08,1.24,1.94,2.71,1.92l67-1.22c1.47,0,2.66-.93,2.64-2l-.81-44.48c0-1.09-1.24-1.94-2.71-1.92Z"/><rect class="cls-8" x="335.72" y="136.59" width="72.75" height="0.83" transform="translate(-2.43 6.78) rotate(-1.04)"/><path class="cls-8" d="M341,135a1.57,1.57,0,1,1,1.54-1.6A1.57,1.57,0,0,1,341,135Zm0-2.3a.72.72,0,0,0-.72.74.74.74,0,1,0,1.47,0A.74.74,0,0,0,340.92,132.71Z"/><path class="cls-8" d="M345.28,134.93a1.57,1.57,0,1,1,1.54-1.6A1.58,1.58,0,0,1,345.28,134.93Zm0-2.3a.74.74,0,0,0-.73.75.75.75,0,0,0,.75.72.74.74,0,0,0,.72-.75A.72.72,0,0,0,345.24,132.63Z"/><path class="cls-8" d="M349.51,134.85a1.57,1.57,0,1,1,1.54-1.59A1.56,1.56,0,0,1,349.51,134.85Zm0-2.3a.74.74,0,1,0,.75.72A.74.74,0,0,0,349.47,132.55Z"/></g><g class="cls-9"><path class="cls-8" d="M181.7,442.87l-67,1.21c-1.94,0-3.54-1.19-3.57-2.73l-.8-44.48c0-1.54,1.52-2.82,3.46-2.86l67-1.21c1.94,0,3.53,1.19,3.56,2.73l.81,44.48C185.19,441.55,183.64,442.83,181.7,442.87Zm-67.89-48c-1.48,0-2.66.93-2.64,2l.81,44.49c0,1.08,1.23,1.94,2.71,1.91l67-1.22c1.48,0,2.67-.92,2.65-2l-.81-44.48c0-1.08-1.24-1.94-2.72-1.91Z"/><rect class="cls-8" x="110.87" y="402.47" width="72.75" height="0.83" transform="translate(-7.29 2.74) rotate(-1.04)"/><path class="cls-8" d="M116.11,400.89a1.57,1.57,0,1,1,1.54-1.59A1.57,1.57,0,0,1,116.11,400.89Zm0-2.3a.74.74,0,0,0,0,1.47.74.74,0,1,0,0-1.47Z"/><path class="cls-8" d="M120.43,400.81a1.57,1.57,0,1,1,1.53-1.59A1.56,1.56,0,0,1,120.43,400.81Zm-.05-2.3a.75.75,0,0,0-.72.75.74.74,0,1,0,.72-.75Z"/><path class="cls-8" d="M124.66,400.74a1.57,1.57,0,1,1,1.54-1.6A1.57,1.57,0,0,1,124.66,400.74Zm0-2.3a.72.72,0,0,0-.72.74.74.74,0,0,0,.75.73.75.75,0,0,0,.72-.75A.74.74,0,0,0,124.62,398.44Z"/></g><g class="cls-10"><path class="cls-8" d="M460.08,317l-6.94-5.56a34,34,0,0,0,4-13.62l8.82-1a3,3,0,0,0,2.69-3.35l-.71-6.48a3,3,0,0,0-3.35-2.68l-8.83,1a34.15,34.15,0,0,0-6.83-12.43l5.55-6.93a3,3,0,0,0-.47-4.27l-5.08-4.08a3,3,0,0,0-4.27.47L439.07,265a34.17,34.17,0,0,0-13.62-4l-1-8.83a3,3,0,0,0-3.35-2.68l-6.48.71A3,3,0,0,0,412,253.6l1,8.83a34.15,34.15,0,0,0-12.43,6.83l-6.93-5.56a3.05,3.05,0,0,0-4.27.47l-4.08,5.09a3,3,0,0,0,.47,4.27l6.93,5.56a34.17,34.17,0,0,0-4,13.61l-8.83,1a3,3,0,0,0-2.68,3.35l.71,6.48a3,3,0,0,0,3.35,2.68l8.83-1a34.23,34.23,0,0,0,6.83,12.43l-5.56,6.93a3,3,0,0,0,.47,4.27l5.09,4.08a3,3,0,0,0,4.27-.47l5.56-6.94a34,34,0,0,0,13.61,4l1,8.82a3.05,3.05,0,0,0,3.36,2.69l6.48-.71a3,3,0,0,0,2.68-3.35l-1-8.83a34.23,34.23,0,0,0,12.43-6.83l6.93,5.55a3,3,0,0,0,4.27-.47l4.08-5.08A3.05,3.05,0,0,0,460.08,317Zm-48.22-8a17.63,17.63,0,1,1,24.78-2.73A17.64,17.64,0,0,1,411.86,309Z"/><path class="cls-8" d="M424.31,341.61a3.63,3.63,0,0,1-2.27-.8,3.58,3.58,0,0,1-1.33-2.43l-.92-8.34a34.63,34.63,0,0,1-12.93-3.76l-5.25,6.55a3.64,3.64,0,0,1-5.1.56l-5.09-4.08a3.64,3.64,0,0,1-.56-5.1l5.25-6.55a34.67,34.67,0,0,1-6.48-11.8l-8.34.92a3.64,3.64,0,0,1-4-3.21l-.71-6.48a3.61,3.61,0,0,1,3.21-4l8.34-.92a34.49,34.49,0,0,1,3.76-12.93L385.33,274a3.62,3.62,0,0,1-.56-5.1l4.08-5.09a3.58,3.58,0,0,1,2.43-1.33,3.64,3.64,0,0,1,2.67.77l6.55,5.25A34.63,34.63,0,0,1,412.29,262l-.91-8.34a3.64,3.64,0,0,1,3.21-4l6.48-.71a3.63,3.63,0,0,1,4,3.21l.92,8.34a34.39,34.39,0,0,1,12.92,3.76l5.26-6.55a3.63,3.63,0,0,1,5.1-.56l5.08,4.08a3.62,3.62,0,0,1,.56,5.1l-5.25,6.55a34.44,34.44,0,0,1,6.49,11.8l8.34-.92a3.62,3.62,0,0,1,4,3.21l.71,6.48a3.56,3.56,0,0,1-.78,2.66,3.59,3.59,0,0,1-2.43,1.34l-8.34.92a34.68,34.68,0,0,1-3.76,12.93l6.55,5.25a3.58,3.58,0,0,1,1.33,2.43,3.63,3.63,0,0,1-.77,2.67l-4.08,5.08a3.64,3.64,0,0,1-5.1.57l-6.55-5.25a34.58,34.58,0,0,1-11.8,6.48l.92,8.34a3.59,3.59,0,0,1-.78,2.67,3.63,3.63,0,0,1-2.43,1.34l-6.48.71Zm-17.76-16.84.44.23a33.21,33.21,0,0,0,13.38,3.9l.49,0,1,9.32a2.42,2.42,0,0,0,.9,1.64,2.39,2.39,0,0,0,1.8.52l6.48-.71a2.44,2.44,0,0,0,2.16-2.7l-1-9.32.47-.14a33.38,33.38,0,0,0,12.21-6.71l.37-.32,7.32,5.86A2.46,2.46,0,0,0,456,326l4.07-5.08a2.44,2.44,0,0,0-.37-3.44h0l-7.32-5.86.23-.44a33.26,33.26,0,0,0,3.9-13.38l0-.49,9.32-1a2.44,2.44,0,0,0,2.16-2.69l-.71-6.48a2.46,2.46,0,0,0-2.7-2.17l-9.32,1-.14-.47a33.3,33.3,0,0,0-6.71-12.21l-.32-.38,5.86-7.31a2.39,2.39,0,0,0,.52-1.8,2.42,2.42,0,0,0-.9-1.64l-5.08-4.08a2.46,2.46,0,0,0-3.44.38l-5.87,7.32-.43-.24a33.45,33.45,0,0,0-13.38-3.89l-.49,0-1-9.32a2.44,2.44,0,0,0-2.69-2.16l-6.48.71a2.4,2.4,0,0,0-1.64.9,2.44,2.44,0,0,0-.53,1.8l1,9.31-.47.15a33.07,33.07,0,0,0-12.21,6.71l-.38.32-7.31-5.86a2.44,2.44,0,0,0-1.8-.53,2.5,2.5,0,0,0-1.64.9l-4.08,5.09a2.45,2.45,0,0,0,.38,3.44l7.32,5.86-.24.44a33.36,33.36,0,0,0-3.89,13.38l0,.49-9.31,1a2.5,2.5,0,0,0-1.64.9,2.39,2.39,0,0,0-.52,1.8l.71,6.48a2.42,2.42,0,0,0,.9,1.64,2.39,2.39,0,0,0,1.8.52l9.31-1,.15.47a33.23,33.23,0,0,0,6.71,12.21l.32.37L391.79,325a2.44,2.44,0,0,0,.37,3.44l5.09,4.08a2.48,2.48,0,0,0,1.8.52,2.42,2.42,0,0,0,1.64-.9Zm16.32-11.29a18.21,18.21,0,1,1,14.24-6.81A18.14,18.14,0,0,1,422.87,313.48Zm.05-35.25a17.41,17.41,0,0,0-1.9.1,17.1,17.1,0,1,0,1.9-.1Z"/></g><g class="cls-11"><path class="cls-8" d="M504.26,369.64H437.21a2.33,2.33,0,0,1-2.1-2.5V342.47a2.33,2.33,0,0,1,2.1-2.5h67.05a2.33,2.33,0,0,1,2.1,2.5v24.67A2.33,2.33,0,0,1,504.26,369.64Zm-67.05-28.49c-.5,0-.92.6-.92,1.32v24.67c0,.71.42,1.32.92,1.32h67.05c.5,0,.91-.61.91-1.32V342.47c0-.72-.41-1.32-.91-1.32Z"/><rect class="cls-8" x="448.91" y="349.51" width="45.39" height="1.18"/><path class="cls-8" d="M494.3,351.28H448.91a1.19,1.19,0,0,1,0-2.37H494.3a1.19,1.19,0,0,1,0,2.37Zm0-1.18v0Z"/><rect class="cls-8" x="448.91" y="354.89" width="20.28" height="1.18"/><path class="cls-8" d="M469.19,356.67H448.91a1.19,1.19,0,0,1,0-2.37h20.28a1.19,1.19,0,1,1,0,2.37Zm0-1.19v0Z"/><rect class="cls-8" x="474.02" y="354.89" width="20.28" height="1.18"/><path class="cls-8" d="M494.3,356.67H474a1.19,1.19,0,0,1,0-2.37H494.3a1.19,1.19,0,0,1,0,2.37Zm0-1.19v0Z"/><rect class="cls-8" x="448.91" y="360.53" width="45.39" height="1.18"/><path class="cls-8" d="M494.3,362.3H448.91a1.19,1.19,0,0,1,0-2.37H494.3a1.19,1.19,0,0,1,0,2.37Zm0-1.18v0Z"/></g><g class="cls-10"><path class="cls-8" d="M317.57,479.32a4.13,4.13,0,0,1-4.09-3.67l-.83-7.57a34.23,34.23,0,0,1-11.78-3.43l-4.76,5.94a4.12,4.12,0,0,1-5.79.64l-4.92-3.94a4.12,4.12,0,0,1-.64-5.79l4.77-5.95a33.79,33.79,0,0,1-5.91-10.74l-7.57.83A4.14,4.14,0,0,1,271.5,442l-.69-6.27a4.12,4.12,0,0,1,3.65-4.54l7.57-.84a33.68,33.68,0,0,1,3.43-11.77l-5.95-4.77a4.13,4.13,0,0,1-.64-5.79l3.95-4.92a4.13,4.13,0,0,1,5.79-.63l5.94,4.76a33.84,33.84,0,0,1,10.75-5.91l-.83-7.57a4.11,4.11,0,0,1,3.64-4.54l6.26-.69a4.12,4.12,0,0,1,4.55,3.64l.83,7.57a33.73,33.73,0,0,1,11.78,3.43l4.76-6a4.14,4.14,0,0,1,5.8-.64l4.91,3.95a4.12,4.12,0,0,1,.64,5.79l-4.76,5.94a34,34,0,0,1,5.9,10.75l7.57-.83a4.12,4.12,0,0,1,4.55,3.64l.69,6.26a4.13,4.13,0,0,1-3.64,4.55l-7.57.84A34.17,34.17,0,0,1,347,449.23l5.94,4.76h0a4.13,4.13,0,0,1,.64,5.8l-3.94,4.91a4.09,4.09,0,0,1-2.76,1.52,4,4,0,0,1-3-.88l-5.95-4.76a33.87,33.87,0,0,1-10.74,5.9l.83,7.57a4.13,4.13,0,0,1-3.65,4.55l-6.26.69A3.55,3.55,0,0,1,317.57,479.32Zm-17.32-17.68.87.47a31.58,31.58,0,0,0,12.69,3.69l1,.07,1,9.52a1.74,1.74,0,0,0,.64,1.17,1.78,1.78,0,0,0,1.29.38l6.27-.69a1.72,1.72,0,0,0,1.17-.65,1.75,1.75,0,0,0,.38-1.29l-1-9.51.94-.28a31.62,31.62,0,0,0,11.58-6.37l.75-.64,7.47,6a1.74,1.74,0,0,0,2.46-.27l3.94-4.91a1.75,1.75,0,0,0-.27-2.47h0l-7.47-6,.47-.87a31.58,31.58,0,0,0,3.69-12.69l.07-1,9.52-1a1.77,1.77,0,0,0,1.55-1.94l-.69-6.26a1.77,1.77,0,0,0-1.94-1.55l-9.51,1.05-.28-.95A31.7,31.7,0,0,0,340.45,413l-.64-.74,6-7.47a1.75,1.75,0,0,0-.27-2.47l-4.92-3.94a1.76,1.76,0,0,0-2.46.27l-6,7.47-.87-.46A31.76,31.76,0,0,0,318.6,402l-1-.07-1-9.51a1.75,1.75,0,0,0-1.94-1.55l-6.26.69a1.75,1.75,0,0,0-1.55,1.93l1.05,9.52-.95.28a31.7,31.7,0,0,0-11.58,6.37l-.74.64-7.47-6a1.77,1.77,0,0,0-2.47.27l-3.94,4.92A1.76,1.76,0,0,0,281,412l7.47,6-.46.87a31.76,31.76,0,0,0-3.7,12.69l-.07,1-9.51,1.05a1.75,1.75,0,0,0-1.55,1.93l.69,6.27a1.75,1.75,0,0,0,1.93,1.55l9.51-1.05.29.94A31.62,31.62,0,0,0,292,454.76l.64.75-6,7.47a1.76,1.76,0,0,0,.27,2.46l4.92,3.94a1.74,1.74,0,0,0,2.46-.27Zm15.93-9.52a18.22,18.22,0,1,1,14.24-6.82A18.14,18.14,0,0,1,316.18,452.12Zm.05-34.08a15,15,0,0,0-1.76.1,15.86,15.86,0,0,0-8.19,28.14h0a15.86,15.86,0,1,0,10-28.24Z"/></g><g class="cls-12"><path class="cls-13" d="M164.07,194.3l2.19,180.3a4.06,4.06,0,0,1-4,4.11L53.92,380a4.07,4.07,0,0,1-4.12-4L47.61,195.72a4.07,4.07,0,0,1,4-4.12L160,190.29A4.07,4.07,0,0,1,164.07,194.3Z"/><path class="cls-14" d="M164.46,194.23l.13,10.71L48.13,206.36,48,195.45a3.9,3.9,0,0,1,3.85-3.94l108.47-1.32A4.09,4.09,0,0,1,164.46,194.23Z"/><path class="cls-8" d="M56,201a2.4,2.4,0,1,1,2.38-2.42A2.4,2.4,0,0,1,56,201Zm0-3.84a1.44,1.44,0,1,0,1.45,1.43A1.44,1.44,0,0,0,56,197.19Z"/><path class="cls-8" d="M64,201a2.4,2.4,0,1,1,2.38-2.42A2.4,2.4,0,0,1,64,201Zm0-3.84a1.44,1.44,0,1,0,1.45,1.43A1.44,1.44,0,0,0,64,197.13Z"/><path class="cls-8" d="M71.82,200.91a2.4,2.4,0,1,1,2.38-2.42A2.4,2.4,0,0,1,71.82,200.91Zm0-3.84a1.44,1.44,0,1,0,1.45,1.43A1.45,1.45,0,0,0,71.79,197.07Z"/><path class="cls-8" d="M111.93,223l-53.82.4a1,1,0,0,1,0-1.91l53.82-.41a1,1,0,0,1,0,1.92Z"/><path class="cls-14" d="M129.87,222.86,118.7,223a1,1,0,0,1-1-1,1,1,0,0,1,1-1l11.17-.09a1,1,0,0,1,1,1A1,1,0,0,1,129.87,222.86Z"/><path class="cls-8" d="M112.27,267.68l-53.82.4a1,1,0,0,1,0-1.91l53.81-.41a1,1,0,0,1,1,.95A1,1,0,0,1,112.27,267.68Z"/><path class="cls-15" d="M130.21,267.54l-11.17.08a1,1,0,1,1,0-1.91l11.17-.09a1,1,0,0,1,0,1.92Z"/><path class="cls-15" d="M112.09,244.32l-53.82.41a1,1,0,0,1,0-1.92l53.82-.41a1,1,0,0,1,0,1.92Z"/><path class="cls-8" d="M130,244.19l-11.17.08a1,1,0,1,1,0-1.92l11.17-.08a1,1,0,0,1,1,.95A1,1,0,0,1,130,244.19Z"/><path class="cls-14" d="M148.42,244.05l-11.17.08a1,1,0,0,1,0-1.92l11.17-.08a1,1,0,0,1,1,1A1,1,0,0,1,148.42,244.05Z"/><path class="cls-14" d="M94.07,233.63l-35.88.27a1,1,0,0,1,0-1.92l35.88-.27a1,1,0,0,1,1,.95A1,1,0,0,1,94.07,233.63Z"/><path class="cls-16" d="M116.41,233.46l-15.74.12a1,1,0,0,1-1-1,1,1,0,0,1,1-1l15.74-.12a1,1,0,0,1,1,1A1,1,0,0,1,116.41,233.46Z"/><path class="cls-14" d="M116.58,255.93l-35.88.27a1,1,0,0,1,0-1.92l35.88-.27a1,1,0,0,1,1,1A1,1,0,0,1,116.58,255.93Z"/><path class="cls-16" d="M74.1,256.25l-15.74.12a1,1,0,0,1,0-1.92l15.74-.12a1,1,0,0,1,0,1.92Z"/><path class="cls-16" d="M112.38,282.74l-53.81.41a1,1,0,0,1-1-1,1,1,0,0,1,.95-1l53.82-.41a1,1,0,0,1,0,1.92Z"/><path class="cls-14" d="M130.32,282.6l-11.17.09a1,1,0,0,1,0-1.92l11.17-.09a1,1,0,0,1,1,1A1,1,0,0,1,130.32,282.6Z"/><path class="cls-8" d="M112.72,327.42l-53.82.4a1,1,0,1,1,0-1.91l53.82-.41a1,1,0,0,1,1,.95A1,1,0,0,1,112.72,327.42Z"/><path class="cls-15" d="M130.66,327.28l-11.17.09a1,1,0,0,1-1-1,1,1,0,0,1,1-1l11.17-.09a1,1,0,0,1,0,1.92Z"/><path class="cls-15" d="M112.54,304.06l-53.81.41a1,1,0,1,1,0-1.92l53.82-.41a1,1,0,0,1,1,1A1,1,0,0,1,112.54,304.06Z"/><path class="cls-8" d="M130.48,303.93l-11.17.08a1,1,0,0,1,0-1.92l11.17-.08a1,1,0,0,1,1,.95A1,1,0,0,1,130.48,303.93Z"/><path class="cls-14" d="M148.87,303.79l-11.17.08a1,1,0,0,1-1-.95,1,1,0,0,1,.95-1l11.17-.08a1,1,0,0,1,0,1.92Z"/><path class="cls-14" d="M94.52,293.37l-35.88.27a1,1,0,0,1,0-1.92l35.88-.27a1,1,0,0,1,1,.95A1,1,0,0,1,94.52,293.37Z"/><path class="cls-16" d="M116.86,293.2l-15.74.12a1,1,0,0,1-1-1,1,1,0,0,1,1-1l15.74-.12a1,1,0,0,1,1,1A1,1,0,0,1,116.86,293.2Z"/><path class="cls-14" d="M117,315.67l-35.88.27a1,1,0,0,1,0-1.92l35.88-.27a1,1,0,0,1,0,1.92Z"/><path class="cls-16" d="M74.55,316l-15.74.12a1,1,0,0,1,0-1.92l15.74-.12a1,1,0,1,1,0,1.92Z"/><path class="cls-16" d="M112.83,341.23,59,341.64a1,1,0,1,1,0-1.92l53.82-.41a1,1,0,0,1,1,1A1,1,0,0,1,112.83,341.23Z"/><path class="cls-14" d="M130.76,341.1l-11.17.08a1,1,0,0,1,0-1.92l11.17-.08a1,1,0,0,1,1,.95A1,1,0,0,1,130.76,341.1Z"/><path class="cls-8" d="M131,369.31l-11.17.08a1,1,0,1,1,0-1.92l11.17-.08a1,1,0,0,1,0,1.92Z"/><path class="cls-14" d="M149.37,369.17l-11.17.08a1,1,0,1,1,0-1.92l11.17-.08a1,1,0,0,1,0,1.92Z"/><path class="cls-14" d="M95,351.86l-35.88.27a1,1,0,1,1,0-1.92L95,349.94a1,1,0,0,1,0,1.92Z"/><path class="cls-16" d="M117.3,351.69l-15.73.12a1,1,0,1,1,0-1.92l15.74-.12a1,1,0,0,1,1,1A1,1,0,0,1,117.3,351.69Z"/></g><polygon class="cls-17" points="147.56 127.59 148.77 131.74 148.77 126.2 147.56 127.59"/><polygon class="cls-17" points="148.89 399.12 148.89 393.58 147.68 397.74 148.89 399.12"/><path class="cls-18" d="M148.76,102.37v29.37l0,66.18.06,129.49,0,66.17v21.64a17,17,0,0,0,17,17H178l133.13-.06a17,17,0,0,0,17-17l-.14-312.85a17,17,0,0,0-17-17l-145.22.07A17,17,0,0,0,148.76,102.37Z"/><path class="cls-14" d="M150,108.29v28.42l0,64L150.1,326l0,64V411A16.4,16.4,0,0,0,161,426.32a17,17,0,0,0,5.86,1.05H178.8l131.28-.06a16.85,16.85,0,0,0,9.45-2.88,16.3,16.3,0,0,0,7.28-13.54l-.14-302.67a16.24,16.24,0,0,0-6-12.56,16.85,16.85,0,0,0-10.75-3.85l-143.21.07A16.57,16.57,0,0,0,150,108.29Z"/><path class="cls-8" d="M318.56,133l.11,251.43a4.07,4.07,0,0,1-4.06,4.07l-152.29.07a4.07,4.07,0,0,1-4.07-4.07l-.11-251.43A4.06,4.06,0,0,1,162.2,129l152.29-.07A4.07,4.07,0,0,1,318.56,133Z"/><path class="cls-15" d="M318.56,132.9v16.3l-160.43.07v-16.5a3.89,3.89,0,0,1,3.89-3.89l152.43-.07A4.09,4.09,0,0,1,318.56,132.9Z"/><path class="cls-8" d="M298.76,136.73a.6.6,0,1,1,0-1.19h12a.59.59,0,1,1,0,1.18Z"/><path class="cls-8" d="M298.76,139.8a.59.59,0,0,1,0-1.18h12a.6.6,0,0,1,0,1.19Z"/><path class="cls-8" d="M298.76,142.88a.6.6,0,0,1,0-1.19h12a.59.59,0,1,1,0,1.18Z"/><path class="cls-8" d="M172.48,144.84a.59.59,0,0,1-.42-.18l-4.37-4.36a1,1,0,0,1,0-1.37l4.2-4.21a.59.59,0,1,1,.84.84l-4,4.05,4.22,4.22a.59.59,0,0,1,0,.83A.59.59,0,0,1,172.48,144.84Z"/><path class="cls-8" d="M238.49,113.89a4.34,4.34,0,1,1,0-8.68h0a4.34,4.34,0,0,1,0,8.68Zm0-6.84h0a2.5,2.5,0,0,0,0,5h0a2.5,2.5,0,1,0,0-5Z"/><path class="cls-8" d="M234.36,419.77a2.79,2.79,0,0,1-2.79-2.78v-8.23a2.79,2.79,0,0,1,2.78-2.79h8.23a2.79,2.79,0,0,1,2.79,2.78V417a2.79,2.79,0,0,1-2.79,2.79Zm8.22-12.62h-8.23a1.61,1.61,0,0,0-1.6,1.61V417a1.6,1.6,0,0,0,1.6,1.6h8.23a1.61,1.61,0,0,0,1.6-1.61v-8.23A1.61,1.61,0,0,0,242.58,407.15Z"/><path class="cls-8" d="M184.78,408.49a.59.59,0,1,1,0-1.18h7.92a.58.58,0,0,1,.59.59.59.59,0,0,1-.59.59Z"/><path class="cls-8" d="M184.78,412.77a.59.59,0,0,1,0-1.18h7.92a.59.59,0,1,1,0,1.18Z"/><path class="cls-8" d="M184.78,417.11a.6.6,0,0,1,0-1.19h7.93a.59.59,0,1,1,0,1.18Z"/><path class="cls-8" d="M294.18,419.75a.56.56,0,0,1-.42-.18l-6.23-6.22,6.06-6.07a.59.59,0,0,1,.84.83l-5.23,5.24,5.39,5.39a.57.57,0,0,1,0,.83A.55.55,0,0,1,294.18,419.75Z"/><rect class="cls-19" x="158.4" y="149.49" width="160.18" height="52.46"/><rect class="cls-20" x="171.51" y="160.1" width="60.85" height="13" rx="1.67"/><rect class="cls-20" x="171.51" y="180.37" width="92.45" height="6.5" rx="1.67"/><path class="cls-20" d="M298.85,185.78a12.3,12.3,0,0,1,0-24.6h0a12.31,12.31,0,0,1,12.3,12.3h0a12.29,12.29,0,0,1-12.29,12.3Zm0-22.23h0a9.94,9.94,0,0,0,0,19.87h0a9.94,9.94,0,0,0,9.92-9.94h0a9.92,9.92,0,0,0-9.93-9.93Z"/><rect class="cls-18" x="172.58" y="220.98" width="37.29" height="37.29" rx="5.39"/><g class="cls-21"><path class="cls-15" d="M199.27,239.8a8,8,0,1,1-8.05-8A8,8,0,0,1,199.27,239.8Z"/></g><g class="cls-22"><rect class="cls-14" x="216.36" y="226.78" width="23.66" height="6.69" rx="1.35"/><path class="cls-14" d="M216.36,243.75a1.19,1.19,0,0,1,0-2.37l40.39,0h0a1.19,1.19,0,0,1,0,2.37l-40.39,0Z"/><path class="cls-14" d="M216.37,252.2a1.19,1.19,0,1,1,0-2.37l65.84,0h0a1.19,1.19,0,1,1,0,2.37l-65.84,0Z"/><path class="cls-14" d="M265.75,243.73a1.19,1.19,0,1,1,0-2.37l40.38,0h0a1.19,1.19,0,1,1,0,2.37l-40.38,0Z"/></g><rect class="cls-15" x="172.63" y="329.46" width="37.29" height="37.29" rx="5.39"/><g class="cls-23"><path class="cls-14" d="M199.32,348.28a8,8,0,1,1-8-8A8,8,0,0,1,199.32,348.28Z"/></g><g class="cls-22"><rect class="cls-14" x="216.41" y="335.25" width="23.66" height="6.69" rx="1.35"/><path class="cls-14" d="M216.41,352.22a1.18,1.18,0,0,1,0-2.36l40.38,0h0a1.19,1.19,0,1,1,0,2.37Z"/><path class="cls-14" d="M216.41,360.68a1.19,1.19,0,0,1,0-2.37l65.85,0h0a1.19,1.19,0,1,1,0,2.37l-65.84,0Z"/><path class="cls-14" d="M265.8,352.2a1.19,1.19,0,1,1,0-2.37h40.38a1.19,1.19,0,0,1,0,2.37Z"/></g><rect class="cls-16" x="172.61" y="275.09" width="37.29" height="37.29" rx="5.39"/><circle class="cls-20" cx="191.25" cy="293.92" r="8.05"/><g class="cls-22"><rect class="cls-14" x="216.38" y="280.89" width="23.66" height="6.69" rx="1.35"/><path class="cls-14" d="M216.39,297.86a1.19,1.19,0,1,1,0-2.37h18.68a1.18,1.18,0,0,1,0,2.36Z"/><path class="cls-14" d="M216.39,306.31a1.19,1.19,0,0,1,0-2.37h38.33a1.19,1.19,0,0,1,0,2.37Z"/><path class="cls-14" d="M242.88,297.85a1.19,1.19,0,0,1,0-2.37h37.3a1.18,1.18,0,1,1,0,2.36l-37.3,0Z"/><path class="cls-14" d="M287.12,297.83a1.19,1.19,0,0,1,0-2.37H305.8a1.19,1.19,0,0,1,0,2.37Z"/></g><rect class="cls-24" x="357.13" y="309.38" width="83.87" height="135.71" rx="4.07" transform="translate(-4.55 4.88) rotate(-0.7)"/><rect class="cls-25" x="357.13" y="309.38" width="83.87" height="135.71" rx="4.07" transform="translate(-4.55 4.88) rotate(-0.7)"/><path class="cls-16" d="M440.5,312.9l.08,6.57-83.86,1-.09-6.77a3.9,3.9,0,0,1,3.85-3.94l75.88-.92A4.09,4.09,0,0,1,440.5,312.9Z"/><path class="cls-8" d="M362.4,316.65a1.73,1.73,0,1,1,1.71-1.74A1.73,1.73,0,0,1,362.4,316.65Zm0-2.76a1,1,0,1,0,1,1A1,1,0,0,0,362.38,313.89Z"/><path class="cls-8" d="M368.17,316.6a1.73,1.73,0,1,1,1.71-1.74A1.72,1.72,0,0,1,368.17,316.6Zm0-2.76a1,1,0,0,0-1,1.05,1,1,0,0,0,1,1,1,1,0,0,0,0-2.07Z"/><path class="cls-8" d="M373.77,316.56a1.73,1.73,0,1,1,1.72-1.74A1.73,1.73,0,0,1,373.77,316.56Zm0-2.76a1,1,0,0,0,0,2.07,1,1,0,1,0,0-2.07Z"/><path class="cls-8" d="M402.66,332.47l-38.76.29a.68.68,0,0,1-.69-.68.69.69,0,0,1,.68-.7l38.76-.29a.69.69,0,0,1,0,1.38Z"/><path class="cls-8" d="M415.58,332.37l-8.05.06a.68.68,0,0,1-.69-.68.69.69,0,0,1,.68-.7l8.05-.06a.69.69,0,0,1,.69.69A.68.68,0,0,1,415.58,332.37Z"/><path class="cls-8" d="M402.9,364.65l-38.75.29a.69.69,0,1,1,0-1.38l38.75-.3a.7.7,0,1,1,0,1.39Z"/><path class="cls-8" d="M415.82,364.55l-8,.06a.7.7,0,0,1-.7-.69.69.69,0,0,1,.69-.69l8-.06a.69.69,0,0,1,.7.68A.71.71,0,0,1,415.82,364.55Z"/><path class="cls-8" d="M402.78,347.83l-38.76.29a.7.7,0,0,1-.7-.69.69.69,0,0,1,.69-.69l38.75-.3a.7.7,0,0,1,0,1.39Z"/><path class="cls-8" d="M415.69,347.73l-8,.06a.7.7,0,0,1-.7-.69.69.69,0,0,1,.69-.69l8-.06a.69.69,0,0,1,.7.68A.69.69,0,0,1,415.69,347.73Z"/><path class="cls-8" d="M428.94,347.63l-8.05.06a.69.69,0,0,1,0-1.38l8.05-.06a.68.68,0,0,1,.69.68A.69.69,0,0,1,428.94,347.63Z"/><path class="cls-8" d="M389.8,340.12l-25.84.2a.7.7,0,0,1-.7-.69.69.69,0,0,1,.69-.69l25.84-.2a.69.69,0,0,1,.69.69A.68.68,0,0,1,389.8,340.12Z"/><path class="cls-8" d="M405.88,340l-11.33.09a.71.71,0,0,1-.7-.69.69.69,0,0,1,.69-.69l11.33-.09a.69.69,0,1,1,0,1.38Z"/><path class="cls-8" d="M406,356.18l-25.84.2a.7.7,0,0,1-.7-.69.69.69,0,0,1,.69-.69l25.84-.2a.69.69,0,0,1,.69.69A.68.68,0,0,1,406,356.18Z"/><path class="cls-8" d="M375.42,356.42l-11.34.08a.69.69,0,0,1,0-1.38l11.34-.09a.7.7,0,0,1,0,1.39Z"/><path class="cls-8" d="M403,375.49l-38.75.3a.7.7,0,0,1,0-1.39l38.75-.29a.69.69,0,1,1,0,1.38Z"/><path class="cls-8" d="M415.9,375.39l-8,.07a.7.7,0,0,1,0-1.39l8-.06a.7.7,0,0,1,.7.69A.69.69,0,0,1,415.9,375.39Z"/><path class="cls-8" d="M403.23,407.67l-38.76.29a.69.69,0,0,1,0-1.38l38.76-.29a.68.68,0,0,1,.69.68A.69.69,0,0,1,403.23,407.67Z"/><path class="cls-8" d="M416.15,407.57l-8,.06a.69.69,0,0,1-.69-.69.68.68,0,0,1,.68-.69l8.05-.06a.69.69,0,0,1,0,1.38Z"/><path class="cls-8" d="M403.1,390.85l-38.76.29a.69.69,0,0,1,0-1.38l38.76-.29a.69.69,0,0,1,.7.68A.7.7,0,0,1,403.1,390.85Z"/><path class="cls-8" d="M416,390.75l-8,.06a.69.69,0,1,1,0-1.38l8-.06a.69.69,0,0,1,.69.69A.68.68,0,0,1,416,390.75Z"/><path class="cls-8" d="M429.26,390.65l-8,.06a.69.69,0,1,1,0-1.38l8-.06a.69.69,0,1,1,0,1.38Z"/><path class="cls-8" d="M390.12,383.15l-25.83.19a.69.69,0,0,1,0-1.38l25.84-.2a.7.7,0,1,1,0,1.39Z"/><path class="cls-8" d="M406.21,383l-11.33.09a.69.69,0,1,1,0-1.38l11.33-.09a.71.71,0,0,1,.7.69A.69.69,0,0,1,406.21,383Z"/><path class="cls-8" d="M406.33,399.21l-25.83.19a.69.69,0,1,1,0-1.38l25.84-.2a.7.7,0,1,1,0,1.39Z"/><path class="cls-8" d="M375.74,399.44l-11.33.08a.69.69,0,0,1-.7-.68.7.7,0,0,1,.69-.7l11.33-.08a.69.69,0,0,1,.7.68A.71.71,0,0,1,375.74,399.44Z"/><path class="cls-8" d="M403.3,417.62l-38.75.29a.69.69,0,1,1,0-1.38l38.75-.29a.69.69,0,0,1,.7.68A.71.71,0,0,1,403.3,417.62Z"/><path class="cls-8" d="M416.22,417.52l-8,.06a.7.7,0,0,1-.7-.69.69.69,0,0,1,.69-.69l8-.06a.69.69,0,0,1,.7.68A.7.7,0,0,1,416.22,417.52Z"/><path class="cls-8" d="M416.38,437.83l-8.05.07a.7.7,0,0,1,0-1.39l8.05-.06a.69.69,0,0,1,.69.69A.68.68,0,0,1,416.38,437.83Z"/><path class="cls-8" d="M429.62,437.73l-8,.07a.7.7,0,0,1,0-1.39l8-.06a.71.71,0,0,1,.7.69A.69.69,0,0,1,429.62,437.73Z"/><path class="cls-8" d="M390.44,425.27l-25.84.2a.69.69,0,0,1-.69-.69.68.68,0,0,1,.68-.69l25.84-.2a.69.69,0,1,1,0,1.38Z"/><path class="cls-8" d="M406.53,425.15l-11.34.08a.68.68,0,0,1-.69-.68.7.7,0,0,1,.68-.7l11.34-.08a.68.68,0,0,1,.69.68A.69.69,0,0,1,406.53,425.15Z"/><path class="cls-26" d="M463.83,118.4,465.39,271a4.07,4.07,0,0,1-4,4.11l-91.19.93a4.06,4.06,0,0,1-4.1-4l-1.56-152.57a4.06,4.06,0,0,1,4-4.11l91.19-.93A4.07,4.07,0,0,1,463.83,118.4Z"/><path class="cls-8" d="M458.4,111.34,460,263.91a4.05,4.05,0,0,1-4,4.1l-91.19.94a4.08,4.08,0,0,1-4.11-4l-1.55-152.57a4.06,4.06,0,0,1,4-4.1l91.19-.94A4.08,4.08,0,0,1,458.4,111.34Z"/><path class="cls-15" d="M458.73,111.28l.09,8.54-99.32,1-.09-8.73a3.9,3.9,0,0,1,3.85-3.94l91.33-.93A4.09,4.09,0,0,1,458.73,111.28Z"/><path class="cls-8" d="M446.47,112.44a.59.59,0,0,1,0-1.18l7.45-.08c.28-.05.59.26.59.59a.58.58,0,0,1-.58.59l-7.45.08Z"/><path class="cls-8" d="M446.49,114.34a.59.59,0,1,1,0-1.18l7.45-.08a.64.64,0,0,1,.59.59.59.59,0,0,1-.58.6l-7.45.07Z"/><path class="cls-8" d="M446.51,116.25a.6.6,0,0,1,0-1.19L454,115h0a.59.59,0,0,1,0,1.18l-7.45.08Z"/><path class="cls-8" d="M368.34,118.22a.54.54,0,0,1-.41-.17l-2.74-2.67a.83.83,0,0,1,0-1.17l2.58-2.63a.59.59,0,0,1,.83,0,.59.59,0,0,1,0,.84l-2.32,2.37,2.48,2.43a.6.6,0,0,1,0,.84A.59.59,0,0,1,368.34,118.22Z"/><path class="cls-19" d="M455.72,268.29l-91.5.51a4,4,0,0,1-4-4L360,233.12l99.49-.56.18,31.71A4,4,0,0,1,455.72,268.29Z"/><rect class="cls-18" x="387.93" y="135.56" width="42.61" height="7.02" rx="1.32" transform="translate(-0.78 2.31) rotate(-0.32)"/><rect class="cls-27" x="371.21" y="158.68" width="76.34" height="12.58" rx="5.6" transform="translate(-0.92 2.31) rotate(-0.32)"/><path class="cls-20" d="M381.67,165.18a3.88,3.88,0,1,1-3.9-3.86A3.87,3.87,0,0,1,381.67,165.18Z"/><path class="cls-8" d="M379.18,164.08a1.4,1.4,0,0,1-1.38,1.41,1.41,1.41,0,0,1-1.41-1.39,1.4,1.4,0,0,1,1.39-1.4A1.38,1.38,0,0,1,379.18,164.08Z"/><path class="cls-8" d="M379.88,167.69l-4.14,0v-.51A2.16,2.16,0,0,1,377.9,165h0a2,2,0,0,1,2,1.95Z"/><rect class="cls-27" x="371.33" y="179.18" width="76.34" height="12.58" rx="5.6" transform="translate(-1.04 2.31) rotate(-0.32)"/><path class="cls-20" d="M381.78,185.67a3.87,3.87,0,1,1-3.89-3.85A3.87,3.87,0,0,1,381.78,185.67Z"/><rect class="cls-8" x="376.23" y="185.06" width="3.37" height="3.08" rx="0.38" transform="translate(-1.04 2.12) rotate(-0.32)"/><path class="cls-8" d="M376.55,185.34v-1a.94.94,0,0,1,.27-.67,1,1,0,0,1,.67-.28h.89a.82.82,0,0,1,.59.24.87.87,0,0,1,.26.6v1h-.29v-1.06a.55.55,0,0,0-.55-.55h-.89a.68.68,0,0,0-.46.19.61.61,0,0,0-.18.46v1Z"/><path class="cls-16" d="M425,214.48l-28.09.15a6.16,6.16,0,0,1-6.2-6.12h0a6.16,6.16,0,0,1,6.13-6.19l28.09-.16a6.16,6.16,0,0,1,6.2,6.12h0A6.17,6.17,0,0,1,425,214.48Z"/><path class="cls-8" d="M382.65,246.2a1.2,1.2,0,0,1-1.19-1.18,1.18,1.18,0,0,1,1.18-1.19l54.37-.31h0a1.19,1.19,0,1,1,0,2.37l-54.37.31Z"/><path class="cls-8" d="M393.72,254.37a1.19,1.19,0,1,1,0-2.37l32.33-.18h0a1.19,1.19,0,0,1,0,2.37l-32.33.18Z"/><path class="cls-26" d="M394.38,222l1.56,152.57a4.07,4.07,0,0,1-4,4.11l-91.18.93a4.07,4.07,0,0,1-4.11-4L295.06,223a4.07,4.07,0,0,1,4-4.11l91.18-.93A4.06,4.06,0,0,1,394.38,222Z"/><path class="cls-8" d="M389,214.92l1.56,152.56a4.07,4.07,0,0,1-4,4.11l-91.18.93a4.06,4.06,0,0,1-4.11-4l-1.56-152.57a4.07,4.07,0,0,1,4-4.11l91.19-.93A4.07,4.07,0,0,1,389,214.92Z"/><path class="cls-28" d="M389,214.92l1.56,152.56a4.07,4.07,0,0,1-4,4.11l-91.18.93a4.06,4.06,0,0,1-4.11-4l-1.56-152.57a4.07,4.07,0,0,1,4-4.11l91.19-.93A4.07,4.07,0,0,1,389,214.92Z"/><path class="cls-15" d="M389.28,214.86l.09,8.53-99.32,1-.09-8.74a3.89,3.89,0,0,1,3.85-3.93l91.34-.93A4.09,4.09,0,0,1,389.28,214.86Z"/><path class="cls-8" d="M377,216a.6.6,0,0,1,0-1.19l7.45-.07a.63.63,0,0,1,.6.58.59.59,0,0,1-.59.6L377,216Z"/><path class="cls-8" d="M377,217.92a.6.6,0,0,1-.59-.59.59.59,0,0,1,.59-.59l7.45-.08h0a.6.6,0,0,1,.6.59.59.59,0,0,1-.59.59l-7.45.08Z"/><path class="cls-8" d="M377.06,219.82a.59.59,0,1,1,0-1.18l7.45-.08h0a.6.6,0,0,1,0,1.19l-7.45.07Z"/><path class="cls-8" d="M298.89,221.8a.58.58,0,0,1-.41-.17L295.75,219a.82.82,0,0,1,0-1.16l2.58-2.63a.59.59,0,1,1,.85.83l-2.33,2.37,2.48,2.43a.59.59,0,0,1,0,.83A.6.6,0,0,1,298.89,221.8Z"/><g class="cls-21"><path class="cls-8" d="M386.27,371.86l-91.5.52a4,4,0,0,1-4-4l-.17-31.7,99.48-.56.18,31.7A4,4,0,0,1,386.27,371.86Z"/><path class="cls-8" d="M294.75,373a4.59,4.59,0,0,1-4.59-4.56l-.18-32.3,100.67-.57.18,32.3a4.6,4.6,0,0,1-4.56,4.62l-91.49.51Zm-3.58-35.68.18,31.11a3.41,3.41,0,0,0,3.4,3.39h0l91.5-.52a3.41,3.41,0,0,0,3.38-3.42l-.17-31.12Z"/></g><rect class="cls-8" x="337" y="203.85" width="11.77" height="76.34" rx="2.31" transform="translate(100.44 584.61) rotate(-89.93)"/><path class="cls-8" d="M379.09,257.07,306.65,257a2,2,0,0,1-1.95-2h0a2,2,0,0,1,1.95-1.95l72.44.09a2,2,0,0,1,2,2h0A2,2,0,0,1,379.09,257.07Z"/><path class="cls-8" d="M379.08,266.07,306.64,266a2,2,0,0,1-1.95-2h0a2,2,0,0,1,1.95-1.95l72.44.09a2,2,0,0,1,1.95,1.95h0A2,2,0,0,1,379.08,266.07Z"/><path class="cls-16" d="M314.49,279.26a4.91,4.91,0,1,1-4.9-4.92A4.9,4.9,0,0,1,314.49,279.26Z"/><path class="cls-16" d="M314.47,301.52a4.92,4.92,0,1,1-4.91-4.92A4.93,4.93,0,0,1,314.47,301.52Z"/><path class="cls-16" d="M314.44,323.13a4.91,4.91,0,1,1-4.91-4.92A4.91,4.91,0,0,1,314.44,323.13Z"/><path class="cls-8" d="M364.27,277.52h0l-47-.06a.6.6,0,0,1,0-1.19h0l47,.06a.6.6,0,0,1,0,1.19Z"/><path class="cls-8" d="M340.77,282.49h0l-23.5,0a.6.6,0,0,1,0-1.19h0l23.5,0a.6.6,0,0,1,0,1.19Z"/><path class="cls-8" d="M364.24,300.51h0l-47-.06a.59.59,0,0,1-.59-.59.58.58,0,0,1,.59-.59h0l47,.06a.59.59,0,0,1,.59.59A.6.6,0,0,1,364.24,300.51Z"/><path class="cls-8" d="M340.74,305.48h0l-23.5,0a.6.6,0,0,1-.59-.59.59.59,0,0,1,.59-.59h0l23.49,0a.6.6,0,0,1,0,1.19Z"/><path class="cls-8" d="M364.21,321.5h0l-47-.05a.6.6,0,0,1,0-1.19h0l47,.06a.59.59,0,0,1,.59.59A.58.58,0,0,1,364.21,321.5Z"/><path class="cls-8" d="M340.71,326.47h0l-23.49,0a.59.59,0,1,1,0-1.18h0l23.49,0a.59.59,0,0,1,0,1.18Z"/><path class="cls-8" d="M313.2,349.77a1.19,1.19,0,0,1,0-2.37l54.38-.3h0a1.18,1.18,0,0,1,1.19,1.18,1.19,1.19,0,0,1-1.18,1.19l-54.37.3Z"/><path class="cls-8" d="M324.27,358a1.19,1.19,0,0,1,0-2.37l32.33-.18h0a1.19,1.19,0,0,1,0,2.37l-32.33.18Z"/><rect class="cls-15" x="92.38" y="160.97" width="88.71" height="28.49" rx="1.91"/><path class="cls-16" d="M107.3,183.85a9.17,9.17,0,1,1,9.17-9.17A9.18,9.18,0,0,1,107.3,183.85Z"/><path class="cls-8" d="M106.49,178.12l-3.43-4.74a.91.91,0,0,1,.2-1.26.89.89,0,0,1,1.27.2l2.18,3,10.91-10.91a.9.9,0,0,1,.64-.26h0a.9.9,0,0,1,.64.26.91.91,0,0,1,0,1.28Z"/><line class="cls-8" x1="124.24" y1="170.51" x2="169.62" y2="170.51"/><path class="cls-29" d="M169.62,171.11H124.24a.6.6,0,1,1,0-1.19h45.38a.6.6,0,1,1,0,1.19Z"/><line class="cls-8" x1="124.24" y1="175.9" x2="144.52" y2="175.9"/><path class="cls-29" d="M144.52,176.49H124.24a.59.59,0,1,1,0-1.18h20.28a.59.59,0,0,1,0,1.18Z"/><line class="cls-8" x1="149.34" y1="175.9" x2="169.62" y2="175.9"/><path class="cls-29" d="M169.62,176.49H149.34a.59.59,0,0,1,0-1.18h20.28a.59.59,0,1,1,0,1.18Z"/><line class="cls-8" x1="124.24" y1="181.53" x2="169.62" y2="181.53"/><path class="cls-29" d="M169.62,182.13H124.24a.6.6,0,1,1,0-1.19h45.38a.6.6,0,1,1,0,1.19Z"/><rect class="cls-15" x="417.06" y="291.89" width="88.71" height="28.49" rx="1.91"/><path class="cls-16" d="M432,314.76a9.17,9.17,0,1,1,9.17-9.17A9.18,9.18,0,0,1,432,314.76Z"/><path class="cls-8" d="M431.16,309l-3.43-4.75a.93.93,0,0,1-.16-.67.89.89,0,0,1,.37-.59.88.88,0,0,1,.67-.16.92.92,0,0,1,.59.36l2.19,3,10.9-10.91a.92.92,0,0,1,1.29,0,.91.91,0,0,1,0,1.28Zm-2.92-5.12h0Z"/><line class="cls-8" x1="448.91" y1="301.43" x2="494.3" y2="301.43"/><path class="cls-29" d="M494.3,302H448.91a.6.6,0,0,1,0-1.19H494.3a.6.6,0,0,1,0,1.19Z"/><line class="cls-8" x1="448.91" y1="306.81" x2="469.19" y2="306.81"/><path class="cls-29" d="M469.19,307.4H448.91a.59.59,0,1,1,0-1.18h20.28a.59.59,0,1,1,0,1.18Z"/><line class="cls-8" x1="474.02" y1="306.81" x2="494.3" y2="306.81"/><path class="cls-29" d="M494.3,307.4H474a.59.59,0,0,1,0-1.18H494.3a.59.59,0,0,1,0,1.18Z"/><line class="cls-8" x1="448.91" y1="312.45" x2="494.3" y2="312.45"/><path class="cls-29" d="M494.3,313H448.91a.6.6,0,0,1,0-1.19H494.3a.6.6,0,0,1,0,1.19Z"/></g></g></svg>