<svg xmlns="http://www.w3.org/2000/svg" viewBox="0 0 142.26 142.26"><defs><style>.cls-1{fill:#f57f20;}</style></defs><g id="Layer_2" data-name="Layer 2"><g id="Layer_1-2" data-name="Layer 1"><path d="M142.26,104.75a20.9,20.9,0,0,1-1.87,3.18,6.67,6.67,0,0,1-5.45,2.26q-24.79,0-49.58,0c-4.55,0-7.3-2.86-7.34-7.4,0-2.55.12-5.1,0-7.64-.25-4.12,2.08-7.46,6.84-8,0-1.25,0-2.53,0-3.81,0-.26-.46-.65-.76-.71-4-.89-6-3.27-6-7.41q0-4,0-8c0-4.16,2-6.5,6-7.41a1.23,1.23,0,0,0,.76-.86c.09-1.19,0-2.39,0-3.63-.76-.17-1.43-.27-2.08-.48a6.62,6.62,0,0,1-4.69-6.07c-.09-3.38-.1-6.76,0-10.13A6.61,6.61,0,0,1,84,32.21a18.31,18.31,0,0,1,2.35-.13c15.74,0,31.47.07,47.21,0,4.25,0,7.26,1.35,8.71,5.48V49.74a23.72,23.72,0,0,1-1.9,3.15,6.82,6.82,0,0,1-4.92,2.27,17,17,0,0,0,.12,4.19c.13.46,1.61.56,2.48.83a3.08,3.08,0,0,1,.38.16A8,8,0,0,1,142.26,65V77.25c-1.12,2.89-2.93,5-6.24,5.34a.89.89,0,0,0-.6.58c0,1.32,0,2.64,0,3.62,1.53.63,3,.87,3.9,1.71a23.18,23.18,0,0,1,3,4ZM110.31,64.24H85.73c-2.34,0-3.1.75-3.11,3.06q0,3.75,0,7.5c0,2.5.73,3.21,3.24,3.22h48.62c2.43,0,3.13-.71,3.13-3.14s0-4.82,0-7.23c0-2.81-.6-3.42-3.41-3.42Zm-.18-13.78h24.31c2.56,0,3.17-.64,3.17-3.22s0-5.09,0-7.64c0-2.09-.76-2.88-2.82-2.88H85.49c-2,0-2.84.81-2.87,2.88,0,2.5,0,5,0,7.5,0,2.72.63,3.36,3.35,3.36ZM110,91.81H85.58c-2.18,0-2.94.75-3,2.9,0,2.68,0,5.37,0,8,0,2,.85,2.78,2.83,2.78q24.72,0,49.44,0c1.9,0,2.69-.82,2.71-2.72,0-2.59,0-5.18,0-7.77s-.59-3.25-3.28-3.25ZM89.53,59.59c.58,0,1,.07,1.48.07h38.18a2.79,2.79,0,0,0,1,0c.24-.08.58-.37.59-.58,0-1.27,0-2.56,0-3.86H89.53Zm41.25,27.53c0-1.07-.08-2.08,0-3.08.11-1.18-.36-1.46-1.49-1.46q-19.23.06-38.45,0c-.44,0-.88,0-1.27.08v4.43Z"/><path class="cls-1" d="M40.57,142.26,22.46,130.92c-2.45-1.54-2.46-3.3,0-4.83,5.68-3.56,11.38-7.11,17.05-10.68a2.7,2.7,0,0,1,3-.36,2.59,2.59,0,0,1,1.15,2.64c0,1.24,0,2.49,0,3.86h71v4.65H42.85c-3.41,0-3.86-.44-3.9-3.8,0-.27,0-.55-.05-1.12L27.32,128.5,39,135.75c0-1,0-1.81,0-2.58a2.31,2.31,0,0,1,2.38-2.37c.37,0,.74,0,1.11,0h76.79v4.57H43.61c0,1.26-.07,2.4,0,3.53a3.49,3.49,0,0,1-1.39,3.37Z"/><path d="M6.88,87c0-1.2.06-2.44,0-3.68A1.22,1.22,0,0,0,6,82.57c-3.91-.8-6-3.31-6-7.28,0-2.88,0-5.75,0-8.62a6.86,6.86,0,0,1,5.9-7,1.43,1.43,0,0,0,.93-1,34.5,34.5,0,0,0,0-3.54c-.61-.11-1.15-.17-1.67-.31A6.85,6.85,0,0,1,0,48.18C0,45.12,0,42.07,0,39a6.76,6.76,0,0,1,6-6.81,13.49,13.49,0,0,1,1.8-.12H56.47c4,0,6.6,1.78,7.51,5.08a9.69,9.69,0,0,1,.26,2.47c0,2.5-.11,5,0,7.5.24,4.07-2,7.45-6.85,8,0,1.25,0,2.54,0,3.81,0,.26.46.65.76.71,4,.87,6,3.25,6,7.28,0,2.69,0,5.37,0,8.06,0,4.27-1.89,6.57-6,7.53a1.14,1.14,0,0,0-.74.74c-.07,1.24,0,2.48,0,3.75.73.16,1.36.26,2,.45a6.61,6.61,0,0,1,4.8,6.13c.09,3.37.1,6.76,0,10.14a6.63,6.63,0,0,1-5.82,6.27,15.64,15.64,0,0,1-1.93.13H7.82c-4.08,0-6.75-1.87-7.62-5.32A7.58,7.58,0,0,1,0,103.09c0-2.87,0-5.74,0-8.61,0-4.06,2.32-6.71,6.33-7.26C6.47,87.2,6.59,87.13,6.88,87Zm25.36-22.8q-12.3,0-24.59,0c-2.26,0-3,.74-3,3V75c0,2.26.74,3,3,3q24.45,0,48.89,0c2.34,0,3.1-.76,3.11-3.06s0-4.91,0-7.36c0-2.68-.68-3.36-3.39-3.36Zm0-27.53H7.65c-2.26,0-3,.74-3,3q0,4,0,7.92c0,2.09.73,2.83,2.84,2.83H56.81c2,0,2.81-.8,2.83-2.89,0-2.55,0-5.09,0-7.64s-.73-3.21-3.25-3.21Zm0,55.1H7.65c-2.3,0-3,.69-3,3q0,3.89,0,7.78c0,2.25.74,3,3,3h49c2.14,0,2.95-.79,3-2.92,0-2.49,0-5,0-7.49,0-2.72-.63-3.33-3.39-3.33ZM11.49,55.14a28.47,28.47,0,0,1,0,2.93c-.14,1.29.34,1.63,1.61,1.62,12.72,0,25.45,0,38.17,0,.49,0,1,0,1.43-.07V55.14Zm0,31.94H52.68v-4.4c-.46,0-.82-.07-1.19-.07H12.9c-.18,0-.42-.07-.54,0-.32.23-.81.5-.83.78C11.44,84.59,11.49,85.79,11.49,87.08Z"/><path class="cls-1" d="M27.56,20.72V16.07H99.62c3.16,0,3.65.5,3.7,3.72,0,.32,0,.63.07,1.2l11.55-7.21L103.31,6.5c0,1,0,1.67,0,2.37-.07,1.7-.9,2.59-2.59,2.59q-38.55,0-77.1,0a4.19,4.19,0,0,1-.63-.11V6.93H98.65c0-1.55,0-2.92,0-4.29,0-2.31,1.82-3.34,3.79-2.13q8.89,5.52,17.76,11.1c1.93,1.22,1.94,3.09,0,4.31q-8.87,5.59-17.76,11.1c-2,1.21-3.77.19-3.81-2.1,0-1.34,0-2.68,0-4.2Z"/><path class="cls-1" d="M9.25,20.67V16.15h4.58c0,1.3,0,2.54,0,3.77a1.06,1.06,0,0,1-.72.72C11.84,20.71,10.6,20.67,9.25,20.67Z"/><path d="M22.93,16.17v4.42H18.42V16.17Z"/><path d="M119.26,126.12c0-1.32,0-2.55,0-3.78a1,1,0,0,1,.72-.71c1.24-.07,2.48,0,3.81,0v4.52Z"/><path class="cls-1" d="M128.51,126.08V121.7H133v4.38Z"/></g></g></svg>