<svg xmlns="http://www.w3.org/2000/svg" viewBox="0 0 68.17 127.56"><defs><style>.cls-1{fill:#48494a;}.cls-2{fill:#f57f20;}.cls-3{fill:#494949;}</style></defs><g id="Layer_2" data-name="Layer 2"><g id="Layer_1-2" data-name="Layer 1"><path class="cls-1" d="M59,0a12.07,12.07,0,0,1,6.72,4,11.22,11.22,0,0,1,2.42,7.28q0,52.56,0,105.13c0,6.72-4.62,11.2-11.33,11.2H11.1A10.5,10.5,0,0,1,.41,119.43,13.17,13.17,0,0,1,0,116.11Q0,63.79,0,11.48C0,5.36,3.73,1.13,8.84.17A1.15,1.15,0,0,0,9.17,0Zm4.72,106.21V23.5H4.44v82.71Zm0-87.12c0-3.3,0-6.48,0-9.67a1.54,1.54,0,0,0-.1-.35C62.77,6,60.33,4.25,56.77,4.25H17c-1.91,0-3.82,0-5.73,0-4.3,0-6.9,2.61-6.93,6.89,0,2.28,0,4.56,0,6.84,0,.36.06.72.09,1.11ZM25.56,123.32c-2.79-4.27-2.79-8.43-.1-12.64H4.37c0,2,0,3.88,0,5.78,0,4.2,2.63,6.82,6.83,6.85,3.36,0,6.73,0,10.09,0Zm17.06,0c5.19,0,10.16.09,15.12,0,2.72-.07,5-1.5,5.6-4.15s.44-5.61.61-8.43H42.71C45.38,114.88,45.41,119,42.62,123.29ZM40.4,117a6.32,6.32,0,1,0-12.63,0,6.32,6.32,0,1,0,12.63,0Z"/><path class="cls-2" d="M21.38,68c1.25,0,2.49,0,3.74,0,3.9,0,6.49,2.19,6.79,6.09a61,61,0,0,1,0,9.07c-.27,3.71-2.44,5.85-6.16,6.06a80.36,80.36,0,0,1-9.44-.07,6.07,6.07,0,0,1-5.6-6q-.14-4.53,0-9.08A6.32,6.32,0,0,1,16.9,68c1.49,0,3,0,4.48,0Zm6.27,10.7c0-1.33,0-2.66,0-4,0-1.59-.75-2.42-2.34-2.45-2.65-.06-5.31-.06-8,0A2.09,2.09,0,0,0,15,74.49q-.13,4.17,0,8.34A2.06,2.06,0,0,0,17.34,85q4,0,8,0c1.58,0,2.31-.78,2.34-2.4C27.67,81.3,27.65,80,27.65,78.73Z"/><path class="cls-2" d="M46.89,68c1.41,0,2.83,0,4.24,0a6.36,6.36,0,0,1,6.35,6.2c.07,3,.06,5.89,0,8.84a6.11,6.11,0,0,1-5.72,6.12,76.26,76.26,0,0,1-9.32.07c-3.76-.22-6-2.4-6.19-6.17a74.39,74.39,0,0,1,.1-9.56,6.08,6.08,0,0,1,5.94-5.48c1.53-.06,3.07,0,4.6,0Zm-.1,17c1.28,0,2.57,0,3.86,0,1.69,0,2.52-.71,2.56-2.35.06-2.65.06-5.31,0-8a2.15,2.15,0,0,0-2.32-2.38c-2.69-.06-5.39-.07-8.09,0a2.11,2.11,0,0,0-2.27,2.38c0,2.66,0,5.31,0,8,0,1.59.78,2.32,2.4,2.34C44.21,85,45.5,85,46.79,85Z"/><path class="cls-2" d="M21.25,63.78c-1.41,0-2.82,0-4.23,0a6.32,6.32,0,0,1-6.32-6.21c-.07-2.91-.06-5.81,0-8.71a6.16,6.16,0,0,1,5.87-6.24,88.23,88.23,0,0,1,9.2,0c3.59.17,5.88,2.32,6.12,5.94a73,73,0,0,1-.06,9.81,6,6,0,0,1-6,5.44c-1.54.05-3.07,0-4.61,0Zm6.4-10.62c0-1.32,0-2.65,0-4a2.1,2.1,0,0,0-2.39-2.36c-2.61,0-5.23,0-7.84,0A2.14,2.14,0,0,0,15,49.16c-.07,2.65-.07,5.31,0,8a2.15,2.15,0,0,0,2.31,2.39q4,.1,8.09,0c1.56,0,2.27-.89,2.29-2.5C27.67,55.74,27.65,54.45,27.65,53.16Z"/><path class="cls-2" d="M46.81,63.78H43.08c-4,0-6.58-2.21-6.83-6.19a74.48,74.48,0,0,1,.11-9.68,5.82,5.82,0,0,1,5.42-5.27c3.31-.15,6.64-.17,9.95,0a6.08,6.08,0,0,1,5.73,6q.15,4.55,0,9.09a6.31,6.31,0,0,1-6.3,6.1C49.72,63.8,48.26,63.77,46.81,63.78ZM40.52,53.14v4c0,1.52.76,2.36,2.27,2.39,2.7.07,5.4.06,8.09,0a2.12,2.12,0,0,0,2.32-2.25c.07-2.73.08-5.48,0-8.21a2.11,2.11,0,0,0-2.42-2.24c-2.61,0-5.23,0-7.84,0-1.66,0-2.39.77-2.42,2.46C40.5,50.57,40.52,51.85,40.52,53.14Z"/><path class="cls-1" d="M12.87,32.09c0,1.18,0,2.38,0,3.58,0,1.57-.84,2.56-2.09,2.61s-2.18-.92-2.23-2.47c0-1.9-.06-3.81,0-5.71.06-1.73.86-2.44,2.6-2.45,1.91,0,3.81,0,5.72,0a2.12,2.12,0,1,1,0,4.22c-1.24,0-2.48,0-3.73,0C13.09,31.92,13.06,32,12.87,32.09Z"/><path class="cls-3" d="M27.71,31.88c-.71,0-1.42,0-2.12,0a2.18,2.18,0,0,1-2.15-2.14,2.12,2.12,0,0,1,2.08-2.07c1.46-.05,2.91-.05,4.36,0A2.07,2.07,0,0,1,32,29.73a2.12,2.12,0,0,1-2.12,2.15C29.12,31.91,28.41,31.88,27.71,31.88Z"/><path class="cls-2" d="M19.23,14.84V10.69h21.2v4.15Z"/><path class="cls-2" d="M44.78,14.84V10.69h4.15v4.15Z"/></g></g></svg>