<svg xmlns="http://www.w3.org/2000/svg" viewBox="0 0 124.96 117.18"><defs><style>.cls-1{fill:#f57f20;}</style></defs><g id="Layer_2" data-name="Layer 2"><g id="Layer_1-2" data-name="Layer 1"><path d="M0,85.7V9.55a2.72,2.72,0,0,0,.18-.44C1.15,3.64,6,0,11.75,0Q62.51.12,113.28,0c7,0,11.68,4.64,11.68,11.68V83.6c0,7-4.66,11.61-11.62,11.62h-31c0,.2,0,.32.06.43,1.49,4.51,3,9,4.47,13.52.22.69.64.71,1.19.71,3.62,0,7.24,0,10.86,0a3.66,3.66,0,1,1,.06,7.31H26a3.66,3.66,0,1,1,.05-7.31c2.77,0,5.53,0,8.3,0,1.13,0,2.59.38,3.32-.18s.93-2.07,1.31-3.18c1.25-3.72,2.47-7.45,3.74-11.29H11.26a10.48,10.48,0,0,1-9.17-4.65A27.17,27.17,0,0,1,0,85.7ZM22.21,73.23V71.92q0-4.69,0-9.39a3.62,3.62,0,0,1,3.85-3.91h3.17c2.29,0,2.26,0,3.19-2.15a1.33,1.33,0,0,0-.38-1.79c-1.11-1-2.16-2.09-3.19-3.18a3.56,3.56,0,0,1-.07-5.16q5.16-5.28,10.44-10.44a3.56,3.56,0,0,1,5.06,0c.85.77,1.63,1.6,2.44,2.4,1.66,1.67,1.65,1.63,3.87.74a1.28,1.28,0,0,0,.92-1.46c-.05-1.54,0-3.09,0-4.63a3.55,3.55,0,0,1,3.54-3.6q7.44,0,14.89,0a3.55,3.55,0,0,1,3.51,3.5c0,1.14,0,2.28,0,3.42,0,2.39,0,2.36,2.17,3.29a1.27,1.27,0,0,0,1.69-.32C78.37,38.1,79.47,37,80.6,36a3.56,3.56,0,0,1,5.15,0Q91,41.08,96.19,46.36a3.55,3.55,0,0,1,0,5.07c-.74.81-1.54,1.56-2.31,2.34-1.74,1.74-1.72,1.73-.8,4a1.21,1.21,0,0,0,1.35.9c1.58-.06,3.17,0,4.75,0a3.58,3.58,0,0,1,3.47,2.73,6.32,6.32,0,0,1,.11,1.57c0,3.41,0,6.81,0,10.27h14.9V11.88c0-3.15-1.38-4.53-4.54-4.53H11.83c-3.15,0-4.51,1.39-4.51,4.56V73.23Zm22.22,0A18.52,18.52,0,0,1,61,51.32a17.84,17.84,0,0,1,13.21,4.26c5.4,4.64,7.32,10.61,6.29,17.61H95.35V65.93H91.14a3.8,3.8,0,0,1-4-2.87c-.8-2.08-1.64-4.14-2.56-6.16s-.79-3.42.84-5.07c.94-.95,1.94-1.85,2.82-2.69l-5.29-5.31c-.87.92-1.79,2-2.77,2.91-1.58,1.55-3,1.7-5,.79S71.11,45.75,69,45s-2.87-1.86-2.88-4c0-1.41,0-2.82,0-4.22H58.9a1.57,1.57,0,0,0-.07.32c0,1.3,0,2.6,0,3.9,0,2.14-.87,3.23-2.89,4s-4.14,1.65-6.16,2.57-3.38.78-5-.78c-1-1-1.9-2-2.77-2.91l-5.2,5.22c0-.07,0,0,0,0,.94,1,1.89,1.9,2.82,2.86,1.54,1.6,1.68,3,.76,5S38.64,61,37.84,63.06a3.82,3.82,0,0,1-4,2.87h-4.2v7.28Zm73.21,7.45H7.32v2.4c0,3.58,1.26,4.84,4.83,4.84H112.82c.41,0,.82,0,1.22,0a3.71,3.71,0,0,0,3.59-3.62C117.69,83.1,117.64,81.92,117.64,80.66ZM79.32,109.82c-1.51-4.54-3-9-4.44-13.46a1.42,1.42,0,0,0-1.62-1.17c-6.66,0-13.33,0-20,0-2.76,0-2.77,0-3.62,2.55l-4,12ZM62.42,73.26c3.09,0,6.18,0,9.27,0,.92,0,1.26-.29,1.44-1.16a11.71,11.71,0,0,0-.09-5.3,10.94,10.94,0,0,0-21.22,5.3c.24.95.65,1.18,1.57,1.16C56.4,73.22,59.41,73.26,62.42,73.26Z"/><path class="cls-1" d="M99,36.64a11,11,0,1,1,11-10.87A11,11,0,0,1,99,36.64Zm3.7-10.95a3.65,3.65,0,1,0-3.68,3.62A3.74,3.74,0,0,0,102.74,25.69Z"/><path class="cls-1" d="M29.62,72.5V65.93h4.2a3.82,3.82,0,0,0,4-2.87c.8-2.08,1.64-4.14,2.56-6.16s.78-3.39-.76-5c-.92-1-1.88-1.91-2.82-2.86L42,43.83c.87.92,1.79,2,2.77,2.91,1.6,1.56,3,1.7,5,.78s4.08-1.77,6.16-2.57,2.87-1.86,2.89-4c0-1.3,0-2.6,0-3.9a1.57,1.57,0,0,1,.07-.32h7.25c0,1.4,0,2.81,0,4.22,0,2.14.87,3.23,2.88,4s4.14,1.66,6.16,2.58,3.4.76,5-.79c1-1,1.9-2,2.77-2.91l5.29,5.31c-.88.84-1.88,1.74-2.82,2.69-1.63,1.65-1.79,3-.84,5.07s1.76,4.08,2.56,6.16a3.8,3.8,0,0,0,4,2.87h4.21V73c1.41,0,2.81-.07,4.21-.14l3.19-.13c0-3.29,0-6.55,0-9.81a6.32,6.32,0,0,0-.11-1.57,3.58,3.58,0,0,0-3.47-2.73c-1.58,0-3.17,0-4.75,0a1.21,1.21,0,0,1-1.35-.9c-.92-2.23-.94-2.22.8-4,.77-.78,1.57-1.53,2.31-2.34a3.55,3.55,0,0,0,0-5.07Q91,41.08,85.75,35.92a3.56,3.56,0,0,0-5.15,0c-1.13,1.06-2.23,2.15-3.28,3.28a1.27,1.27,0,0,1-1.69.32c-2.16-.93-2.17-.9-2.17-3.29,0-1.14,0-2.28,0-3.42a3.55,3.55,0,0,0-3.51-3.5q-7.44,0-14.89,0a3.55,3.55,0,0,0-3.54,3.6c0,1.54,0,3.09,0,4.63A1.28,1.28,0,0,1,50.6,39c-2.22.89-2.21.93-3.87-.74-.81-.8-1.59-1.63-2.44-2.4a3.56,3.56,0,0,0-5.06,0Q34,41.06,28.79,46.34a3.56,3.56,0,0,0,.07,5.16c1,1.09,2.08,2.17,3.19,3.18a1.33,1.33,0,0,1,.38,1.79c-.93,2.13-.9,2.15-3.19,2.15H26.07a3.62,3.62,0,0,0-3.85,3.91q0,4.69,0,9.39v.43C24.68,72.31,27.15,72.39,29.62,72.5Z"/><path class="cls-1" d="M51.82,72.12A10.94,10.94,0,0,1,73,66.82a11.71,11.71,0,0,1,.09,5.3,1.7,1.7,0,0,1-.14.45c2.52.06,5.05.15,7.57.23.91-6.83-1-12.66-6.33-17.22A17.84,17.84,0,0,0,61,51.32,18.52,18.52,0,0,0,44.38,72.89c2.57,0,5.13-.07,7.7-.13A2.13,2.13,0,0,1,51.82,72.12Z"/></g></g></svg>