<svg xmlns="http://www.w3.org/2000/svg" viewBox="0 0 125.88 156.11"><defs><style>.cls-1{fill:#48494a;}.cls-2{fill:#f57f20;}</style></defs><g id="Layer_2" data-name="Layer 2"><g id="Layer_1-2" data-name="Layer 1"><path class="cls-1" d="M28.09,130.71c-3.23-1.36-5.29-3.54-5.39-7.12a7.1,7.1,0,0,1,4-6.79A2,2,0,0,0,27.76,115c.63-3.92-.76-6.57-4.06-8.92A61.65,61.65,0,0,1,11,94.59C2.6,84.07-1.28,72.06.38,58.69c2.54-20.49,14-34.16,33.28-41.21,7-2.54,14.25-2.61,21.64-2.28V37.77c-1.38,0-2.83,0-4.27,0-3.34,0-5.66,2.06-5.69,5s2.33,5,5.63,5.08h4.4V60.36h10c.92-6.48,4.81-10.11,10.64-10,5.18.11,9.07,4.08,9.71,10.05h14.92a48.78,48.78,0,0,1-18.86,42c-2.62,2.08-5.23,4.2-7.76,6.4a3.71,3.71,0,0,0-1,1.94,17.72,17.72,0,0,0,0,2.19,4.49,4.49,0,0,0,2.16,4.72c4.41,3.06,3.7,9.74-1,12.35-.45.25-.93.46-1.5.75.11.59.26,1.19.33,1.79a7.72,7.72,0,0,1-4,7.63A3.15,3.15,0,0,0,67.69,142a17.67,17.67,0,0,1-34.62,0c-.1-.56-.34-1.35-.76-1.57C28.33,138.34,27.05,135.12,28.09,130.71Zm22.19-15v-20c-5.77-.54-9.82-4.46-10-9.56-.17-5.9,3.36-9.74,10-10.79v-10h-15c0-1.64,0-3.1,0-4.57,0-3.16-2.23-5.49-5.09-5.45s-4.93,2.3-5,5.4c0,1.5,0,3,0,4.71H5.11c.78,12.63,5.72,23,15.13,31.23,3.51,3.06,7.14,6,10.82,8.86a3.85,3.85,0,0,1,1.72,3.69c-.15,2.12,0,4.27,0,6.47Zm17.72,0c0-2.46.06-4.81,0-7.15a2.76,2.76,0,0,1,1.16-2.53c3.16-2.5,6.24-5.12,9.39-7.63A44,44,0,0,0,93.61,76.91a39.8,39.8,0,0,0,1.94-11.48h-15c0-1.55,0-3,0-4.36,0-3.32-2.11-5.66-5-5.67s-5,2.33-5,5.65c0,1.44,0,2.89,0,4.45H55.39V80.57H51c-3.33,0-5.66,2.1-5.66,5s2.35,5,5.66,5h4.44v25.1ZM50.32,20.22c-27.27-.88-44.72,22-44.8,40.14H20.07c.69-5.76,4.33-9.66,9.22-10a10.16,10.16,0,0,1,7,1.95,10.37,10.37,0,0,1,4.15,8H50.3V53c-6-.85-9.79-4.52-10-9.54a10.06,10.06,0,0,1,2.14-6.88,10.31,10.31,0,0,1,7.87-3.92Zm0,105.69c6.49,0,13,0,19.47,0a3.91,3.91,0,0,0,2.59-1.06,3,3,0,0,0,.3-2.41c-.34-1.2-1.46-1.53-2.64-1.53H53.71c-7.59,0-15.18,0-22.77.06a4,4,0,0,0-2.78,1.28c-1.28,1.68.23,3.69,2.69,3.7C37.34,125.92,43.84,125.91,50.33,125.91ZM38.2,141.08a12.45,12.45,0,0,0,12.7,10c5.82-.32,11.17-4.93,11.57-10ZM50.33,136H64.61c2.1,0,3.33-.92,3.36-2.48s-1.21-2.56-3.27-2.56H36c-2,0-3.17.95-3.2,2.47S34,136,36,136C40.8,136,45.56,136,50.33,136Z"/><path class="cls-2" d="M75.51,45.2V32.87c-6.63-1-10.2-4.89-10-10.8.15-5.08,4.17-9,10.06-9.56,0-1.64,0-3.31,0-5A7.43,7.43,0,0,1,83,0q17.7,0,35.4,0a7.41,7.41,0,0,1,7.47,7.5q0,15.18,0,30.37a7.42,7.42,0,0,1-7.39,7.42c-4.18,0-8.37,0-12.72,0,0-1.64,0-3.14,0-4.65,0-3.09-2.15-5.36-5-5.41s-5.06,2.26-5.1,5.43c0,1.47,0,2.93,0,4.51Zm35.34-5a2.16,2.16,0,0,0,.42.11c2,0,4.09,0,6.13,0,2.6,0,3.45-.87,3.45-3.51V8.62c0-2.75-.82-3.59-3.54-3.59H84.14c-2.74,0-3.57.83-3.57,3.56v9H76.18c-3.34,0-5.66,2.09-5.67,5s2.34,5,5.64,5.05h4.42V40.29H90.1a1.94,1.94,0,0,0,.43-.11c.88-6.4,4.8-10.06,10.63-9.94C106.34,30.33,110.26,34.33,110.85,40.17Z"/></g></g></svg>