<svg xmlns="http://www.w3.org/2000/svg" viewBox="0 0 133.12 133.18"><defs><style>.cls-1{fill:#48494a;}.cls-2{fill:#f57f20;}</style></defs><g id="Layer_2" data-name="Layer 2"><g id="Layer_1-2" data-name="Layer 1"><path class="cls-1" d="M75.64,0a5.64,5.64,0,0,0,.53.31,5.14,5.14,0,0,1,3.37,5.05c0,5.08,0,10.15,0,15.22a5.2,5.2,0,1,1-10.39-.06c0-3.32,0-6.65,0-10a52.72,52.72,0,0,0-5.91,0c-2.74.32-4.41,2.46-4.51,5.34a28.76,28.76,0,0,1-.27,4.65,11.55,11.55,0,0,1-8.3,9.27,11.65,11.65,0,0,1-11.95-2.61c-.74-.66-1.41-1.41-2.14-2.08a5.2,5.2,0,0,0-7.47,0c-1.17,1.09-2.3,2.24-3.41,3.39a5.2,5.2,0,0,0,0,7.75,18.55,18.55,0,0,1,4.16,5.42A12.29,12.29,0,0,1,18.46,58.76c-.91,0-1.82,0-2.73,0a5.28,5.28,0,0,0-5.36,5.36c0,1.6,0,3.21,0,4.81a5.31,5.31,0,0,0,5.43,5.44,27.72,27.72,0,0,1,4.66.26,12.2,12.2,0,0,1,6.71,20.24c-.61.67-1.28,1.3-1.91,2-2.36,2.46-2.37,5.41,0,7.85,1.05,1.09,2.12,2.17,3.22,3.22a5.21,5.21,0,0,0,7.75,0,18.45,18.45,0,0,1,5.53-4.22,12.31,12.31,0,0,1,17,10.94c0,1,0,1.91,0,2.86a5.15,5.15,0,0,0,4.82,5.2c1.79.15,3.61,0,5.58,0,0-3.08,0-6.1,0-9.12a10.65,10.65,0,0,1,.3-2.94,5.16,5.16,0,0,1,10.06,1.47c0,5.33,0,10.66,0,16a5.06,5.06,0,0,1-5.08,5c-3.81,0-7.63.07-11.44,0-7.53-.16-14.4-7-14.64-14.56,0-1,0-1.91,0-2.86s-.13-1.9-1.22-2.35-1.73.12-2.38.81a17.46,17.46,0,0,1-7.42,5.08c-5.65,1.77-10.84.82-15.27-3.1a39.8,39.8,0,0,1-6.45-6.91c-4.17-6-3.28-13.74,1.85-19.33.53-.58,1.08-1.13,1.64-1.67a1.88,1.88,0,0,0,.64-2.31c-.41-.94-1.2-1.1-2.13-1.16a35.61,35.61,0,0,1-6-.55A15.27,15.27,0,0,1,0,69.53,47.39,47.39,0,0,1,.57,60c1.43-6.7,7.8-11.52,14.66-11.6.82,0,1.64,0,2.47,0a1.94,1.94,0,0,0,2.07-1.22A2,2,0,0,0,19.15,45a37.42,37.42,0,0,1-3.9-4.67,15.1,15.1,0,0,1,1.64-18.09,43,43,0,0,1,7.34-6.74A15.09,15.09,0,0,1,42.64,17c.75.66,1.46,1.36,2.16,2.07s1.38,1.18,2.4.73a2,2,0,0,0,1.14-2.26,17.25,17.25,0,0,1,1.28-8.13A15.42,15.42,0,0,1,61.27.24,3,3,0,0,0,61.86,0Z"/><path class="cls-2" d="M133.12,25.23a11.25,11.25,0,0,1-2.91,5.11,8.8,8.8,0,0,1-6.78,2.38,2.52,2.52,0,0,0-2.25.9c-3.68,3.73-7.43,7.4-11.1,11.14a6.53,6.53,0,0,1-5,2.07q-19-.06-38.07,0c-8.7,0-16.15,5.1-19,12.84C43.27,72.87,52.76,86.28,67,86.34q19,.06,38.08,0a6.63,6.63,0,0,1,5,2.06q5.59,5.61,11.3,11.12a2.3,2.3,0,0,0,1.53.65c5-.22,8.46,2.12,10,6.93a4.41,4.41,0,0,0,.26.59v3.12a10.67,10.67,0,0,1-3.21,5.36,8.75,8.75,0,0,1-9.61,1.36A8.64,8.64,0,0,1,115,109.3a3.19,3.19,0,0,0-1-2.48c-3.14-3-6.22-6-9.27-9.11a3,3,0,0,0-2.37-1q-17.86,0-35.74,0a30.12,30.12,0,0,1-8.48-59,34.14,34.14,0,0,1,9-1.23c11.78-.14,23.56-.07,35.35,0a2.69,2.69,0,0,0,2.15-.87q4.72-4.83,9.56-9.56a2.7,2.7,0,0,0,.88-2.14,9,9,0,0,1,7.19-9.09,9.08,9.08,0,0,1,10.17,5.16c.33.7.54,1.45.81,2.18Z"/><path class="cls-2" d="M133.12,68.14a10.92,10.92,0,0,1-3.31,5.45,9,9,0,0,1-12.5-.94,2.34,2.34,0,0,0-2-.89c-12.7,0-25.39,0-38.09,0a2.68,2.68,0,0,0-1.75.75A9.1,9.1,0,0,1,59.9,64a9.09,9.09,0,0,1,9.62-6.51,8.46,8.46,0,0,1,5.84,3,2.21,2.21,0,0,0,1.87.86c12.74,0,25.48,0,38.22,0a2.47,2.47,0,0,0,1.65-.69,9.13,9.13,0,0,1,15.7,3.52c.09.28.21.56.32.84Z"/></g></g></svg>