<svg xmlns="http://www.w3.org/2000/svg" viewBox="0 0 129.99 134.21"><defs><style>.cls-1{fill:#48494a;}.cls-2{fill:#f57f20;}</style></defs><g id="Layer_2" data-name="Layer 2"><g id="Layer_1-2" data-name="Layer 1"><path class="cls-1" d="M130,107.18a4.1,4.1,0,0,0-4.36-4.35,1.71,1.71,0,0,1-1.9-1.31c-.34-.94-.6-1.61.32-2.5,1.94-1.87,1.86-4.18,0-6.13-.91-.94-1.84-1.87-2.78-2.78-2-2-4.22-1.94-6.23,0-.49.47-.89,1.09-1.75.55s-2.06-.46-2-2.09c.07-2.41-1.27-4.21-3.34-4.29a11.62,11.62,0,0,1-5.11-1.64,18.42,18.42,0,0,0-3.56-1.28q-11.13-3.14-22.28-6.18c-.7-.19-1.47-.11-2.18-.27-.43-.1-1-.33-1.15-.66a5.57,5.57,0,0,1-.48-2.14c-.07-1.65,0-3.32,0-5A2.18,2.18,0,0,1,74.2,65a23.16,23.16,0,0,0,9.93-16.25,1.18,1.18,0,0,1,1.07-1.19,6,6,0,0,0,5-6c.1-1.79,0-3.58,0-5.37a5.73,5.73,0,0,0-1.91-4,2.16,2.16,0,0,1-.32-.4,13,13,0,0,1-.69,1.58A12.4,12.4,0,0,1,86.2,36.1a49.14,49.14,0,0,1-.09,6c-.07.59-1.13,1.16-1.85,1.56-.4.23-1,.09-1.54.11-1.48,0-2.15.64-2.25,2.14a20,20,0,0,1-4.8,12.46c-11.15,12.46-29.71,8.69-36.15-4a18.83,18.83,0,0,1-2.05-7.78c-.09-2.18-.71-2.8-2.84-2.82-2.32,0-3.13-.85-3.14-3.18,0-1.45,0-2.9,0-4.36l.89.59a17.82,17.82,0,0,1-1.61-6.51c-.24,0-.47-.08-.7-.14,0,.34,0,.67,0,1a1.53,1.53,0,0,1-.48,1,6.24,6.24,0,0,0-2,4.52c0,1.71-.09,3.42,0,5.11a6,6,0,0,0,3.87,5.44,19.13,19.13,0,0,0,2.08.63A24,24,0,0,0,44.07,65.36c.29.2.68.57.68.86,0,2.44,0,4.88-.22,7.31-.07.93-.53,1.73-1.83,1.37a3.41,3.41,0,0,0-1.67.22q-11.45,3.18-22.9,6.39A18.43,18.43,0,0,0,6.35,91c-1.79,3.39-2.12,7.16-2.7,10.85a1.93,1.93,0,0,0,1.51,2.49c1.24.21,2.15-.53,2.41-2,.28-1.63.52-3.27.82-4.9,1.07-5.73,4.19-9.83,9.78-11.72,3.58-1.22,7.28-2.09,10.91-3.17a1.45,1.45,0,0,1,1.77.54c3.25,3.77,6.55,7.5,9.84,11.24a8.14,8.14,0,0,0,9.55,2.54c2.56-.87,5.1-1.78,7.68-2.58a3.51,3.51,0,0,1,2,0c2.5.77,5,1.65,7.44,2.49,4.2,1.42,7.17.61,10.07-2.71s6-6.72,8.86-10.19a2.76,2.76,0,0,1,3.48-1.07c3.17,1,6.4,1.85,9.47,2.71a21.19,21.19,0,0,0-.63,3c0,.86-.14,1.45-1.1,1.74s-1.7,1-2.74-.16c-1.9-2-4.19-1.93-6.2,0-1,.94-1.94,1.89-2.87,2.88a3.94,3.94,0,0,0,0,5.93c1,.9.73,1.6.36,2.63s-.92,1.23-1.92,1.24A4,4,0,0,0,79.89,107c0,1.35,0,2.71,0,4.06.06,2.94,1.61,4.53,4.57,4.51A1.37,1.37,0,0,1,86,116.72c.24.82,1,1.58,0,2.44A3.68,3.68,0,0,0,84.48,123,16.6,16.6,0,0,0,86,126.14H12.34c-1.83,0-3.67,0-5.5,0-2.06,0-3.09-1.32-2.76-3.36.57-3.44,1.16-6.88,1.72-10.32.25-1.59-.36-2.61-1.6-2.8s-2.06.7-2.32,2.16Q1,117,.1,122.25a6.57,6.57,0,0,0,4.69,7.6,11.92,11.92,0,0,0,3.1.32h90.5c.84,3.12,2,4,5.14,4,1,0,2.09,0,3.14,0,2.91,0,4.58-1.47,4.56-4.34,0-1.51,1-1.57,1.85-2.07s1.39,0,2,.54c2,1.89,4.15,1.86,6.12,0,1-.91,1.87-1.84,2.79-2.78,1.93-2,2-4.31,0-6.21-1-1-.46-1.65-.19-2.53a1.55,1.55,0,0,1,1.8-1.22,4.1,4.1,0,0,0,4.41-4.3C130,109.89,130,108.54,130,107.18ZM48.36,93.26A4.09,4.09,0,0,1,44,92c-3.12-3.53-6.21-7.08-9.31-10.63,0,0,0-.16-.08-.33,2.42-.67,4.83-1.37,7.26-2a1.11,1.11,0,0,1,.91.19C46.83,83.08,50.91,87,55.16,91,52.71,91.81,50.56,92.63,48.36,93.26Zm10.56-4.2c-4-3.82-8-7.57-11.74-11.13a36.14,36.14,0,0,0,1.48-5,34.34,34.34,0,0,0,.06-5A26.41,26.41,0,0,0,69,68c.25,3.37-.48,6.78,2,9.61Zm19.46-2.15c-1.44,1.64-2.87,3.28-4.32,4.91A4.38,4.38,0,0,1,69,93.11L62.67,91c3.56-3.37,7.06-6.4,10.2-9.77,1.84-2,3.52-2.52,6-1.45a35.61,35.61,0,0,0,4.62,1.35Zm47.51,24c0,.26-.49.67-.78.71a6.57,6.57,0,0,0-5.82,7.2c.18,1.27,1.15,2.44,1.77,3.67l-3.18,3.13c-1.75-2.37-4-2.43-6.81-1.31s-4.11,2.93-3.78,6h-4.85c.52-3.06-.94-4.81-3.75-6s-5-1.13-6.85,1.46l-3.25-3.59c2.18-1.66,2.44-3.89,1.26-6.7s-2.82-4.23-5.92-3.78v-4.88c4,.61,5.26-2,6.36-5,.89-2.46-.2-4.11-1.86-5.61l3.45-3.34c1.76,2.33,4,2.52,6.81,1.35s4.23-2.83,3.76-5.94h4.85c-.52,3.68,1.69,5.15,4.67,6.26a4.88,4.88,0,0,0,6-1.67l3.27,3.44c-2.12,1.7-2.39,3.93-1.23,6.74s2.84,4.19,6,3.82C125.93,108.27,126,109.58,125.89,110.87Z"/><path class="cls-2" d="M88,22a5.67,5.67,0,0,0-.15-1.42,1.77,1.77,0,0,0-1.93-1.42,1.69,1.69,0,0,0-1.8,1.55C84,21.8,84,22.94,84,24.07c0,1,0,1.94,0,3.14a77.27,77.27,0,0,0-50.19,0c0-3.47,0-6.66,0-9.84a9.54,9.54,0,0,1,7.65-9.76c4.15-1,8.32-1.93,12.46-3a17.79,17.79,0,0,1,8.67-.14c4,1,8,2,12,2.75,3.64.72,6.66,2.19,8.53,5.59a1.85,1.85,0,0,0,2.7.77,2,2,0,0,0,.63-2.85A12.84,12.84,0,0,0,78.6,4.19c-2.08-.62-4.22-1.06-6.34-1.55C68.45,1.75,64.63.88,60.82,0H56.1a1.27,1.27,0,0,1-.33.2c-5.05,1.17-10.1,2.29-15.14,3.49C34.73,5.1,30.24,9.81,30,15.35c-.2,4.71,0,9.43.06,14.15A18.29,18.29,0,0,1,31.21,35c0,.26,0,.52,0,.77s.16.42.23.63l.06.1v-.31c1.31.81,2.3,1.74,3.45,2a8.25,8.25,0,0,0,4.07,0,73.32,73.32,0,0,1,20.65-3,64.78,64.78,0,0,1,18,2.71c3.24,1,6,.73,8.49-2.16,0,.25,0,.49,0,.74a13.35,13.35,0,0,1,.72-1.59,14.18,14.18,0,0,1,.91-3.54.79.79,0,0,1-.06-.29C87.83,28.15,88,25.06,88,22ZM83.31,32.4c-.56,2-1.66,2.56-3.65,2.1-3.31-.77-6.59-1.69-9.94-2.23a69.48,69.48,0,0,0-30.57,1.95l-.37.11c-3,.77-3.94.12-4.45-3.1a72.91,72.91,0,0,1,49.22,0C83.47,31.66,83.41,32,83.31,32.4Z"/><path class="cls-2" d="M39.42,116.08c-2.27,0-4.54,0-6.81,0-2.57,0-3.76-1.22-3.78-3.75,0-1.4,0-2.79,0-4.19,0-2.17,1.19-3.45,3.37-3.48q7.2-.09,14.39,0A3.24,3.24,0,0,1,50,108.12c0,1.44,0,2.88,0,4.32-.05,2.34-1.31,3.59-3.68,3.63S41.73,116.08,39.42,116.08Zm-6.61-4.14H45.94v-3.19H32.81Z"/><path class="cls-2" d="M95.33,109.22a9.59,9.59,0,1,1,9.6,9.53A9.6,9.6,0,0,1,95.33,109.22Zm15.15.13a5.58,5.58,0,1,0-5.71,5.46A5.66,5.66,0,0,0,110.48,109.35Z"/></g></g></svg>