<svg xmlns="http://www.w3.org/2000/svg" viewBox="0 0 47.87 49.62"><defs><style>.cls-1{fill:#48494a;}.cls-2{fill:#f57f20;}</style></defs><g id="Layer_2" data-name="Layer 2"><g id="Layer_1-2" data-name="Layer 1"><path class="cls-1" d="M38.19,0l.54.19a4.16,4.16,0,0,1,3,3.84c0,.44,0,.88,0,1.31a2,2,0,0,1-.92,1.71.66.66,0,0,0-.28.39c0,1.21,0,2.42,0,3.71H44.6a3.09,3.09,0,0,1,3.25,3.12c0,1.47,0,2.94,0,4.41,0,.56-.3.89-.75.89s-.73-.34-.74-.9c0-1.41,0-2.81,0-4.22a1.65,1.65,0,0,0-1.86-1.84H26.57a1.67,1.67,0,0,0-1.86,1.85c0,1.94,0,3.88,0,5.82,0,.33.05.49.42.6a2.75,2.75,0,0,1,1.93,2.82c0,4.16,0,8.33,0,12.5v.6h1.08V15.72a3.33,3.33,0,0,1,0-.63.66.66,0,0,1,.68-.57.68.68,0,0,1,.74.56,2.83,2.83,0,0,1,0,.58q0,10.67,0,21.32a1.25,1.25,0,0,0,.3.92,2.42,2.42,0,0,1,.6,1.65c0,1.47,0,2.94,0,4.41a7.18,7.18,0,0,1-.09.83h14c1.33,0,1.92-.58,1.92-1.91V22.72a3.18,3.18,0,0,1,0-.62.67.67,0,0,1,.7-.56.69.69,0,0,1,.7.56,2.24,2.24,0,0,1,0,.52q0,10.13,0,20.26a3.12,3.12,0,0,1-3.38,3.38h-1c0,.49,0,.92,0,1.35a2,2,0,0,1-4,0c0-.43,0-.87,0-1.34H31.66c0,.4,0,.78,0,1.16a2,2,0,1,1-4-.05v-.69h-.53a7.71,7.71,0,0,1-.15.86,2.74,2.74,0,0,1-2.67,2h-18c-1.57,0-2.63-1.09-2.83-2.91-.27,0-.55,0-.83-.05A2.7,2.7,0,0,1,.07,44.09a38.63,38.63,0,0,1,0-4.69,2.71,2.71,0,0,1,2.87-2.57h.57c0-.26,0-.49,0-.71a.74.74,0,0,1,.74-.74.71.71,0,0,1,.73.73,4,4,0,0,1,0,.49v9.79c0,1.33.44,1.78,1.76,1.78H23.86c1.29,0,1.74-.45,1.74-1.75v-16l-2.29.25v.63a1.84,1.84,0,0,1,1.2,2.35,1.37,1.37,0,0,1-1.33,1.19c-1.25,0-2.49,0-3.73,0a1.33,1.33,0,0,1-1.33-1.38,3.14,3.14,0,0,1,.08-1.15,1.4,1.4,0,0,1,.66-.77c.5-.19.52-.48.41-.91h-8v.68a1.82,1.82,0,0,1,1.2,2.34,1.37,1.37,0,0,1-1.38,1.19c-1.21,0-2.43,0-3.64,0a1.35,1.35,0,0,1-1.38-1.33c0-.1,0-.2,0-.29a1.54,1.54,0,0,1,1.2-1.87V30.7L5,30.45V32a5.93,5.93,0,0,1,0,.73.67.67,0,0,1-.7.66.71.71,0,0,1-.74-.63,2.07,2.07,0,0,1,0-.43c0-2.86,0-5.72,0-8.58a2.92,2.92,0,0,1,3.07-3.05c1.78.07,3.58,0,5.45,0,0-.46,0-.89,0-1.31a3.27,3.27,0,0,1,6.43-.77,13.42,13.42,0,0,1,.21,2.05h4.59v-.53c0-1.91.05-3.81,0-5.72a3.19,3.19,0,0,1,3.35-3.32c1.29.06,2.58,0,3.87,0l.17,0v-.63c0-.72,0-1.43,0-2.14S30.7,7.12,30,6.74a1.32,1.32,0,0,1-.51-.88,5.5,5.5,0,0,1,.45-3.72,4.25,4.25,0,0,1,2.71-2c.11,0,.21-.07.32-.1ZM19.28,29.16V22.24h-8v6.92ZM39,11.13c0-1.27,0-2.49,0-3.71,0-.13-.16-.29-.28-.38a1.92,1.92,0,0,1-.9-1.57c0-.29,0-.58,0-.87,0-.64,0-.67-.65-.67H34.57c-1.23,0-1.24,0-1.24,1.22a2.09,2.09,0,0,1-1,1.95.57.57,0,0,0-.21.42c0,.61,0,1.22,0,1.84v1.77Zm-15.68,18a9.09,9.09,0,0,0,1.17,0,1.28,1.28,0,0,0,1.11-1.27q0-2.2,0-4.41a1.22,1.22,0,0,0-.95-1.19,9.68,9.68,0,0,0-1.33-.1Zm-16-7c-.37,0-.69,0-1,0A1.24,1.24,0,0,0,5,23.45c0,1.5,0,3,0,4.5a1.23,1.23,0,0,0,1.17,1.21c.35,0,.7,0,1.08,0ZM35.56,1.42v0c-.66,0-1.32,0-2,0A2.7,2.7,0,0,0,31,3.51a10.58,10.58,0,0,0-.11,1.78c0,.33.15.58.52.56s.46-.25.47-.56a11.18,11.18,0,0,1,0-1.16,1.73,1.73,0,0,1,1.73-1.68c1.3,0,2.61,0,3.92,0a1.75,1.75,0,0,1,1.73,1.79c0,.34,0,.67,0,1s.11.59.48.6.52-.26.51-.62V4.17A2.65,2.65,0,0,0,38,1.55,20.06,20.06,0,0,0,35.56,1.42ZM27.09,45.14c1.41.18,2-.32,2-1.67V39.88a1.45,1.45,0,0,0-2-1.52ZM3.49,38.33c-1.37-.17-2,.34-2,1.65s0,2.45,0,3.67.76,1.76,2,1.46Zm9.94-17.62h3.66a13.56,13.56,0,0,0,0-1.43,1.76,1.76,0,0,0-1.59-1.55A1.74,1.74,0,0,0,13.57,19,13,13,0,0,0,13.43,20.71Zm-4.61,1.5v9.17h.94V22.21Zm12,0v9.16h.94V22.22ZM7.54,32.87l0,.5H11v-.5Zm12.06.49h3.46l0-.47H19.57ZM42,46.3H40.9v1.19c0,.33.16.57.51.58s.54-.23.56-.58S42,46.72,42,46.3Zm-11.81,0a4.42,4.42,0,0,0-.74,0c-.11,0-.27.14-.27.23a4,4,0,0,0,0,1.15c0,.17.33.41.47.39a.68.68,0,0,0,.5-.43A8.56,8.56,0,0,0,30.16,46.26Z"/><path class="cls-1" d="M38.19,0l.54.19a4.16,4.16,0,0,1,3,3.84c0,.44,0,.88,0,1.31a2,2,0,0,1-.92,1.71.66.66,0,0,0-.28.39c0,1.21,0,2.42,0,3.71H44.6a3.09,3.09,0,0,1,3.25,3.12c0,1.47,0,2.94,0,4.41,0,.56-.3.89-.75.89s-.73-.34-.74-.9c0-1.41,0-2.81,0-4.22a1.65,1.65,0,0,0-1.86-1.84H26.57a1.67,1.67,0,0,0-1.86,1.85c0,1.94,0,3.88,0,5.82,0,.33.05.49.42.6a2.75,2.75,0,0,1,1.93,2.82c0,4.16,0,8.33,0,12.5v.6h1.08V15.72a3.33,3.33,0,0,1,0-.63.66.66,0,0,1,.68-.57.68.68,0,0,1,.74.56,2.83,2.83,0,0,1,0,.58q0,10.67,0,21.32a1.25,1.25,0,0,0,.3.92,2.42,2.42,0,0,1,.6,1.65c0,1.47,0,2.94,0,4.41a7.18,7.18,0,0,1-.09.83h14c1.33,0,1.92-.58,1.92-1.91V22.72a3.18,3.18,0,0,1,0-.62.67.67,0,0,1,.7-.56.69.69,0,0,1,.7.56,2.24,2.24,0,0,1,0,.52q0,10.13,0,20.26a3.12,3.12,0,0,1-3.38,3.38h-1c0,.49,0,.92,0,1.35a2,2,0,0,1-4,0c0-.43,0-.87,0-1.34H31.66c0,.4,0,.78,0,1.16a2,2,0,1,1-4-.05v-.69h-.53a7.71,7.71,0,0,1-.15.86,2.74,2.74,0,0,1-2.67,2h-18c-1.57,0-2.63-1.09-2.83-2.91-.27,0-.55,0-.83-.05A2.7,2.7,0,0,1,.07,44.09a38.63,38.63,0,0,1,0-4.69,2.71,2.71,0,0,1,2.87-2.57h.57c0-.26,0-.49,0-.71a.74.74,0,0,1,.74-.74.71.71,0,0,1,.73.73,4,4,0,0,1,0,.49v9.79c0,1.33.44,1.78,1.76,1.78H23.86c1.29,0,1.74-.45,1.74-1.75v-16l-2.29.25v.63a1.84,1.84,0,0,1,1.2,2.35,1.37,1.37,0,0,1-1.33,1.19c-1.25,0-2.49,0-3.73,0a1.33,1.33,0,0,1-1.33-1.38,3.14,3.14,0,0,1,.08-1.15,1.4,1.4,0,0,1,.66-.77c.5-.19.52-.48.41-.91h-8v.68a1.82,1.82,0,0,1,1.2,2.34,1.37,1.37,0,0,1-1.38,1.19c-1.21,0-2.43,0-3.64,0a1.35,1.35,0,0,1-1.38-1.33c0-.1,0-.2,0-.29a1.54,1.54,0,0,1,1.2-1.87V30.7L5,30.45V32a5.93,5.93,0,0,1,0,.73.67.67,0,0,1-.7.66.71.71,0,0,1-.74-.63,2.07,2.07,0,0,1,0-.43c0-2.86,0-5.72,0-8.58a2.92,2.92,0,0,1,3.07-3.05c1.78.07,3.58,0,5.45,0,0-.46,0-.89,0-1.31a3.27,3.27,0,0,1,6.43-.77,13.42,13.42,0,0,1,.21,2.05h4.59v-.53c0-1.91.05-3.81,0-5.72a3.19,3.19,0,0,1,3.35-3.32c1.29.06,2.58,0,3.87,0l.17,0v-.63c0-.72,0-1.43,0-2.14S30.7,7.12,30,6.74a1.32,1.32,0,0,1-.51-.88,5.5,5.5,0,0,1,.45-3.72,4.25,4.25,0,0,1,2.71-2c.11,0,.21-.07.32-.1ZM19.28,29.16V22.24h-8v6.92ZM39,11.13c0-1.27,0-2.49,0-3.71,0-.13-.16-.29-.28-.38a1.92,1.92,0,0,1-.9-1.57c0-.29,0-.58,0-.87,0-.64,0-.67-.65-.67H34.57c-1.23,0-1.24,0-1.24,1.22a2.09,2.09,0,0,1-1,1.95.57.57,0,0,0-.21.42c0,.61,0,1.22,0,1.84v1.77Zm-15.68,18a9.09,9.09,0,0,0,1.17,0,1.28,1.28,0,0,0,1.11-1.27q0-2.2,0-4.41a1.22,1.22,0,0,0-.95-1.19,9.68,9.68,0,0,0-1.33-.1Zm-16-7c-.37,0-.69,0-1,0A1.24,1.24,0,0,0,5,23.45c0,1.5,0,3,0,4.5a1.23,1.23,0,0,0,1.17,1.21c.35,0,.7,0,1.08,0ZM35.56,1.42v0c-.66,0-1.32,0-2,0A2.7,2.7,0,0,0,31,3.51a10.58,10.58,0,0,0-.11,1.78c0,.33.15.58.52.56s.46-.25.47-.56a11.18,11.18,0,0,1,0-1.16,1.73,1.73,0,0,1,1.73-1.68c1.3,0,2.61,0,3.92,0a1.75,1.75,0,0,1,1.73,1.79c0,.34,0,.67,0,1s.11.59.48.6.52-.26.51-.62V4.17A2.65,2.65,0,0,0,38,1.55,20.06,20.06,0,0,0,35.56,1.42ZM27.09,45.14c1.41.18,2-.32,2-1.67V39.88a1.45,1.45,0,0,0-2-1.52ZM3.49,38.33c-1.37-.17-2,.34-2,1.65s0,2.45,0,3.67.76,1.76,2,1.46Zm9.94-17.62h3.66a13.56,13.56,0,0,0,0-1.43,1.76,1.76,0,0,0-1.59-1.55A1.74,1.74,0,0,0,13.57,19,13,13,0,0,0,13.43,20.71Zm-4.61,1.5v9.17h.94V22.21Zm12,0v9.16h.94V22.22ZM7.54,32.87l0,.5H11v-.5Zm12.06.49h3.46l0-.47H19.57ZM42,46.3H40.9v1.19c0,.33.16.57.51.58s.54-.23.56-.58S42,46.72,42,46.3Zm-11.81,0a4.42,4.42,0,0,0-.74,0c-.11,0-.27.14-.27.23a4,4,0,0,0,0,1.15c0,.17.33.41.47.39a.68.68,0,0,0,.5-.43A8.56,8.56,0,0,0,30.16,46.26Z"/><path class="cls-2" d="M15.32,45.55h-6A1.72,1.72,0,0,1,7.51,43.8c0-1.78,0-3.56,0-5.33a1.71,1.71,0,0,1,1.85-1.75H21.23a1.72,1.72,0,0,1,1.84,1.84V43.7a1.73,1.73,0,0,1-1.84,1.85Zm-.05-1.45c1.92,0,3.84,0,5.76,0,.44,0,.6-.16.6-.6q0-2.37,0-4.74c0-.43-.13-.6-.59-.6H9.57c-.45,0-.59.14-.58.58,0,1.58,0,3.17,0,4.75,0,.47.15.61.61.61C11.49,44.09,13.38,44.1,15.27,44.1Z"/><path class="cls-2" d="M32.58,28V15.56a1.83,1.83,0,0,1,.09-.62A.72.72,0,0,1,34,15.1a3.08,3.08,0,0,1,0,.53V40.58c0,.62-.26.92-.75.91s-.73-.33-.73-.94Z"/><path class="cls-2" d="M41.47,28V15.71a4.64,4.64,0,0,1,0-.53.66.66,0,0,1,.7-.66.69.69,0,0,1,.74.62,2.14,2.14,0,0,1,0,.44V40.42a2,2,0,0,1,0,.49.69.69,0,0,1-.77.58.66.66,0,0,1-.66-.64,4.87,4.87,0,0,1,0-.54Z"/><path class="cls-2" d="M37,28V15.41c0-.57.26-.9.72-.89a.66.66,0,0,1,.72.62,2.68,2.68,0,0,1,0,.49V40.38c0,.79-.21,1.12-.73,1.11S37,41.16,37,40.36Z"/></g></g></svg>