<svg xmlns="http://www.w3.org/2000/svg" viewBox="0 0 50.72 49.4"><defs><style>.cls-1{fill:#f57f20;}.cls-2{fill:#48494a;}</style></defs><g id="Layer_2" data-name="Layer 2"><g id="Layer_1-2" data-name="Layer 1"><path class="cls-1" d="M0,1.17A4,4,0,0,1,.3.55,1.3,1.3,0,0,1,1.4,0H17.91a1.4,1.4,0,0,1,1.41,1.42v12.4a1.41,1.41,0,0,1-1.43,1.42H1.44A1.4,1.4,0,0,1,0,14.16l0-.09ZM.57,4v9.77a.87.87,0,0,0,1,1H17.79a.87.87,0,0,0,1-1V4h-.86a.3.3,0,0,1-.33-.29.3.3,0,0,1,.33-.29h.85c0-.07,0-.11,0-.16V1.47a.85.85,0,0,0-.91-.9H1.48a.85.85,0,0,0-.91.92c0,.57,0,1.13,0,1.7a1.21,1.21,0,0,0,0,.18H16.33a1.23,1.23,0,0,1,.27,0,.23.23,0,0,1,.2.27.46.46,0,0,1-.2.26c-.07.05-.18,0-.27,0H.57Z"/><path class="cls-1" d="M3.79,8.5v1.91a2,2,0,0,0,.81,1.68,2.57,2.57,0,0,0,3.59-.38,1.9,1.9,0,0,0,.43-1.31V6.19A.26.26,0,0,0,8.33,6a.25.25,0,0,0-.26.27v4.09A1.74,1.74,0,0,1,6.5,12.07a2,2,0,0,1-1.64-.49,1.4,1.4,0,0,1-.51-1.09c0-.64,0-1.29,0-1.93,0-.22.12-.36.3-.36s.28.14.28.36v1.79A1.15,1.15,0,0,0,6,11.5a1.8,1.8,0,0,0,.73-.11,1.06,1.06,0,0,0,.75-1.11c0-1.33,0-2.65,0-4a.86.86,0,0,1,.63-.9.85.85,0,0,1,1.08.8c0,1.47,0,2.93,0,4.4a2.61,2.61,0,0,1-1.68,2.33,3.09,3.09,0,0,1-3.82-1,2.42,2.42,0,0,1-.47-1.46c0-1.42,0-2.83,0-4.25a.86.86,0,1,1,1.71,0c0,.31,0,.62,0,.93a.29.29,0,1,1-.57,0c0-.28,0-.56,0-.85S4.25,6,4.07,6s-.28.11-.28.32Z"/><path class="cls-1" d="M11.89,9.08c-.56-.79-1.11-1.56-1.65-2.34a.85.85,0,0,1,.58-1.36.8.8,0,0,1,.81.37l1.29,1.84L13,7.46l1.2-1.71a.86.86,0,0,1,.95-.35.86.86,0,0,1,.43,1.35L14.08,8.92c-.08.12-.1.2,0,.31l.38.54a.3.3,0,0,1-.05.42A.28.28,0,0,1,14,10.1l-.49-.69a.5.5,0,0,1,0-.66c.51-.74,1-1.47,1.55-2.2l.08-.13a.28.28,0,1,0-.45-.32L13.61,7.62,13.39,8c-.29.4-.63.4-.92,0L11.21,6.15c0-.05-.07-.13-.12-.14a.62.62,0,0,0-.33,0,.22.22,0,0,0-.09.32.54.54,0,0,0,.1.16l1.57,2.24a.5.5,0,0,1,0,.71c-.63.91-1.27,1.81-1.91,2.71-.09.13-.14.26,0,.38a.38.38,0,0,0,.29.1c.08,0,.16-.1.21-.17l1.59-2.25c.28-.4.62-.4.9,0l1.54,2.19.09.12a.28.28,0,0,0,.4.08.29.29,0,0,0,.06-.4l-.63-.89a.57.57,0,0,1-.08-.13.25.25,0,0,1,.08-.36.24.24,0,0,1,.37,0A13.52,13.52,0,0,1,16,12a.83.83,0,0,1-.34,1.08.84.84,0,0,1-1.12-.24c-.39-.53-.76-1.07-1.13-1.6l-.5-.71L11.56,12.5l-.26.37a.85.85,0,0,1-1.17.21.84.84,0,0,1-.22-1.18c.42-.61.85-1.22,1.28-1.82Z"/><path class="cls-1" d="M13.32,1.11c1.29,0,2.58,0,3.88,0a.86.86,0,0,1,.91.79.84.84,0,0,1-.7.89l-.28,0H9.47a.9.9,0,0,1-.94-.61.86.86,0,0,1,.88-1.1C10.71,1.1,12,1.11,13.32,1.11Zm0,1.13h4A.25.25,0,0,0,17.53,2a.25.25,0,0,0-.26-.27H9.32A.25.25,0,0,0,9.08,2a.24.24,0,0,0,.23.27h4Z"/><path class="cls-1" d="M7.67,2a.86.86,0,0,1-.85.86A.88.88,0,0,1,6,2a.86.86,0,0,1,.85-.85A.85.85,0,0,1,7.67,2ZM7.1,2a.27.27,0,0,0-.28-.27A.26.26,0,0,0,6.55,2a.26.26,0,0,0,.28.27A.27.27,0,0,0,7.1,2Z"/><path class="cls-1" d="M5.29,2a.86.86,0,0,1-.85.86A.88.88,0,0,1,3.59,2a.86.86,0,0,1,.86-.85A.85.85,0,0,1,5.29,2ZM4.72,2a.27.27,0,0,0-.28-.27A.26.26,0,0,0,4.17,2a.28.28,0,0,0,.55,0Z"/><path class="cls-1" d="M2.85,2A.86.86,0,0,1,2,2.82.87.87,0,0,1,1.14,2,.86.86,0,0,1,2,1.11.86.86,0,0,1,2.85,2ZM2,2.23A.26.26,0,0,0,2.27,2,.26.26,0,0,0,2,1.69.25.25,0,0,0,1.73,2,.25.25,0,0,0,2,2.23Z"/><path class="cls-1" d="M7.1,2a.27.27,0,0,1-.27.27A.26.26,0,0,1,6.55,2a.26.26,0,0,1,.27-.27A.27.27,0,0,1,7.1,2Z"/><path class="cls-1" d="M4.72,2a.28.28,0,0,1-.55,0,.26.26,0,0,1,.27-.27A.27.27,0,0,1,4.72,2Z"/><path class="cls-1" d="M2,2.23A.25.25,0,0,1,1.73,2,.25.25,0,0,1,2,1.69.26.26,0,0,1,2.27,2,.26.26,0,0,1,2,2.23Z"/><path class="cls-1" d="M50.72,28.3c-.66.8-1.29,1.61-2,2.39Q45.53,34.37,42.27,38a1.64,1.64,0,0,0-.4.8,4.11,4.11,0,0,1-4.1,3.5c-1.31,0-2.63,0-3.94,0a.66.66,0,0,1-.73-.45.61.61,0,0,1,.35-.72,1.6,1.6,0,0,0,.8-1.54A5.39,5.39,0,0,1,34.67,37,4.07,4.07,0,0,1,38,34.67a.63.63,0,0,0,.28-.1l3.15-2.78c0-.16-.06-.28-.06-.39,0-1.76,0-3.53,0-5.29,0-.26.06-.34.33-.34.88,0,.88,0,.88.88v4.11l.47-.39c1.48-1.31,3-2.58,4.42-3.93a2,2,0,0,1,3.29.61Zm-9.37,9c1.61-1.81,3.21-3.63,4.81-5.44,1.05-1.2,2.11-2.38,3.15-3.59a1,1,0,0,0,.25-.7c-.08-.61-.72-.73-1.24-.27L40.8,33.9l-1.49,1.33Zm-6.22,3.82.18,0c.91,0,1.82,0,2.73,0a2.88,2.88,0,0,0,2.65-2.48.49.49,0,0,0-.11-.35Q39.46,37.11,38.3,36a.39.39,0,0,0-.28-.12,2.94,2.94,0,0,0-2.54,2.57C35.38,39.32,35.61,40.25,35.13,41.09Z"/><path class="cls-2" d="M26.09,49.4a8.13,8.13,0,0,1-1.23-.57A6.58,6.58,0,0,1,24,48L25,47.34c.13.14.24.28.38.41a1.85,1.85,0,0,0,1.33.47H39.43a1.77,1.77,0,0,0,1.9-1.9c0-.53,0-1.06,0-1.62H30.75V43.5H41.33c0-.71,0-1.36,0-2,0-.29.08-.39.37-.36s.52,0,.82,0c0,.16,0,.28,0,.4,0,1.53,0,3.07,0,4.6a3.05,3.05,0,0,1-2.5,3.25l-.06,0Z"/><path class="cls-2" d="M24.86,21.84l.54-.1c.59-.1.59-.1.59-.71V19.88h1.18v1.74c4.09.67,6.45,3,7.11,7.09H36v1.22c-.46,0-.94,0-1.41,0s-.39.13-.42.39a7.49,7.49,0,0,1-3.31,5.39,7.13,7.13,0,0,1-3.44,1.24c-.2,0-.25.1-.25.29,0,.5,0,1,0,1.53H26c0-.5,0-1,0-1.46,0-.24,0-.34-.32-.36A7.64,7.64,0,0,1,19.11,31a6.27,6.27,0,0,1-.14-.85c0-.21-.1-.26-.28-.25H17.15V28.72h1.78a7.85,7.85,0,0,1,.79-2.8,7.5,7.5,0,0,1,3.6-3.54.42.42,0,0,0,.3-.46c0-1.58,0-3.16,0-4.74a3.16,3.16,0,0,1,.58-2A2.94,2.94,0,0,1,26.7,14H39.61a3,3,0,0,1,1.92.74l-.78.89a2.71,2.71,0,0,0-2-.45h-12a1.78,1.78,0,0,0-1.93,1.38,5.86,5.86,0,0,0-.07,1h9.42v1.2H24.86Zm3.65,8.54a4.27,4.27,0,0,1,2.23,3.89A5.93,5.93,0,0,0,33,29.91h-1v-1.2H33a6.37,6.37,0,0,0-5.83-5.79V24H26V22.92a6.35,6.35,0,0,0-5.82,5.81h1.1v1.2H20.13a6.58,6.58,0,0,0,2.3,4.38,4.3,4.3,0,0,1,2.21-3.92A3,3,0,0,1,24.56,26a3,3,0,0,1,4,0,2.88,2.88,0,0,1,1,1.91A3,3,0,0,1,28.51,30.38Zm-1.33,5.38a5.6,5.6,0,0,0,2.19-.59.37.37,0,0,0,.16-.29c0-.39,0-.78,0-1.17a2.89,2.89,0,0,0-2.33-2.54,3,3,0,0,0-3.11,1.39,4.48,4.48,0,0,0-.4,2.44.18.18,0,0,0,.08.14,6,6,0,0,0,2.26.63V34.66h1.19Zm-2.35-7.63a1.75,1.75,0,0,0,1.74,1.77,1.76,1.76,0,1,0-1.74-1.77Z"/><path class="cls-2" d="M42.54,16.33h6.25c.64,0,.82.18.82.83V23.8c0,.62-.2.82-.83.82H36.29c-.66,0-.86-.21-.86-.88V17.17c0-.65.19-.84.85-.84Zm-5.89,1.2v5.85H48.4V17.53Z"/><path class="cls-2" d="M23.62,40.55V37.6h1.2v2.95h4c.54,0,.75.21.75.75v4.36c0,.59-.2.8-.81.8H16a.59.59,0,0,1-.63-.66c0-1.52,0-3,0-4.57,0-.46.23-.67.72-.67h7.53Zm4.72,1.21H16.57v3.48H28.34Z"/><path class="cls-2" d="M18.91,16.33h2.73c.6,0,.82.2.82.8q0,2.16,0,4.32c0,.58-.22.8-.82.8q-2.73,0-5.46,0c-.61,0-.81-.21-.82-.8V17.13c0-.61.2-.8.82-.8Zm2.33,1.2H16.57V21h4.67Z"/><path class="cls-1" d="M33.67,45.89V47H32.5V45.89Z"/><path class="cls-2" d="M37.81,22.22V21.07h9.42v1.15Z"/><path class="cls-2" d="M41.36,18.7h5.87v1.16H41.36Z"/><path class="cls-2" d="M40.16,18.71v1.15H37.82V18.71Z"/><path class="cls-1" d="M21.89,42.91h5.27v1.15H21.89Z"/><path class="cls-1" d="M20.68,42.93v1.13H17.74V42.93Z"/><path class="cls-2" d="M20.08,19.86H17.74V18.71h2.34Z"/></g></g></svg>