<svg xmlns="http://www.w3.org/2000/svg" viewBox="0 0 51.77 50.18"><defs><style>.cls-1{fill:#48494a;}.cls-2{fill:#f57f20;}</style></defs><g id="Layer_2" data-name="Layer 2"><g id="Layer_1-2" data-name="Layer 1"><path class="cls-1" d="M51.77,2.8V37a.24.24,0,0,0-.06.08C51,39.1,50,39.79,47.79,39.79H31.14a6.79,6.79,0,0,0,.63,3,3.34,3.34,0,0,0,2.86,2.11c.8.07,1.61,0,2.42.08a2.61,2.61,0,0,1,2.58,3.13,2.67,2.67,0,0,1-2.88,2.09H15a4.08,4.08,0,0,1-1-.12A2.59,2.59,0,0,1,14.61,45c.64,0,1.28,0,1.92,0a3.63,3.63,0,0,0,2.77-1.13,6.32,6.32,0,0,0,1.35-4H3.73A3.46,3.46,0,0,1,0,36.07V3.75A3.48,3.48,0,0,1,3.71,0H48.05a3.46,3.46,0,0,1,3.08,1.51A9.68,9.68,0,0,1,51.77,2.8ZM5.2,31.06H46.56V5.25H5.2ZM50,32.93H1.76a.53.53,0,0,0,0,.13c0,.93,0,1.86,0,2.79,0,1.58.62,2.21,2.2,2.21H48.25A1.73,1.73,0,0,0,50,36.31C50.07,35.2,50,34.08,50,32.93ZM3.44,31.07V4.77c0-1,.25-1.3,1.32-1.3H47c1.06,0,1.31.25,1.31,1.31V31.06H50v-.54q0-13.35,0-26.69A1.91,1.91,0,0,0,48,1.76q-22.09,0-44.18,0A1.91,1.91,0,0,0,1.71,3.84q0,13.34,0,26.69v.54Zm19,8.74a8.85,8.85,0,0,1-1.77,5.11H31.11a8.91,8.91,0,0,1-1.78-5.11Zm3.43,8.6h11c.73,0,1.09-.27,1.1-.82s-.36-.87-1.11-.87c-.57,0-1.14,0-1.72,0L16,46.72a13.2,13.2,0,0,0-1.41,0,.76.76,0,0,0-.7.89c0,.51.38.76,1.05.76Z"/><path class="cls-2" d="M39.1,23.38c.72.71,1.35,1.32,2,1.94a.93.93,0,0,1,0,1.57c-.69.71-1.4,1.41-2.1,2.11s-1,.56-1.56,0l-1.9-1.93c-.37.38-.72.73-1.08,1.08-.69.67-1.38.49-1.66-.43-.23-.74-.47-1.47-.67-2.22a.47.47,0,0,0-.55-.42c-2.87,0-5.73,0-8.59,0H12.38c-.89,0-1.16-.27-1.16-1.18q0-7.87,0-15.75c0-1,.25-1.24,1.26-1.24H35.86c.81,0,1.27.22,1.26,1.27,0,3.74,0,7.49,0,11.24a.59.59,0,0,0,.52.69c.73.19,1.45.41,2.17.64a.89.89,0,0,1,.4,1.62C39.85,22.7,39.5,23,39.1,23.38ZM13,23.35H31.41c-.05-.17-.08-.31-.12-.46-.34-1.13-.72-2.27-1-3.42a1.53,1.53,0,0,1,.17-1c.23-.38.67-.31,1.05-.21l.72.22,3.11.93V13.05H13ZM13,11.2H35.33V8.71H13ZM32.4,20.38,34.06,26a4.88,4.88,0,0,0,.38-.35c.79-.77,1.32-.77,2.1,0,.54.53,1.06,1.08,1.56,1.6l1.27-1.23c-.59-.58-1.18-1.15-1.76-1.74s-.69-1.14,0-1.84a2.79,2.79,0,0,1,.44-.29L37.94,22Z"/><path class="cls-1" d="M25.93,34.61h2.42c.61,0,1,.33,1,.85a.85.85,0,0,1-1,.87c-1.65,0-3.29,0-4.94,0a.87.87,0,0,1-1-.86c0-.52.35-.85,1-.86Z"/><path class="cls-1" d="M19,21.64H15.77c-.79,0-1.1-.31-1.11-1.1v-3c0-.77.29-1.1,1.05-1.11q3.27,0,6.56,0a.91.91,0,0,1,1,1c0,1,0,2.09,0,3.13,0,.73-.36,1-1.08,1Zm-2.54-1.76h5.1V18.24h-5.1Z"/></g></g></svg>