<svg xmlns="http://www.w3.org/2000/svg" viewBox="0 0 138.8 126.27"><defs><style>.cls-1{fill:#48494a;}.cls-2{fill:#f57f20;}.cls-3{fill:#494949;}</style></defs><g id="Layer_2" data-name="Layer 2"><g id="Layer_1-2" data-name="Layer 1"><path class="cls-1" d="M138.8,84.55a32.41,32.41,0,0,1-2.16,4.88C134.05,93.37,130.2,95,125.55,95q-18.43,0-36.86,0H86.83v16.06c2.33,0,4.66,0,7,0a12.51,12.51,0,0,1,3.07.32,7.59,7.59,0,0,1-2,14.86q-27.3,0-54.61,0a7.59,7.59,0,0,1-.2-15.16c2.75-.09,5.5,0,8.36,0V95H13.29c-5.45,0-9.64-2.24-12-7.21A12.79,12.79,0,0,1,.09,82.72C-.07,77.85,0,73,0,68.09c0-1.56.79-2.5,2-2.49s2,.94,2,2.51c0,1.22,0,2.44,0,3.66,0,.08.07.16.14.3H134.74V70.51c0-16.08,0-32.16,0-48.24,0-1.81,1.28-3.07,2.88-2.42a5,5,0,0,1,1.22,1Zm-4.09-8.15H4.09c0,1.73.08,3.35,0,5-.35,5.6,3.85,9.55,9.45,9.53,29.18-.14,58.35-.07,87.53-.07,8.4,0,16.8,0,25.2,0a8.24,8.24,0,0,0,8.42-7.69C134.86,80.94,134.71,78.72,134.71,76.4Zm-82,34.66h1.51c2.94,0,5.87,0,8.81,0a1.9,1.9,0,0,1,2,1.78,1.94,1.94,0,0,1-1.56,2.22,5,5,0,0,1-1.35.08H41c-2.4,0-4,1.38-4,3.47a3.53,3.53,0,0,0,3.81,3.53q26.76,0,53.51,0c2.39,0,3.88-1.48,3.84-3.62s-1.57-3.38-3.9-3.38H82c-3.21,0-6.41,0-9.62,0A2,2,0,0,1,70.21,113a1.93,1.93,0,0,1,2.13-2c1.17,0,2.35,0,3.52,0h6.67c0-.62.07-1.07.07-1.51,0-4.33,0-8.67,0-13,0-1.26-.35-1.59-1.59-1.58-9,0-18,0-26.95,0H52.68Z"/><path class="cls-1" d="M138.8,13.26c-.69.78-1.38,1.57-2.61,1.16s-1.4-1.33-1.49-2.45a8.4,8.4,0,0,0-8.19-7.86c-.31,0-.63,0-1,0H13.23c-4.31,0-7.49,2.09-8.65,5.8a11.85,11.85,0,0,0-.47,3.46q0,22.22,0,44.44C4.1,59,3.9,60,2.64,60.38A2,2,0,0,1,0,58.57c0-.36,0-.72,0-1.09V13c0-7.68,5.35-13,13-13H125.52c6.85,0,11.4,3.56,13.07,10.22a1.31,1.31,0,0,0,.21.33Z"/><path class="cls-2" d="M56,31,36.5,14l-6,5.21c-1.22,1.06-2.53,1.1-3.33.12s-.61-2.09.62-3.17q3.51-3.09,7-6.16c1.25-1.08,2-1.08,3.32,0q12.21,10.64,24.39,21.3a2.16,2.16,0,0,1,.88,2.6,2.09,2.09,0,0,1-2.29,1.28c-1.17,0-2.33,0-3.63,0V37q0,13.14,0,26.29c0,2.29-.57,2.86-2.88,2.86H18.44c-2.47,0-3-.52-3-3V35.23c-1.32,0-2.56,0-3.8,0a2,2,0,0,1-2.15-1.3,2.07,2.07,0,0,1,.72-2.42c3.34-2.91,6.66-5.83,10-8.73a2,2,0,0,1,3.11,0c.81.94.66,2.1-.45,3.09C21,27.57,19.11,29.22,17,31ZM44.2,61.93h9.12V35.3H19.63V61.93h9.14V44.49c0-2.14.62-2.77,2.7-2.78h10c2.09,0,2.69.63,2.7,2.77ZM33,45.82V61.94H40V45.82Z"/><path class="cls-2" d="M80.5,25.2a8,8,0,0,1-8-8,8,8,0,1,1,8,8Zm3.88-8a3.85,3.85,0,1,0-3.81,3.93A3.85,3.85,0,0,0,84.38,17.2Z"/><path class="cls-1" d="M80.47,66.11a8,8,0,1,1,8.08-7.92A8,8,0,0,1,80.47,66.11Zm-3.78-8a3.85,3.85,0,1,0,3.9-3.85A3.9,3.9,0,0,0,76.69,58.07Z"/><path class="cls-2" d="M72.54,37.5a8,8,0,0,1,16,.36,8,8,0,1,1-16-.36Zm8.1-3.67a3.85,3.85,0,1,0,3.74,4A3.78,3.78,0,0,0,80.64,33.83Z"/><path class="cls-2" d="M110.31,56.58H96.76a5.08,5.08,0,0,1-1.46-.17,1.71,1.71,0,0,1-1.4-2,4,4,0,0,1,1.5-1.83c.32-.26.95-.17,1.44-.17h27a7,7,0,0,1,1.21.08,2,2,0,0,1,.06,4,6.72,6.72,0,0,1-1.35.07Z"/><path class="cls-1" d="M110.21,36.06H96.4c-1.6,0-2.52-.73-2.56-2S94.76,32,96.4,32c9.29,0,18.59,0,27.89.05a3.13,3.13,0,0,1,2.19,1.15,2.17,2.17,0,0,1-.2,2,2.85,2.85,0,0,1-2,.79C119.6,36.09,114.9,36.06,110.21,36.06Z"/><path class="cls-2" d="M110.29,15.67c-4.56,0-9.12,0-13.67,0A2.68,2.68,0,0,1,95,15.34c-.52-.51-1.12-1.39-1-2s1-1.23,1.59-1.71c.26-.21.79-.09,1.19-.09h27.22c.31,0,.63,0,.94,0a1.91,1.91,0,0,1,1.9,1.92,2,2,0,0,1-1.61,2.07,5,5,0,0,1-1.34.09Z"/><path class="cls-3" d="M107.35,23H96.25c-1,0-2-.33-2.21-1.38a3,3,0,0,1,.43-2.07,2.22,2.22,0,0,1,1.66-.68q11.36-.07,22.73,0A2.11,2.11,0,0,1,121.15,21a2.18,2.18,0,0,1-2.44,2C114.93,23,111.14,23,107.35,23Z"/><path class="cls-1" d="M107.57,59.68h10.55a6.05,6.05,0,0,1,1.35.09,2,2,0,0,1,1.66,2,1.85,1.85,0,0,1-1.7,2,27,27,0,0,1-3.37.11H97.12a9.78,9.78,0,0,1-1.21,0,2.07,2.07,0,1,1,0-4.14c.36,0,.72,0,1.08,0Z"/><path class="cls-2" d="M107.53,43.34H96.3c-1.55,0-2.49-.79-2.47-2.05s1-2,2.52-2h22.32c1.54,0,2.5.81,2.48,2.06s-1,2-2.53,2Z"/><path class="cls-2" d="M67.72,81.56q2.7,0,5.4,0c1.6,0,2.5.73,2.51,2s-.89,2.06-2.44,2.07H62c-1.47,0-2.34-.77-2.35-2s.81-2,2.29-2C63.85,81.54,65.78,81.56,67.72,81.56Z"/></g></g></svg>