<svg xmlns="http://www.w3.org/2000/svg" viewBox="0 0 59.26 50.11"><defs><style>.cls-1{fill:#48494a;}.cls-2{fill:#f57f20;}</style></defs><g id="Layer_2" data-name="Layer 2"><g id="Layer_1-2" data-name="Layer 1"><path class="cls-1" d="M0,42.35a2.13,2.13,0,0,1,2.36-1.68c.47,0,1,0,1.54,0V27c0-.24,0-.48,0-.71,0-.61.33-.95.82-1s.84.36.91,1a4.38,4.38,0,0,1,0,.63V40.62H7.15v-.93q0-15.63,0-31.25a4.25,4.25,0,0,1,.72-2.69A2.54,2.54,0,0,1,9.92,4.66H27.68a1,1,0,0,1,1.09,1.07,1,1,0,0,1-1.12,1.08H10.41a3.13,3.13,0,0,0-.75.07,1,1,0,0,0-.75,1,4.13,4.13,0,0,0,0,.5V40.62H50.3V37.78c-6,1.54-11-.52-14.18-7.18a16.59,16.59,0,0,1,.5-15.83c3.31-5.88,8-7.67,13.65-6.15A1.28,1.28,0,0,0,49,6.8c-5.69,0-11.38,0-17.06,0h-.64c-.5,0-.77-.42-.82-1a1,1,0,0,1,.78-1.12,2.27,2.27,0,0,1,.52,0c5.75,0,11.49,0,17.24,0,1.59,0,3.22,1.26,3.06,3.79a1.59,1.59,0,0,0,.76,1.63c4.4,3.23,6.57,8,6.22,14.29-.3,5.42-2.59,9.48-6.46,12.14a1.1,1.1,0,0,0-.52,1.1c0,1,0,2,0,3.06h1.49c0-.76,0-1.53,0-2.3s.38-1.1.87-1.09.79.32.86.92a6.77,6.77,0,0,1,0,.78c0,.54,0,1.08,0,1.72h1.82c1.36,0,2.07.88,2.07,2.53a26.83,26.83,0,0,1-.05,3.11,4,4,0,0,1-3.58,3.78H4.53c-2.65,0-3.52-.7-4.53-3.65Zm46.83-32.1C41,10.22,36.26,16,36.22,23.11s4.68,13,10.47,13,10.68-5.71,10.7-12.89S52.68,10.28,46.83,10.25ZM57.5,42.91h-21c0,.16,0,.27,0,.38-.07,2-.81,2.84-2.44,2.85H31.25c-2.08,0-4.16,0-6.25,0-1.39,0-2.18-1-2.22-2.67,0-.18,0-.36-.05-.54h-21v2c0,2.21.64,3,2.43,3H55.64a2.08,2.08,0,0,0,1.85-2.18C57.54,44.82,57.5,43.9,57.5,42.91Zm-22.83,0H24.57c-.09,1-.07,1,.67,1H34C34.74,44,34.76,43.92,34.67,42.92Z"/><path class="cls-2" d="M29.61,2.19c-7.21,0-14.43,0-21.64,0C6.38,2.15,5.62,3.36,5.64,5c.05,5.5,0,11,0,16.51a4.07,4.07,0,0,1,0,.7c-.09.58-.39.93-.87,1s-.81-.42-.86-1c0-.14,0-.29,0-.43,0-5.67,0-11.34,0-17,0-2.24,1-3.92,2.6-4.49A3.92,3.92,0,0,1,7.81,0H51.43c2.37,0,3.89,1.87,3.91,4.78,0,.94,0,1.89,0,2.83,0,.77-.35,1.25-.85,1.26s-.89-.49-.9-1.29,0-1.79,0-2.69c0-1.87-.69-2.7-2.23-2.7H29.61Z"/><path class="cls-2" d="M20.66,22.22H29.9a1,1,0,0,1,1,1.25c-.09.6-.41.87-.9.87H11.39a1,1,0,0,1-1.08-.8,1,1,0,0,1,1-1.33h9.36Z"/><path class="cls-1" d="M22.05,31.12c.6.68,1.14,1.3,1.68,1.94a1.22,1.22,0,0,1,.19,1.66c-.38.51-.86.49-1.36-.08-.77-.86-1.53-1.73-2.28-2.6a1.23,1.23,0,0,1,0-1.82c.76-.9,1.53-1.78,2.32-2.66.45-.51,1-.51,1.33,0a1.23,1.23,0,0,1-.13,1.62Z"/><path class="cls-2" d="M12.44,15.31c.6.69,1.16,1.3,1.7,1.94a1.23,1.23,0,0,1,.16,1.67c-.36.47-.89.44-1.38-.11-.75-.85-1.49-1.7-2.23-2.57a1.25,1.25,0,0,1,0-1.87q1.13-1.32,2.28-2.61c.48-.54,1-.55,1.33-.07a1.21,1.21,0,0,1-.13,1.62C13.62,14,13.06,14.61,12.44,15.31Z"/><path class="cls-2" d="M18.57,15.31l-1.64-1.89c-.55-.63-.62-1.18-.24-1.71s.87-.49,1.41.12c.73.83,1.47,1.67,2.19,2.51a1.27,1.27,0,0,1,0,1.92c-.74.86-1.48,1.71-2.23,2.56-.49.54-1,.57-1.38.1a1.24,1.24,0,0,1,.17-1.67C17.41,16.62,18,16,18.57,15.31Z"/><path class="cls-1" d="M31.29,31.11c-.61-.69-1.16-1.3-1.7-1.94a1.22,1.22,0,0,1-.16-1.66c.36-.48.88-.45,1.37.11.75.84,1.5,1.69,2.24,2.55a1.26,1.26,0,0,1,0,1.87c-.77.9-1.55,1.78-2.33,2.65-.47.53-1,.52-1.32,0a1.19,1.19,0,0,1,.12-1.56C30.09,32.48,30.67,31.83,31.29,31.11Z"/><path class="cls-2" d="M14.22,35.09H11.39A1,1,0,0,1,10.29,34a1,1,0,0,1,1.06-1.08c1.92,0,3.85,0,5.77,0a1.09,1.09,0,1,1,0,2.17Z"/><path class="cls-2" d="M26.18,35.09a1.08,1.08,0,0,1-1-1.38q.75-2.92,1.56-5.83a.83.83,0,0,1,1.07-.67,1.07,1.07,0,0,1,.57,1.29q-.74,3-1.57,5.9C26.69,34.73,26.32,34.94,26.18,35.09Z"/><path class="cls-2" d="M46.79,19.11c1.86,0,3.34,1.78,3.35,4.06s-1.48,4.12-3.32,4.13-3.34-1.83-3.35-4.09S44.94,19.11,46.79,19.11Zm1.59,4.11a1.82,1.82,0,0,0-1.54-2,1.8,1.8,0,0,0-1.61,2,1.61,1.61,0,1,0,3.15,0Z"/><path class="cls-1" d="M46.76,18.11c-.54.18-1.08.32-1.6.53a.88.88,0,0,1-1.28-.49,1.21,1.21,0,0,1,.61-1.52,5.09,5.09,0,0,1,6.57,1.7,8.35,8.35,0,0,1,.9,8.2c-.34.77-.81,1-1.3.74s-.59-.92-.26-1.72c1.23-3,0-6.43-2.7-7.22a7,7,0,0,0-.92-.14Z"/><path class="cls-1" d="M46.76,30.4c-4-.16-6.83-5-5.44-9.65.25-.82.68-1.14,1.22-.91s.67.81.45,1.6a5.63,5.63,0,0,0,.83,5.12A3.52,3.52,0,0,0,47.93,28a.87.87,0,0,1,1.25.67A1.06,1.06,0,0,1,48.4,30C47.86,30.21,47.31,30.28,46.76,30.4Z"/></g></g></svg>