<svg xmlns="http://www.w3.org/2000/svg" viewBox="0 0 410.07 304.46"><defs><style>.cls-1{isolation:isolate;}.cls-2{fill:#296b7a;}.cls-3{fill:#99f;}.cls-4{fill:#c5c5eb;mix-blend-mode:multiply;}.cls-5{fill:#053c54;}.cls-6{fill:#ff4832;}.cls-7{fill:#ffb632;}.cls-8{fill:#a0c14f;}.cls-9{opacity:0.1;}.cls-10{fill:#d0ecf4;}.cls-11{fill:#e8e8ff;}.cls-12{font-size:9.91px;}.cls-12,.cls-17,.cls-23{fill:#fff;}.cls-12,.cls-23{font-family:OpenSans-Bold, Open Sans;font-weight:700;}.cls-13{fill:#3a3a45;}.cls-14{fill:#ffdc4c;}.cls-15,.cls-16{fill:#ffe98c;}.cls-16{mix-blend-mode:screen;}.cls-18{fill:#24242b;}.cls-19{fill:#d4c3e6;}.cls-20{fill:#ecd9ff;}.cls-21{fill:#d1d1ff;}.cls-22{fill:#a263e0;}.cls-23{font-size:24.49px;}.cls-24{fill:#ffa460;}</style></defs><g class="cls-1"><g id="Layer_2" data-name="Layer 2"><g id="OBJECTS"><path class="cls-2" d="M391.42,263.31c-8.16-4.73-17.89-6.3-27.31-7.81-12.56-2-24.43-3.94-32.38-12.79-6.56-7.3-8.94-18.53-6.36-30,2.49-11.08,8.82-20.7,14.68-28.65l1.61-2.16c9.85-13.29,21-28.35,16.91-44.46-4-15.65-21.26-24-36.25-24.11-14-.15-27.32,5-40.22,10l-3.91,1.51c-13.27,5.08-28.69,10.25-43.77,7.25a44,44,0,0,1-34.1-34.89c-1.91-10.9.43-22.15,2.7-33,.62-3,1.26-6,1.8-9,3.35-18.51,1.06-32.56-6.78-41.77-11.91-14-33.09-13.66-48-12.2A338.55,338.55,0,0,0,0,54v2.39A336.62,336.62,0,0,1,150.26,3.21c14.44-1.42,35-1.76,46.25,11.51,7.45,8.73,9.58,22.23,6.35,40.11-.54,3-1.18,6-1.79,9-2.31,11.06-4.7,22.49-2.72,33.77A46.07,46.07,0,0,0,234,134.08c15.61,3.11,31.35-2.16,44.87-7.35l3.93-1.51c12.57-4.87,25.57-9.91,39-9.91h.48c14.23.13,30.59,7.94,34.33,22.6,3.88,15.2-7,29.85-16.58,42.78l-1.61,2.17c-6,8.11-12.45,17.95-15,29.39-2.72,12.12-.17,24,6.83,31.8,8.42,9.37,21.19,11.43,33.54,13.42,9.24,1.49,18.79,3,26.63,7.57a36.35,36.35,0,0,1,17.42,34.82,32.77,32.77,0,0,1-.89,4.6H409a35.82,35.82,0,0,0,.83-4.37A38.4,38.4,0,0,0,391.42,263.31Z"/><path class="cls-3" d="M114.39,127.5a1.5,1.5,0,0,1-1.5-1.5v-.5a1.5,1.5,0,0,1,3,0v.5A1.5,1.5,0,0,1,114.39,127.5Z"/><path class="cls-2" d="M230.46,299.9a1.5,1.5,0,0,1-1.5-1.5v-1a1.5,1.5,0,0,1,3,0v1A1.5,1.5,0,0,1,230.46,299.9Zm0-6a1.5,1.5,0,0,1-1.5-1.5v-1a1.5,1.5,0,0,1,3,0v1A1.5,1.5,0,0,1,230.46,293.91Zm0-6a1.5,1.5,0,0,1-1.5-1.5v-1a1.5,1.5,0,0,1,3,0v1A1.5,1.5,0,0,1,230.46,287.92Zm0-6a1.5,1.5,0,0,1-1.5-1.5v-1a1.5,1.5,0,0,1,3,0v1A1.5,1.5,0,0,1,230.46,281.93Zm0-6a1.5,1.5,0,0,1-1.5-1.5v-1a1.5,1.5,0,0,1,3,0v1A1.5,1.5,0,0,1,230.46,275.94Zm0-6a1.5,1.5,0,0,1-1.5-1.5v-1a1.5,1.5,0,0,1,3,0v1A1.5,1.5,0,0,1,230.46,270Zm0-6a1.5,1.5,0,0,1-1.5-1.5V262c0-.21,0-.41,0-.61A1.52,1.52,0,0,1,230.5,260a1.5,1.5,0,0,1,1.47,1.53c0,.18,0,.36,0,.55v.42A1.5,1.5,0,0,1,230.46,264Zm.59-5.95-.33,0a1.51,1.51,0,0,1-1.14-1.79l.24-1a1.5,1.5,0,0,1,2.91.74c-.08.31-.15.62-.22.92A1.48,1.48,0,0,1,231.05,258Zm1.92-5.65a1.46,1.46,0,0,1-.64-.15,1.49,1.49,0,0,1-.71-2c.15-.32.3-.64.47-.95a1.5,1.5,0,0,1,2.66,1.39q-.23.42-.42.84A1.51,1.51,0,0,1,233,252.36Zm3.17-5.07a1.49,1.49,0,0,1-1.18-2.43c.22-.28.45-.55.68-.81a1.5,1.5,0,0,1,2.27,1.95l-.6.73A1.48,1.48,0,0,1,236.14,247.29Zm4.23-4.22a1.5,1.5,0,0,1-.93-2.67c.27-.22.55-.43.84-.64a1.5,1.5,0,0,1,1.77,2.42l-.75.57A1.5,1.5,0,0,1,240.37,243.07Zm5.08-3.15a1.5,1.5,0,0,1-.65-2.85c.32-.15.65-.3,1-.43a1.49,1.49,0,0,1,2,.79,1.51,1.51,0,0,1-.79,2l-.86.38A1.48,1.48,0,0,1,245.45,239.92Zm5.66-1.9a1.5,1.5,0,0,1-.31-3l1-.2a1.5,1.5,0,0,1,.51,3c-.31.05-.62.11-.92.18A1.73,1.73,0,0,1,251.11,238Zm60.86-.57h-1a1.5,1.5,0,0,1,0-3h1a1.5,1.5,0,0,1,0,3Zm-6,0h-1a1.5,1.5,0,0,1,0-3h1a1.5,1.5,0,0,1,0,3Zm-6,0h-1a1.5,1.5,0,0,1,0-3h1a1.5,1.5,0,0,1,0,3Zm-6,0h-1a1.5,1.5,0,0,1,0-3h1a1.5,1.5,0,0,1,0,3Zm-6,0h-1a1.5,1.5,0,0,1,0-3h1a1.5,1.5,0,0,1,0,3Zm-6,0h-1a1.5,1.5,0,0,1,0-3h1a1.5,1.5,0,0,1,0,3Zm-6,0h-1a1.5,1.5,0,0,1,0-3h1a1.5,1.5,0,0,1,0,3Zm-6,0h-1a1.5,1.5,0,0,1,0-3h1a1.5,1.5,0,0,1,0,3Zm-6,0h-1a1.5,1.5,0,0,1,0-3h1a1.5,1.5,0,0,1,0,3Zm-6,0h-1a1.5,1.5,0,0,1,0-3h1a1.5,1.5,0,0,1,0,3Zm58.87-.38a1.5,1.5,0,0,1-.25-3c.31-.05.62-.11.92-.18a1.5,1.5,0,0,1,.63,2.94l-1,.2Zm5.74-1.69a1.5,1.5,0,0,1-.59-2.88c.28-.13.57-.25.85-.39a1.5,1.5,0,0,1,1.28,2.72l-.95.43A1.59,1.59,0,0,1,322.67,235.38Zm5.19-3a1.5,1.5,0,0,1-.89-2.71l.75-.57a1.5,1.5,0,1,1,1.86,2.35l-.83.64A1.48,1.48,0,0,1,327.86,232.42Zm4.38-4.06a1.5,1.5,0,0,1-1.14-2.48c.21-.23.41-.48.6-.72a1.5,1.5,0,0,1,2.35,1.86c-.22.28-.44.55-.67.82A1.49,1.49,0,0,1,332.24,228.36Zm3.35-5a1.44,1.44,0,0,1-.69-.17,1.5,1.5,0,0,1-.64-2q.23-.42.42-.84a1.5,1.5,0,1,1,2.71,1.28c-.15.32-.3.64-.47,1A1.5,1.5,0,0,1,335.59,223.41Zm2.14-5.58a1.24,1.24,0,0,1-.38-.05,1.5,1.5,0,0,1-1.08-1.82c.08-.3.15-.61.22-.92a1.5,1.5,0,1,1,2.93.64q-.1.51-.24,1A1.49,1.49,0,0,1,337.73,217.83Zm.8-5.92h0a1.5,1.5,0,0,1-1.47-1.53v-1a1.5,1.5,0,1,1,3,0v1A1.5,1.5,0,0,1,338.53,211.91Zm0-6a1.5,1.5,0,0,1-1.5-1.5v-1a1.5,1.5,0,1,1,3,0v1A1.5,1.5,0,0,1,338.53,205.92Zm0-6a1.5,1.5,0,0,1-1.5-1.5v-1a1.5,1.5,0,0,1,3,0v1A1.5,1.5,0,0,1,338.53,199.93Zm0-6a1.5,1.5,0,0,1-1.5-1.5v-1a1.5,1.5,0,0,1,3,0v1A1.5,1.5,0,0,1,338.53,193.94Zm0-6a1.5,1.5,0,0,1-1.5-1.5v-1a1.5,1.5,0,0,1,3,0v1A1.5,1.5,0,0,1,338.53,188Zm0-6a1.5,1.5,0,0,1-1.5-1.5v-1a1.5,1.5,0,0,1,3,0v1A1.5,1.5,0,0,1,338.53,182Zm0-6a1.5,1.5,0,0,1-1.5-1.5v-1a1.5,1.5,0,0,1,3,0v1A1.5,1.5,0,0,1,338.53,176Zm0-6a1.5,1.5,0,0,1-1.5-1.5v-1a1.5,1.5,0,0,1,3,0v1A1.5,1.5,0,0,1,338.53,170Zm0-6a1.5,1.5,0,0,1-1.5-1.5v-1a1.5,1.5,0,0,1,3,0v1A1.5,1.5,0,0,1,338.53,164Zm0-6a1.5,1.5,0,0,1-1.5-1.5v-1a1.5,1.5,0,0,1,3,0v1A1.5,1.5,0,0,1,338.53,158Zm0-6a1.5,1.5,0,0,1-1.5-1.5v-1a1.5,1.5,0,0,1,3,0v1A1.5,1.5,0,0,1,338.53,152Zm0-6a1.5,1.5,0,0,1-1.5-1.5v-1a1.5,1.5,0,1,1,3,0v1A1.5,1.5,0,0,1,338.53,146Zm-.12-6a1.5,1.5,0,0,1-1.49-1.36c0-.31-.07-.62-.11-.93a1.5,1.5,0,0,1,3-.41q.08.53.12,1a1.5,1.5,0,0,1-1.35,1.64Zm-1.26-5.84a1.51,1.51,0,0,1-1.42-1c-.1-.3-.2-.59-.31-.89a1.48,1.48,0,0,1,.86-1.93,1.5,1.5,0,0,1,1.94.86l.36,1a1.51,1.51,0,0,1-.95,1.9A1.61,1.61,0,0,1,337.15,134.2Zm-2.55-5.4a1.51,1.51,0,0,1-1.28-.71q-.24-.41-.51-.78a1.5,1.5,0,1,1,2.48-1.69c.2.29.39.59.58.89a1.49,1.49,0,0,1-.48,2.06A1.45,1.45,0,0,1,334.6,128.8Zm-3.73-4.68a1.48,1.48,0,0,1-1.06-.44l-.68-.65a1.5,1.5,0,0,1,2-2.2c.26.24.52.48.76.73a1.49,1.49,0,0,1,0,2.12A1.45,1.45,0,0,1,330.87,124.12ZM114.39,122a1.51,1.51,0,0,1-1.5-1.5v-1a1.5,1.5,0,0,1,3,0v1A1.5,1.5,0,0,1,114.39,122Zm211.8-1.6a1.52,1.52,0,0,1-.79-.22l-.81-.49a1.5,1.5,0,1,1,1.49-2.6q.45.25.9.54a1.5,1.5,0,0,1,.49,2.06A1.51,1.51,0,0,1,326.19,120.41Zm-5.41-2.55a1.38,1.38,0,0,1-.48-.08l-.89-.28a1.5,1.5,0,1,1,.85-2.88l1,.32a1.5,1.5,0,0,1-.48,2.92Zm-5.84-1.24h-.14l-.94-.07a1.5,1.5,0,1,1,.17-3c.35,0,.7,0,1.05.08a1.5,1.5,0,0,1-.14,3Zm-6-.12h-1a1.5,1.5,0,0,1,0-3h1a1.5,1.5,0,0,1,0,3Zm-6,0h-1a1.5,1.5,0,0,1,0-3h1a1.5,1.5,0,0,1,0,3Zm-6,0h-1a1.5,1.5,0,0,1,0-3h1a1.5,1.5,0,0,1,0,3Zm-6,0h-1a1.5,1.5,0,0,1,0-3h1a1.5,1.5,0,0,1,0,3Zm-6,0h-1a1.5,1.5,0,0,1,0-3h1a1.5,1.5,0,0,1,0,3Zm-6,0h-1a1.5,1.5,0,0,1,0-3h1a1.5,1.5,0,0,1,0,3Zm-6,0h-1a1.5,1.5,0,0,1,0-3h1a1.5,1.5,0,0,1,0,3Zm-6,0h-1a1.5,1.5,0,0,1,0-3h1a1.5,1.5,0,0,1,0,3Zm-6-.08h-.12c-.35,0-.7-.06-1.05-.11a1.5,1.5,0,0,1,.35-3l.94.1a1.5,1.5,0,0,1-.12,3ZM114.39,116a1.51,1.51,0,0,1-1.5-1.5v-1a1.5,1.5,0,0,1,3,0v1A1.5,1.5,0,0,1,114.39,116Zm140.79-.75a1.51,1.51,0,0,1-.46-.07l-1-.34a1.5,1.5,0,1,1,1-2.82c.3.11.59.21.89.3a1.5,1.5,0,0,1-.45,2.93Zm-5.45-2.46a1.54,1.54,0,0,1-.77-.21l-.89-.56a1.5,1.5,0,1,1,1.64-2.51l.79.49a1.5,1.5,0,0,1-.77,2.79ZM114.39,110a1.5,1.5,0,0,1-1.5-1.5v-1a1.5,1.5,0,0,1,3,0v1A1.5,1.5,0,0,1,114.39,110Zm130.6-.85a1.47,1.47,0,0,1-1-.43c-.25-.24-.5-.49-.74-.74a1.5,1.5,0,1,1,2.16-2.08l.67.67a1.5,1.5,0,0,1-1,2.58Zm-3.79-4.62a1.48,1.48,0,0,1-1.26-.69c-.19-.29-.38-.59-.56-.9a1.5,1.5,0,0,1,2.58-1.53c.16.28.33.54.5.81a1.5,1.5,0,0,1-1.26,2.31ZM114.39,104a1.5,1.5,0,0,1-1.5-1.5v-1a1.5,1.5,0,0,1,3,0v1A1.5,1.5,0,0,1,114.39,104ZM238.55,99.2a1.49,1.49,0,0,1-1.41-1c-.12-.33-.23-.66-.34-1a1.5,1.5,0,1,1,2.86-.9l.3.9a1.49,1.49,0,0,1-.91,1.91A1.43,1.43,0,0,1,238.55,99.2ZM114.39,98.05a1.5,1.5,0,0,1-1.5-1.5v-1a1.5,1.5,0,0,1,3,0v1A1.5,1.5,0,0,1,114.39,98.05ZM237.2,93.38a1.51,1.51,0,0,1-1.49-1.33c0-.35-.07-.7-.1-1.06a1.5,1.5,0,0,1,3-.22l.09.94a1.5,1.5,0,0,1-1.32,1.66ZM114.39,92.06a1.5,1.5,0,0,1-1.5-1.5v-1a1.5,1.5,0,0,1,3,0v1A1.5,1.5,0,0,1,114.39,92.06ZM237,87.39a1.5,1.5,0,0,1-1.5-1.5v-1a1.5,1.5,0,0,1,3,0v1A1.5,1.5,0,0,1,237,87.39ZM114.39,86.07a1.5,1.5,0,0,1-1.5-1.5v-1a1.5,1.5,0,0,1,3,0v1A1.5,1.5,0,0,1,114.39,86.07ZM237,81.4a1.5,1.5,0,0,1-1.5-1.5v-1a1.5,1.5,0,0,1,3,0v1A1.5,1.5,0,0,1,237,81.4ZM114.39,80.08a1.5,1.5,0,0,1-1.5-1.5v-1a1.5,1.5,0,0,1,3,0v1A1.5,1.5,0,0,1,114.39,80.08ZM237,75.42a1.5,1.5,0,0,1-1.5-1.5v-1a1.5,1.5,0,1,1,3,0v1A1.51,1.51,0,0,1,237,75.42ZM114.39,74.09a1.5,1.5,0,0,1-1.5-1.5v-1a1.5,1.5,0,0,1,3,0v1A1.5,1.5,0,0,1,114.39,74.09ZM237,69.43a1.5,1.5,0,0,1-1.5-1.5v-1a1.5,1.5,0,0,1,3,0v1A1.51,1.51,0,0,1,237,69.43ZM114.39,68.1a1.5,1.5,0,0,1-1.5-1.5v-1a1.5,1.5,0,0,1,3,0v1A1.5,1.5,0,0,1,114.39,68.1ZM237,63.44a1.5,1.5,0,0,1-1.5-1.49c0-.32,0-.63,0-1a1.5,1.5,0,0,1,3-.13l0,1.05a1.51,1.51,0,0,1-1.49,1.52Zm-122.6-1.33h-.09a1.5,1.5,0,0,1-1.41-1.59c0-.35,0-.7.08-1.05a1.5,1.5,0,1,1,3,.29c0,.31-.06.62-.08.94A1.49,1.49,0,0,1,114.44,62.11Zm121.87-4.6a1.5,1.5,0,0,1-1.45-1.15l-.24-.91a1.5,1.5,0,0,1,2.89-.82c.09.34.18.68.26,1a1.53,1.53,0,0,1-1.46,1.86ZM115.46,56.22a1.59,1.59,0,0,1-.43-.06,1.5,1.5,0,0,1-1-1.86c.1-.34.21-.67.32-1a1.5,1.5,0,1,1,2.84,1c-.1.3-.19.6-.28.9A1.51,1.51,0,0,1,115.46,56.22Zm118.8-4.32a1.5,1.5,0,0,1-1.34-.83c-.14-.28-.29-.56-.44-.83a1.5,1.5,0,1,1,2.62-1.45c.17.31.34.61.5.93a1.5,1.5,0,0,1-.67,2A1.45,1.45,0,0,1,234.26,51.9ZM117.8,50.73a1.52,1.52,0,0,1-.74-.2,1.5,1.5,0,0,1-.56-2.05q.25-.45.54-.9a1.5,1.5,0,1,1,2.55,1.58c-.17.27-.33.54-.49.81A1.5,1.5,0,0,1,117.8,50.73ZM231,46.9a1.51,1.51,0,0,1-1.15-.53c-.2-.24-.4-.48-.61-.71a1.5,1.5,0,1,1,2.22-2c.24.26.47.52.69.79a1.5,1.5,0,0,1-.18,2.11A1.49,1.49,0,0,1,231,46.9Zm-109.63-1a1.5,1.5,0,0,1-1.1-2.52c.24-.26.48-.52.73-.76a1.49,1.49,0,0,1,2.12,0,1.51,1.51,0,0,1,0,2.12c-.22.22-.44.45-.65.68A1.54,1.54,0,0,1,121.34,45.91Zm105.3-3.12a1.52,1.52,0,0,1-.9-.3l-.76-.56a1.5,1.5,0,1,1,1.71-2.46c.29.2.57.41.85.62a1.5,1.5,0,0,1-.9,2.7ZM125.87,42a1.5,1.5,0,0,1-.84-2.74c.29-.2.58-.39.88-.57a1.5,1.5,0,1,1,1.59,2.54l-.79.52A1.52,1.52,0,0,1,125.87,42Zm95.62-2.25a1.49,1.49,0,0,1-.61-.13q-.42-.2-.87-.36a1.52,1.52,0,0,1-.84-2,1.5,1.5,0,0,1,2-.84c.33.13.66.26,1,.41a1.5,1.5,0,0,1-.61,2.87Zm-90.32-.51a1.5,1.5,0,0,1-.54-2.9l1-.36a1.5,1.5,0,1,1,1,2.84l-.89.32A1.39,1.39,0,0,1,131.17,39.25ZM215.78,38l-.28,0c-.3-.05-.61-.11-.92-.15a1.5,1.5,0,1,1,.44-3l1,.17a1.5,1.5,0,0,1-.28,3ZM137,37.78a1.5,1.5,0,0,1-.2-3q.51-.07,1.05-.12a1.5,1.5,0,0,1,.28,3l-.93.1Zm72.86-.24h-1a1.5,1.5,0,0,1,0-3h1a1.5,1.5,0,0,1,0,3Zm-6,0h-1a1.5,1.5,0,0,1,0-3h1a1.5,1.5,0,0,1,0,3Zm-6,0h-1a1.5,1.5,0,0,1,0-3h1a1.5,1.5,0,0,1,0,3Zm-6,0h-1a1.5,1.5,0,0,1,0-3h1a1.5,1.5,0,0,1,0,3Zm-6,0h-1a1.5,1.5,0,0,1,0-3h1a1.5,1.5,0,0,1,0,3Zm-6,0h-1a1.5,1.5,0,0,1,0-3h1a1.5,1.5,0,0,1,0,3Zm-6,0h-1a1.5,1.5,0,0,1,0-3h1a1.5,1.5,0,0,1,0,3Zm-6,0h-1a1.5,1.5,0,0,1,0-3h1a1.5,1.5,0,0,1,0,3Zm-6,0h-1a1.5,1.5,0,0,1,0-3h1a1.5,1.5,0,0,1,0,3Zm-6,0h-1a1.5,1.5,0,0,1,0-3h1a1.5,1.5,0,0,1,0,3Zm-6,0h-1a1.5,1.5,0,0,1,0-3h1a1.5,1.5,0,0,1,0,3Zm-6,0h-1a1.5,1.5,0,0,1,0-3h1a1.5,1.5,0,0,1,0,3Z"/><path class="cls-2" d="M124.07,285.24a1.5,1.5,0,0,1,0-3c.32,0,.63,0,.94,0a1.5,1.5,0,1,1,.15,3c-.35,0-.71,0-1.07,0Zm-5-.4a1.14,1.14,0,0,1-.26,0l-1-.2a1.5,1.5,0,1,1,.63-2.94l.93.19a1.5,1.5,0,0,1-.26,3Zm11-.35a1.5,1.5,0,0,1-.35-3c.3-.07.61-.15.91-.24a1.5,1.5,0,1,1,.83,2.88l-1,.28A1.47,1.47,0,0,1,130.05,284.49Zm-16.77-1.37a1.59,1.59,0,0,1-.59-.12l-1-.44a1.5,1.5,0,0,1,1.3-2.71c.28.14.57.27.86.39a1.5,1.5,0,0,1-.6,2.88Zm22.42-.74a1.49,1.49,0,0,1-.68-2.83c.28-.15.56-.29.83-.45a1.5,1.5,0,1,1,1.48,2.61c-.32.18-.63.35-1,.51A1.51,1.51,0,0,1,135.7,282.38Zm-27.64-2.27a1.49,1.49,0,0,1-.89-.3c-.29-.21-.57-.43-.84-.65a1.5,1.5,0,1,1,1.88-2.34l.75.59a1.5,1.5,0,0,1,.31,2.1A1.52,1.52,0,0,1,108.06,280.11ZM140.71,279a1.5,1.5,0,0,1-1-2.64l.71-.63a1.5,1.5,0,1,1,2,2.21l-.79.7A1.52,1.52,0,0,1,140.71,279Zm-37-3a1.48,1.48,0,0,1-1.14-.53c-.23-.27-.46-.55-.67-.83a1.5,1.5,0,0,1,2.36-1.85c.19.25.39.5.6.74a1.51,1.51,0,0,1-.18,2.12A1.54,1.54,0,0,1,103.67,276Zm41.15-1.36a1.48,1.48,0,0,1-.89-.29,1.51,1.51,0,0,1-.31-2.1c.19-.25.37-.51.55-.77a1.5,1.5,0,0,1,2.08-.4,1.52,1.52,0,0,1,.4,2.09L146,274A1.51,1.51,0,0,1,144.82,274.62ZM100.34,271a1.51,1.51,0,0,1-1.34-.82c-.16-.32-.32-.64-.46-1a1.5,1.5,0,0,1,2.72-1.26c.13.29.27.57.41.86a1.48,1.48,0,0,1-.65,2A1.52,1.52,0,0,1,100.34,271Zm47.48-1.57a1.52,1.52,0,0,1-.59-.12,1.49,1.49,0,0,1-.79-2c.12-.3.24-.59.35-.89a1.51,1.51,0,0,1,1.94-.86,1.5,1.5,0,0,1,.86,1.94c-.12.33-.25.66-.39,1A1.5,1.5,0,0,1,147.82,269.39ZM98.25,265.3a1.5,1.5,0,0,1-1.46-1.15c-.08-.34-.16-.69-.23-1a1.5,1.5,0,0,1,2.94-.59c.07.31.13.62.21.93a1.51,1.51,0,0,1-1.11,1.81A1.45,1.45,0,0,1,98.25,265.3Zm51.28-1.69a1.14,1.14,0,0,1-.26,0,1.49,1.49,0,0,1-1.22-1.73c0-.31.1-.62.14-.94a1.5,1.5,0,0,1,3,.39c0,.36-.1.71-.16,1.06A1.49,1.49,0,0,1,149.53,263.61Zm-52-4.29a1.51,1.51,0,0,1-1.5-1.5v-1a1.5,1.5,0,0,1,3,0v1A1.5,1.5,0,0,1,97.52,259.32Zm52.38-1.73a1.5,1.5,0,0,1-1.5-1.5v-1a1.5,1.5,0,0,1,3,0v1A1.5,1.5,0,0,1,149.9,257.59Zm-52.38-4.32a1.5,1.5,0,0,1-1.5-1.5v-1a1.5,1.5,0,0,1,3,0v1A1.5,1.5,0,0,1,97.52,253.27Zm52.38-1.72a1.5,1.5,0,0,1-1.5-1.5v-1a1.5,1.5,0,0,1,3,0v1A1.5,1.5,0,0,1,149.9,251.55Zm-52.38-4.32a1.5,1.5,0,0,1-1.5-1.5v-1a1.5,1.5,0,0,1,3,0v1A1.5,1.5,0,0,1,97.52,247.23Zm52.38-1.72a1.5,1.5,0,0,1-1.5-1.5v-1a1.5,1.5,0,0,1,3,0v1A1.5,1.5,0,0,1,149.9,245.51Zm-52.38-4.32a1.51,1.51,0,0,1-1.5-1.5v-1a1.5,1.5,0,0,1,3,0v1A1.5,1.5,0,0,1,97.52,241.19Zm52.38-1.73a1.5,1.5,0,0,1-1.5-1.5v-1a1.5,1.5,0,0,1,3,0v1A1.5,1.5,0,0,1,149.9,239.46Zm-52.38-4.32a1.5,1.5,0,0,1-1.5-1.5v-1a1.5,1.5,0,0,1,3,0v1A1.5,1.5,0,0,1,97.52,235.14Zm52.38-1.72a1.5,1.5,0,0,1-1.5-1.5v-1a1.5,1.5,0,0,1,3,0v1A1.5,1.5,0,0,1,149.9,233.42ZM97.52,229.1a1.5,1.5,0,0,1-1.5-1.5v-1a1.5,1.5,0,0,1,3,0v1A1.5,1.5,0,0,1,97.52,229.1Zm52.38-1.72a1.5,1.5,0,0,1-1.5-1.5v-1a1.5,1.5,0,0,1,3,0v1A1.5,1.5,0,0,1,149.9,227.38Zm-52.38-4.32a1.5,1.5,0,0,1-1.5-1.5v-1a1.5,1.5,0,0,1,3,0v1A1.5,1.5,0,0,1,97.52,223.06Zm52.38-1.72a1.51,1.51,0,0,1-1.5-1.5v-1a1.5,1.5,0,0,1,3,0v1A1.5,1.5,0,0,1,149.9,221.34ZM97.52,217a1.5,1.5,0,0,1-1.5-1.5v-1a1.5,1.5,0,0,1,3,0v1A1.5,1.5,0,0,1,97.52,217Zm52.38-1.72a1.5,1.5,0,0,1-1.5-1.5v-1a1.5,1.5,0,0,1,3,0v1A1.5,1.5,0,0,1,149.9,215.29ZM97.52,211a1.5,1.5,0,0,1-1.5-1.5v-1a1.5,1.5,0,0,1,3,0v1A1.5,1.5,0,0,1,97.52,211Zm52.38-1.72a1.5,1.5,0,0,1-1.5-1.5v-1a1.5,1.5,0,0,1,3,0v1A1.5,1.5,0,0,1,149.9,209.25Zm-52.38-4.32a1.5,1.5,0,0,1-1.5-1.5v-1a1.5,1.5,0,0,1,3,0v1A1.5,1.5,0,0,1,97.52,204.93Zm52.38-1.72a1.51,1.51,0,0,1-1.5-1.5v-1a1.5,1.5,0,0,1,3,0v1A1.5,1.5,0,0,1,149.9,203.21Zm-52.38-4.33a1.5,1.5,0,0,1-1.5-1.5v-1a1.5,1.5,0,0,1,3,0v1A1.5,1.5,0,0,1,97.52,198.88Zm52.38-1.72a1.5,1.5,0,0,1-1.5-1.5v-1a1.5,1.5,0,0,1,3,0v1A1.5,1.5,0,0,1,149.9,197.16Zm-52.83-4.29a1.51,1.51,0,0,1-1.47-1.22c-.06-.31-.12-.62-.19-.93a1.5,1.5,0,1,1,2.92-.67c.08.35.15.69.22,1a1.49,1.49,0,0,1-1.2,1.75A1.27,1.27,0,0,1,97.07,192.87Zm52.83-1.75a1.5,1.5,0,0,1-1.5-1.5v-1a1.5,1.5,0,0,1,3,0v1A1.5,1.5,0,0,1,149.9,191.12Zm-54.62-4a1.49,1.49,0,0,1-1.36-.89c-.14-.29-.27-.58-.41-.86A1.5,1.5,0,1,1,96.2,184q.24.48.45,1a1.51,1.51,0,0,1-.75,2A1.68,1.68,0,0,1,95.28,187.12Zm54.62-2a1.51,1.51,0,0,1-1.5-1.5v-1a1.5,1.5,0,0,1,3,0v1A1.5,1.5,0,0,1,149.9,185.08Zm-57.69-3.15a1.48,1.48,0,0,1-1.19-.59c-.19-.25-.39-.5-.59-.74a1.5,1.5,0,1,1,2.32-1.91c.22.27.44.55.65.83a1.49,1.49,0,0,1-.28,2.1A1.47,1.47,0,0,1,92.21,181.93ZM88,177.59a1.56,1.56,0,0,1-1-.34c-.24-.21-.49-.4-.74-.6a1.5,1.5,0,1,1,1.82-2.38c.28.21.55.43.83.66a1.5,1.5,0,0,1-1,2.66ZM83,174.31a1.43,1.43,0,0,1-.66-.16l-.86-.4A1.5,1.5,0,1,1,82.67,171l1,.46a1.51,1.51,0,0,1,.68,2A1.53,1.53,0,0,1,83,174.31Zm-5.68-2a1.86,1.86,0,0,1-.33,0l-.93-.2a1.5,1.5,0,1,1,.56-2.94c.35.06.69.14,1,.21a1.51,1.51,0,0,1-.34,3Zm-6-.66h-1a1.5,1.5,0,0,1,0-3h1a1.5,1.5,0,1,1,0,3Zm-6,0h-1a1.5,1.5,0,0,1,0-3h1a1.5,1.5,0,0,1,0,3Zm-6.05,0h-1a1.5,1.5,0,0,1,0-3h1a1.5,1.5,0,1,1,0,3Zm-6,0h-1a1.5,1.5,0,0,1,0-3h1a1.5,1.5,0,1,1,0,3Zm-6,0h-1a1.5,1.5,0,0,1,0-3h1a1.5,1.5,0,0,1,0,3Zm-6,0h-1a1.5,1.5,0,1,1,0-3h1a1.5,1.5,0,0,1,0,3Zm-6.05,0H34a1.5,1.5,0,1,1,0-3h1a1.5,1.5,0,0,1,0,3Zm-6,0H28a1.5,1.5,0,0,1,0-3h1a1.5,1.5,0,0,1,0,3Zm-6,0H22a1.5,1.5,0,1,1,0-3h1a1.5,1.5,0,1,1,0,3Zm-6.05,0h-1a1.5,1.5,0,1,1,0-3h1a1.5,1.5,0,0,1,0,3Zm-6,0h-1a1.5,1.5,0,0,1,0-3h1a1.5,1.5,0,1,1,0,3Zm-6,0h-1a1.5,1.5,0,1,1,0-3h1a1.5,1.5,0,1,1,0,3Z"/><path class="cls-3" d="M149.9,179a1.5,1.5,0,0,1-1.5-1.5V177a1.5,1.5,0,0,1,3,0v.5A1.5,1.5,0,0,1,149.9,179Z"/><path class="cls-4" d="M89.16,65.85a28.66,28.66,0,0,0,0-6.76L85.27,58a25.16,25.16,0,0,0-2-6.34l2.47-3.21a28.93,28.93,0,0,0-4-5.46L77.89,44.3a25.07,25.07,0,0,0-5.38-3.92l.11-4.05a28.39,28.39,0,0,0-6.42-2.09l-2.3,3.35a25.24,25.24,0,0,0-6.65,0L55,34.24a28.72,28.72,0,0,0-6.42,2.09l.11,4.05a25.07,25.07,0,0,0-5.38,3.92l-3.82-1.36a29.37,29.37,0,0,0-4,5.46l2.47,3.21a25.16,25.16,0,0,0-2,6.34L32,59.09a28.66,28.66,0,0,0,0,6.76L35.88,67a25.09,25.09,0,0,0,2,6.33l-2.47,3.21a29.44,29.44,0,0,0,4,5.47l3.82-1.36a25.41,25.41,0,0,0,5.38,3.92l-.11,4.05A29.24,29.24,0,0,0,55,90.71l2.3-3.36a24.15,24.15,0,0,0,6.65,0l2.3,3.36a28.9,28.9,0,0,0,6.42-2.09l-.11-4.05a25.41,25.41,0,0,0,5.38-3.92L81.71,82a29,29,0,0,0,4-5.47l-2.47-3.21a25.09,25.09,0,0,0,2-6.33ZM60.58,82A19.54,19.54,0,1,1,80.11,62.47,19.54,19.54,0,0,1,60.58,82Z"/><path class="cls-4" d="M86.71,36.34a1,1,0,0,0-1.41,0,1,1,0,0,0,0,1.41,35,35,0,1,1-51,1.63l.27,3.33a1,1,0,0,0,1,.92h.08a1,1,0,0,0,.92-1.08L36.14,37a.74.74,0,0,0,0-.14.59.59,0,0,0-.05-.19.66.66,0,0,0-.12-.17s0-.09-.08-.12l0,0,0,0s-.1-.05-.14-.08l-.16-.09-.19,0-.2,0h0l-5.58.45a1,1,0,1,0,.16,2l3-.24a37,37,0,1,0,54-1.91Z"/><path class="cls-4" d="M260.08,181.81a29.83,29.83,0,0,0,2.25,2.54,29.39,29.39,0,0,0,2.53,2.24l3.56-1.94a25.18,25.18,0,0,0,5.93,3l.53,4a29.07,29.07,0,0,0,6.67,1.05l1.74-3.67a25,25,0,0,0,6.58-1l2.78,2.95a28.48,28.48,0,0,0,6-3.07l-.75-4a24.62,24.62,0,0,0,4.71-4.71l4,.75a28.25,28.25,0,0,0,3.07-6l-2.95-2.78a25.45,25.45,0,0,0,1-6.58l3.66-1.74a29.24,29.24,0,0,0-1.05-6.68l-4-.52a24.62,24.62,0,0,0-3-5.93l1.94-3.56a28,28,0,0,0-4.78-4.78l-3.56,1.94a24.8,24.8,0,0,0-5.93-3l-.52-4a28.55,28.55,0,0,0-6.67-1.06l-1.74,3.67a25,25,0,0,0-6.58,1L272.72,137a28.44,28.44,0,0,0-6,3.06l.74,4a24.44,24.44,0,0,0-2.51,2.19,25.72,25.72,0,0,0-2.19,2.51l-4-.75a28.93,28.93,0,0,0-3.06,6l2.94,2.79a25.29,25.29,0,0,0-1,6.57l-3.67,1.75A29.08,29.08,0,0,0,255,171.8l4,.52a25.17,25.17,0,0,0,3,5.93Zm8.79-31.63a19.53,19.53,0,1,1,0,27.62A19.54,19.54,0,0,1,268.87,150.18Z"/><path class="cls-4" d="M282.68,201a1,1,0,0,0,0-2,35,35,0,1,1,34.89-37.2L315,159.6a1,1,0,0,0-1.35.06s0,0-.06.06a1,1,0,0,0,.12,1.41l4.27,3.62a.91.91,0,0,0,.13.08,1.4,1.4,0,0,0,.17.09.71.71,0,0,0,.2,0l.15,0h.08l.16-.05a.61.61,0,0,0,.18-.05.78.78,0,0,0,.15-.1l.16-.13,0,0,3.63-4.27a1,1,0,0,0-1.53-1.3l-2,2.32A37,37,0,1,0,282.68,201Z"/><path class="cls-4" d="M203.07,187.81a28.53,28.53,0,0,0-3.27-.88,27.61,27.61,0,0,0-3.35-.49l-1.9,3.58a24.68,24.68,0,0,0-6.62.73l-2.65-3.07a28.63,28.63,0,0,0-6.15,2.78l.56,4a25.27,25.27,0,0,0-4.93,4.48l-3.94-.93a28.26,28.26,0,0,0-3.35,5.87l2.82,2.92a25.89,25.89,0,0,0-.9,3.22,26.68,26.68,0,0,0-.45,3.3l-3.75,1.57a29.31,29.31,0,0,0,.75,6.71l4,.71a25.34,25.34,0,0,0,2.75,6.06l-2.11,3.47a28.77,28.77,0,0,0,4.55,5l3.64-1.77a25.15,25.15,0,0,0,5.79,3.29l.34,4a31.43,31.43,0,0,0,3.27.89,30,30,0,0,0,3.35.48l1.91-3.58a24.77,24.77,0,0,0,6.62-.72l2.64,3.06a28.42,28.42,0,0,0,6.15-2.78l-.55-4a25.5,25.5,0,0,0,4.92-4.48l4,.93a28.68,28.68,0,0,0,3.34-5.87l-2.82-2.92a24.56,24.56,0,0,0,.9-3.21,25.28,25.28,0,0,0,.45-3.31l3.75-1.57a28.24,28.24,0,0,0-.75-6.71l-4-.71a25.13,25.13,0,0,0-2.75-6.06l2.11-3.47a29.13,29.13,0,0,0-4.55-5l-3.64,1.77a25.15,25.15,0,0,0-5.79-3.29Zm10,31.26A19.53,19.53,0,1,1,197.93,196,19.54,19.54,0,0,1,213.11,219.07Z"/><path class="cls-4" d="M173.67,184.23a1,1,0,0,0,1.1,1.67,35,35,0,1,1-8.71,50.24l3.31.41a1,1,0,0,0,1.1-.79s0,0,0-.08a1,1,0,0,0-.87-1.11l-5.57-.69h-.14a1.36,1.36,0,0,0-.2,0,.64.64,0,0,0-.19.08.58.58,0,0,0-.14,0l0,0,0,0a.41.41,0,0,0-.11.12.75.75,0,0,0-.12.14,1.42,1.42,0,0,0-.08.18,1.27,1.27,0,0,0-.06.18s0,0,0,0l-.69,5.57a1,1,0,0,0,2,.24l.37-3a37,37,0,1,0,9.06-53.31Z"/><rect class="cls-2" x="60.58" y="69.3" width="223.04" height="149.64" rx="9.43"/><path class="cls-5" d="M274.19,69.3H70a9.43,9.43,0,0,0-9.43,9.43v12h223v-12A9.43,9.43,0,0,0,274.19,69.3Z"/><circle class="cls-6" cx="75.78" cy="80.01" r="3.58"/><circle class="cls-7" cx="88.83" cy="80.01" r="3.58"/><path class="cls-8" d="M105.45,80a3.58,3.58,0,1,1-3.57-3.58A3.57,3.57,0,0,1,105.45,80Z"/><polygon class="cls-9" points="60.58 90.71 283.62 90.71 60.58 103.8 60.58 90.71"/><rect class="cls-10" x="68.79" y="108.03" width="93.45" height="97.89" rx="10.1"/><rect class="cls-11" x="171.42" y="108.03" width="103.45" height="37.89" rx="10.1"/><rect class="cls-10" x="171.42" y="155.01" width="103.45" height="48.92" rx="10.1"/><rect class="cls-2" x="295.22" width="86.86" height="78.4" rx="4.94"/><path class="cls-5" d="M377.15,0h-77a4.94,4.94,0,0,0-4.94,4.94v6.27h86.87V4.94A4.94,4.94,0,0,0,377.15,0Z"/><path class="cls-6" d="M305.06,5.61a1.88,1.88,0,1,1-1.87-1.88A1.87,1.87,0,0,1,305.06,5.61Z"/><path class="cls-7" d="M311.9,5.61A1.88,1.88,0,1,1,310,3.73,1.87,1.87,0,0,1,311.9,5.61Z"/><path class="cls-8" d="M318.74,5.61a1.88,1.88,0,1,1-1.88-1.88A1.88,1.88,0,0,1,318.74,5.61Z"/><polygon class="cls-9" points="295.22 11.21 382.09 11.21 295.22 18.07 295.22 11.21"/><path class="cls-10" d="M374.24,25.93H303a2.55,2.55,0,0,1-2.55-2.55h0A2.56,2.56,0,0,1,303,20.82h71.22a2.56,2.56,0,0,1,2.55,2.56h0A2.55,2.55,0,0,1,374.24,25.93Z"/><path class="cls-10" d="M374.24,35.39H303a2.55,2.55,0,0,1-2.55-2.55h0A2.56,2.56,0,0,1,303,30.28h71.22a2.56,2.56,0,0,1,2.55,2.56h0A2.55,2.55,0,0,1,374.24,35.39Z"/><path class="cls-10" d="M374.24,44.85H303a2.56,2.56,0,0,1-2.55-2.56h0A2.55,2.55,0,0,1,303,39.74h71.22a2.55,2.55,0,0,1,2.55,2.55h0A2.56,2.56,0,0,1,374.24,44.85Z"/><path class="cls-10" d="M374.24,54.31H303a2.56,2.56,0,0,1-2.55-2.56h0A2.55,2.55,0,0,1,303,49.2h71.22a2.55,2.55,0,0,1,2.55,2.55h0A2.56,2.56,0,0,1,374.24,54.31Z"/><path class="cls-10" d="M374.24,63.76H303a2.55,2.55,0,0,1-2.55-2.55h0A2.56,2.56,0,0,1,303,58.65h71.22a2.56,2.56,0,0,1,2.55,2.56h0A2.55,2.55,0,0,1,374.24,63.76Z"/><path class="cls-10" d="M374.24,73.22H303a2.55,2.55,0,0,1-2.55-2.55h0A2.56,2.56,0,0,1,303,68.11h71.22a2.56,2.56,0,0,1,2.55,2.56h0A2.55,2.55,0,0,1,374.24,73.22Z"/><rect class="cls-2" x="133.94" y="10.04" width="86.86" height="48.4" rx="4.94"/><path class="cls-5" d="M215.87,10h-77A4.94,4.94,0,0,0,133.94,15v6.27h86.87V15A4.94,4.94,0,0,0,215.87,10Z"/><path class="cls-6" d="M143.78,15.65a1.88,1.88,0,1,1-1.87-1.88A1.87,1.87,0,0,1,143.78,15.65Z"/><path class="cls-7" d="M150.62,15.65a1.88,1.88,0,1,1-1.88-1.88A1.88,1.88,0,0,1,150.62,15.65Z"/><path class="cls-8" d="M157.46,15.65a1.88,1.88,0,1,1-1.88-1.88A1.88,1.88,0,0,1,157.46,15.65Z"/><polygon class="cls-9" points="133.94 21.25 220.81 21.25 133.94 28.11 133.94 21.25"/><text class="cls-12" transform="translate(145.32 48.2)">DEVLOPMENT</text><text class="cls-12" transform="translate(155.4 35.66)">WEB APP</text><rect class="cls-13" x="305.22" y="178.16" width="65.24" height="111.44" rx="10.19"/><path class="cls-14" d="M360.27,181.67H359.1a2.37,2.37,0,0,0-2.37,2.37h0a4.34,4.34,0,0,1-4.34,4.34h-29.1A4.34,4.34,0,0,1,319,184h0a2.37,2.37,0,0,0-2.37-2.37h-1.17a6.68,6.68,0,0,0-6.68,6.69v91.05a6.68,6.68,0,0,0,6.68,6.68h44.86a6.68,6.68,0,0,0,6.68-6.68V188.36A6.68,6.68,0,0,0,360.27,181.67Z"/><rect class="cls-15" x="310.6" y="192.3" width="54.57" height="31.78" rx="4.78"/><path class="cls-15" d="M363.06,232.17H312.71a2.11,2.11,0,0,1-2.11-2.1h0a2.11,2.11,0,0,1,2.11-2.11h50.35a2.11,2.11,0,0,1,2.11,2.11h0A2.11,2.11,0,0,1,363.06,232.17Z"/><path class="cls-15" d="M363.06,240.17H312.71a2.12,2.12,0,0,1-2.11-2.11h0a2.11,2.11,0,0,1,2.11-2.11h50.35a2.11,2.11,0,0,1,2.11,2.11h0A2.12,2.12,0,0,1,363.06,240.17Z"/><path class="cls-15" d="M363.06,248.16H312.71a2.12,2.12,0,0,1-2.11-2.11h0a2.12,2.12,0,0,1,2.11-2.11h50.35a2.12,2.12,0,0,1,2.11,2.11h0A2.12,2.12,0,0,1,363.06,248.16Z"/><path class="cls-15" d="M363.06,256.15H312.71A2.11,2.11,0,0,1,310.6,254h0a2.11,2.11,0,0,1,2.11-2.1h50.35a2.11,2.11,0,0,1,2.11,2.1h0A2.11,2.11,0,0,1,363.06,256.15Z"/><path class="cls-15" d="M363.06,264.14H312.71a2.11,2.11,0,0,1-2.11-2.1h0a2.11,2.11,0,0,1,2.11-2.11h50.35a2.11,2.11,0,0,1,2.11,2.11h0A2.11,2.11,0,0,1,363.06,264.14Z"/><rect class="cls-15" x="310.6" y="267.92" width="54.57" height="4.21" rx="2.11"/><path class="cls-15" d="M363.06,280.13H312.71A2.12,2.12,0,0,1,310.6,278h0a2.12,2.12,0,0,1,2.11-2.11h50.35a2.12,2.12,0,0,1,2.11,2.11h0A2.12,2.12,0,0,1,363.06,280.13Z"/><path class="cls-16" d="M342.38,205.4l-6.8-3.92a3.22,3.22,0,0,0-4.83,2.79v7.85a3.22,3.22,0,0,0,4.83,2.79l6.8-3.93A3.22,3.22,0,0,0,342.38,205.4Z"/><polygon class="cls-17" points="308.73 264.6 366.95 206.38 366.95 192.18 308.73 250.4 308.73 264.6"/><polygon class="cls-17" points="366.95 217.14 366.95 210.04 308.73 268.26 308.73 275.36 366.95 217.14"/><path class="cls-18" d="M339.64,184a2,2,0,1,1-2-2A2,2,0,0,1,339.64,184Z"/><path class="cls-18" d="M331.52,184a1.37,1.37,0,1,1-1.37-1.37A1.37,1.37,0,0,1,331.52,184Z"/><path class="cls-18" d="M347.21,184a1.37,1.37,0,1,1-1.37-1.37A1.37,1.37,0,0,1,347.21,184Z"/><path class="cls-19" d="M12.37,158.6H48.63a0,0,0,0,1,0,0v18.28a3.88,3.88,0,0,1-3.88,3.88H16.25a3.88,3.88,0,0,1-3.88-3.88V158.6A0,0,0,0,1,12.37,158.6Z"/><path class="cls-20" d="M44.75,180.76H16.25a3.88,3.88,0,0,1-3.88-3.88V158.6L30.5,169.68,48.63,158.6v18.28A3.88,3.88,0,0,1,44.75,180.76Z"/><path class="cls-19" d="M30.5,147.22h0a5.66,5.66,0,0,0-3.26,1L12.37,158.6H48.63L33.76,148.25A5.68,5.68,0,0,0,30.5,147.22Z"/><path class="cls-17" d="M30.5,169.68l15.67-9.58v-5.44a2.77,2.77,0,0,0-2.76-2.76H17.59a2.77,2.77,0,0,0-2.76,2.76v5.44Z"/><path class="cls-21" d="M269.83,17.52a3.31,3.31,0,1,1-3.3-3.3A3.3,3.3,0,0,1,269.83,17.52Z"/><path class="cls-21" d="M105.45,26.64a2,2,0,1,1-2-2A2,2,0,0,1,105.45,26.64Z"/><path class="cls-21" d="M41,120.26A2.25,2.25,0,1,1,38.79,118,2.25,2.25,0,0,1,41,120.26Z"/><path class="cls-21" d="M41.25,210.91a1,1,0,1,1-1-1A1,1,0,0,1,41.25,210.91Z"/><path class="cls-21" d="M64,239.81a2.63,2.63,0,1,1-2.63-2.63A2.63,2.63,0,0,1,64,239.81Z"/><circle class="cls-21" cx="170.91" cy="265.48" r="3.52"/><path class="cls-21" d="M214.66,263.63A1.67,1.67,0,1,1,213,262,1.67,1.67,0,0,1,214.66,263.63Z"/><path class="cls-21" d="M295.5,250.09a4,4,0,1,1-4-4A4,4,0,0,1,295.5,250.09Z"/><path class="cls-21" d="M381.09,97.38a3.33,3.33,0,1,1-3.33-3.33A3.33,3.33,0,0,1,381.09,97.38Z"/><circle class="cls-21" cx="363.47" cy="172.95" r="2.26"/><circle class="cls-21" cx="270.69" cy="54.06" r="2.16"/><path class="cls-21" d="M251.6,261.78h0a4.56,4.56,0,0,0,3,3h0a4.55,4.55,0,0,0-3,3h0a4.54,4.54,0,0,0-3-3h0a4.55,4.55,0,0,0,3-3Z"/><path class="cls-21" d="M248.59,38h0a4.54,4.54,0,0,0,3,3h0a4.55,4.55,0,0,0-3,3h0a4.54,4.54,0,0,0-3-3h0a4.53,4.53,0,0,0,3-3Z"/><path class="cls-21" d="M30.5,11.63h0a4.53,4.53,0,0,0,3,3h0a4.54,4.54,0,0,0-3,3h0a4.54,4.54,0,0,0-3-3h0a4.53,4.53,0,0,0,3-3Z"/><path class="cls-21" d="M128.21,18.24h0a4.54,4.54,0,0,0,3,3h0a4.53,4.53,0,0,0-3,3h0a4.54,4.54,0,0,0-3-3h0a4.55,4.55,0,0,0,3-3Z"/><path class="cls-21" d="M14.41,92.23h0a4.53,4.53,0,0,0,3,3h0a4.53,4.53,0,0,0-3,3h0a4.54,4.54,0,0,0-3-3h0a4.54,4.54,0,0,0,3-3Z"/><path class="cls-21" d="M387.8,135h0a4.54,4.54,0,0,0,3,3h0a4.53,4.53,0,0,0-3,3h0a4.52,4.52,0,0,0-3-3h0a4.53,4.53,0,0,0,3-3Z"/><path class="cls-21" d="M30.5,249.34h0a4.52,4.52,0,0,0,3,3h0a4.52,4.52,0,0,0-3,3h0a4.52,4.52,0,0,0-3-3h0a4.52,4.52,0,0,0,3-3Z"/><circle class="cls-22" cx="336.47" cy="118.66" r="28.33" transform="matrix(0.23, -0.97, 0.97, 0.23, 144.53, 419.41)"/><text class="cls-23" transform="translate(317.68 127.01)">&lt;/&gt;</text><circle class="cls-24" cx="99.02" cy="256.16" r="28.33" transform="translate(-152.13 145.05) rotate(-45)"/><text class="cls-23" transform="translate(78.79 263.63)">{...}</text><rect class="cls-5" x="79.26" y="120.45" width="74.62" height="7.09" rx="3.55"/><rect class="cls-5" x="79.26" y="130.48" width="74.62" height="7.09" rx="3.55"/><rect class="cls-5" x="79.26" y="140.5" width="74.62" height="7.09" rx="3.55"/><rect class="cls-2" x="105.77" y="150.53" width="48.11" height="7.09" rx="3.55"/><rect class="cls-5" x="88.83" y="160.56" width="65.05" height="7.09" rx="3.55"/><rect class="cls-2" x="103.35" y="170.58" width="50.53" height="7.09" rx="3.55"/><rect class="cls-2" x="103.35" y="181.62" width="50.53" height="7.09" rx="3.55"/><rect class="cls-5" x="196.13" y="158.68" width="44.29" height="4.21" rx="1.68"/><rect class="cls-5" x="196.13" y="164.64" width="44.29" height="4.21" rx="1.68"/><rect class="cls-5" x="196.13" y="170.59" width="44.29" height="4.21" rx="1.68"/><rect class="cls-2" x="211.87" y="176.54" width="28.56" height="4.21" rx="1.68"/><rect class="cls-5" x="201.81" y="182.49" width="38.61" height="4.21" rx="1.68"/><rect class="cls-2" x="210.44" y="188.44" width="29.99" height="4.21" rx="1.68"/><rect class="cls-2" x="210.44" y="194.99" width="29.99" height="4.21" rx="1.68"/></g></g></g></svg>