<svg xmlns="http://www.w3.org/2000/svg" viewBox="0 0 385.93 352.9"><defs><style>.cls-1{isolation:isolate;}.cls-12,.cls-16,.cls-2,.cls-29,.cls-30{fill:none;stroke-miterlimit:10;}.cls-16,.cls-2,.cls-29,.cls-30{stroke:#9bacbe;}.cls-16,.cls-2{stroke-linecap:round;}.cls-2{stroke-width:1.3px;stroke-dasharray:5 4;opacity:0.39;}.cls-3{fill:#2f3339;}.cls-4{fill:#454b55;}.cls-13,.cls-15,.cls-5{fill:#393e46;}.cls-6{fill:#33373e;}.cls-7{fill:#838b96;}.cls-8{fill:#5a6b7c;}.cls-9{fill:#383c42;}.cls-10{fill:#fff;}.cls-11{fill:#e9e8e8;}.cls-12{stroke:#5a6b7c;}.cls-13{font-size:14.72px;font-family:BebasNeueBold;}.cls-14{letter-spacing:0.01em;}.cls-15{opacity:0.37;mix-blend-mode:multiply;}.cls-16{stroke-width:6px;stroke-dasharray:0 11.75;}.cls-17{fill:#9bacbe;}.cls-18{fill:#f15737;}.cls-19{fill:#1f242b;}.cls-20{fill:#272c34;}.cls-21{fill:#e1e4e7;}.cls-22{fill:#b53625;}.cls-23{fill:#d64227;}.cls-24{fill:#cdd7e6;}.cls-25{fill:#e1e9f5;}.cls-26{fill:#434550;}.cls-27{fill:#c93b27;}.cls-28{fill:#f47e67;}.cls-29,.cls-30{stroke-width:0.75px;}.cls-29{opacity:0.4;}</style></defs><g class="cls-1"><g id="Layer_2" data-name="Layer 2"><g id="Layer_1-2" data-name="Layer 1"><circle class="cls-2" cx="293.71" cy="262.58" r="89.68"/><path class="cls-3" d="M266.44,178.56V308a5.45,5.45,0,0,1-2.52,4.59,5.26,5.26,0,0,1-2.74.84H22.46a5.26,5.26,0,0,1-2.73-.84A5.44,5.44,0,0,1,17.2,308V178.56a5.45,5.45,0,0,1,5.45-5.45H261A5.44,5.44,0,0,1,266.44,178.56Z"/><rect class="cls-4" x="25.61" y="180.68" width="232.34" height="125.18"/><polygon class="cls-5" points="257.95 180.68 257.95 198.94 151.03 305.86 25.61 305.86 25.61 287.61 132.53 180.68 257.95 180.68"/><polygon class="cls-6" points="166.93 180.68 41.75 305.86 25.61 305.86 25.61 259.22 104.16 180.68 166.93 180.68"/><path class="cls-7" d="M142.07,312.59H47.72a.72.72,0,0,0-.72.72h0a.71.71,0,0,0,.72.71h94.35a.71.71,0,0,0,.71-.71h0A.71.71,0,0,0,142.07,312.59Z"/><path class="cls-7" d="M25.19,312.59h-15a.72.72,0,0,0-.72.72h0a.71.71,0,0,0,.72.71h15a.71.71,0,0,0,.72-.71h0A.72.72,0,0,0,25.19,312.59Z"/><path class="cls-7" d="M43.92,312.59h-15a.72.72,0,0,0-.72.72h0a.71.71,0,0,0,.72.71h15a.72.72,0,0,0,.72-.71h0A.72.72,0,0,0,43.92,312.59Z"/><path class="cls-7" d="M161.68,312.59h-15a.72.72,0,0,0-.72.72h0a.71.71,0,0,0,.72.71h15a.71.71,0,0,0,.72-.71h0A.72.72,0,0,0,161.68,312.59Z"/><path class="cls-7" d="M179.88,312.59h-15a.71.71,0,0,0-.71.72h0a.71.71,0,0,0,.71.71h15a.71.71,0,0,0,.71-.71h0A.71.71,0,0,0,179.88,312.59Z"/><path class="cls-7" d="M198.07,312.59h-15a.72.72,0,0,0-.72.72h0a.71.71,0,0,0,.72.71h15a.71.71,0,0,0,.72-.71h0A.72.72,0,0,0,198.07,312.59Z"/><path class="cls-7" d="M216.27,312.59h-15a.71.71,0,0,0-.71.72h0a.71.71,0,0,0,.71.71h15a.71.71,0,0,0,.71-.71h0A.71.71,0,0,0,216.27,312.59Z"/><path class="cls-7" d="M234.46,312.59h-15a.72.72,0,0,0-.72.72h0a.71.71,0,0,0,.72.71h15a.71.71,0,0,0,.72-.71h0A.72.72,0,0,0,234.46,312.59Z"/><path class="cls-7" d="M252.66,312.59h-15a.71.71,0,0,0-.71.72h0a.71.71,0,0,0,.71.71h15a.71.71,0,0,0,.71-.71h0A.71.71,0,0,0,252.66,312.59Z"/><path class="cls-7" d="M270.85,312.59h-15a.72.72,0,0,0-.72.72h0a.71.71,0,0,0,.72.71h15a.71.71,0,0,0,.72-.71h0A.72.72,0,0,0,270.85,312.59Z"/><path class="cls-5" d="M237.23,318v-.92l-95,.46-95-.46V318L0,318.26V319l11.76,3.17a104.22,104.22,0,0,0,27.05,3.58h206.8a104.2,104.2,0,0,0,27-3.58L284.41,319v-.77Z"/><rect class="cls-8" y="313.44" width="284.41" height="4.89"/><polygon class="cls-9" points="121.15 180.68 25.61 276.23 25.61 267.9 112.83 180.68 121.15 180.68"/><polygon class="cls-9" points="257.95 245.34 257.95 260.93 213.01 305.86 197.43 305.86 257.95 245.34"/><rect class="cls-10" x="60.13" y="187.3" width="166.44" height="118.56"/><rect class="cls-11" x="60.13" y="299.39" width="166.44" height="6.47"/><line class="cls-12" x1="68.89" y1="212.5" x2="216.99" y2="212.5"/><text class="cls-13" transform="translate(68.09 207.35)"><tspan class="cls-14">ww</tspan><tspan x="22.02" y="0">w</tspan></text><rect class="cls-8" x="68.85" y="215.46" width="148.18" height="52.59"/><polygon class="cls-5" points="210.68 238.68 210.68 244.84 213.76 241.76 210.68 238.68"/><polygon class="cls-5" points="72.13 241.76 75.21 244.84 75.21 238.68 72.13 241.76"/><rect class="cls-8" x="68.85" y="272.31" width="44.64" height="2.74"/><rect class="cls-8" x="117.09" y="272.31" width="48.03" height="2.74"/><rect class="cls-8" x="168.71" y="272.31" width="48.32" height="2.74"/><rect class="cls-8" x="68.85" y="279.67" width="44.64" height="2.75"/><rect class="cls-8" x="117.09" y="279.67" width="48.03" height="2.75"/><rect class="cls-8" x="168.71" y="279.67" width="48.32" height="2.75"/><rect class="cls-8" x="68.85" y="287.05" width="44.64" height="2.75"/><rect class="cls-8" x="117.09" y="287.05" width="48.03" height="2.75"/><rect class="cls-8" x="168.71" y="287.05" width="48.32" height="2.75"/><rect class="cls-8" x="68.85" y="294.43" width="44.64" height="2.75"/><rect class="cls-8" x="117.09" y="294.43" width="48.03" height="2.75"/><rect class="cls-8" x="168.71" y="294.43" width="48.32" height="2.75"/><path class="cls-15" d="M266.44,178.56v81H112.76a9.63,9.63,0,0,1-9.63-9.62V173.11H261A5.44,5.44,0,0,1,266.44,178.56Z"/><circle class="cls-16" cx="105.79" cy="46.01" r="43.01"/><rect class="cls-8" x="110.91" y="74.76" width="259.04" height="169.49" rx="9.62"/><rect class="cls-5" x="117.58" y="81.46" width="245.7" height="156.09" rx="4.18"/><rect class="cls-10" x="287.02" y="91.88" width="63.59" height="57.54" rx="3.98"/><path class="cls-17" d="M346,97.41a2.21,2.21,0,1,1-2.21-2.21A2.21,2.21,0,0,1,346,97.41Z"/><path class="cls-5" d="M339.39,97.41a2.21,2.21,0,1,1-2.21-2.21A2.21,2.21,0,0,1,339.39,97.41Z"/><path class="cls-18" d="M332.84,97.41a2.22,2.22,0,1,1-2.21-2.21A2.21,2.21,0,0,1,332.84,97.41Z"/><path class="cls-19" d="M269.18,96.25v48.81a4.36,4.36,0,0,1-4.35,4.37H210a4.36,4.36,0,0,1-4.37-4.37V96.25A4.37,4.37,0,0,1,210,91.88h54.87a4.37,4.37,0,0,1,4.29,3.63A4.62,4.62,0,0,1,269.18,96.25Z"/><path class="cls-20" d="M269.18,96.25v48.81a4.36,4.36,0,0,1-4.35,4.37H210a4.4,4.4,0,0,1-.73-.06,3.64,3.64,0,0,1-.07-.74V99.81a4.36,4.36,0,0,1,4.36-4.36h54.87a4.4,4.4,0,0,1,.73.06A4.62,4.62,0,0,1,269.18,96.25Z"/><rect class="cls-20" x="285.64" y="167.02" width="66.35" height="60.03" rx="4.16"/><rect class="cls-10" x="205.6" y="168.26" width="63.59" height="57.54" rx="3.98"/><path class="cls-17" d="M264.53,173.79a2.22,2.22,0,1,1-2.21-2.22A2.21,2.21,0,0,1,264.53,173.79Z"/><path class="cls-5" d="M258,173.79a2.21,2.21,0,1,1-2.21-2.22A2.21,2.21,0,0,1,258,173.79Z"/><path class="cls-18" d="M251.42,173.79a2.22,2.22,0,1,1-2.22-2.22A2.21,2.21,0,0,1,251.42,173.79Z"/><rect class="cls-17" x="133.19" y="114.64" width="61.71" height="4.91"/><rect class="cls-17" x="133.19" y="92.53" width="47.71" height="10.48"/><rect class="cls-17" x="133.19" y="123.01" width="61.71" height="4.91"/><rect class="cls-17" x="133.19" y="131.39" width="61.71" height="4.91"/><rect class="cls-17" x="133.19" y="139.76" width="28.55" height="4.91"/><path class="cls-17" d="M161.9,196.71H136a4.67,4.67,0,0,0-4.65,4.66h0A4.67,4.67,0,0,0,136,206h26a4.67,4.67,0,0,0,4.65-4.65h0A4.67,4.67,0,0,0,161.9,196.71Z"/><path class="cls-18" d="M161.9,209.93H136a4.67,4.67,0,0,0-4.65,4.66h0a4.67,4.67,0,0,0,4.65,4.65h26a4.67,4.67,0,0,0,4.65-4.65h0A4.67,4.67,0,0,0,161.9,209.93Z"/><rect class="cls-21" x="140.42" y="200.29" width="17" height="2.74"/><rect class="cls-21" x="140.42" y="213.38" width="17" height="2.74"/><path class="cls-5" d="M63.36,117.9a18.47,18.47,0,0,0,0-6.74H57.5a13,13,0,0,0-1.1-2.67l4.13-4.13a18,18,0,0,0-4.76-4.77l-4.14,4.14a12,12,0,0,0-2.67-1.1V96.77a17.91,17.91,0,0,0-6.74,0v5.86a12,12,0,0,0-2.67,1.1l-4.14-4.14a18,18,0,0,0-4.76,4.77l4.14,4.13a12.54,12.54,0,0,0-1.11,2.67H27.83a17.91,17.91,0,0,0,0,6.74h5.85a12.32,12.32,0,0,0,1.11,2.67l-4.14,4.14a18.15,18.15,0,0,0,4.76,4.77l4.14-4.14a12.51,12.51,0,0,0,2.67,1.1v5.86a18.47,18.47,0,0,0,6.74,0v-5.86a12.51,12.51,0,0,0,2.67-1.1l4.14,4.14a18.15,18.15,0,0,0,4.76-4.77l-4.13-4.14a12.82,12.82,0,0,0,1.1-2.67Zm-17.77.28a3.65,3.65,0,1,1,3.65-3.65A3.65,3.65,0,0,1,45.59,118.18Z"/><path class="cls-5" d="M80.32,131.06a11.15,11.15,0,0,0,0-4.1H76.76a7.19,7.19,0,0,0-.67-1.62l2.52-2.51a11,11,0,0,0-2.9-2.9l-2.52,2.51a7.47,7.47,0,0,0-1.62-.67v-3.56a11.1,11.1,0,0,0-4.09,0v3.56a7.68,7.68,0,0,0-1.62.67l-2.52-2.51a10.78,10.78,0,0,0-2.89,2.9L63,125.34a7.68,7.68,0,0,0-.67,1.62H58.73a11.15,11.15,0,0,0,0,4.1h3.56a7.68,7.68,0,0,0,.67,1.62l-2.51,2.51a10.92,10.92,0,0,0,2.89,2.9l2.52-2.52a7.19,7.19,0,0,0,1.62.67v3.56a11.1,11.1,0,0,0,4.09,0v-3.56a7,7,0,0,0,1.62-.67l2.52,2.52a11.11,11.11,0,0,0,2.9-2.9l-2.52-2.51a7.19,7.19,0,0,0,.67-1.62Zm-10.79.16A2.22,2.22,0,1,1,71.74,129,2.21,2.21,0,0,1,69.53,131.22Z"/><rect class="cls-18" x="44.41" y="133.82" width="2.27" height="38.08"/><rect class="cls-18" x="65.12" y="113.53" width="45.8" height="2.28"/><rect class="cls-22" x="108.84" y="113.53" width="2.07" height="2.28"/><polygon class="cls-23" points="385.93 58.88 330.57 2.95 330.57 10.32 379.14 58.88 385.93 58.88"/><path class="cls-18" d="M379.14,58.88,330.57,10.32V53.48a5.4,5.4,0,0,0,5.4,5.4ZM357.08,48.65H341.86v-16Z"/><path class="cls-10" d="M336.25,10.53l-1.72,1.72a.37.37,0,0,1-.53,0h0a.37.37,0,0,1,0-.53L335.72,10a.37.37,0,0,1,.53,0h0A.37.37,0,0,1,336.25,10.53Z"/><path class="cls-10" d="M340.13,14.41l-1.72,1.72a.37.37,0,0,1-.53,0h0a.37.37,0,0,1,0-.53l1.72-1.72a.37.37,0,0,1,.53,0h0A.39.39,0,0,1,340.13,14.41Z"/><path class="cls-10" d="M344,18.29,342.29,20a.39.39,0,0,1-.53,0h0a.37.37,0,0,1,0-.53l1.72-1.72a.37.37,0,0,1,.53,0h0A.39.39,0,0,1,344,18.29Z"/><path class="cls-10" d="M347.89,22.17l-1.72,1.72a.39.39,0,0,1-.53,0h0a.38.38,0,0,1,0-.54l1.71-1.71a.38.38,0,0,1,.54,0h0A.39.39,0,0,1,347.89,22.17Z"/><path class="cls-10" d="M351.77,26.05l-1.72,1.72a.39.39,0,0,1-.53,0h0a.38.38,0,0,1,0-.54l1.71-1.71a.38.38,0,0,1,.54,0h0A.39.39,0,0,1,351.77,26.05Z"/><path class="cls-10" d="M355.65,29.93l-1.72,1.72a.39.39,0,0,1-.53,0h0a.38.38,0,0,1,0-.54l1.71-1.71a.38.38,0,0,1,.54,0h0A.39.39,0,0,1,355.65,29.93Z"/><path class="cls-10" d="M359.53,33.81l-1.72,1.72a.39.39,0,0,1-.53,0h0a.38.38,0,0,1,0-.54L359,33.28a.38.38,0,0,1,.54,0h0A.39.39,0,0,1,359.53,33.81Z"/><path class="cls-10" d="M363.41,37.69l-1.72,1.72a.39.39,0,0,1-.53,0h0a.38.38,0,0,1,0-.54l1.71-1.71a.38.38,0,0,1,.54,0h0A.39.39,0,0,1,363.41,37.69Z"/><path class="cls-10" d="M367.29,41.57l-1.72,1.72a.39.39,0,0,1-.53,0h0a.38.38,0,0,1,0-.54L366.75,41a.38.38,0,0,1,.54,0h0A.39.39,0,0,1,367.29,41.57Z"/><path class="cls-10" d="M371.17,45.45l-1.72,1.72a.39.39,0,0,1-.53,0h0a.38.38,0,0,1,0-.54l1.71-1.71a.38.38,0,0,1,.54,0h0A.39.39,0,0,1,371.17,45.45Z"/><rect class="cls-24" x="199.39" y="21.15" width="40.1" height="16.61" transform="translate(430.3 97.01) rotate(-169.88)"/><rect class="cls-25" x="199.04" y="22.5" width="40.1" height="16.61" transform="translate(438.19 61.61) rotate(180)"/><rect class="cls-10" x="200.04" y="26.53" width="37.49" height="14.22" transform="translate(439.54 49.98) rotate(175.49)"/><path class="cls-26" d="M209.12,26,213,29.87a3,3,0,0,0,2.11.87h25.58a3,3,0,0,1,3,3V55.92a3,3,0,0,1-3,3H196.4a3,3,0,0,1-3-3V28.11a3,3,0,0,1,3-3H207A3,3,0,0,1,209.12,26Z"/><rect class="cls-10" x="229.38" y="53.03" width="6.82" height="1.25"/><rect class="cls-10" x="229.38" y="50.75" width="9.25" height="1.25"/><path class="cls-18" d="M252.4,45.07a1.84,1.84,0,1,1-1.84-1.84A1.84,1.84,0,0,1,252.4,45.07Z"/><path class="cls-18" d="M260.31,45.07a1.84,1.84,0,1,1-1.84-1.84A1.84,1.84,0,0,1,260.31,45.07Z"/><path class="cls-18" d="M268.22,45.07a1.84,1.84,0,1,1-1.84-1.84A1.84,1.84,0,0,1,268.22,45.07Z"/><path class="cls-18" d="M276.14,45.07a1.84,1.84,0,1,1-1.84-1.84A1.84,1.84,0,0,1,276.14,45.07Z"/><path class="cls-18" d="M284.05,45.07a1.84,1.84,0,1,1-1.84-1.84A1.84,1.84,0,0,1,284.05,45.07Z"/><path class="cls-18" d="M292,45.07a1.84,1.84,0,1,1-1.84-1.84A1.84,1.84,0,0,1,292,45.07Z"/><path class="cls-18" d="M299.88,45.07A1.84,1.84,0,1,1,298,43.23,1.84,1.84,0,0,1,299.88,45.07Z"/><path class="cls-18" d="M307.79,45.07A1.84,1.84,0,1,1,306,43.23,1.84,1.84,0,0,1,307.79,45.07Z"/><path class="cls-18" d="M315.7,45.07a1.84,1.84,0,1,1-1.84-1.84A1.84,1.84,0,0,1,315.7,45.07Z"/><path class="cls-18" d="M323.62,45.07a1.84,1.84,0,1,1-1.84-1.84A1.84,1.84,0,0,1,323.62,45.07Z"/><path class="cls-5" d="M102.1,56.38l14.49-14.49a4.54,4.54,0,0,1,3.3-1.29,8.75,8.75,0,0,0,8.58-11.19l-4.31,4.31-4.75-1.27-1.27-4.75,4.27-4.28a8.75,8.75,0,0,0-11.1,8.6,4.48,4.48,0,0,1-1.29,3.3L95.53,49.81a4.48,4.48,0,0,1-3.3,1.29,8.75,8.75,0,1,0,8.58,8.5A4.36,4.36,0,0,1,102.1,56.38ZM91,63.53,88.3,60.81l1-3.72,3.72-1,2.73,2.73-1,3.72Z"/><path class="cls-17" d="M102.45,49.47h0a1.29,1.29,0,0,1,0-1.82L107.09,43a1.29,1.29,0,0,1,1.82,0h0a1.29,1.29,0,0,1,0,1.82l-4.65,4.65A1.28,1.28,0,0,1,102.45,49.47Z"/><rect class="cls-10" x="278.03" y="160.37" width="63.59" height="57.54" rx="3.98"/><path class="cls-17" d="M337,165.89a2.21,2.21,0,1,1-2.21-2.21A2.21,2.21,0,0,1,337,165.89Z"/><path class="cls-5" d="M330.41,165.89a2.22,2.22,0,1,1-2.21-2.21A2.21,2.21,0,0,1,330.41,165.89Z"/><path class="cls-18" d="M323.85,165.89a2.21,2.21,0,1,1-2.21-2.21A2.21,2.21,0,0,1,323.85,165.89Z"/><circle class="cls-8" cx="309.73" cy="192.82" r="17.93" transform="translate(-45.62 275.49) rotate(-45)"/><path class="cls-18" d="M346.05,233.29v22.94a7.53,7.53,0,0,1-2.2,5.31,7.47,7.47,0,0,0-2.2,5.31v13.81H310V267.72a7.55,7.55,0,0,0-2.2-5.31l-2.31-2.3a7.57,7.57,0,0,1-1-1.21l-12.58-19.3-5.47-8.4a12.33,12.33,0,0,1,4.24-2.54,12.18,12.18,0,0,1,4.22-.74,12.47,12.47,0,0,1,7,2.12l2.39,1.59V193.49a5.83,5.83,0,1,1,11.66,0V222.6h19.44A10.69,10.69,0,0,1,346.05,233.29Z"/><rect class="cls-27" x="315.93" y="222.6" width="1.51" height="9.41"/><rect class="cls-27" x="325.25" y="222.6" width="1.51" height="9.41"/><rect class="cls-27" x="334.57" y="222.6" width="1.51" height="9.41"/><path class="cls-28" d="M295.33,235.71a6.54,6.54,0,0,1-3.4,3.89l-5.47-8.4a12.33,12.33,0,0,1,4.24-2.54Z"/><rect class="cls-5" x="306.33" y="273.82" width="38.57" height="31.96"/><path class="cls-17" d="M201.88,336.46h-1a1,1,0,0,1-1-1v-1a1,1,0,0,0-.78-1,1,1,0,0,0-1.18,1v1a1,1,0,0,1-1,1h-1a1,1,0,0,0-1,.78,1,1,0,0,0,.95,1.17h1a1,1,0,0,1,1,1v1a1,1,0,0,0,.78,1,1,1,0,0,0,1.18-1v-1a1,1,0,0,1,1-1h1a1,1,0,0,0,1-1.17A1,1,0,0,0,201.88,336.46Z"/><path class="cls-17" d="M30,44.46H28.52A1.5,1.5,0,0,1,27,43v-1.5a1.57,1.57,0,0,0-1.21-1.55A1.51,1.51,0,0,0,24,41.39V43a1.5,1.5,0,0,1-1.5,1.5H21a1.54,1.54,0,0,0-1.54,1.2,1.51,1.51,0,0,0,1.48,1.81H22.5A1.5,1.5,0,0,1,24,49v1.5A1.55,1.55,0,0,0,25.2,52,1.52,1.52,0,0,0,27,50.54V49a1.5,1.5,0,0,1,1.5-1.5h1.56a1.51,1.51,0,0,0,1.48-1.81A1.56,1.56,0,0,0,30,44.46Z"/><path class="cls-17" d="M305.12,59.54h-1.07A1.08,1.08,0,0,1,303,58.46V57.39a1.11,1.11,0,0,0-.87-1.11,1.08,1.08,0,0,0-1.3,1.06v1.12a1.08,1.08,0,0,1-1.08,1.08h-1.07a1.12,1.12,0,0,0-1.11.86,1.09,1.09,0,0,0,1.06,1.31h1.12a1.07,1.07,0,0,1,1.08,1.07v1.08a1.13,1.13,0,0,0,.87,1.11,1.09,1.09,0,0,0,1.3-1.06V62.78a1.07,1.07,0,0,1,1.08-1.07h1.12a1.09,1.09,0,0,0,1.06-1.31A1.12,1.12,0,0,0,305.12,59.54Z"/><path class="cls-10" d="M276.58,143.43l9.44,9.45a1.36,1.36,0,0,1,0,1.94h0a1.36,1.36,0,0,1-1.94,0l-9.45-9.44a1.39,1.39,0,0,1,0-1.95h0A1.39,1.39,0,0,1,276.58,143.43Z"/><path class="cls-10" d="M272.09,138.94l1.09,1.1a1.36,1.36,0,0,1,0,1.94h0a1.36,1.36,0,0,1-1.94,0l-1.1-1.1a1.38,1.38,0,0,1,0-1.94h0A1.38,1.38,0,0,1,272.09,138.94Z"/><path class="cls-10" d="M266.55,133.4l.2.2a1.38,1.38,0,0,1,0,1.94h0a1.38,1.38,0,0,1-1.95,0l-.2-.19a1.39,1.39,0,0,1,0-1.95h0A1.39,1.39,0,0,1,266.55,133.4Z"/><path class="cls-10" d="M242.34,136.66l31.88,31.89a1,1,0,0,1,0,1.36h0a1,1,0,0,1-1.35,0L241,138a1,1,0,0,1,0-1.36h0A1,1,0,0,1,242.34,136.66Z"/><path class="cls-10" d="M239.2,133.53l.77.76a1,1,0,0,1,0,1.36h0a1,1,0,0,1-1.36,0l-.77-.76a1,1,0,0,1,0-1.36h0A1,1,0,0,1,239.2,133.53Z"/><path class="cls-10" d="M235.34,129.66l.13.14a1,1,0,0,1,0,1.36h0a1,1,0,0,1-1.35,0L234,131a1,1,0,0,1,0-1.36h0A1,1,0,0,1,235.34,129.66Z"/><circle class="cls-29" cx="43.57" cy="63.67" r="2.68"/><path class="cls-30" d="M173.21,62.24a2.33,2.33,0,1,1-2.32-2.33A2.32,2.32,0,0,1,173.21,62.24Z"/><circle class="cls-30" cx="370.09" cy="270.74" r="3.76"/><path class="cls-30" d="M311.62,334.58a2.87,2.87,0,1,1-2.87-2.87A2.87,2.87,0,0,1,311.62,334.58Z"/><path class="cls-17" d="M44.46,340.66a2.5,2.5,0,1,1-2.5-2.51A2.5,2.5,0,0,1,44.46,340.66Z"/><path class="cls-17" d="M107.05,331.18a1.61,1.61,0,1,1-1.61-1.61A1.61,1.61,0,0,1,107.05,331.18Z"/></g></g></g></svg>