<svg xmlns="http://www.w3.org/2000/svg" viewBox="0 0 567.35 370.96"><defs><style>.cls-1{fill:#f78f38;}.cls-2{fill:#d52a28;}.cls-3{fill:#003049;}.cls-4{fill:#d0d9eb;}.cls-5{fill:none;stroke:#d0d9eb;stroke-miterlimit:10;stroke-width:2px;}.cls-6{font-size:14.43px;fill:#6993b2;font-family:Poppins-SemiBold, Poppins;font-weight:600;}</style></defs><g id="Layer_2" data-name="Layer 2"><g id="Layer_1-2" data-name="Layer 1"><g id="AGile-proces"><path class="cls-1" d="M113.7,285.09V262.94l60.68,49.12L113.7,362.14V339H.08C0,339,.1,292.82,0,288,8.42,287.68,113.7,285.46,113.7,285.09Z"/><path class="cls-2" d="M419,287s-54.9,48.16-68.38,52,158.92,0,158.92,0v18.3l57.79-44.79-56.83-49.6v25Z"/><path class="cls-3" d="M317.89,20.22c0-.42,31.9,12.06,34.29,13.1C432.25,68.44,468.09,165,430.74,243.17a197.13,197.13,0,0,1-45.39,61c-36.6,33-84.41,32-130.18,32H160.9l31.78-23.6L160.9,287l63.25-.43,47.88-.32c15.92-.11,33.8,1,49.53-4.85,15.09-5.6,27.62-16.78,39.22-27.61,34.6-32.3,39.88-93.95,15.86-134.38,0,0-21.19-35.64-59.71-46.23V89.57L260.1,49.12,318.85,0S317.89,20.2,317.89,20.22Z"/><path class="cls-2" d="M239.88,47.19l28.89,21.19c-8.33-6.11-45.43,20.32-50.93,24.77-30.66,24.79-46.56,69-38.22,107.76,6,28,26.37,61.92,54.48,71.66H160.9c-3,0-10-12.06-11.41-14.07a136.16,136.16,0,0,1-19.41-43.32c-11.62-45.85-.86-101.69,30.28-138,12-14,27.26-26.13,43-35.6a146.93,146.93,0,0,1,31.7-14.76c13.75-4.29,28.32-3.78,38.72-7.85C262.74,28.66,251.19,37.82,239.88,47.19Z"/><path class="cls-4" d="M295.94,270.43H269.32c-2.73-1.35-3.88-3.54-4.1-6.59-.31-4.35-1.05-8.68-1.52-13a2,2,0,0,0-1.51-1.85q-7.59-3-15.06-6.21a2,2,0,0,0-2.4.22c-3.68,3-7.42,5.88-11.15,8.8-3,2.32-5.61,2.16-8.28-.51q-7.81-7.82-15.62-15.66-3.84-3.88-.52-8.16c2.91-3.73,5.82-7.47,8.78-11.16a2,2,0,0,0,.32-2.38q-3.27-7.56-6.3-15.23a1.82,1.82,0,0,0-1.73-1.4c-4.7-.51-9.39-1.15-14.09-1.68-3.66-.41-5.6-2.48-5.6-6.14q0-11.06,0-22.12c0-3.86,1.93-5.88,5.83-6.31,4.64-.51,9.27-1.15,13.91-1.65,1-.11,1.34-.58,1.69-1.46,2-5,4.06-10.07,6.22-15.06a2.09,2.09,0,0,0-.29-2.54c-3-3.68-5.87-7.42-8.78-11.16-2.18-2.81-2-5.53.44-8q7.92-8,15.89-15.9c2.5-2.48,5.22-2.62,8-.44,3.78,3,7.56,5.9,11.3,8.9a1.84,1.84,0,0,0,2.23.24q7.58-3.24,15.23-6.3c.87-.35,1.33-.66,1.44-1.69.51-4.7,1.15-9.39,1.68-14.09.42-3.69,2.46-5.64,6.11-5.64q11.15,0,22.29,0c3.67,0,5.74,2,6.15,5.6.52,4.64,1.15,9.27,1.64,13.92a2.07,2.07,0,0,0,1.61,2q7.5,3,14.9,6.16a2.11,2.11,0,0,0,2.54-.27c3.68-3,7.42-5.88,11.15-8.79,2.82-2.19,5.54-2.06,8,.41q8,7.92,15.88,15.9c2.5,2.51,2.66,5.24.49,8-2.94,3.78-5.9,7.56-8.89,11.3a1.84,1.84,0,0,0-.28,2.23c2.19,5.1,4.25,10.26,6.44,15.36a2.37,2.37,0,0,0,1.54,1.27c4.38.63,8.77,1.3,13.19,1.63,3,.23,5.24,1.35,6.58,4.1v26.62c-1.34,2.75-3.55,3.86-6.58,4.09-4.35.33-8.67,1.06-13,1.54a1.94,1.94,0,0,0-1.85,1.49q-3,7.59-6.24,15.05a2.11,2.11,0,0,0,.33,2.54c3,3.68,5.88,7.41,8.79,11.15,2.17,2.79,2,5.51-.46,8q-7.92,8-15.88,15.9c-2.49,2.48-5.23,2.63-8,.46-3.74-2.91-7.47-5.81-11.16-8.78a2.09,2.09,0,0,0-2.53-.32Q310.63,246,303.05,249a1.92,1.92,0,0,0-1.49,1.85c-.48,4.34-1.21,8.67-1.53,13C299.81,266.89,298.68,269.09,295.94,270.43Zm-59.35-92.08a46,46,0,1,0,46.1-46.08A46.16,46.16,0,0,0,236.59,178.35Z"/><polygon class="cls-3" points="310.93 156.03 284.1 195.48 280.08 201.38 279.18 201.99 274.8 195.44 257.62 169.77 264.01 165.48 279.47 188.57 304.55 151.7 310.93 156.03"/><polyline class="cls-5" points="352.72 51.15 388.2 21.43 421.44 21.22"/><circle class="cls-4" cx="352.72" cy="51.15" r="2.83"/><polyline class="cls-5" points="213.24 53.99 177.76 24.27 126.76 24.06"/><circle class="cls-4" cx="213.24" cy="53.99" r="2.83"/><polyline class="cls-5" points="148.08 216.04 112.59 186.32 59.37 186.11"/><circle class="cls-4" cx="148.08" cy="216.04" r="2.83"/><polyline class="cls-5" points="260.73 319.14 260.62 347.76 209.63 347.66"/><circle class="cls-4" cx="260.73" cy="319.14" r="2.83"/><polyline class="cls-5" points="65.6 319.14 65.49 347.76 32.27 347.66"/><circle class="cls-4" cx="65.6" cy="319.14" r="2.83"/><polyline class="cls-5" points="458.61 319.14 458.5 347.76 407.52 347.66"/><circle class="cls-4" cx="458.61" cy="319.14" r="2.83"/><polyline class="cls-5" points="421.56 215.53 457.04 185.82 516.93 185.61"/><circle class="cls-4" cx="421.56" cy="215.53" r="2.83"/><text class="cls-6" transform="translate(390.98 36.08)">Test</text><text class="cls-6" transform="translate(460.33 200.88)">Develop</text><text class="cls-6" transform="translate(407.52 362.4)">Launch</text><text class="cls-6" transform="translate(209.63 362.4)">Design</text><text class="cls-6" transform="translate(31.68 362.4)">Plan</text><text class="cls-6" transform="translate(58.21 199.89)">Review</text><text class="cls-6" transform="translate(124.94 39.02)">Deploy</text><text/></g></g></g></svg>