<svg xmlns="http://www.w3.org/2000/svg" xmlns:xlink="http://www.w3.org/1999/xlink" viewBox="0 0 569.21 371.36"><defs><style>.cls-1,.cls-44{fill:none;}.cls-2{isolation:isolate;}.cls-3{fill:#8c262e;}.cls-4{fill:#982b34;}.cls-5{clip-path:url(#clip-path);}.cls-6{fill:#902730;}.cls-7{fill:#942932;}.cls-8{fill:#d7434f;}.cls-9{clip-path:url(#clip-path-2);}.cls-10{fill:#878e9c;}.cls-11{clip-path:url(#clip-path-3);}.cls-12{clip-path:url(#clip-path-4);}.cls-13{fill:#7d8491;}.cls-14{clip-path:url(#clip-path-5);}.cls-15{fill:#838b98;}.cls-16{fill:#808894;}.cls-17{clip-path:url(#clip-path-6);}.cls-18{fill:#18686b;}.cls-19{fill:#196a6d;}.cls-20{clip-path:url(#clip-path-7);}.cls-21{clip-path:url(#clip-path-8);}.cls-22{fill:#126063;}.cls-23{fill:#136264;}.cls-24{clip-path:url(#clip-path-9);}.cls-25{clip-path:url(#clip-path-10);}.cls-26{clip-path:url(#clip-path-11);}.cls-27{clip-path:url(#clip-path-12);}.cls-28{fill:#bbc4d5;}.cls-29{fill:#2e9295;}.cls-30{clip-path:url(#clip-path-13);}.cls-31{fill:#136164;}.cls-32{clip-path:url(#clip-path-14);}.cls-33{fill:#166568;}.cls-34{fill:#146365;}.cls-35{fill:#8f5317;}.cls-36{clip-path:url(#clip-path-15);}.cls-37{fill:#972b34;}.cls-38{clip-path:url(#clip-path-16);}.cls-39{fill:#9b5a1c;}.cls-40{fill:#97571b;}.cls-41{fill:#935519;}.cls-42{fill:#dd8232;}.cls-43{clip-path:url(#clip-path-17);}.cls-44{stroke:#d0d9eb;stroke-miterlimit:10;stroke-width:2px;}.cls-45{fill:#d0d9eb;}.cls-46{font-size:14.43px;fill:#6993b2;font-family:Poppins-SemiBold, Poppins;font-weight:600;}</style><clipPath id="clip-path" transform="translate(0)"><path class="cls-1" d="M354.78,340.73l-6.09-.87c-1.63-.24-2-.53-.73-.88,13.39-3.86,65.26-49.6,68-52l6.09.87c-2.73,2.41-54.6,48.14-68,52C352.82,340.21,353.16,340.5,354.78,340.73Z"/></clipPath><clipPath id="clip-path-2" transform="translate(0)"><path class="cls-1" d="M366.57,161l6.1.87q-.42-.06-.87-.09l-6.09-.87C366,160.91,366.29,160.94,366.57,161Z"/></clipPath><clipPath id="clip-path-3" transform="translate(0)"><path class="cls-1" d="M362.55,160.68l-6.1-.87c3.08.44,6.16.84,9.26,1.08l6.09.87C368.71,161.52,365.62,161.12,362.55,160.68Z"/></clipPath><clipPath id="clip-path-4" transform="translate(0)"><path class="cls-1" d="M338.69,254.16l-6.1-.87a6.76,6.76,0,0,1-3.15-1.47c-3.7-2.91-7.4-5.82-11.05-8.79a2.36,2.36,0,0,0-1.15-.58l6.09.87a2.46,2.46,0,0,1,1.16.59c3.64,3,7.34,5.87,11,8.78A6.79,6.79,0,0,0,338.69,254.16Z"/></clipPath><clipPath id="clip-path-5" transform="translate(0)"><path class="cls-1" d="M323.1,115l-6.1-.87.27,0a2.11,2.11,0,0,0,1.35-.58c3.66-3,7.38-5.87,11.09-8.78a6.34,6.34,0,0,1,3.87-1.55,4.63,4.63,0,0,1,.65,0l6.09.88a4.62,4.62,0,0,0-.65-.05,6.34,6.34,0,0,0-3.87,1.55c-3.71,2.91-7.42,5.82-11.09,8.79a2.13,2.13,0,0,1-1.35.57A1.14,1.14,0,0,1,323.1,115Z"/></clipPath><clipPath id="clip-path-6" transform="translate(0)"><path class="cls-1" d="M316.18,20.22l6.09.88h0l-6.1-.87Z"/></clipPath><clipPath id="clip-path-7" transform="translate(0)"><path class="cls-1" d="M280.39,224.74l-6.09-.87a47.6,47.6,0,0,0,6.36.46l6.09.87A46,46,0,0,1,280.39,224.74Z"/></clipPath><clipPath id="clip-path-8" transform="translate(0)"><path class="cls-1" d="M287.32,132.71l6.1.87a46.07,46.07,0,0,1-6.67,91.62l-6.09-.87c25.21,0,45.82-20.76,45.84-46.09A45.91,45.91,0,0,0,287.32,132.71Z"/></clipPath><clipPath id="clip-path-9" transform="translate(0)"><path class="cls-1" d="M244.53,242.44l6.1.87a3.68,3.68,0,0,1,.88.28q7.44,3.21,14.94,6.21a1.94,1.94,0,0,1,1.5,1.85c.46,4.34,1.18,8.66,1.48,13,.22,3.05,1.35,5.23,4.05,6.58l-6.09-.87c-2.7-1.35-3.83-3.53-4.05-6.59-.3-4.35-1-8.67-1.48-13a2,2,0,0,0-1.5-1.84q-7.52-3-14.94-6.21A3,3,0,0,0,244.53,242.44Z"/></clipPath><clipPath id="clip-path-10" transform="translate(0)"><path class="cls-1" d="M250.43,115l-6.09-.87h.21a2.64,2.64,0,0,0,1-.26q7.51-3.26,15.12-6.3c.87-.35,1.33-.66,1.44-1.69.51-4.7,1.16-9.39,1.7-14.09.42-3.69,2.45-5.63,6.07-5.64H292a9.65,9.65,0,0,1,1.23.08l6.09.88a8.09,8.09,0,0,0-1.23-.09H276c-3.62,0-5.65,2-6.07,5.64-.53,4.7-1.19,9.39-1.7,14.09-.11,1-.56,1.35-1.44,1.7q-7.59,3-15.12,6.3a2.78,2.78,0,0,1-1,.26Z"/></clipPath><clipPath id="clip-path-11" transform="translate(0)"><path class="cls-1" d="M233.47,254.19l-6.09-.87a6.56,6.56,0,0,1-3.64-2.09l-15.46-15.66c-2.55-2.59-2.71-5.31-.51-8.16,2.9-3.73,5.79-7.47,8.74-11.15a2,2,0,0,0,.33-2.39c-2.16-5-4.22-10.11-6.23-15.22-.34-.86-.69-1.26-1.58-1.38l6.09.87a1.79,1.79,0,0,1,1.59,1.39q3,7.65,6.23,15.21a2,2,0,0,1-.34,2.39c-2.95,3.69-5.84,7.42-8.73,11.16-2.21,2.84-2,5.57.5,8.15q7.73,7.84,15.46,15.67A6.6,6.6,0,0,0,233.47,254.19Z"/></clipPath><clipPath id="clip-path-12" transform="translate(0)"><path class="cls-1" d="M200.71,196.4l-6.09-.87c-3.43-.49-5.25-2.54-5.25-6.1q0-11.07,0-22.12c0-3.85,1.93-5.87,5.79-6.31,4.61-.5,9.22-1.15,13.83-1.64,1-.11,1.32-.59,1.67-1.46q3-7.58,6.21-15.06a2.09,2.09,0,0,0-.29-2.54c-2.94-3.68-5.8-7.43-8.68-11.16-2.16-2.81-2-5.53.45-8q7.88-8,15.8-15.9a5.83,5.83,0,0,1,4.12-2,3.85,3.85,0,0,1,.67,0l6.09.87a5,5,0,0,0-.67,0,5.85,5.85,0,0,0-4.11,2Q222.36,114,214.5,122c-2.48,2.5-2.62,5.21-.46,8,2.88,3.74,5.75,7.48,8.69,11.16a2.12,2.12,0,0,1,.29,2.54c-2.16,5-4.22,10-6.22,15.06-.35.87-.66,1.35-1.67,1.46-4.61.49-9.21,1.14-13.82,1.65-3.86.43-5.79,2.45-5.8,6.3q0,11.06,0,22.12C195.47,193.86,197.28,195.91,200.71,196.4Z"/></clipPath><clipPath id="clip-path-13" transform="translate(0)"><path class="cls-1" d="M265.09,67.54l6.09.87a4.92,4.92,0,0,1,2.2.83l-6.1-.87A4.69,4.69,0,0,0,265.09,67.54Z"/></clipPath><clipPath id="clip-path-14" transform="translate(0)"><path class="cls-1" d="M165.84,287.85l-6.09-.87,62.77-.44,47.53-.32H281.9c12.48,0,25.51-.44,37.32-4.86,15-5.61,27.45-16.78,39-27.61,34.42-32.3,39.79-94,16-134.36-1.05-1.78-21-35.63-59.17-46.22l6.09.87c38.22,10.59,58.12,44.44,59.17,46.22,23.76,40.42,18.38,102.07-16,134.36-11.52,10.83-24,22-39,27.61-11.82,4.42-24.85,4.87-37.33,4.87l-4.68,0h-7.16l-47.54.33Z"/></clipPath><clipPath id="clip-path-15" transform="translate(0)"><path class="cls-1" d="M165.7,273.38l-6.09-.87c-3.05-.44-9.79-12.08-11.13-14.05a136.19,136.19,0,0,1-19.16-43.31c-11.45-45.84-.65-101.68,30.34-138,12-14,27.11-26.12,42.77-35.59a146.12,146.12,0,0,1,31.5-14.76c13.66-4.28,28.12-3.79,38.44-7.84l6.1.87c-10.33,4.06-24.79,3.56-38.45,7.85a145.53,145.53,0,0,0-31.49,14.75c-15.66,9.47-30.83,21.61-42.78,35.59-31,36.29-41.79,92.12-30.34,138a136,136,0,0,0,19.17,43.31C155.91,261.3,162.66,273,165.7,273.38Z"/></clipPath><clipPath id="clip-path-16" transform="translate(0)"><path class="cls-1" d="M6.14,288.85,0,288c8.37-.34,112.87-2.56,112.87-2.92l6.09.87C119,286.28,14.5,288.5,6.14,288.85Z"/></clipPath><clipPath id="clip-path-17" transform="translate(0)"><path class="cls-1" d="M6.11,339.85,0,339c-.07,0,.11-46.21,0-51l6.1.88C6.23,293.64,6,339.85,6.11,339.85Z"/></clipPath></defs><g id="Layer_2" data-name="Layer 2"><g id="Layer_1-2" data-name="Layer 1"><g class="cls-2"><polygon class="cls-3" points="511.75 358.14 505.66 357.27 505.7 338.98 511.79 339.85 511.75 358.14"/><polygon class="cls-3" points="512.86 288.81 506.76 287.94 506.82 262.89 512.91 263.77 512.86 288.81"/><polygon class="cls-4" points="422.04 287.85 415.95 286.98 506.76 287.94 512.86 288.81 422.04 287.85"/><g class="cls-2"><g class="cls-5"><g class="cls-2"><path class="cls-6" d="M354.78,340.73l-6.09-.87c-1.38-.2-1.83-.44-1.18-.72l6.09.87c-.65.28-.2.52,1.18.72" transform="translate(0)"/><path class="cls-7" d="M353.6,340l-6.09-.87A2.8,2.8,0,0,1,348,339a16,16,0,0,0,2.21-.85l6.09.88a17.7,17.7,0,0,1-2.2.84,4.63,4.63,0,0,0-.46.16" transform="translate(0)"/><path class="cls-6" d="M356.26,339l-6.09-.88c16.09-7.34,63.18-48.86,65.78-51.15l6.09.87c-2.6,2.29-49.69,43.81-65.78,51.16" transform="translate(0)"/></g></g></g><path class="cls-8" d="M512.91,263.77l56.3,49.6-57.46,44.78,0-18.3c-3.8.09-76.05,1.71-122.79,1.71-23.37,0-39.41-.43-34.94-1.71,13.38-3.86,65.25-49.59,68-52l90.82,1Z" transform="translate(0)"/><g class="cls-2"><g class="cls-9"><g class="cls-2"><path class="cls-10" d="M371.8,161.76l-6.09-.87c.29,0,.58.05.86.09l6.1.87q-.42-.06-.87-.09" transform="translate(0)"/></g></g></g><g class="cls-2"><g class="cls-11"><g class="cls-2"><path class="cls-10" d="M362.55,160.68l-6.1-.87c3.08.44,6.16.84,9.26,1.08l6.09.87c-3.09-.24-6.18-.64-9.25-1.08" transform="translate(0)"/></g></g></g><g class="cls-2"><g class="cls-12"><g class="cls-2"><path class="cls-13" d="M338.69,254.16l-6.1-.87a6.76,6.76,0,0,1-3.15-1.47c-3.7-2.91-7.4-5.82-11.05-8.79a2.36,2.36,0,0,0-1.15-.58l6.09.87a2.46,2.46,0,0,1,1.16.59c3.64,3,7.34,5.87,11,8.78a6.79,6.79,0,0,0,3.16,1.47" transform="translate(0)"/></g></g></g><g class="cls-2"><g class="cls-14"><g class="cls-2"><path class="cls-10" d="M323.1,115l-6.1-.87.27,0h0l6.09.87h0a1.14,1.14,0,0,1-.26,0" transform="translate(0)"/><path class="cls-15" d="M323.37,115l-6.09-.87a1.73,1.73,0,0,0,.32,0l6.09.87a1.73,1.73,0,0,1-.32,0" transform="translate(0)"/><path class="cls-16" d="M323.69,115l-6.09-.87A2.05,2.05,0,0,0,318,114l6.09.88a2.65,2.65,0,0,1-.37.12" transform="translate(0)"/><path class="cls-13" d="M324.06,114.86,318,114a2.94,2.94,0,0,0,.65-.42c3.66-3,7.38-5.87,11.09-8.78a8,8,0,0,1,1.69-1l6.09.87a9,9,0,0,0-1.69,1.05c-3.71,2.91-7.42,5.82-11.09,8.79a3.54,3.54,0,0,1-.65.42" transform="translate(0)"/><path class="cls-16" d="M337.49,104.6l-6.09-.87a6.26,6.26,0,0,1,1.2-.4l6.09.88a5.6,5.6,0,0,0-1.2.39" transform="translate(0)"/><path class="cls-15" d="M338.69,104.21l-6.09-.88a5.11,5.11,0,0,1,.95-.1l6.09.87a4.47,4.47,0,0,0-.95.11" transform="translate(0)"/><path class="cls-10" d="M339.64,104.1l-6.09-.87h0a4.63,4.63,0,0,1,.65,0l6.09.88a4.62,4.62,0,0,0-.65-.05h0" transform="translate(0)"/></g></g></g><g class="cls-2"><g class="cls-17"><g class="cls-2"><polyline class="cls-18" points="322.23 21.09 316.13 20.22 316.14 20.22 322.23 21.09 322.23 21.09"/><path class="cls-19" d="M322.23,21.09l-6.09-.87h0l6.09.88h0" transform="translate(0)"/></g></g></g><g class="cls-2"><g class="cls-20"><g class="cls-2"><path class="cls-10" d="M280.39,224.74l-6.09-.87a47.6,47.6,0,0,0,6.36.46l6.09.87a46,46,0,0,1-6.36-.46" transform="translate(0)"/></g></g></g><g class="cls-2"><g class="cls-21"><g class="cls-2"><path class="cls-10" d="M286.75,225.2l-6.09-.87H281l6.09.87h-.31" transform="translate(0)"/><path class="cls-15" d="M287.06,225.2l-6.09-.87a46.12,46.12,0,0,0,9-1l6.09.87a44.56,44.56,0,0,1-9,1" transform="translate(0)"/><path class="cls-16" d="M296.07,224.23l-6.09-.87a45.49,45.49,0,0,0,9.45-3.1l6.09.87a45.49,45.49,0,0,1-9.45,3.1" transform="translate(0)"/><path class="cls-13" d="M305.52,221.13l-6.09-.87a46.09,46.09,0,0,0-12.11-87.55l6.1.87a46.09,46.09,0,0,1,12.1,87.55" transform="translate(0)"/></g></g></g><polygon class="cls-22" points="283.73 189.41 277.64 188.54 302.62 151.67 308.71 152.54 283.73 189.41"/><polygon class="cls-22" points="283.42 202.83 277.33 201.96 272.99 195.41 279.08 196.28 283.42 202.83"/><polygon class="cls-22" points="279.08 196.28 272.99 195.41 255.99 169.74 262.08 170.61 279.08 196.28"/><polygon class="cls-23" points="262.08 170.61 255.99 169.74 262.35 165.46 268.44 166.33 262.08 170.61"/><g class="cls-2"><g class="cls-24"><g class="cls-2"><path class="cls-13" d="M273.48,271.25l-6.09-.87c-2.7-1.35-3.83-3.53-4.05-6.59-.3-4.35-1-8.67-1.48-13a2,2,0,0,0-1.5-1.84q-7.52-3-14.94-6.21a3,3,0,0,0-.89-.28l6.1.87a3.68,3.68,0,0,1,.88.28q7.44,3.21,14.94,6.21a1.94,1.94,0,0,1,1.5,1.85c.46,4.34,1.18,8.66,1.48,13,.22,3.05,1.35,5.23,4.05,6.58" transform="translate(0)"/></g></g></g><g class="cls-2"><g class="cls-25"><g class="cls-2"><path class="cls-10" d="M250.43,115l-6.09-.87h.22l6.09.88h0l-.21,0" transform="translate(0)"/><path class="cls-15" d="M250.65,115.06l-6.09-.88a1.59,1.59,0,0,0,.36,0L251,115a2.2,2.2,0,0,1-.36,0" transform="translate(0)"/><path class="cls-16" d="M251,115l-6.09-.88a3,3,0,0,0,.66-.22q7.51-3.26,15.12-6.3l.29-.12,6.09.87-.29.13q-7.59,3-15.12,6.3a4.63,4.63,0,0,1-.66.22" transform="translate(0)"/><path class="cls-13" d="M267.08,108.37,261,107.5a1.67,1.67,0,0,0,1.15-1.57c.51-4.7,1.16-9.39,1.7-14.09.29-2.54,1.34-4.25,3.15-5.08l6.09.88c-1.81.82-2.86,2.53-3.15,5.07-.53,4.7-1.19,9.39-1.7,14.09a1.66,1.66,0,0,1-1.15,1.57" transform="translate(0)"/><path class="cls-16" d="M273.08,87.64,267,86.76a6.54,6.54,0,0,1,1.25-.4l6.09.87a6.11,6.11,0,0,0-1.25.41" transform="translate(0)"/><path class="cls-15" d="M274.33,87.23l-6.09-.87a8.06,8.06,0,0,1,1.61-.16l6.1.87a9.08,9.08,0,0,0-1.62.16" transform="translate(0)"/><path class="cls-10" d="M276,87.07l-6.1-.87H292a9.65,9.65,0,0,1,1.23.08l6.09.88a8.09,8.09,0,0,0-1.23-.09H276" transform="translate(0)"/></g></g></g><g class="cls-2"><g class="cls-26"><g class="cls-2"><path class="cls-13" d="M233.47,254.19l-6.09-.87a6.56,6.56,0,0,1-3.64-2.09l-15.46-15.66c-2.55-2.59-2.71-5.31-.51-8.16,2.9-3.73,5.79-7.47,8.74-11.15a2,2,0,0,0,.33-2.39c-2.16-5-4.22-10.11-6.23-15.22-.34-.86-.69-1.26-1.58-1.38l6.09.87a1.79,1.79,0,0,1,1.59,1.39q3,7.65,6.23,15.21a2,2,0,0,1-.34,2.39c-2.95,3.69-5.84,7.42-8.73,11.16-2.21,2.84-2,5.57.5,8.15q7.73,7.84,15.46,15.67a6.6,6.6,0,0,0,3.64,2.08" transform="translate(0)"/></g></g></g><g class="cls-2"><g class="cls-27"><g class="cls-2"><path class="cls-13" d="M200.71,196.4l-6.09-.87c-3.43-.49-5.25-2.54-5.25-6.1q0-11.07,0-22.12c0-2.83,1.05-4.68,3.14-5.63l6.09.88c-2.09.95-3.13,2.79-3.14,5.62q0,11.06,0,22.12c0,3.56,1.81,5.61,5.24,6.1" transform="translate(0)"/><path class="cls-16" d="M198.65,162.56l-6.09-.88a7.33,7.33,0,0,1,1.62-.51l6.09.87a7.69,7.69,0,0,0-1.62.52" transform="translate(0)"/><path class="cls-15" d="M200.27,162l-6.09-.87c.33-.07.67-.13,1-.17,4.61-.5,9.22-1.15,13.83-1.64l.28-.05,6.1.87-.29,0c-4.61.49-9.21,1.14-13.82,1.65a10.33,10.33,0,0,0-1,.16" transform="translate(0)"/><path class="cls-16" d="M215.42,160.18l-6.1-.87a2.09,2.09,0,0,0,.4-.12l6.09.87a1.8,1.8,0,0,1-.39.12" transform="translate(0)"/><path class="cls-13" d="M215.81,160.06l-6.09-.87a2.1,2.1,0,0,0,1-1.29q3-7.58,6.21-15.06a2.09,2.09,0,0,0-.29-2.54c-2.94-3.68-5.8-7.43-8.68-11.16-2.16-2.81-2-5.53.45-8q7.88-8,15.8-15.9a7.4,7.4,0,0,1,2.12-1.53l6.1.88a7.17,7.17,0,0,0-2.12,1.52Q222.36,114,214.5,122c-2.48,2.5-2.62,5.21-.46,8,2.88,3.74,5.75,7.48,8.69,11.16a2.12,2.12,0,0,1,.29,2.54c-2.16,5-4.22,10-6.22,15.06a2,2,0,0,1-1,1.29" transform="translate(0)"/><path class="cls-16" d="M232.42,104.57l-6.1-.88a5.23,5.23,0,0,1,1.06-.34l6.09.87a4.47,4.47,0,0,0-1.05.35" transform="translate(0)"/><path class="cls-15" d="M233.47,104.22l-6.09-.87a4,4,0,0,1,.91-.1l6.09.87a4,4,0,0,0-.91.1" transform="translate(0)"/><path class="cls-10" d="M234.38,104.12l-6.09-.87h0a3.85,3.85,0,0,1,.67,0l6.09.87a5,5,0,0,0-.67,0h0" transform="translate(0)"/></g></g></g><path class="cls-28" d="M371.8,161.76c3,.22,5.2,1.35,6.52,4.09l-.06,26.62c-1.32,2.75-3.52,3.86-6.53,4.1-4.32.32-8.61,1.06-12.92,1.53a2,2,0,0,0-1.85,1.49q-3,7.59-6.22,15a2.09,2.09,0,0,0,.32,2.53c2.94,3.68,5.82,7.42,8.7,11.15,2.16,2.8,2,5.51-.47,8q-7.89,8-15.79,15.9a5.91,5.91,0,0,1-4.14,2,6.29,6.29,0,0,1-3.83-1.52c-3.7-2.91-7.4-5.81-11-8.78a2.15,2.15,0,0,0-1.4-.6,2.78,2.78,0,0,0-1.12.28q-7.43,3.24-15,6.22a2,2,0,0,0-1.49,1.85c-.48,4.34-1.21,8.67-1.53,13-.23,3-1.36,5.23-4.08,6.57H273.48c-2.7-1.35-3.83-3.53-4.05-6.58-.3-4.36-1-8.68-1.48-13a1.94,1.94,0,0,0-1.5-1.85q-7.5-3-14.94-6.21a2.81,2.81,0,0,0-1.13-.3,1.93,1.93,0,0,0-1.24.53c-3.66,3-7.38,5.87-11.08,8.79a6.52,6.52,0,0,1-4,1.63,6.1,6.1,0,0,1-4.27-2.13q-7.74-7.83-15.46-15.67c-2.54-2.58-2.71-5.31-.5-8.15,2.89-3.74,5.78-7.47,8.73-11.16a2,2,0,0,0,.34-2.39q-3.24-7.56-6.23-15.21a1.81,1.81,0,0,0-1.72-1.41c-4.67-.51-9.31-1.15-14-1.68-3.63-.41-5.54-2.47-5.54-6.14q0-11.07,0-22.12c0-3.85,1.94-5.87,5.8-6.3,4.61-.51,9.21-1.16,13.82-1.65,1-.11,1.32-.59,1.67-1.46,2-5.05,4.06-10.08,6.22-15.06a2.12,2.12,0,0,0-.29-2.54c-2.94-3.68-5.81-7.42-8.69-11.16-2.16-2.81-2-5.52.46-8q7.86-8,15.8-15.9a5.85,5.85,0,0,1,4.11-2,6.25,6.25,0,0,1,3.85,1.54c3.74,2.94,7.49,5.9,11.19,8.89a1.85,1.85,0,0,0,1.19.51,2.78,2.78,0,0,0,1-.26q7.52-3.26,15.12-6.3c.88-.35,1.33-.67,1.44-1.7.51-4.7,1.17-9.39,1.7-14.09.42-3.69,2.45-5.63,6.07-5.64h22.13c3.63,0,5.69,2,6.09,5.61.51,4.64,1.12,9.27,1.59,13.91a2.1,2.1,0,0,0,1.61,2q7.43,2.94,14.77,6.15a3,3,0,0,0,1.17.3,2.13,2.13,0,0,0,1.35-.57c3.67-3,7.38-5.88,11.09-8.79a6.34,6.34,0,0,1,3.87-1.55,5.76,5.76,0,0,1,4.09,2q7.89,7.93,15.73,15.9c2.47,2.51,2.63,5.24.48,8-2.94,3.78-5.88,7.55-8.86,11.29a1.86,1.86,0,0,0-.28,2.23c2.17,5.09,4.2,10.25,6.36,15.35a2.33,2.33,0,0,0,1.53,1.27C363.07,160.76,367.42,161.43,371.8,161.76ZM286.75,225.2a46,46,0,1,0-45.55-46,46.12,46.12,0,0,0,45.55,46" transform="translate(0)"/><polygon class="cls-29" points="308.71 152.54 315.03 156.88 288.31 196.32 284.31 202.23 283.42 202.83 279.08 196.28 262.08 170.61 268.44 166.33 283.73 189.41 308.71 152.54"/><g class="cls-2"><g class="cls-30"><g class="cls-2"><path class="cls-6" d="M273.38,69.24l-6.1-.87a4.69,4.69,0,0,0-2.19-.83l6.09.87a4.92,4.92,0,0,1,2.2.83" transform="translate(0)"/></g></g></g><polygon class="cls-31" points="264.81 49.99 258.71 49.12 317.13 0 323.23 0.87 264.81 49.99"/><polygon class="cls-22" points="321.12 90.43 315.03 89.55 258.71 49.12 264.81 49.99 321.12 90.43"/><polygon class="cls-31" points="165.74 336.95 159.65 336.08 191.24 312.5 197.33 313.37 165.74 336.95"/><g class="cls-2"><g class="cls-32"><g class="cls-2"><path class="cls-19" d="M165.84,287.85l-6.09-.87,62.77-.44,47.53-.32h14.63l6.09.88H288l-4.68,0h-7.16l-47.54.33-62.77.43" transform="translate(0)"/><path class="cls-18" d="M290.77,287.11l-6.09-.88c8.34-.05,16.86-.42,25.05-2.14l6.1.88c-8.2,1.71-16.72,2.08-25.06,2.14" transform="translate(0)"/><path class="cls-33" d="M315.83,285l-6.1-.88a65,65,0,0,0,9.49-2.71c1.41-.53,2.8-1.1,4.16-1.73l6.1.88c-1.37.62-2.76,1.19-4.16,1.72a65.79,65.79,0,0,1-9.49,2.72" transform="translate(0)"/><path class="cls-34" d="M329.48,280.53l-6.1-.88c13.17-6,24.38-16.07,34.82-25.88,34.42-32.3,39.79-94,16-134.36-1.05-1.78-21-35.63-59.17-46.22l6.09.87c38.22,10.59,58.12,44.44,59.17,46.22,23.76,40.42,18.38,102.07-16,134.36-10.44,9.81-21.65,19.91-34.81,25.89" transform="translate(0)"/></g></g></g><path class="cls-29" d="M323.23.87l-1,20.22c1.07,0,31.68,12.07,34,13.1C435.63,69.3,471,165.8,433.76,244a197.59,197.59,0,0,1-45.18,61C354.23,336.08,310,337,267,337H165.74l31.59-23.58-31.49-25.52,62.77-.43,47.54-.33h7.16l4.68,0c12.48,0,25.51-.45,37.33-4.87,15-5.61,27.45-16.78,39-27.61,34.42-32.29,39.8-93.94,16-134.36-1.05-1.78-20.95-35.63-59.17-46.22l0,16.37L264.81,50Z" transform="translate(0)"/><polygon class="cls-22" points="197.33 313.37 191.24 312.5 159.75 286.98 165.84 287.85 197.33 313.37"/><polygon class="cls-35" points="118.84 362.96 112.75 362.09 112.8 338.98 118.89 339.85 118.84 362.96"/><polygon class="cls-35" points="119 285.92 112.91 285.05 112.96 262.89 119.05 263.77 119 285.92"/><g class="cls-2"><g class="cls-36"><g class="cls-2"><path class="cls-6" d="M165.7,273.38l-6.09-.87c-3.05-.44-9.79-12.08-11.13-14.05a136.19,136.19,0,0,1-19.16-43.31c-11.45-45.84-.65-101.68,30.34-138,12-14,27.11-26.12,42.77-35.59a172,172,0,0,1,17.78-9.47l6.09.87a172.77,172.77,0,0,0-17.77,9.47c-15.66,9.47-30.83,21.61-42.78,35.59-31,36.29-41.79,92.12-30.34,138a136,136,0,0,0,19.17,43.31c1.33,2,8.08,13.62,11.12,14.05" transform="translate(0)"/><path class="cls-7" d="M226.3,33l-6.09-.87a120.63,120.63,0,0,1,13.72-5.29c2.42-.76,4.86-1.36,7.3-1.88l6.1.88c-2.45.51-4.89,1.12-7.31,1.88A118.72,118.72,0,0,0,226.3,33" transform="translate(0)"/><path class="cls-37" d="M247.33,25.84l-6.1-.88c8.27-1.72,16.52-2.33,23.67-3.82L271,22c-7.15,1.49-15.39,2.1-23.66,3.83" transform="translate(0)"/><path class="cls-7" d="M271,22l-6.09-.87A47.3,47.3,0,0,0,272.37,19l6.1.87A47.73,47.73,0,0,1,271,22" transform="translate(0)"/></g></g></g><path class="cls-8" d="M278.47,19.87c-11,9.65-22.48,18.81-33.73,28.19l28.64,21.18a5.67,5.67,0,0,0-3.39-.91C257.87,68.33,227.68,90,222.76,94c-30.47,24.78-46.35,69-38.15,107.74,5.92,28,26,61.91,53.91,71.65H165.87c-3,0-9.93-12.06-11.29-14.07A136,136,0,0,1,135.41,216c-11.45-45.84-.64-101.67,30.34-138,11.95-14,27.12-26.12,42.78-35.59A145.53,145.53,0,0,1,240,27.72C253.68,23.43,268.14,23.93,278.47,19.87Z" transform="translate(0)"/><g class="cls-2"><g class="cls-38"><g class="cls-2"><path class="cls-39" d="M6.14,288.85,0,288c8.06-.33,105.44-2.4,112.47-2.87l6.09.87c-7,.47-104.4,2.55-112.46,2.88" transform="translate(0)"/><path class="cls-40" d="M118.6,286l-6.09-.87.3,0,6.09.87-.3,0" transform="translate(0)"/><path class="cls-41" d="M118.9,285.94l-6.09-.87.1,0,6.09.87s0,0-.1,0" transform="translate(0)"/></g></g></g><path class="cls-42" d="M119.05,263.77l60.12,49.11L118.84,363l0-23.11H6.11c-.07,0,.12-46.21,0-51C14.5,288.5,119,286.28,119,285.92Z" transform="translate(0)"/><g class="cls-2"><g class="cls-43"><g class="cls-2"><path class="cls-41" d="M6.11,339.85,0,339c-.07,0,.11-46.21,0-51l6.1.88c.09,4.79-.1,51,0,51" transform="translate(0)"/></g></g></g></g><polyline class="cls-44" points="353.92 51.55 389.4 21.84 422.64 21.63"/><circle class="cls-45" cx="353.92" cy="51.55" r="2.83"/><polyline class="cls-44" points="214.45 54.39 178.96 24.68 127.96 24.47"/><circle class="cls-45" cx="214.45" cy="54.39" r="2.83"/><polyline class="cls-44" points="149.28 216.44 113.8 186.72 60.58 186.52"/><circle class="cls-45" cx="149.28" cy="216.44" r="2.83"/><polyline class="cls-44" points="261.93 319.55 261.82 348.17 210.84 348.06"/><circle class="cls-45" cx="261.93" cy="319.55" r="2.83"/><polyline class="cls-44" points="66.8 319.55 66.69 348.17 33.47 348.06"/><circle class="cls-45" cx="66.8" cy="319.55" r="2.83"/><polyline class="cls-44" points="459.81 319.55 459.7 348.17 408.72 348.06"/><circle class="cls-45" cx="459.81" cy="319.55" r="2.83"/><polyline class="cls-44" points="422.76 215.94 458.25 186.22 518.13 186.02"/><circle class="cls-45" cx="422.76" cy="215.94" r="2.83"/><text class="cls-46" transform="translate(392.19 36.48)">Test</text><text class="cls-46" transform="translate(461.53 201.29)">Develop</text><text class="cls-46" transform="translate(408.72 362.8)">Launch</text><text class="cls-46" transform="translate(210.84 362.8)">Design</text><text class="cls-46" transform="translate(32.89 362.8)">Plan</text><text class="cls-46" transform="translate(59.42 200.3)">Review</text><text class="cls-46" transform="translate(126.14 39.43)">Deploy</text><text/></g></g></svg>