<svg xmlns="http://www.w3.org/2000/svg" viewBox="0 0 51.84 51.84"><defs><style>.cls-1{fill:#48494a;}.cls-2{fill:#f57f20;}</style></defs><g id="Layer_2" data-name="Layer 2"><g id="Layer_1-2" data-name="Layer 1"><path class="cls-1" d="M0,39.08a1.4,1.4,0,0,1,1.17-.42c1.45,0,2.9,0,4.35,0a1.63,1.63,0,0,0,.82-.27c1-.61,2-1.26,3-1.87.51-.3.95-.2,1.18.22s.06.81-.43,1.13C9,38.55,7.92,39.27,6.82,40a1.6,1.6,0,0,1-.8.22c-1.48,0-3,0-4.47,0v8.52H2.2a78.39,78.39,0,0,1,10.39.57c2.84.27,5.68.5,8.51.75.67.06,1.35.11,2,.19a16.47,16.47,0,0,0,9-1.8c2.39-1.13,4.7-2.42,7-3.64l.4-.22a.75.75,0,0,1,1.05.27.73.73,0,0,1-.29,1.05c-4.14,2.27-8.18,4.77-12.91,5.7l-1.48.26H23.28a1,1,0,0,0-.22-.09l-3.68-.32-6.33-.57c-2.06-.18-4.12-.42-6.19-.53-1.89-.1-3.8-.06-5.7-.07A1.36,1.36,0,0,1,0,49.81Z"/><path class="cls-2" d="M23.33,24.09c-1,.39-1.95.74-2.88,1.12a.71.71,0,0,0-.29.46c-.09.39-.11.8-.19,1.19a1.51,1.51,0,0,1-1.54,1.27c-.47,0-.95,0-1.42,0a1.52,1.52,0,0,1-1.55-1.26,4.19,4.19,0,0,1-.14-.85c0-.58-.24-.82-.81-1a24.46,24.46,0,0,1-2.38-1c-.35.26-.75.57-1.16.85a1.52,1.52,0,0,1-2.07-.15c-.35-.34-.7-.69-1-1a1.46,1.46,0,0,1-.17-1.94c.3-.45.81-.87.86-1.33s-.42-.93-.62-1.4-.27-.87-.45-1.29a.68.68,0,0,0-.4-.34c-.42-.11-.86-.14-1.29-.22a1.46,1.46,0,0,1-1.23-1.45c0-.53,0-1.05,0-1.57a1.49,1.49,0,0,1,1.29-1.51c.42-.07.84-.11,1.25-.21a.65.65,0,0,0,.38-.35c.35-.78.65-1.59,1-2.36a.5.5,0,0,0-.05-.63c-.24-.29-.45-.59-.66-.9a1.5,1.5,0,0,1,.17-2.13c.29-.29.57-.58.86-.86a1.55,1.55,0,0,1,2.3-.16l1,.74c1-.39,1.89-.73,2.79-1.1a.74.74,0,0,0,.36-.45c.11-.42.13-.86.22-1.29A1.38,1.38,0,0,1,16.77,1.8a13.53,13.53,0,0,1,1.91,0,1.33,1.33,0,0,1,1.26,1.13c.1.42.12.87.23,1.29a.68.68,0,0,0,.34.46c.91.39,1.83.73,2.82,1.12.32-.24.73-.55,1.14-.84a1.5,1.5,0,0,1,2.06.17c.35.32.68.66,1,1a1.48,1.48,0,0,1,.17,2c-.28.42-.78.8-.83,1.24s.38.9.58,1.36A10.58,10.58,0,0,1,27.9,12c.08.32.2.5.55.51s.6.1.9.15a1.58,1.58,0,0,1,1.57,1.53h4.47v-.61c0-2.9,0-5.81,0-8.71a1.91,1.91,0,0,1,2.17-2.15c.81,0,1.62,0,2.43,0,.33,0,.46-.1.57-.41A3.44,3.44,0,0,1,44.13,0a3.48,3.48,0,0,1,.72,6.78,3.43,3.43,0,0,1-4.26-2,.64.64,0,0,0-.75-.51c-.83,0-1.65,0-2.48,0-.3,0-.43.1-.43.41,0,3.12,0,6.25,0,9.37a.66.66,0,0,0,0,.16c1.07,0,2.16,0,3.25,0,.1,0,.23-.25.29-.4a3.48,3.48,0,0,1,6.65.31,3.48,3.48,0,0,1-2.3,4.18,3.41,3.41,0,0,1-4.29-2,.66.66,0,0,0-.76-.52c-.94,0-1.88,0-2.86,0,0,.21,0,.37,0,.53,0,2.94,0,5.87,0,8.81,0,.46.11.63.59.6.81,0,1.62,0,2.43,0a.53.53,0,0,0,.61-.43,3.47,3.47,0,0,1,6.62.37,3.47,3.47,0,0,1-6.57,2.16.72.72,0,0,0-.84-.55c-.79,0-1.58,0-2.38,0a1.82,1.82,0,0,1-2-2c0-2.94,0-5.88,0-8.81v-.64H30.91c-.12,1.15-.92,1.52-2,1.57a1.08,1.08,0,0,0-1.19,1,7.66,7.66,0,0,1-.8,1.84.52.52,0,0,0,.06.67c.25.32.49.64.71,1a1.45,1.45,0,0,1-.16,1.94c-.34.37-.7.73-1.07,1.08a1.51,1.51,0,0,1-2,.16C24.08,24.65,23.67,24.33,23.33,24.09ZM25.4,6.2c-.53.39-1,.72-1.47,1.09a1,1,0,0,1-1.29.06,10.48,10.48,0,0,0-2.57-1.13c-1-.21-1.41-.65-1.42-1.6,0,0,0-.1,0-.15-.15-1.22-.15-1.23-1.35-1.13a.51.51,0,0,0-.37.33c-.11.51-.16,1-.23,1.54a.89.89,0,0,1-.74.85A8.67,8.67,0,0,0,12.7,7.39a.85.85,0,0,1-1.11,0c-.5-.39-1-.76-1.55-1.14L9,7.27c.39.52.75,1,1.13,1.52A.91.91,0,0,1,10.15,10,8.41,8.41,0,0,0,8.84,13.1a.9.9,0,0,1-.88.81l-1.87.3v1.48c.65.1,1.27.22,1.9.3a.87.87,0,0,1,.84.79,8.65,8.65,0,0,0,1.31,3.15.89.89,0,0,1,0,1.16c-.38.5-.75,1-1.12,1.51l1.06,1.08c.51-.38,1-.73,1.51-1.12a1,1,0,0,1,1.2,0,13.94,13.94,0,0,0,2.56,1.15c1.51.41,1.23.48,1.47,1.67,0,.05,0,.1,0,.15.14,1.15.14,1.15,1.3,1.09,0,0,0,0,0,0s.33-.21.36-.35c.11-.5.17-1,.23-1.5a.93.93,0,0,1,.84-.92,8.29,8.29,0,0,0,3.1-1.28.9.9,0,0,1,1.2,0c.5.39,1,.75,1.49,1.1l1.09-1-1.14-1.55A.88.88,0,0,1,25.27,20a8.81,8.81,0,0,0,1.34-3.24.83.83,0,0,1,.78-.73c.65-.08,1.29-.2,1.94-.3v-1.5c-.6-.09-1.18-.19-1.76-.25a1,1,0,0,1-1-.94,7.8,7.8,0,0,0-1.23-3,1,1,0,0,1,.06-1.33c.38-.47.71-1,1-1.4Zm18.39-.79a2,2,0,0,0,2-1.94,2,2,0,0,0-1.93-1.95,2,2,0,0,0-1.95,1.91A1.91,1.91,0,0,0,43.79,5.41Zm-1.91,9.53a2,2,0,0,0,1.95,2A2,2,0,0,0,45.76,15a2,2,0,0,0-2-2A1.92,1.92,0,0,0,41.88,14.94Zm1.91,9.55a1.93,1.93,0,0,0,0,3.86,1.93,1.93,0,1,0,0-3.86Z"/><path class="cls-1" d="M37,32.52c.34-.18.65-.32.93-.5a2.69,2.69,0,0,1,4.27,1.92,13.84,13.84,0,0,0,1.38-.73A2.7,2.7,0,0,1,47.83,35a9.63,9.63,0,0,1,1.7,0,2.69,2.69,0,0,1,2.25,2.31,2.75,2.75,0,0,1-1.19,2.91c-.37.26-.79.46-1.18.68-2.07,1.13-4.14,2.26-6.22,3.37a1.24,1.24,0,0,1-.88.11.82.82,0,0,1-.42-.67,1.08,1.08,0,0,1,.5-.72c2.13-1.19,4.28-2.35,6.42-3.52l.71-.39a1.38,1.38,0,1,0-1.35-2.39q-3.3,1.82-6.58,3.65A24.74,24.74,0,0,1,28.46,43.6c-1.77-.07-3.52-.34-5.28-.52L21,42.82c-.59-.06-.94-.34-.95-.79s.34-.74.92-.81l11-1.4c.51-.07,1-.12,1.55-.2A1.3,1.3,0,1,0,33.33,37H23.81a3.63,3.63,0,0,1-1.13-.2,15,15,0,0,0-9.62-.25.84.84,0,0,1-1-.21.67.67,0,0,1,0-.89,1.43,1.43,0,0,1,.59-.36,16,16,0,0,1,10.22.14,1,1,0,0,0,.85-.07c3-1.59,6-3.11,9-4.77A2.8,2.8,0,0,1,37,32.52ZM27.55,42c.07,0,.09.06.12.06l.25,0a20.72,20.72,0,0,0,9.88-1.6c2.65-1.17,5.17-2.65,7.74-4a1.12,1.12,0,1,0-1.06-1.93q-3.94,2.07-7.9,4.17a.91.91,0,0,0-.38.46,2.83,2.83,0,0,1-2.31,2c-.42.07-.84.12-1.26.17Zm-.86-6.59,0,.12h1.41a14.39,14.39,0,0,0,3.42-.09,14.55,14.55,0,0,0,3.09-1.58,1.21,1.21,0,0,0,.67-1.66,1.18,1.18,0,0,0-1.74-.4q-3,1.55-6,3.11Zm9.5,1.76c-.08,0,0,0,0,0,1.24-.66,2.5-1.31,3.74-2a1.09,1.09,0,1,0-1-1.9l-3.59,1.94-.72.4Z"/><path class="cls-2" d="M17.75,20.78A5.92,5.92,0,0,1,12,15.26a5.69,5.69,0,0,1,4.8-5.95,5.4,5.4,0,0,1,5.53,2.26,5.49,5.49,0,0,1,.53,5.92c-.28.6-.77.78-1.21.48s-.42-.62-.19-1.11a4.19,4.19,0,1,0-7.91-2,4.19,4.19,0,0,0,5.83,3.9c.58-.23,1-.1,1.18.36s0,.86-.58,1.05S18.49,20.59,17.75,20.78Z"/></g></g></svg>