<svg xmlns="http://www.w3.org/2000/svg" viewBox="0 0 47.81 47.81"><defs><style>.cls-1{fill:#34a0a4;}</style></defs><g id="Layer_2" data-name="Layer 2"><g id="Layer_1-2" data-name="Layer 1"><path class="cls-1" d="M47.81,47.34a1,1,0,0,1-1,.47c-.73,0-1.46,0-2.19,0s-1-.19-1-1V46.4H28.34A1.36,1.36,0,0,1,27.27,46c-.51-.54-1.08-1-1.56-1.6a1.45,1.45,0,0,1-.37-.9c0-2.25,0-4.51,0-6.76v-.54H22.49v.48c0,2.24,0,4.48,0,6.72A1.34,1.34,0,0,1,22,44.48c-.51.48-1,1-1.48,1.48a1.35,1.35,0,0,1-1.07.45H4.21c0,.24,0,.45,0,.66a.69.69,0,0,1-.73.74c-.92,0-1.83,0-2.75,0A.68.68,0,0,1,0,47.09q0-1.38,0-2.76a.68.68,0,0,1,.74-.72q1.35,0,2.7,0a.69.69,0,0,1,.75.76c0,.19,0,.38,0,.63h.5c4.8,0,9.59,0,14.38,0a1.38,1.38,0,0,0,.72-.3,3,3,0,0,0,1.31-3.07c-.12-1.67,0-3.36,0-5v-.5l-3.77-.64v2.15c.23,0,.44,0,.66,0a.65.65,0,0,1,.7.7q0,1.38,0,2.76a.64.64,0,0,1-.69.71c-.93,0-1.86,0-2.8,0a.67.67,0,0,1-.7-.71c0-.2,0-.4,0-.68H1.08c-.73,0-1.06-.2-1.07-.67S.35,39,1.09,39H14.51c-.22-1.14.3-1.56,1.38-1.37,0-.88,0-1.69,0-2.5,0-.07,0-.18-.07-.2a5.51,5.51,0,0,0-1.66-.65c-1.78-.09-3.57,0-5.36-.07A8.83,8.83,0,0,1,4.2,32.65a.73.73,0,0,1-.3-1,.68.68,0,0,1,1-.17,8.59,8.59,0,0,0,5.19,1.38c1.05,0,2.11,0,3.16,0,0-2.07,0-4.1,0-6.13a2.78,2.78,0,0,1,1.38-2.82c0-.06,0-.1,0-.12a2.84,2.84,0,0,1-1.35-2.81c.07-1.74,0-3.48,0-5.23a2.47,2.47,0,0,1,1.11-2.18,7.92,7.92,0,0,1,2.93-1.28,26.72,26.72,0,0,1,13.78.18,9.89,9.89,0,0,1,2.31,1.07,2.36,2.36,0,0,1,1.18,2.23c0,1.85,0,3.71,0,5.56a2.54,2.54,0,0,1-1.14,2.3l-.27.21c.2.16.37.29.53.43a2.28,2.28,0,0,1,.87,1.87c0,2,0,3.95,0,5.93,0,.25,0,.49,0,.74,6.49.78,10.8-3.22,11.69-8a9.87,9.87,0,0,0-8.05-11.67,8,8,0,0,0-1-.12.73.73,0,0,1-.76-.63,14.1,14.1,0,0,0-1.89-4.63.68.68,0,0,1,.16-1,.72.72,0,0,1,1,.29,14.81,14.81,0,0,1,1.87,4.25.49.49,0,0,0,.48.44,11.31,11.31,0,0,1,9.64,9.85,1.81,1.81,0,0,0,.09.31v2c-.06.34-.13.67-.18,1a11.24,11.24,0,0,1-9.41,9.16c-1.5.19-3,.06-4.56.19a6.12,6.12,0,0,0-1.65.64.23.23,0,0,0-.08.16v2.49c1.24.16,1.24.16,1.46,1.43H46.75a1.18,1.18,0,0,1,1.06.43V40a1.22,1.22,0,0,1-1.07.42H33.32c0,.28,0,.5,0,.71a.66.66,0,0,1-.69.68q-1.43,0-2.85,0a.63.63,0,0,1-.65-.7q0-1.38,0-2.76a.67.67,0,0,1,.69-.71l.68,0V35.44l-3.78.64v.49c0,1.68.09,3.37,0,5A3.12,3.12,0,0,0,28,44.72a1.29,1.29,0,0,0,.68.27c4.81,0,9.62,0,14.43,0h.47v-.39c0-.81.2-1,1-1s1.46,0,2.19,0a1,1,0,0,1,1,.48ZM33.14,28c-.49.22-.93.44-1.39.62a21.54,21.54,0,0,1-7.24,1.17c-1.33,0-2.67-.11-4-.17a.57.57,0,0,1-.18,0c-.5-.08-.77-.39-.71-.81s.38-.59.87-.57c1.84,0,3.67.16,5.5.1a15.07,15.07,0,0,0,5.72-1.2,5.84,5.84,0,0,0,1.2-.77.64.64,0,0,0,.19-.57,2.16,2.16,0,0,0-2-1.05c-1.18.27-2.37.51-3.56.73a.65.65,0,0,1-.8-.59.69.69,0,0,1,.59-.77l.32-.05c1.09-.25,2.2-.44,3.26-.76a7.23,7.23,0,0,0,1.78-.89,1,1,0,0,0,.42-.67c0-1.39,0-2.77,0-4.16l-.06-.05a20,20,0,0,1-9.16,1.77,20.08,20.08,0,0,1-9.25-1.8c0,1.35,0,2.65,0,3.95a1,1,0,0,0,.55,1.05,15.38,15.38,0,0,0,2.2,1,22.7,22.7,0,0,0,6.41.83c.5,0,.77.26.78.68a.7.7,0,0,1-.79.72,23.13,23.13,0,0,1-6.73-.88,1.86,1.86,0,0,0-1.83.37c-.75.54-.77,1,0,1.45.56.34,1.21.56,1.8.86.21.11.47.26.54.45a.8.8,0,0,1-.14.71.89.89,0,0,1-.74.18c-.69-.22-1.35-.52-2-.8,0,1.3,0,2.59,0,3.88a1.13,1.13,0,0,0,.6,1.12,10.36,10.36,0,0,0,2,.89A25.27,25.27,0,0,0,30,34a11.71,11.71,0,0,0,2.44-1,1.18,1.18,0,0,0,.65-.78C33.18,30.84,33.14,29.42,33.14,28ZM23.89,17.83c.36,0,.72,0,1.07,0a20.23,20.23,0,0,0,6.18-1,7.49,7.49,0,0,0,1.42-.7c.76-.5.76-.93,0-1.46a5.78,5.78,0,0,0-1-.53A15.28,15.28,0,0,0,27.08,13a26,26,0,0,0-9.26.52,11,11,0,0,0-2.44,1c-1,.52-.93,1,0,1.63a6.75,6.75,0,0,0,1.3.62A21.43,21.43,0,0,0,23.89,17.83ZM1.44,45v1.36H2.77V45Zm44.94,0H45v1.34h1.34ZM15.92,39v1.31h1.33V39Zm16,1.32V39H30.56v1.31Z"/><path class="cls-1" d="M24.19,0c.95.19,1.92.32,2.86.58a14.78,14.78,0,0,1,6.44,3.69,1.39,1.39,0,0,1,.29.36.63.63,0,0,1-.18.84.72.72,0,0,1-1-.08,26.3,26.3,0,0,0-2.38-1.86,13.75,13.75,0,0,0-20.81,9,23,23,0,0,0-.26,3.43c0,.65-.18.87-.82,1A8,8,0,0,0,2.7,29.17l.15.24a.69.69,0,0,1-.2,1,.65.65,0,0,1-1-.25A14.41,14.41,0,0,1,.41,27.44,9.36,9.36,0,0,1,7.51,15.6l.2,0c0-.65.07-1.29.13-1.94A15.19,15.19,0,0,1,20.71.17L21.76,0Z"/><path class="cls-1" d="M1.44,46.37V45"/><path class="cls-1" d="M20.3,20.74a.73.73,0,0,1,.7.73.7.7,0,0,1-.7.66.7.7,0,0,1,0-1.39Z"/><path class="cls-1" d="M21,32a.71.71,0,0,1-.74.67.69.69,0,0,1-.65-.71.68.68,0,0,1,.74-.67A.69.69,0,0,1,21,32Z"/><path class="cls-1" d="M28.18,32a.72.72,0,0,1-.74.68.69.69,0,0,1-.65-.7.67.67,0,0,1,.72-.68A.71.71,0,0,1,28.18,32Z"/><path class="cls-1" d="M28.17,21.45a.69.69,0,0,1-.73.68.67.67,0,0,1-.65-.7.7.7,0,0,1,.67-.69A.72.72,0,0,1,28.17,21.45Z"/><path class="cls-1" d="M23.9,22.34a.66.66,0,0,1-.68-.71.69.69,0,1,1,1.37.06A.66.66,0,0,1,23.9,22.34Z"/><path class="cls-1" d="M24.6,32.17a.69.69,0,1,1-1.38,0,.69.69,0,1,1,1.38,0Z"/></g></g></svg>