<svg xmlns="http://www.w3.org/2000/svg" viewBox="0 0 77.66 77.68"><defs><style>.cls-1{fill:#48494a;}.cls-2{fill:#f57f20;}</style></defs><g id="Layer_2" data-name="Layer 2"><g id="Layer_1-2" data-name="Layer 1"><path class="cls-1" d="M0,64a1.92,1.92,0,0,1,1.71-.73c6.92,0,13.85,0,20.77,0h1c-.24-1.69.42-2.57,2.28-2.22,0-1.43,0-2.76,0-4.09,0-.09,0-.23-.11-.26a8.59,8.59,0,0,0-2.61-1c-3.15-.16-6.32,0-9.47-.2A13.43,13.43,0,0,1,6.7,53a1.12,1.12,0,0,1-.41-1.58,1.11,1.11,0,0,1,1.65-.34,14.19,14.19,0,0,0,8.79,2.25c1.58-.07,3.18,0,4.81,0V50.59c0-2.65.05-5.31,0-8a4,4,0,0,1,1.79-3.55l.4-.31c0-.08,0-.15-.06-.17a4.57,4.57,0,0,1-2.15-4.44c.13-2.92.07-5.86,0-8.79A3.75,3.75,0,0,1,23,22.23a12.47,12.47,0,0,1,5.13-2.33,43.29,43.29,0,0,1,22.37.34,16.68,16.68,0,0,1,4,2,3.45,3.45,0,0,1,1.55,3.18c0,3.11-.06,6.22,0,9.33a4.05,4.05,0,0,1-1.76,3.56l-.41.34s0,0,0,.13l.55.43a4,4,0,0,1,1.62,3.33c0,3.56,0,7.12,0,10.71,4.59.4,9-.15,12.78-3.13C74.14,46,76.34,40.5,75,34c-1.4-6.7-5.72-10.83-12.36-12.5a14.9,14.9,0,0,0-2.32-.33,1.16,1.16,0,0,1-1.12-.95A23.33,23.33,0,0,0,56,12.53a1.12,1.12,0,0,1,.34-1.65,1.14,1.14,0,0,1,1.62.48,24,24,0,0,1,3.08,7,.76.76,0,0,0,.73.69,18.39,18.39,0,0,1,1.71,36.1,27.09,27.09,0,0,1-4.42.53,17.59,17.59,0,0,1-3.48,0,6,6,0,0,0-3.48,1,.62.62,0,0,0-.27.47c0,1.28,0,2.56,0,3.76.7.19,1.47.2,1.88.58s.38,1.12.59,1.86h21.5c.35,0,.78-.06,1,.12s.75.7.74,1.06-.42.78-.76,1-.64.11-1,.11H54.13c0,.35,0,.67,0,1a1.16,1.16,0,0,1-1.21,1.28c-1.49,0-3,0-4.47,0a1.08,1.08,0,0,1-1.15-1.22c0-1.36,0-2.73,0-4.09,0-1.18.35-1.52,1.55-1.54l.66,0V57.62l-6.1,1v.67c0,3.52,0,7,0,10.54a2.39,2.39,0,0,0,.49,1.18c1.2,1.78,2.87,2.18,5,2.14,7-.14,14-.06,20.93-.06h1c0-.41,0-.78,0-1.15a1.05,1.05,0,0,1,1.1-1.11q2.31,0,4.62,0A1,1,0,0,1,77.63,72c0,1.52.06,3,0,4.55,0,.39-.46.76-.71,1.14H71.58c-1-.47-.69-1.45-.79-2.28H45.85a1.88,1.88,0,0,1-1.47-.6c-.86-.9-1.73-1.78-2.63-2.63a2,2,0,0,1-.65-1.61c0-3.66,0-7.33,0-11v-.8H36.54v.87c0,3.61,0,7.23,0,10.84a2.22,2.22,0,0,1-.76,1.8c-.85.79-1.67,1.62-2.47,2.47a2,2,0,0,1-1.6.65H6.84c0,.89.18,1.81-.77,2.28H0V71.61c.38-.25.75-.69,1.14-.71,1.51-.09,3-.05,4.55,0A1.08,1.08,0,0,1,6.82,72c0,.34,0,.69,0,1.1h1c7,0,14-.09,20.92.06,2.15,0,3.83-.37,5-2.16a2.38,2.38,0,0,0,.46-1.19c0-3.49,0-7,0-10.46v-.72L28.12,57.6V61l.7,0c1.19,0,1.53.36,1.53,1.54s0,2.58,0,3.87c0,1.07-.38,1.45-1.47,1.46s-2.12,0-3.18,0c-2,0-2.06-.09-2.2-2a1.39,1.39,0,0,0-.09-.22h-.85c-6.95,0-13.9,0-20.85,0A1.89,1.89,0,0,1,0,64.94ZM23.81,45.51c0,2.13,0,4.25,0,6.36a1.7,1.7,0,0,0,.84,1.65,15.67,15.67,0,0,0,2.49,1.25,29.74,29.74,0,0,0,8.3,1.58,40.31,40.31,0,0,0,12.49-.84,30.59,30.59,0,0,0,4.85-1.84,1.77,1.77,0,0,0,1.08-1.91c-.07-.85,0-1.71,0-2.57v-3.7c-1.06.44-2,.9-3,1.24a32.16,32.16,0,0,1-9.67,1.59c-2.73.06-5.45-.13-8.18-.27a1.1,1.1,0,0,1-1.13-1.31,1.14,1.14,0,0,1,1.37-1A45.9,45.9,0,0,0,46,45.53a18.65,18.65,0,0,0,6.39-2c1.87-1,1.86-2,0-3a2.13,2.13,0,0,0-1.68-.45c-1.9.46-3.83.85-5.76,1.22a1.15,1.15,0,0,1-1.49-1c-.07-.64.43-1.17,1.21-1.29s1.4-.18,2.1-.32a17.76,17.76,0,0,0,5.84-2,2.1,2.1,0,0,0,1.26-2.21,13.12,13.12,0,0,1,0-1.66V28.37c-4.8,2.43-9.87,2.92-15,2.92s-10.22-.51-15-2.91c0,2,.08,4,0,6a2.31,2.31,0,0,0,1.5,2.52,25.14,25.14,0,0,0,4.91,1.66c2.78.46,5.61.61,8.42.88.88.08,1.39.51,1.36,1.2a1.21,1.21,0,0,1-1.37,1.11A40.18,40.18,0,0,1,27,40.11a1.41,1.41,0,0,0-.86,0,8.23,8.23,0,0,0-1.62,1c-1,.73-1,1.38,0,2a26.32,26.32,0,0,0,3.11,1.52c.82.36,1.17.85.95,1.55s-.87.91-1.69.61C25.91,46.38,24.9,46,23.81,45.51ZM40.16,21a40,40,0,0,0-11,1.09A20.69,20.69,0,0,0,25,23.7c-1.53.82-1.48,1.66,0,2.58a11.69,11.69,0,0,0,2.17,1,30.8,30.8,0,0,0,8.67,1.59,40.26,40.26,0,0,0,12.76-1,18.11,18.11,0,0,0,4.12-1.65c1.51-.82,1.47-1.66,0-2.58a11.48,11.48,0,0,0-2.18-1A32.66,32.66,0,0,0,40.16,21ZM4.54,73.18H2.33v2.17H4.54Zm70.8,0H73.15v2.19h2.19ZM28,65.55V63.46H25.86v2.09Zm21.6-2.12v2.09h2.17V63.43Z"/><path class="cls-2" d="M0,38.71c.17-.79.29-1.59.52-2.36a15.13,15.13,0,0,1,11.76-11l.23-.08c.07-1.1.09-2.21.23-3.31A24.05,24.05,0,0,1,24.65,3.52a24.48,24.48,0,0,1,29.5,3.21l.22.2c.75.73.85,1.33.32,1.9s-1.19.46-1.92-.23A22.08,22.08,0,0,0,39.88,2.48,22.39,22.39,0,0,0,15.45,19.67a22.14,22.14,0,0,0-.56,6.23c.06,1-.28,1.45-1.29,1.57A13,13,0,0,0,4.47,47.53c.35.54.59,1.07.14,1.66A1.14,1.14,0,0,1,2.7,49,14.77,14.77,0,0,1,.31,43.43C.21,43,.1,42.5,0,42Z"/><path class="cls-2" d="M38.86,51.15A1.16,1.16,0,0,1,40,52.34a1.15,1.15,0,0,1-2.3-.07A1.17,1.17,0,0,1,38.86,51.15Z"/><path class="cls-2" d="M34.11,52a1.17,1.17,0,0,1-1.18,1.13,1.14,1.14,0,0,1-1.09-1.2A1.09,1.09,0,0,1,33,50.82,1.13,1.13,0,0,1,34.11,52Z"/><path class="cls-2" d="M44.65,53.09A1.15,1.15,0,0,1,43.49,52a1.09,1.09,0,0,1,1.07-1.13,1.14,1.14,0,0,1,1.21,1.08A1.19,1.19,0,0,1,44.65,53.09Z"/><path class="cls-2" d="M34.11,34.86A1.13,1.13,0,0,1,32.94,36a1.09,1.09,0,0,1-1.1-1.09A1.13,1.13,0,0,1,33,33.72,1.15,1.15,0,0,1,34.11,34.86Z"/><path class="cls-2" d="M45.77,34.86A1.15,1.15,0,0,1,44.6,36a1.09,1.09,0,0,1-1.11-1.09,1.14,1.14,0,0,1,1.11-1.18A1.17,1.17,0,0,1,45.77,34.86Z"/><path class="cls-2" d="M40,35.18a1.15,1.15,0,0,1-2.3.1,1.15,1.15,0,1,1,2.3-.1Z"/></g></g></svg>