<svg xmlns="http://www.w3.org/2000/svg" viewBox="0 0 132.48 101.57"><defs><style>.cls-1{fill:#f57f20;}</style></defs><g id="Layer_2" data-name="Layer 2"><g id="Layer_1-2" data-name="Layer 1"><path d="M84,101.55V97.17h35.21v-4.4H84V88.38h8.65V68.43H34c-2.5,0-3.11-.59-3.11-3.05V3c0-2.39.63-3,3-3h95.51c2.4,0,3,.63,3,3q0,31.26,0,62.51c0,2.28-.66,2.94-2.94,2.94h-5.39c-.09,0-.18,0-.5.07V98.62c0,2.28-.66,2.93-3,2.93H84ZM128,64V17.76H35.39V64ZM128,4.5H35.43v8.68H128Zm-30.76,64V88.21h13.09V68.52h-4.2a1.58,1.58,0,0,0-.12.2c0,1.28,0,2.57,0,3.86,0,1.53-.83,2.45-2.16,2.47s-2.22-.91-2.24-2.53c0-1.32,0-2.64,0-4Zm17.64,0V88.23h4.26V68.5Z"/><path d="M64.06,88.22V72.93H68.4V88.32h8.24c2.17,0,2.9.76,2.84,2.9a11,11,0,0,1-10.91,10.33q-21.93,0-43.87,0c-4.74,0-9.48,0-14.21,0A11,11,0,0,1,0,90.8a2.18,2.18,0,0,1,2.44-2.48c2.8,0,5.6,0,8.6,0v-39c0-2.22.67-2.9,2.84-2.9H26.39v4.35H15.56v37.5Zm10.44,4.5c-8.63,0-17.13,0-25.63,0a2.9,2.9,0,0,0-2.63,1.09A3.08,3.08,0,0,1,43.45,95c-2.44-.06-4.88-.08-7.31,0a3.34,3.34,0,0,1-3-1.28,2.55,2.55,0,0,0-2.26-1c-8.18,0-16.37,0-24.55,0-.44,0-.87,0-1.4.08a4.48,4.48,0,0,0,.22.62c1.42,2.7,3.74,3.74,6.69,3.73q26.28,0,52.56,0c1.33,0,2.67,0,4,0A6.32,6.32,0,0,0,74.5,92.72Z"/><path class="cls-1" d="M106.08,25.72l4.23,1.4-8.83,26.53-4.23-1.4Z"/><path class="cls-1" d="M53.06,48.47V44.23H79.38v4.24Z"/><path d="M96.45,34.67l-5,4.89,5.3,5-3.43,3.1c-2.16-2.11-4.53-4.33-6.77-6.67a1.85,1.85,0,0,1,.11-2.64c2.21-2.27,4.49-4.46,6.77-6.7Z"/><path d="M114.16,47.88l-2.91-3.15L116.07,40,110.84,35l3.67-3.23c.84.87,1.9,2,3,3.1s2.17,2.12,3.21,3.22a2.14,2.14,0,0,1,.16,3.2C118.68,43.48,116.43,45.64,114.16,47.88Z"/><path class="cls-1" d="M68.34,26.43H53.08V22.19H68.34Z"/><path class="cls-1" d="M79.42,33.21v4.25H66.36V33.21Z"/><path d="M66.32,55.25H79.39v4.27H66.32Z"/><path d="M53.06,37.43V33.19h8.65v4.24Z"/><path d="M61.76,55.26v4.25H53.08V55.26Z"/><path d="M39.81,26.39V22.15h6.44v4.24Z"/><path class="cls-1" d="M72.93,26.41V22.18H79.4v4.23Z"/><path class="cls-1" d="M46.28,37.46H39.85V33.21h6.43Z"/><path class="cls-1" d="M39.82,44.22h6.44v4.26H39.82Z"/><path d="M39.83,55.22h6.42v4.29H39.83Z"/><path d="M39.8,11a2.2,2.2,0,1,1,0-4.4A2.15,2.15,0,0,1,41.94,8.8,2.16,2.16,0,0,1,39.8,11Z"/><path class="cls-1" d="M48.57,8.84a2.2,2.2,0,1,1-4.4-.09,2.2,2.2,0,0,1,4.4.09Z"/><path d="M55.19,8.8A2.2,2.2,0,1,1,53,6.63,2.15,2.15,0,0,1,55.19,8.8Z"/></g></g></svg>