<svg xmlns="http://www.w3.org/2000/svg" viewBox="0 0 120.19 142.06"><defs><style>.cls-1{fill:#48494a;}.cls-2{fill:#f57f20;}</style></defs><g id="Layer_2" data-name="Layer 2"><g id="Layer_1-2" data-name="Layer 1"><path class="cls-1" d="M24.05,0a25.39,25.39,0,0,1,3.58.92C30.11,2,32.53,3.2,35.19,4.45c.11-.13.47-.53.84-.91A5.84,5.84,0,0,1,44.15,3a5.77,5.77,0,0,1,.73,8.19c-1,1.19-2.45,2.18-2.84,3.52s.44,2.83.63,4.28c1.47,10.9-6.55,21.7-17.36,23.44-12.14,1.94-22.8-5.55-25-17.65a19.84,19.84,0,0,1,.91-10.37C1.74,13,2.71,12.4,4,12.77S5.62,14.26,5.2,15.7C3,23,4.59,29.31,10.3,34.43a17.11,17.11,0,0,0,28-15.73l-6.19,7c-1.41,1.6-2.8,3.21-4.22,4.79a5.85,5.85,0,0,1-9.27-.08c-2.35-2.73-4.71-5.46-7-8.22s-2.25-6.39.4-8.62,6.13-1.74,8.58,1.09c.9,1.05,1.8,2.09,2.79,3.22L32.15,8a17.2,17.2,0,0,0-22,.44c-1.23,1-2.46,1-3.28-.07s-.56-2.21.68-3.24A21,21,0,0,1,18,.27,4.71,4.71,0,0,0,18.78,0Zm-8.3,16.13c-.55.47-1.29.79-1.35,1.22a3,3,0,0,0,.45,2.1c2.06,2.55,4.24,5,6.37,7.5C23,29,23.65,29,25.44,27Q33.12,18.24,40.81,9.5c1.41-1.6,1.58-2.49.61-3.3s-1.74-.46-3.09,1.07L25.44,22c-1.52,1.72-2.67,1.7-4.19-.09-1.29-1.51-2.56-3-3.89-4.51A11.6,11.6,0,0,0,15.75,16.13Z"/><path class="cls-1" d="M35,104c1.32-1.74,2.87-3.06,5.17-3.09a5.85,5.85,0,0,1,5.14,9,4.46,4.46,0,0,1-.41.56c-1,1.12-2.4,2.09-2.78,3.38s.36,2.83.53,4.27a21.35,21.35,0,1,1-8.52-14.66C34.39,103.66,34.67,103.81,35,104Zm-2.91,3.28c-5.63-5.12-15.31-5.07-21.5,0a17.2,17.2,0,0,0,17.57,29.16c8.27-3.55,11.6-12.39,10.11-18.42-.27.3-.52.55-.76.82-3.21,3.64-6.39,7.31-9.63,10.92a5.8,5.8,0,0,1-9.17-.08q-3.59-4.14-7.12-8.32c-2.4-2.83-2.19-6.37.49-8.61s6.13-1.67,8.48,1.08l2.84,3.28ZM23.37,128a12.46,12.46,0,0,0,1.66-1.3q5.15-5.79,10.25-11.64c2.07-2.35,4.15-4.71,6.21-7.07A1.66,1.66,0,1,0,39,105.81l-.93,1L25.39,121.3c-1.41,1.59-2.64,1.59-4,0s-2.71-3.15-4.06-4.73c-.71-.83-1.52-1.24-2.52-.51s-.87,1.64,0,2.66c2.32,2.75,4.67,5.49,7,8.19A9.06,9.06,0,0,0,23.37,128Z"/><path class="cls-2" d="M35,54.42c1.4-1.84,3-3.16,5.36-3.14a5.86,5.86,0,0,1,5,9,5.34,5.34,0,0,1-.41.56c-1,1.12-2.4,2.09-2.78,3.38s.37,2.83.54,4.27a21.37,21.37,0,1,1-8.72-14.83Zm-2.85,3.21a17.16,17.16,0,1,0-2.53,28.55c7.69-4.14,10.1-12.88,8.63-17.7-.7.77-1.36,1.54-2,2.28-1.06,1.14-2.18,1.3-3.16.48s-1-2.11.07-3.3c1.91-2.19,3.84-4.37,5.76-6.56.92-1,1.85-2.07,2.74-3.14a1.64,1.64,0,1,0-2.46-2.18c-.35.36-.69.75-1,1.13L25.37,71.67c-1.41,1.6-2.62,1.59-4,0s-2.76-3.23-4.15-4.84a1.58,1.58,0,0,0-2.42-.36A1.63,1.63,0,0,0,14.72,69c2.37,2.78,4.73,5.56,7.13,8.31,1,1.12,1.93,1.11,2.94,0,.6-.64,1.13-1.35,1.75-2a2,2,0,0,1,2.87-.22,2.09,2.09,0,0,1,.25,3,29.28,29.28,0,0,1-2,2.3,5.79,5.79,0,0,1-8.8-.17c-2.5-2.85-5-5.74-7.39-8.64A5.78,5.78,0,0,1,12,63.22a5.87,5.87,0,0,1,8.4.87c1,1.11,1.93,2.23,3,3.45Z"/><path class="cls-1" d="M86.19,9h31.48c1.56.05,2.54.9,2.52,2.16s-1,2-2.46,2.08c-.37,0-.74,0-1.11,0H55.75c-.51,0-1,0-1.52,0A2.16,2.16,0,0,1,52.11,11,2.2,2.2,0,0,1,54.3,9c.42,0,.83,0,1.25,0Z"/><path class="cls-1" d="M86.21,23.52H55.57c-.37,0-.74,0-1.11,0a2.13,2.13,0,1,1,0-4.24c.37,0,.74,0,1.11,0h61.15a10.08,10.08,0,0,1,1.65.08,1.93,1.93,0,0,1,1.78,2,2,2,0,0,1-1.66,2.09,6.93,6.93,0,0,1-1.51.09Z"/><path class="cls-1" d="M86.21,122.8H55.71c-.42,0-.83,0-1.25,0a2.13,2.13,0,1,1,0-4.24c.33,0,.65,0,1,0h61.43a7.56,7.56,0,0,1,1.78.15,2,2,0,0,1-.15,4,10.14,10.14,0,0,1-1.66.1Z"/><path class="cls-2" d="M86.21,68.9h31.34c1.68,0,2.67.87,2.64,2.19s-1,2.06-2.62,2.06c-4.2,0-8.41,0-12.61,0H55.46c-2.28,0-3.39-.73-3.35-2.18s1.1-2.08,3.32-2.08Z"/><path class="cls-1" d="M86.21,112.45H55.29c-2.12,0-3.14-.66-3.18-2s1-2.18,3.21-2.18h62.53a2.22,2.22,0,0,1,2.34,2.07c0,1.25-.86,2.12-2.37,2.13-6.1,0-12.2,0-18.3,0Z"/><path class="cls-2" d="M86.1,62.82H55.32c-2.17,0-3.25-.73-3.21-2.15s1.1-2.08,3.17-2.08h62.26c1.66,0,2.68.87,2.65,2.18s-1,2-2.61,2H86.1Z"/><path class="cls-1" d="M76,128.87H96.46A8.57,8.57,0,0,1,98,129a2.05,2.05,0,0,1,.15,4,5.91,5.91,0,0,1-1.51.15H55.17a5.68,5.68,0,0,1-1.37-.1,2.06,2.06,0,0,1,.11-4.07,9.62,9.62,0,0,1,1.52-.07Z"/><path class="cls-1" d="M76,29.61H96.32c.47,0,.93,0,1.39,0a1.91,1.91,0,0,1,1.92,2,2,2,0,0,1-1.76,2.15,5.77,5.77,0,0,1-1.25,0H55.17a6.71,6.71,0,0,1-1.1,0,2.18,2.18,0,0,1-2-2.15,2.06,2.06,0,0,1,2.07-2c1.76-.06,3.51,0,5.27,0Z"/><path class="cls-2" d="M76,79.24H96.35a11.05,11.05,0,0,1,1.52.07,2,2,0,0,1,.36,4,6.17,6.17,0,0,1-1.77.2H54.6c-1.48-.06-2.45-.87-2.49-2.08s1-2.15,2.51-2.15C61.74,79.23,68.85,79.24,76,79.24Z"/></g></g></svg>