<svg xmlns="http://www.w3.org/2000/svg" viewBox="0 0 52 46.84"><defs><style>.cls-1{fill:#48494a;}.cls-2{fill:#f57f20;}</style></defs><g id="Layer_2" data-name="Layer 2"><g id="Layer_1-2" data-name="Layer 1"><path class="cls-1" d="M0,3.72A5.08,5.08,0,0,1,1.38,1.18,4.78,4.78,0,0,1,4.79,0H47.18a4.92,4.92,0,0,1,2.54.56A4.17,4.17,0,0,1,52,4.17c.06,1.2,0,2.4,0,3.6a.87.87,0,0,1-.87.92.85.85,0,0,1-.84-.9c0-1,0-2.1,0-3.15a2.71,2.71,0,0,0-2.87-2.88q-21.41,0-42.8,0A2.7,2.7,0,0,0,1.73,4.55V27.4c0,.08,0,.16,0,.31.18,0,.35,0,.53,0H5.43a1.83,1.83,0,0,1,.7.09.79.79,0,0,1,.49.9.83.83,0,0,1-.83.75c-.5,0-1,0-1.52,0H1.69c.05,1.11,0,2.17.16,3.21a2.51,2.51,0,0,0,2.51,2h43a2.63,2.63,0,0,0,2.81-2.06,4.19,4.19,0,0,0,.09-.7c0-.79,0-1.58,0-2.43H10.88a2.72,2.72,0,0,1-.7-.06.78.78,0,0,1-.63-.86.77.77,0,0,1,.71-.79,4.73,4.73,0,0,1,.75-.05H50.26V14.36a5.19,5.19,0,0,1,0-.56.86.86,0,0,1,1.71,0,3.38,3.38,0,0,1,0,.45V31.78a4.34,4.34,0,0,1-4.63,4.64H33.69a2.57,2.57,0,0,0,.18.37c.93,1.5,1.87,3,2.78,4.48a.67.67,0,0,0,.66.34,31.79,31.79,0,0,1,3.24.1,4.24,4.24,0,0,1,3.63,4.17.85.85,0,0,1-.8.93,3.51,3.51,0,0,1-.56,0H9.16a4,4,0,0,1-.6,0,.82.82,0,0,1-.75-.87,4.26,4.26,0,0,1,3.59-4.22,31.79,31.79,0,0,1,3.24-.1.74.74,0,0,0,.73-.39c.88-1.46,1.8-2.9,2.7-4.34.08-.13.15-.26.26-.46h-.61c-4.35,0-8.7,0-13,0A4.45,4.45,0,0,1,.08,32.89.35.35,0,0,0,0,32.76ZM17.21,41.58H34.76c-.06-.11-.08-.19-.12-.25-1-1.55-1.93-3.11-2.92-4.64a.77.77,0,0,0-.57-.26c-3.44,0-6.87,0-10.3,0a.7.7,0,0,0-.68.39c-.81,1.33-1.64,2.64-2.47,4Zm25,3.46c0-.12-.07-.2-.1-.27a2.73,2.73,0,0,0-2.66-1.42h-27a6.11,6.11,0,0,0-.86.06A2.24,2.24,0,0,0,9.81,45Z"/><path class="cls-2" d="M35.54,24.26H38.7l.29,0c0-.66,0-1.3,0-1.94a1,1,0,0,1,.62-1.05,14.58,14.58,0,0,0,1.31-.78,1,1,0,0,1,1.14,0c.82.47,1.64.93,2.46,1.42A.88.88,0,0,1,45,23.11a.9.9,0,0,1-1.33.22l-1.75-1a.84.84,0,0,0-1.16.66c0,.67,0,1.35,0,2s-.32,1-1,1.05c-1.63,0-3.25,0-4.88,0a.91.91,0,0,1-1-1c0-.65,0-1.29,0-1.93a.83.83,0,0,0-1.28-.72l-1.64.92a.92.92,0,0,1-1.41-.38Q28.24,20.8,27,18.68a.92.92,0,0,1,.42-1.44c.56-.33,1.14-.64,1.71-1a.8.8,0,0,0,0-1.28c-.59-.34-1.18-.66-1.77-1A.92.92,0,0,1,27,12.53q1.21-2.14,2.46-4.26a.9.9,0,0,1,1.41-.37c.59.33,1.16.69,1.74,1a.83.83,0,0,0,1.17-.68c0-.67,0-1.35,0-2s.31-1,1-1q2.46,0,4.92,0c.71,0,1,.32,1,1s0,1.25,0,1.88c0,.43.2.57.5.77a.6.6,0,0,0,.77,0c.53-.33,1.07-.65,1.61-1A.91.91,0,0,1,45,8.29q1.24,2.12,2.46,4.26A.91.91,0,0,1,47.09,14c-.55.33-1.12.64-1.67,1a.8.8,0,0,0,0,1.37c.56.32,1.12.63,1.67,1a.89.89,0,0,1,.44,1.24.88.88,0,0,1-1.32.26c-.81-.45-1.61-.93-2.41-1.39a1,1,0,0,1-.56-1,13.71,13.71,0,0,0,0-1.57,1,1,0,0,1,.59-1l1.78-1-1.72-3c-.59.34-1.16.64-1.7,1a1.13,1.13,0,0,1-1.4-.05A10.56,10.56,0,0,0,39.58,10a1,1,0,0,1-.59-1c0-.67,0-1.35,0-2.06H35.54c0,.65,0,1.31,0,2a1.1,1.1,0,0,1-.68,1.13,13.48,13.48,0,0,0-1.26.75,1,1,0,0,1-1.14,0L30.62,9.83l-1.72,3c.61.35,1.17.7,1.75,1A1.07,1.07,0,0,1,31.27,15a8.18,8.18,0,0,0,0,1.31,1.12,1.12,0,0,1-.69,1.22c-.56.29-1.09.61-1.68.93l1.72,3c.61-.35,1.19-.66,1.74-1a1.08,1.08,0,0,1,1.32.05,7.24,7.24,0,0,0,1.17.7,1.08,1.08,0,0,1,.69,1.12C35.52,22.92,35.54,23.56,35.54,24.26Z"/><path class="cls-2" d="M19.54,19.42,20.4,18c-.3-.18-.59-.36-.88-.52a1,1,0,0,1-.54-1,11,11,0,0,0,0-1.52,1.08,1.08,0,0,1,.67-1.18c.25-.11.47-.26.74-.41l-.84-1.48c-.29.17-.56.31-.81.47a1,1,0,0,1-1.27,0,9.86,9.86,0,0,0-1.22-.7,1.06,1.06,0,0,1-.67-1V9.61H13.94a.71.71,0,0,0,0,.16c.16,1.05-.34,1.56-1.25,2.12a2,2,0,0,1-2.63,0l-.1,0c-.13.22-.28.46-.42.71s-.27.46-.42.74l.89.52a1,1,0,0,1,.53,1,9.63,9.63,0,0,0,0,1.52,1,1,0,0,1-.64,1.14c-.24.11-.47.25-.76.41l.42.76.43.73c.3-.18.58-.33.85-.5a1,1,0,0,1,1.18,0,12.23,12.23,0,0,0,1.32.76,1,1,0,0,1,.61,1c0,.59,0,1.19,0,1.78s-.36,1-.86,1-.87-.36-.91-1c0-.24,0-.48,0-.71,0-.87-.6-1.22-1.34-.79-1.47.84-1.55.82-2.39-.63L7.27,18.35c-.49-.85-.39-1.22.48-1.73.13-.07.25-.16.39-.22a.76.76,0,0,0,.52-.86.63.63,0,0,0-.39-.63,6.18,6.18,0,0,1-.83-.48.85.85,0,0,1-.33-1.23c.54-1,1.11-2,1.69-2.94A.86.86,0,0,1,10,9.92a3.25,3.25,0,0,1,.7.4.77.77,0,0,0,1.12,0,.76.76,0,0,0,.25-.43c0-.35,0-.71,0-1.06a.91.91,0,0,1,1-1c1.09,0,2.17,0,3.25,0a.92.92,0,0,1,1,1,3.36,3.36,0,0,1,0,.71.76.76,0,0,0,.59,1,.83.83,0,0,0,.54,0c.31-.13.58-.33.88-.49a.89.89,0,0,1,1.32.33c.57,1,1.13,1.92,1.67,2.89A.9.9,0,0,1,22,14.45a3.58,3.58,0,0,1-.66.37.76.76,0,0,0-.52,1,.75.75,0,0,0,.25.43c.3.22.65.37,1,.57A.86.86,0,0,1,22.36,18c-.55,1-1.11,2-1.7,2.94a.87.87,0,0,1-1.27.33,4,4,0,0,1-.66-.39.75.75,0,0,0-1.08,0,.91.91,0,0,0-.29.51c0,.33,0,.67,0,1a.89.89,0,0,1-.85.95.84.84,0,0,1-.89-.89c0-.65,0-1.29,0-1.93a.94.94,0,0,1,.6-.87,8.3,8.3,0,0,0,1.23-.7A1.08,1.08,0,0,1,18.77,19C19,19.13,19.26,19.26,19.54,19.42Z"/><path class="cls-2" d="M37.26,19.08a3.47,3.47,0,1,1,3.46-3.43A3.43,3.43,0,0,1,37.26,19.08Zm0-1.75A1.74,1.74,0,0,0,39,15.64a1.79,1.79,0,0,0-1.75-1.75,1.75,1.75,0,0,0-1.7,1.74A1.71,1.71,0,0,0,37.25,17.33Z"/><path class="cls-2" d="M14.8,13a2.61,2.61,0,1,1-.17,5.21,2.65,2.65,0,0,1-2.51-2.67A2.62,2.62,0,0,1,14.8,13Zm-.05,3.43a.84.84,0,1,0-.85-.8A.81.81,0,0,0,14.75,16.45Z"/><path class="cls-2" d="M25.52,3.39c1,.17,2.06.33,3.08.53.71.14,1,.56.85,1.12s-.6.75-1.26.57a10,10,0,0,0-3.81-.3A9.73,9.73,0,0,0,20.93,6.4c-1,.52-1.47.52-1.76,0s-.05-1,.95-1.5A12.62,12.62,0,0,1,25.52,3.39Z"/><path class="cls-2" d="M25.74,26a12.1,12.1,0,0,1-6-1.6,3.14,3.14,0,0,1-.31-.18.89.89,0,0,1-.27-1.13.83.83,0,0,1,1.1-.34c.65.28,1.27.62,1.93.87a9.34,9.34,0,0,0,5.18.42c.1,0,.2,0,.3,0a.87.87,0,0,1,.95.73.82.82,0,0,1-.68,1C27.09,25.89,26.21,26,25.74,26Z"/><path class="cls-1" d="M41.6,32.1a.92.92,0,0,1-.9.86.88.88,0,0,1-.83-.91.83.83,0,0,1,.86-.81A.87.87,0,0,1,41.6,32.1Z"/><path class="cls-2" d="M45.06,32.07a.91.91,0,0,1-.86.89.87.87,0,0,1-.86-.83.82.82,0,0,1,.82-.89A.86.86,0,0,1,45.06,32.07Z"/></g></g></svg>