<svg xmlns="http://www.w3.org/2000/svg" viewBox="0 0 46.24 46.22"><defs><style>.cls-1{fill:#34a0a4;}</style></defs><g id="Layer_2" data-name="Layer 2"><g id="Layer_1-2" data-name="Layer 1"><path class="cls-1" d="M17,35.44H2.59A2.34,2.34,0,0,1,0,32.83V27.3a2.35,2.35,0,0,1,2.63-2.65h.41V23.11c-.26,0-.53,0-.8,0A2.29,2.29,0,0,1,0,20.85c0-2.09,0-4.17,0-6.26a2.29,2.29,0,0,1,2.23-2.26h.8V10.79h-.8A2.3,2.3,0,0,1,0,8.52C0,6.44,0,4.35,0,2.27A2.28,2.28,0,0,1,2.3,0C3.36,0,4.42,0,5.48,0H29.74a2.35,2.35,0,0,1,2.62,2.62V8.2a2.35,2.35,0,0,1-2.6,2.59h-.45v1.54h.77a2.19,2.19,0,0,1,2,1.19.61.61,0,0,0,.62.37,33.78,33.78,0,0,1,9.54,1.35A14.11,14.11,0,0,1,45,16.56a2.49,2.49,0,0,1,1.23,2.34q0,11.15,0,22.29A2.69,2.69,0,0,1,45,43.55a11.53,11.53,0,0,1-4.21,1.7,41.56,41.56,0,0,1-11.23.92A32.47,32.47,0,0,1,21.32,45a15.67,15.67,0,0,1-2.86-1.22A2.73,2.73,0,0,1,16.93,41c.08-1.67,0-3.34,0-5Zm1.54-7c0,1.72,0,3.38,0,5.05a1.15,1.15,0,0,0,.67,1.21,25.06,25.06,0,0,0,3.06,1.23,30.21,30.21,0,0,0,7.27,1,40,40,0,0,0,10.8-.83,11.09,11.09,0,0,0,3.84-1.47,1.14,1.14,0,0,0,.57-1.08c0-1.57,0-3.14,0-4.71,0-.13,0-.26,0-.43a18.65,18.65,0,0,1-6.41,1.94,44.29,44.29,0,0,1-9.83.37C25,30.46,21.65,30.05,18.49,28.41Zm26.19-7.62c-1,.37-1.91.78-2.87,1.07a26.63,26.63,0,0,1-2.94.67,44.78,44.78,0,0,1-10.6.47A30.09,30.09,0,0,1,21,21.76c-.86-.28-1.68-.65-2.55-1,0,1.68,0,3.38,0,5.07a1,1,0,0,0,.59,1.07,22.85,22.85,0,0,0,3.13,1.28,34.46,34.46,0,0,0,9.43,1.08,33.83,33.83,0,0,0,9.66-1.16,17.89,17.89,0,0,0,2.85-1.23,1.13,1.13,0,0,0,.52-.79C44.7,24.31,44.68,22.54,44.68,20.79Zm0,15.39c-.88.34-1.71.73-2.58,1a32.25,32.25,0,0,1-8.62,1.3,39.77,39.77,0,0,1-11-.93c-1.33-.33-2.63-.86-4-1.3v.37c0,1.51,0,3,0,4.52a1.2,1.2,0,0,0,.69,1.25,22.38,22.38,0,0,0,3,1.21,35.37,35.37,0,0,0,9.72,1.07,33.54,33.54,0,0,0,9.41-1.16,17.05,17.05,0,0,0,2.81-1.22,1.14,1.14,0,0,0,.53-.83C44.71,39.7,44.68,37.93,44.68,36.18ZM16.16,9.25H29.78c.79,0,1-.25,1-1V2.53c0-.72-.27-1-1-1q-13.65,0-27.3,0c-.72,0-1,.26-1,1V8.12c0,.91.21,1.13,1.13,1.13ZM31.52,15.4a35.08,35.08,0,0,0-9.64,1.18,13.66,13.66,0,0,0-2.81,1.2c-.79.44-.77.93,0,1.42a9.56,9.56,0,0,0,1.63.82,26,26,0,0,0,7.05,1.39,42.45,42.45,0,0,0,12.06-.62,11.91,11.91,0,0,0,4.27-1.54c.82-.54.86-1,0-1.5A15.28,15.28,0,0,0,41,16.5,35.33,35.33,0,0,0,31.52,15.4Zm-2.19-1.61v.08H2.54c-.73,0-1,.26-1,1v5.58c0,.93.21,1.14,1.12,1.14H17c0-1,0-1.9,0-2.82a2.25,2.25,0,0,1,.84-1.9A4.68,4.68,0,0,1,19.07,16a23.87,23.87,0,0,1,3.72-1.24C25,14.34,27.15,14.11,29.33,13.79ZM16.93,26.22l-.19,0H2.45c-.62,0-.9.28-.9.92v5.67c0,.88.22,1.11,1.11,1.11H16.93Zm6.16-15.4H9.27V12.3H23.09ZM16.93,23.14H9.29v1.49h7.64ZM7.69,10.82h-3V12.3h3Zm0,13.81V23.14h-3v1.49Zm17-12.34h3V10.81h-3Z"/><path class="cls-1" d="M32.34,33.93v1.48H30.86V33.93Z"/><path class="cls-1" d="M32.32,26.94H30.85V25.45h1.47Z"/><path class="cls-1" d="M32.34,42.35H30.85V40.86h1.49Z"/><path class="cls-1" d="M5.45,3.09H6.89a.76.76,0,0,1,.82.81c0,1,0,2,0,3a.75.75,0,0,1-.82.81c-1,0-2,0-3,0a.75.75,0,0,1-.82-.81c0-1,0-2,0-3a.75.75,0,0,1,.82-.81Zm.69,3.05V4.66H4.66V6.14Z"/><path class="cls-1" d="M9.25,5.4c0-.5,0-1,0-1.49a.76.76,0,0,1,.81-.82h3a.76.76,0,0,1,.82.81c0,1,0,2,0,3a.75.75,0,0,1-.81.82c-1,0-2,0-3,0a.76.76,0,0,1-.82-.85C9.24,6.36,9.25,5.88,9.25,5.4Zm1.58-.76v1.5H12.3V4.64Z"/><path class="cls-1" d="M15.43,4.59V3.11H26.17V4.59Z"/><path class="cls-1" d="M26.18,6.2V7.68H15.44V6.2Z"/><path class="cls-1" d="M29.25,4.6H27.77V3.12h1.48Z"/><path class="cls-1" d="M27.76,7.68V6.2h1.49V7.68Z"/><path class="cls-1" d="M11.59,15.41H13a.78.78,0,0,1,.88.85q0,1.47,0,2.94A.77.77,0,0,1,13,20H10.08a.77.77,0,0,1-.83-.85c0-1,0-2,0-2.94a.76.76,0,0,1,.84-.83Zm.72,3.06V17H10.82v1.49Z"/><path class="cls-1" d="M5.37,20H4a.78.78,0,0,1-.88-.85q0-1.47,0-2.94a.77.77,0,0,1,.85-.83H6.88a.77.77,0,0,1,.83.85q0,1.47,0,2.94a.77.77,0,0,1-.85.83Zm.77-1.56V17H4.65v1.48Z"/><path class="cls-1" d="M5.4,27.73c.5,0,1,0,1.49,0a.76.76,0,0,1,.82.81c0,1,0,2,0,3a.76.76,0,0,1-.82.81h-3a.76.76,0,0,1-.82-.82c0-1,0-2,0-3a.76.76,0,0,1,.82-.81C4.41,27.72,4.9,27.73,5.4,27.73Zm-.74,1.56v1.49H6.14V29.29Z"/><path class="cls-1" d="M13.87,30.06c0,.46,0,.93,0,1.4s-.29.89-.88.89H10.15a.79.79,0,0,1-.9-.88c0-.94,0-1.89,0-2.84,0-.6.29-.89.88-.89H13c.62,0,.89.29.9.92C13.88,29.13,13.87,29.59,13.87,30.06Zm-3.06.72h1.48V29.3H10.81Z"/></g></g></svg>