<svg xmlns="http://www.w3.org/2000/svg" viewBox="0 0 50.92 47.75"><defs><style>.cls-1{fill:#48494a;}.cls-2{fill:#f57f20;}</style></defs><g id="Layer_2" data-name="Layer 2"><g id="Layer_1-2" data-name="Layer 1"><path class="cls-1" d="M46.16,0Q25.48,0,4.79,0A4.62,4.62,0,0,0,.07,3.71,1.34,1.34,0,0,1,0,3.89v31a12,12,0,0,0,.85,2A4.28,4.28,0,0,0,4.59,38.8H17.41c-.52,1.57-1,3.09-1.53,4.6-.15.46-.21,1.06-.53,1.3s-.89.07-1.35.07H10.62a1.49,1.49,0,1,0,0,3H40.33a1.49,1.49,0,1,0,0-3H35.88c-.22,0-.39,0-.48-.29-.6-1.84-1.22-3.67-1.82-5.51a.59.59,0,0,1,0-.18H46.19a4.48,4.48,0,0,0,4.73-4.73V4.78A4.48,4.48,0,0,0,46.16,0ZM3,29.3V4.83C3,3.55,3.55,3,4.84,3H46.07c1.32,0,1.87.55,1.87,1.86v25H41.87v-.2a2.36,2.36,0,0,1-.78.13l-.17,0a2.35,2.35,0,0,1-.86.15,2.44,2.44,0,0,1-1.19-.3v.24H32.81c0-.05,0-.1,0-.15a2.61,2.61,0,0,1-.64.08,2.65,2.65,0,0,1-.58-.06,2.55,2.55,0,0,1-1.93,0c-.08.14-.21.17-.41.17H25.44c-1.24,0-2.49,0-3.73,0a.46.46,0,0,1-.5-.24,1.9,1.9,0,0,1-.25,0,2.32,2.32,0,0,1-1.16.29,2.43,2.43,0,0,1-1-.19,2.65,2.65,0,0,1-.58.06h-.14s0,.06,0,.09H12.06V29.7a2.78,2.78,0,0,1-.52.05,2.48,2.48,0,0,1-.68-.1,2.22,2.22,0,0,1-1,.23,2.61,2.61,0,0,1-.82-.14v.09H3ZM18.6,44.76c.64-1.94,1.27-3.84,1.91-5.73a.49.49,0,0,1,.37-.22q4.57,0,9.14,0c.13,0,.35.1.38.2.65,1.9,1.28,3.81,1.93,5.75Zm29.23-10a1.36,1.36,0,0,1-1.28,1,5,5,0,0,1-.55,0H4.92c-1.42,0-1.94-.52-1.94-2v-1H48A15.57,15.57,0,0,1,47.83,34.8Z"/><path class="cls-2" d="M40.37,14.93a4.48,4.48,0,1,1,4.49-4.43A4.49,4.49,0,0,1,40.37,14.93Zm1.5-4.43A1.49,1.49,0,1,0,40.34,12,1.53,1.53,0,0,0,41.87,10.5Z"/><path class="cls-2" d="M42.1,30l.23-.07v-.14h-.46V28.45c0-1,0-2,0-3a1.46,1.46,0,0,0-1.53-1.53c-.63,0-1.26,0-1.89,0a.46.46,0,0,1-.51-.34c-.39-.93-.4-.93.32-1.65.3-.3.6-.58.88-.88a1.47,1.47,0,0,0,0-2.18Q37.08,16.73,35,14.66a1.46,1.46,0,0,0-2.14,0c-.46.43-.91.87-1.34,1.33a.47.47,0,0,1-.64.13c-.91-.39-.91-.38-.91-1.37,0-.45,0-.9,0-1.35A1.44,1.44,0,0,0,28.48,12c-2,0-4,0-6,0A1.45,1.45,0,0,0,21,13.44q0,.95,0,1.89a.49.49,0,0,1-.35.56c-.92.38-.91.4-1.61-.3-.32-.32-.63-.64-1-.95a1.46,1.46,0,0,0-2.1,0q-2.13,2.08-4.22,4.21a1.46,1.46,0,0,0,0,2.14c.43.45.86.88,1.31,1.3a.54.54,0,0,1,.15.69c-.39.89-.38.9-1.33.9-.45,0-.9,0-1.35,0A1.46,1.46,0,0,0,9.06,25.4c0,1.46,0,2.92,0,4.43H8.64c0,.11.06.21.08.31a4.66,4.66,0,0,1,1-.13c.92,0,1.83,0,2.74.09,0-.09.07-.18.12-.27h-.54v-3h1.66a1.6,1.6,0,0,0,1.73-1.26c.3-.81.64-1.62,1-2.41a1.58,1.58,0,0,0-.33-2.07c-.39-.39-.79-.76-1.14-1.1l2.15-2.15c.32.34.69.74,1.07,1.12a1.57,1.57,0,0,0,2.1.35c.8-.37,1.6-.71,2.42-1A1.58,1.58,0,0,0,24,16.6V15h3v1.61a1.57,1.57,0,0,0,1.26,1.76c.8.3,1.59.63,2.37,1A1.59,1.59,0,0,0,32.7,19c.39-.38.76-.79,1.1-1.14L36,20c-.37.35-.79.72-1.18,1.12a1.55,1.55,0,0,0-.32,2c.37.82.72,1.66,1,2.51a1.56,1.56,0,0,0,1.68,1.18h1.69v2.95h-.49s0,.05,0,.07H41A4.49,4.49,0,0,1,42.1,30Z"/><path class="cls-2" d="M33,29.82h-.16a7.43,7.43,0,0,0-2.59-7.19A7.06,7.06,0,0,0,25,20.92a7.19,7.19,0,0,0-5.43,2.91,7.39,7.39,0,0,0-1.42,6h-.3c0,.06,0,.11,0,.17h.29l3.71,0,0-.11h-.19c-.33,0-.48-.07-.57-.42a4.45,4.45,0,1,1,8.63,0c-.08.32-.22.38-.5.38h-.59s0,.05,0,.07l4.26,0A.29.29,0,0,1,33,29.82Z"/></g></g></svg>