<svg xmlns="http://www.w3.org/2000/svg" viewBox="0 0 49.29 49.28"><defs><style>.cls-1{fill:#48494a;}.cls-2{fill:#f57f20;}</style></defs><g id="Layer_2" data-name="Layer 2"><g id="Layer_1-2" data-name="Layer 1"><path class="cls-1" d="M46,0A4.39,4.39,0,0,1,48.4,1.41a3.7,3.7,0,0,1,.87,2.34c0,3.79,0,7.58,0,11.36a3.8,3.8,0,0,1-3.9,3.75c-3.19,0-6.38,0-9.58,0h-.57c0,1,0,1.89,0,2.82A2.29,2.29,0,0,1,33.42,24a3.13,3.13,0,0,1-.81.07H14.28a1.08,1.08,0,0,0-.84.35c-1,1.05-2.06,2.07-3.09,3.11a1.1,1.1,0,0,1-1.28.38,1.11,1.11,0,0,1-.59-1.17c0-.86,0-1.73,0-2.66-.35,0-.68,0-1,0A2.29,2.29,0,0,1,5.2,21.79q0-7.63,0-15.26A2.28,2.28,0,0,1,7.59,4.24h16a9.2,9.2,0,0,1,.19-1.34A3.78,3.78,0,0,1,26.59.12L27,0ZM36.5,1.92H27.94A2,2,0,0,0,25.6,4.24V14.63c0,1.58.74,2.31,2.34,2.31H45c1.6,0,2.34-.73,2.34-2.31V4.24A2,2,0,0,0,45,1.92ZM10.44,24.52l.15.08c.2-.23.42-.44.59-.68,1.07-1.51,2.5-1.86,4.32-1.82,5.63.12,11.26,0,16.89,0,.14,0,.31.05.43,0s.43-.26.43-.4c0-.94,0-1.88,0-2.87H32.7c-1.65,0-3.3,0-5,0a3.85,3.85,0,0,1-4.07-4.07V6.21l-.15,0H7.66c-.39,0-.54.2-.54.57V21.55c0,.44.2.6.62.59s1,0,1.49,0c.85,0,1.19.34,1.21,1.19Z"/><path class="cls-1" d="M0,36.19a7,7,0,0,1,1.2-2.63,5.44,5.44,0,0,1,4.21-2.07c1.69,0,3.37,0,5.06,0a2.11,2.11,0,0,0,.74-.14L27,25l.31-.12a1,1,0,0,1,1.46,1c0,2.15,0,4.3,0,6.44a.54.54,0,0,0,.45.64,4.32,4.32,0,0,1,0,8.18l-.43.16v6.83c0,1-.6,1.42-1.55,1L12.67,43.28,12.05,43c0,.2,0,.35,0,.5V48.1c0,.82-.37,1.18-1.18,1.18H7.34c-.82,0-1.17-.35-1.18-1.17V42.6a13.29,13.29,0,0,1-1.84-.2A5.45,5.45,0,0,1,.1,38.08a1.86,1.86,0,0,0-.1-.25ZM26.84,46.87V27.14c-.62.25-1.2.51-1.8.71a.73.73,0,0,0-.57.83c0,3.17,0,6.35,0,9.52,0,.75-.39,1.18-1,1.16s-.94-.45-.95-1.16c0-.11,0-.22,0-.34v-9L22.3,29c-3.32,1.34-6.64,2.69-10,4-.31.13-.3.32-.3.56,0,2.31,0,4.62,0,6.93a.59.59,0,0,0,.46.65l13,5.22ZM10.06,40.54V33.48c-1.71,0-3.38-.08-5,0a3.54,3.54,0,0,0,0,7C6.68,40.62,8.35,40.54,10.06,40.54Zm0,2h-2v4.76h2ZM28.8,39.14a2.3,2.3,0,0,0,1.42-2.24,2.21,2.21,0,0,0-1.42-2Z"/><path class="cls-2" d="M38.63,36.07h2.54c.71,0,1.13.38,1.12,1s-.44,1-1.15,1c-1.7,0-3.39,0-5.09,0A1,1,0,0,1,35,37.26a.93.93,0,0,1,.51-1.08,1.82,1.82,0,0,1,.66-.1Z"/><path class="cls-2" d="M34.23,41.26a4.65,4.65,0,0,1,.83.46c.61.58,1.21,1.19,1.8,1.8A1,1,0,0,1,36.93,45a1,1,0,0,1-1.45-.1c-.62-.61-1.23-1.22-1.83-1.84a.84.84,0,0,1-.18-1.09A3.4,3.4,0,0,1,34.23,41.26Z"/><path class="cls-2" d="M34.19,32.62a4,4,0,0,1-.71-.59.75.75,0,0,1,.05-1c.69-.73,1.4-1.45,2.14-2.13a.89.89,0,0,1,1.18.09A.87.87,0,0,1,37,30.23c-.68.74-1.41,1.44-2.13,2.14A2.28,2.28,0,0,1,34.19,32.62Z"/><path class="cls-2" d="M32.32,9.42c0-1.19,0-2.37,0-3.56S33,4.37,34,4.91l6.15,3.56c.95.55,1,1.38,0,1.92L34,14c-.92.53-1.63.12-1.64-.94S32.32,10.62,32.32,9.42Zm2-2.08v4.19l3.63-2.1Z"/><path class="cls-2" d="M15.79,12H11.23c-.73,0-1.18-.39-1.17-1s.45-.94,1.16-.94h9.22c.73,0,1.18.38,1.17,1s-.45.94-1.16.94Z"/><path class="cls-2" d="M14,17.42H11.19c-.69,0-1.14-.39-1.13-1s.45-.95,1.15-.95h5.66c.7,0,1.13.38,1.12,1s-.43,1-1.14,1Z"/><path class="cls-2" d="M20.66,15.5a1,1,0,1,1-1,.93A1,1,0,0,1,20.66,15.5Z"/><path class="cls-2" d="M24.46,42.33a1,1,0,0,1-1,1,1,1,0,0,1-.95-1,1,1,0,0,1,1-1A1,1,0,0,1,24.46,42.33Z"/></g></g></svg>