<svg xmlns="http://www.w3.org/2000/svg" viewBox="0 0 51.06 49.97"><defs><style>.cls-1{fill:#48494a;}.cls-2{fill:#f57f20;}</style></defs><g id="Layer_2" data-name="Layer 2"><g id="Layer_1-2" data-name="Layer 1"><path class="cls-1" d="M51.06,45.82a12.23,12.23,0,0,1-1,2.23A4.81,4.81,0,0,1,45.81,50H5.28a5.06,5.06,0,0,1-4.12-1.74,4.61,4.61,0,0,1-1.16-3V43.53a.76.76,0,0,1,.82-.85c.39,0,.79,0,1.25,0V42q0-12.93,0-25.87a3.52,3.52,0,0,1,1.81-3.37,5.75,5.75,0,0,1,1.85-.49,9.82,9.82,0,0,1,1.53,0,9.13,9.13,0,0,1-.12-1.7A3,3,0,0,1,8.85,8.17l8-4.21C18.86,2.87,20.92,1.79,23,.69a5.14,5.14,0,0,1,5.09,0c.6.32,1.21.64,1.8,1a.78.78,0,0,1,.42,1.07A.78.78,0,0,1,29.15,3L27.3,2a3.58,3.58,0,0,0-3.53,0L9.53,9.52a1.55,1.55,0,0,0,0,2.82l14.34,7.59A3.38,3.38,0,0,0,27.1,20c1.21-.61,2.41-1.26,3.67-1.92l-1.69-1.93c-1.29-1.47-2.58-2.95-3.88-4.42a1.86,1.86,0,0,1-.22-.27A.75.75,0,0,1,25,10.37a.76.76,0,0,1,1.07.09c.6.66,1.19,1.34,1.78,2l3.91,4.46.36.38,4.05-2.14c1.73-.92,3.45-1.85,5.19-2.75a1.59,1.59,0,0,0,0-3L32.06,4.51c-.36-.19-.65-.43-.59-.88s.64-.8,1.23-.49c1.37.71,2.73,1.44,4.1,2.16l4.92,2.61c2.06,1.09,2.51,2,2,4.28.76,0,1.53,0,2.28.13A3.47,3.47,0,0,1,49,15.59c0,.25,0,.5,0,.75V42.61c.72.2,1.55-.22,2.07.52Zm-3.58-3.18V42c0-8.61,0-17.22,0-25.83a2.32,2.32,0,0,0-2.44-2.48,8.66,8.66,0,0,0-5.59,1.43,9.17,9.17,0,0,1-.87.48c2,.09,3.89.09,5.82.09.85,0,1.08.23,1.08,1.1V39.6c0,.9-.22,1.11-1.12,1.11H13.62a2.07,2.07,0,0,1-.5,0A.73.73,0,0,1,12.5,40a.7.7,0,0,1,.66-.74,4.72,4.72,0,0,1,.65,0H44V17.3H37.3c0,.85,0,1.67,0,2.48a7.84,7.84,0,0,1,0,1.19,6.93,6.93,0,0,1-4.2,5.54c-.12,0-.32.17-.31.25A4.58,4.58,0,0,0,33,28.34c.35.82.89,1.56,1.31,2.35A2.25,2.25,0,0,1,32.81,34a4.48,4.48,0,0,1-1,.06,2.26,2.26,0,0,1-2-3.49c.39-.7.83-1.37,1.18-2.08a8.1,8.1,0,0,0,.42-1.31l-.59.12A20.12,20.12,0,0,1,19,26.9a7.18,7.18,0,0,1-5.24-7.35c0-.75,0-1.49,0-2.26H7.1V39.18h3c.41,0,.76.14.86.6s-.24.93-.86.93H6.58c-.77,0-1-.24-1-1V16.76c0-.8.24-1,1-1H12l.54,0c-1.94-1.12-3.75-2.35-6.08-1.93a4,4,0,0,1-.6,0,2.07,2.07,0,0,0-2.27,2.29V42.64Zm2.05,1.59-.22,0H32.07c-.31,0-.38.13-.47.38a3.24,3.24,0,0,1-3,2.43,60.47,60.47,0,0,1-6.17,0,3.3,3.3,0,0,1-3-2.46l-.12-.33H1.54a3.48,3.48,0,0,0,3.59,4.22c1.54-.08,3.09,0,4.64,0h36a5.15,5.15,0,0,0,1.47-.17C48.9,47.73,49.72,46.25,49.53,44.23ZM15.26,17.1c0,1.16-.06,2.22,0,3.28a5.2,5.2,0,0,0,3.31,4.71,17.78,17.78,0,0,0,12.22.62c.34-.1.42-.26.42-.59,0-1.69,0-3.39,0-5.08,0-.14,0-.28,0-.49l-3.08,1.62a5.07,5.07,0,0,1-5.17,0c-1.4-.76-2.81-1.5-4.22-2.24Zm20.64.1-.19-.05c-.88.46-1.75.94-2.63,1.39a.57.57,0,0,0-.38.6c0,1.81,0,3.63,0,5.44,0,.12,0,.24,0,.4a4.94,4.94,0,0,0,2.82-3.48A38.52,38.52,0,0,0,35.9,17.2ZM21,44.23a1.79,1.79,0,0,0,1.65,1.3c1.93,0,3.85,0,5.78,0a1.78,1.78,0,0,0,1.65-1.3Zm11-14.5c-.35.61-.69,1.15-1,1.73a.74.74,0,0,0,.62,1.09,2.73,2.73,0,0,0,.7,0,.75.75,0,0,0,.62-1.13C32.64,30.86,32.31,30.33,32,29.73Z"/><path class="cls-2" d="M17.54,37.22H10.36a1.94,1.94,0,0,1-.54,0,.74.74,0,0,1,.07-1.44,3.27,3.27,0,0,1,.54,0h14.2a2.41,2.41,0,0,1,.54.05.67.67,0,0,1,.58.65.69.69,0,0,1-.5.77,2.37,2.37,0,0,1-.59.06Z"/><path class="cls-2" d="M15,32.56c1.64,0,3.28,0,4.93,0,.69,0,1.1.61.74,1.12A1,1,0,0,1,20,34q-4.92,0-9.86,0a.75.75,0,1,1,0-1.49Z"/></g></g></svg>