<svg xmlns="http://www.w3.org/2000/svg" viewBox="0 0 155.49 146.43"><defs><style>.cls-1{fill:#f57f20;}</style></defs><g id="Layer_2" data-name="Layer 2"><g id="Layer_1-2" data-name="Layer 1"><path d="M0,29.16c1-2.39,2.51-4.35,5.37-4.94A12.72,12.72,0,0,1,7.92,24h49v-4.3H37.43c-2.34,0-3.08-.7-3.1-2.9,0-.43,0-.86,0-1.28.17-1.76-.07-3.09-2-4.22a5.65,5.65,0,0,1-2.12-7.14A6.84,6.84,0,0,1,37,0a6.68,6.68,0,0,1,6.2,4.66,6.15,6.15,0,0,1-2.65,7c-1.85,1.22-1.85,1.22-1.45,3.73H58.6c2.25,0,3,.72,3,2.81,0,1.85,0,3.71,0,5.67H75.39c0-3.67,0-7.28,0-10.89,0-.4-.79-.86-1.29-1.17a6.29,6.29,0,0,1-2.87-7.24A7,7,0,0,1,84.25,4.5,6.09,6.09,0,0,1,81.15,12a1.73,1.73,0,0,0-1.08,1.79c.05,3.37,0,6.74,0,10.19H93.86V18.66c0-2.61.63-3.22,3.35-3.22h19.11c.63-2.08.45-2.58-1.24-3.65a6.17,6.17,0,0,1-2.72-7.27,6.93,6.93,0,0,1,13.08.22,6,6,0,0,1-3,7.13,2,2,0,0,0-1.28,2.25,30,30,0,0,1,0,3c0,1.82-.86,2.59-2.8,2.6q-9,0-18.07,0H98.53V24c2.67,0,5.29-.05,7.9,0a3.14,3.14,0,0,1,2.13.76,2.42,2.42,0,0,1,.31,2.2,2.76,2.76,0,0,1-2,1.22c-2.22.16-4.45.06-6.68.06H98.51v4.3H143.1c2.66,0,3.28.6,3.28,3.13v72.36c0,2.6-.6,3.16-3.41,3.16H12.53c-2.85,0-3.41-.55-3.41-3.29,0-2.34,0-4.67,0-7a2.28,2.28,0,1,1,4.54,0c0,1.94,0,3.89,0,5.94H141.74V37H98.43a75.79,75.79,0,0,1-.06,7.84c-.29,2.72.56,4.31,3.43,5.14,2,.57,3.73,1.69,5.63,2.45a3.08,3.08,0,0,1,2.14,3.25c0,5.62,0,11.25,0,16.87,0,5.39,0,10.78,0,16.16a3.17,3.17,0,0,1-2.29,3.44c-1.23.44-2.36,1.08-3.57,1.56a2.37,2.37,0,0,1-3.23-1,1.94,1.94,0,0,1,1.3-2.88c2.87-.82,3.19-2.57,3.14-5-.16-8.24-.06-16.49-.06-24.74V58.32c-.5.16-.88.26-1.22.41q-11.2,5-22.42,10.07c-.76.34-1.16.7-1.15,1.57,0,9.3,0,18.59,0,27.89,0,.32.07.63.12,1.11.57-.23,1-.4,1.46-.6L92.35,94a10.5,10.5,0,0,1,1-.42,2.37,2.37,0,0,1,3.06,1.08,2,2,0,0,1-1.1,2.78c-1.33.68-2.72,1.26-4.08,1.87-3.83,1.73-7.68,3.42-11.47,5.19a4.25,4.25,0,0,1-3.88,0Q62,98.25,48.09,92.06a3.17,3.17,0,0,1-2.16-3.23q0-16.59,0-33.18a3.2,3.2,0,0,1,2.25-3.33c2.64-1.07,5.23-2.27,7.8-3.48.45-.22,1-.76,1-1.16.08-3.53,0-7,0-10.68H13.66V90.16c0,.43,0,.86,0,1.29a2.16,2.16,0,0,1-2.23,2.08,2.17,2.17,0,0,1-2.29-2c0-.43,0-.86,0-1.29V36c0-2.94.5-3.43,3.57-3.43H57V28.37c-.54,0-1-.07-1.52-.07H8.21c-2.88,0-3.66.75-3.66,3.51V112c0,2.77.78,3.52,3.66,3.52H147.3c2.83,0,3.64-.76,3.64-3.38V31.65c0-2.55-.83-3.35-3.52-3.35H117.81a12.34,12.34,0,0,1-1.36,0,2.11,2.11,0,0,1-2.09-2.08A2.14,2.14,0,0,1,116.51,24c.45,0,.91,0,1.36,0h29.92c4.88,0,7.7,2.66,7.7,7.28v81.23c0,4.68-2.81,7.3-7.83,7.3H99.26a16.67,16.67,0,0,0,2.43,7.48c.4.71.91,1.37,1.38,2.05,2,3,4.6,4.91,8.72,4.25a29.9,29.9,0,0,1,5,0c3.47,0,6.24,2.16,6.81,5.2.62,3.28-1.16,6.15-4.53,7.34a5.46,5.46,0,0,0-.64.32H37.05a2.43,2.43,0,0,0-.49-.29c-3.51-1.22-5.3-4-4.68-7.36.58-3.09,3.37-5.19,7-5.21a28.74,28.74,0,0,1,5,0c4.05.71,6.47-1.28,8.51-4.1a.94.94,0,0,1,.09-.12,18.25,18.25,0,0,0,3.83-9.56H7.91a12.78,12.78,0,0,1-2.55-.2C2.5,119,1,117.07,0,114.68ZM50.74,58.23a7.55,7.55,0,0,0-.1.81c0,9.44,0,18.88,0,28.31,0,.92.48,1.23,1.2,1.56Q62.9,93.86,74,98.85c.39.17.81.3,1.3.49a5.82,5.82,0,0,0,.13-.82c0-9.43,0-18.87,0-28.3,0-.87-.5-1.12-1.16-1.42-5.52-2.46-11-4.95-16.55-7.43Zm2.95-3.48c8,3.57,15.72,7.07,23.52,10.53a2.22,2.22,0,0,0,1.52-.17c3.34-1.46,6.65-3,10-4.47l13-5.86a6.22,6.22,0,0,0-.59-.4C93.61,51,86.1,47.61,78.56,44.3a2.89,2.89,0,0,0-2.07.17C69.37,47.62,62.28,50.83,55.18,54,54.73,54.23,54.29,54.46,53.69,54.75Zm40.49,65.14H61.31a64,64,0,0,1-2.3,7.17,62.27,62.27,0,0,1-3.79,6.38h45.05a60.54,60.54,0,0,1-3.78-6.37A64.88,64.88,0,0,1,94.18,119.89ZM77.75,142.15h38a4.06,4.06,0,0,0,2-.3A2.77,2.77,0,0,0,119,140a2.89,2.89,0,0,0-1.27-1.86,3.57,3.57,0,0,0-1.89-.28q-38.1,0-76.2,0A7,7,0,0,0,38,138a2,2,0,0,0,0,4,7.73,7.73,0,0,0,1.8.16Zm-16-105.21v9.3c4.45-2,8.81-4,13.15-5.94a1.06,1.06,0,0,0,.46-.79c.06-.84,0-1.68,0-2.57Zm32,9.28V37H80.26c-.51,3-.51,3,2.12,4.19l8.74,3.93C92,45.46,92.83,45.82,93.76,46.22ZM75.28,32.56V28.39H61.75v4.17Zm4.88-.05H93.74V28.4H80.16ZM36.83,4.33a2.26,2.26,0,0,0-2.4,1.91,2.21,2.21,0,0,0,2,2.28,2.29,2.29,0,0,0,2.42-1.91A2.24,2.24,0,0,0,36.83,4.33Zm84.26,2.05a2.24,2.24,0,0,0-4.47.09,2.33,2.33,0,0,0,2.29,2.08A2.3,2.3,0,0,0,121.09,6.38ZM77.71,4.32a2.16,2.16,0,0,0-2.14,2.14,2.18,2.18,0,0,0,4.36-.07A2.19,2.19,0,0,0,77.71,4.32Z"/><path d="M155.49,31.3c0-4.62-2.82-7.27-7.7-7.28H117.87c-.45,0-.91,0-1.36,0a2.14,2.14,0,0,0-2.15,2.16,2.11,2.11,0,0,0,2.09,2.08,12.34,12.34,0,0,0,1.36,0h29.61c2.69,0,3.52.8,3.52,3.35v80.52c0,2.62-.81,3.38-3.64,3.38H8.21c-2.88,0-3.66-.75-3.66-3.52V31.81c0-2.76.78-3.51,3.66-3.51H55c0-.13,0-.25,0-.38,0-1.3,0-2.61-.18-3.9H7.92a12.72,12.72,0,0,0-2.55.19C2.51,24.81,1,26.77,0,29.16v85.52c1,2.39,2.5,4.35,5.36,4.94a12.78,12.78,0,0,0,2.55.2H56.26a18.25,18.25,0,0,1-3.83,9.56.94.94,0,0,0-.09.12c-2,2.82-4.46,4.81-8.51,4.1a28.74,28.74,0,0,0-5,0c-3.58,0-6.37,2.12-6.95,5.21-.62,3.33,1.17,6.14,4.68,7.36a2.43,2.43,0,0,1,.49.29h81.39a5.46,5.46,0,0,1,.64-.32c3.37-1.19,5.15-4.06,4.53-7.34-.57-3-3.34-5.17-6.81-5.2a29.9,29.9,0,0,0-5,0c-4.12.66-6.69-1.25-8.72-4.25-.47-.68-1-1.34-1.38-2.05a16.67,16.67,0,0,1-2.43-7.48h48.4c5,0,7.83-2.62,7.83-7.3ZM115.85,137.86a3.57,3.57,0,0,1,1.89.28A2.89,2.89,0,0,1,119,140a2.77,2.77,0,0,1-1.27,1.84,4.06,4.06,0,0,1-2,.3H39.8A7.73,7.73,0,0,1,38,142a2,2,0,0,1,0-4,7,7,0,0,1,1.65-.16Q77.75,137.84,115.85,137.86Zm-15.58-4.42h-45A62.27,62.27,0,0,0,59,127.06a64,64,0,0,0,2.3-7.17H94.18a64.88,64.88,0,0,0,2.31,7.18A60.54,60.54,0,0,0,100.27,133.44Z"/><path d="M9.13,91.52a2.17,2.17,0,0,0,2.29,2,2.16,2.16,0,0,0,2.23-2.08c0-.43,0-.86,0-1.29V37H54.21c.17-1.47.36-2.93.51-4.4h-42c-3.07,0-3.57.49-3.57,3.43v54.2C9.12,90.66,9.09,91.09,9.13,91.52Z"/><path d="M72.47,28.39l.09-4.47H65.07a44.53,44.53,0,0,1,0,4.47Z"/><path d="M72.4,34.66c0-.7,0-1.4,0-2.1H64.7c-.15,1.51-.32,3-.48,4.38h8.7A4.92,4.92,0,0,1,72.4,34.66Z"/><path d="M106.9,28.24a2.76,2.76,0,0,0,2-1.22,2.42,2.42,0,0,0-.31-2.2,3.14,3.14,0,0,0-2.13-.76c-1.7-.06-3.41-.06-5.13,0a18.94,18.94,0,0,0,.12,4.3C103.25,28.33,105.08,28.37,106.9,28.24Z"/><path d="M91.47,27.84a38.83,38.83,0,0,1,0-3.89h-9l-.09,4.45h9C91.48,28.21,91.48,28,91.47,27.84Z"/><path d="M91.38,32.51h-9c0,.71,0,1.43,0,2.15a5,5,0,0,1-.53,2.3h9.39C91.24,35.47,91.31,34,91.38,32.51Z"/><path d="M146.38,35.73c0-2.53-.62-3.13-3.28-3.13H101.44c-.12,1.39-.28,2.91-.26,4.35h40.56v69.91H13.66c0-2,0-4,0-5.94a2.28,2.28,0,1,0-4.54,0c0,2.34,0,4.67,0,7,0,2.74.56,3.29,3.41,3.29H143c2.81,0,3.41-.56,3.41-3.16Z"/><path class="cls-1" d="M109.55,72.5c0-5.62,0-11.25,0-16.87a3.08,3.08,0,0,0-2.14-3.25c-1.9-.76-3.67-1.88-5.63-2.45a7.15,7.15,0,0,1-1.2-.47c-.35-.1-.69-.22-1-.35a1.49,1.49,0,0,1-1-.4l-.37-.17h0a1.65,1.65,0,0,1-1.1-.39A5.11,5.11,0,0,1,94.55,47a1.69,1.69,0,0,1-.52-.39,1.46,1.46,0,0,1-.67-.58c-.78-.33-1.52-.64-2.24-1l-8.74-3.93c-1.28-.57-1.92-.88-2.2-1.38a4.44,4.44,0,0,1-.92-.25,1.33,1.33,0,0,1-.21,0,1.82,1.82,0,0,1-.77-.17,5.61,5.61,0,0,1-1.53.06,4.48,4.48,0,0,1-1.52.52.7.7,0,0,1-.31.34c-4.18,1.92-8.38,3.8-12.66,5.72a5,5,0,0,1-2.22,1,4.44,4.44,0,0,1-2.16,1l-.11.09h0l-.22.1-.22.09h0l-.24,0-.12.08a1.68,1.68,0,0,1-.55.28l-.29,0-.11.07c-2.57,1.21-5.16,2.41-7.8,3.48a3.2,3.2,0,0,0-2.25,3.33q0,16.59,0,33.18a3.17,3.17,0,0,0,2.16,3.23Q62,98.24,75.85,104.53a4.25,4.25,0,0,0,3.88,0c3.79-1.77,7.64-3.46,11.47-5.19,1.36-.61,2.75-1.19,4.08-1.87a2,2,0,0,0,1.1-2.78,2.37,2.37,0,0,0-3.06-1.08,10.5,10.5,0,0,0-1,.42L81.68,98.77c-.44.2-.89.37-1.46.6a9.67,9.67,0,0,1-.12-1.11c0-9.3,0-18.59,0-27.89,0-.87.39-1.23,1.15-1.57q11.22-5,22.42-10.07c.34-.15.72-.25,1.22-.41V60c0,8.25-.1,16.5.06,24.74,0,2.48-.27,4.23-3.14,5a1.94,1.94,0,0,0-1.3,2.88,2.37,2.37,0,0,0,3.23,1c1.21-.48,2.34-1.12,3.57-1.56a3.17,3.17,0,0,0,2.29-3.44C109.51,83.28,109.55,77.89,109.55,72.5Zm-34.15,26a5.82,5.82,0,0,1-.13.82c-.49-.19-.91-.32-1.3-.49q-11.08-5-22.16-9.94c-.72-.33-1.21-.64-1.2-1.56,0-9.43,0-18.87,0-28.31a7.55,7.55,0,0,1,.1-.81l7,3.14c5.52,2.48,11,5,16.55,7.43.66.3,1.17.54,1.16,1.42C75.39,79.65,75.4,89.09,75.4,98.52ZM88.7,60.64c-3.32,1.5-6.63,3-10,4.47a2.22,2.22,0,0,1-1.52.17c-7.8-3.46-15.57-7-23.52-10.53.6-.29,1-.52,1.49-.72,7.1-3.2,14.19-6.41,21.31-9.56a2.89,2.89,0,0,1,2.07-.17c7.54,3.31,15,6.7,22.56,10.08a6.22,6.22,0,0,1,.59.4Z"/></g></g></svg>