<svg xmlns="http://www.w3.org/2000/svg" viewBox="0 0 48.28 48.3"><defs><style>.cls-1{fill:#48494a;}.cls-2{fill:#f57f20;}</style></defs><g id="Layer_2" data-name="Layer 2"><g id="Layer_1-2" data-name="Layer 1"><path class="cls-1" d="M33,31.41H30.58V41H29V17.73H26.55c0,.26,0,.49,0,.72a.78.78,0,0,1-.87.86H21.75v1.57H20.13V19.32H16.2a.79.79,0,0,1-.91-.88V15.36a.78.78,0,0,1,.88-.87h9.5c.59,0,.87.3.88.91,0,.21,0,.43,0,.67h2.38V13.64A4.76,4.76,0,0,1,25,9.49a4.53,4.53,0,0,1,2.1-4.64,4.8,4.8,0,0,1,5.52.05c.42-.43.84-.9,1.31-1.32a1.18,1.18,0,0,1,.73-.34c2.87,0,5.73,0,8.6,0l.17,0V4.83h-.51c-2.45,0-4.89,0-7.34,0a1.23,1.23,0,0,0-1,.42,7.31,7.31,0,0,1-.83.74,4.83,4.83,0,0,1,.54,4.72,4.76,4.76,0,0,1-3.62,2.93v2.43H33c0-.23,0-.47,0-.72a.77.77,0,0,1,.83-.85h9.61a.75.75,0,0,1,.81.82c0,1.06,0,2.12,0,3.17,0,.55-.32.83-.91.83H39.46v1.61h3.88c.63,0,.91.29.92.93v3c0,.63-.29.92-.92.92q-4.71,0-9.4,0c-.67,0-.94-.28-.94-.95,0-1,0-1.94,0-2.92,0-.67.27-.95.93-.95h3.86V19.32h-3c-1.61,0-1.61,0-1.79-1.58H30.6v12H33c0-.26,0-.52,0-.78a.75.75,0,0,1,.79-.79h9.66a.75.75,0,0,1,.8.83q0,1.56,0,3.12a.78.78,0,0,1-.87.87H39.47v1.59l.46,0h3.42a.78.78,0,0,1,.9.88c0,1,0,2,0,3.07a.78.78,0,0,1-.87.87H39.45V41H37.84V39.44H33.9c-.61,0-.9-.29-.9-.89,0-1,0-2,0-3.07a.77.77,0,0,1,.87-.86h3.91V33H34.05c-.81,0-1-.25-1.06-1ZM31.38,6.1a3.2,3.2,0,1,0,.53,5.14,3.07,3.07,0,0,0,.56-4l-2.1,2.19-1.15-1.2ZM16.92,17.67h8V16.12h-8Zm17.72-1.55v1.55h8V16.12Zm0,8h8V22.56h-8Zm0,7.25h8V29.81h-8Zm0,6.44h8V36.25h-8Z"/><path class="cls-1" d="M46.64,1.63H12.89V20.08H11.27V1.1c0-.87.23-1.1,1.1-1.1H47.16c.9,0,1.12.22,1.12,1.13V43.94c0,.91-.22,1.13-1.11,1.13H22.56V43.49H46.64Z"/><path class="cls-2" d="M21.05,44.83c0,.44,0,.87,0,1.31a.84.84,0,0,1-.57.9c-.94.39-1.89.77-2.83,1.17a.85.85,0,0,1-1-.23c-.56-.63-1.13-1.24-1.68-1.87a1.09,1.09,0,0,0-.76-.37,2.19,2.19,0,0,0-2.34,1,14.14,14.14,0,0,1-1,1.16.87.87,0,0,1-1.12.27c-.92-.39-1.85-.78-2.78-1.15a.87.87,0,0,1-.58-.95c.05-.82.08-1.64.14-2.46a1.26,1.26,0,0,0-.34-.89A2.15,2.15,0,0,0,3.8,41.9,10.7,10.7,0,0,1,2.1,42a.81.81,0,0,1-.83-.53c-.39-1-.79-1.92-1.19-2.88a.82.82,0,0,1,.25-1C1,37,1.61,36.4,2.22,35.81a1.29,1.29,0,0,0,.31-.68,2.14,2.14,0,0,0-1-2.38,12.08,12.08,0,0,1-1.2-1.07.84.84,0,0,1-.23-1l1.17-2.83a.85.85,0,0,1,1-.57l2.51.13a1.1,1.1,0,0,0,.79-.3,2.17,2.17,0,0,0,.88-2.4,9.55,9.55,0,0,1-.08-1.61.85.85,0,0,1,.59-.89L9.68,21a.88.88,0,0,1,1.09.24c.55.63,1.1,1.26,1.69,1.86a1.43,1.43,0,0,0,.71.34,2.15,2.15,0,0,0,2.38-1,11.45,11.45,0,0,1,1-1.17A.86.86,0,0,1,17.67,21c.92.39,1.85.77,2.78,1.14a.9.9,0,0,1,.6,1c-.06.82-.08,1.64-.13,2.46a1.12,1.12,0,0,0,.31.84,2.15,2.15,0,0,0,2.35.87,10.2,10.2,0,0,1,1.66-.08.81.81,0,0,1,.86.56c.39.94.77,1.88,1.17,2.82A.86.86,0,0,1,27,31.7c-.62.56-1.26,1.11-1.85,1.7a1.41,1.41,0,0,0-.33.72,2.13,2.13,0,0,0,1,2.37,12.08,12.08,0,0,1,1.2,1.07.82.82,0,0,1,.22,1l-1.19,2.88a.85.85,0,0,1-1,.54c-.86,0-1.71-.1-2.56-.11a1.17,1.17,0,0,0-.65.25A2.08,2.08,0,0,0,21,44.58a1,1,0,0,1,0,.25ZM8,25.11c0,.26,0,.6.05.93a1.25,1.25,0,0,1-.42,1.17c-.48.44-.94.9-1.39,1.38A1.25,1.25,0,0,1,5.15,29Q4,28.92,2.9,28.9a.57.57,0,0,0-.43.27c-.22.42-.36.87-.56,1.29a.43.43,0,0,0,.13.6c.58.49,1.12,1,1.69,1.5a1.26,1.26,0,0,1,.47,1.06c0,.69,0,1.38,0,2.06a1.57,1.57,0,0,1-.4.92c-.53.55-1.13,1-1.71,1.55a.44.44,0,0,0-.16.6A12.12,12.12,0,0,1,2.44,40a.4.4,0,0,0,.49.3c.77-.06,1.54-.13,2.31-.12a1.57,1.57,0,0,1,.93.35c.55.46,1,1,1.55,1.51a1.21,1.21,0,0,1,.37,1C8,43.87,8,44.62,8,45.37c0,.13,0,.33.08.37a7.48,7.48,0,0,0,1.76.69c.22,0,.54-.47.81-.73s.23-.24.34-.37c1.31-1.43.79-1.14,2.77-1.25a2.73,2.73,0,0,1,2.66,1.19c.31.45.7,1.06,1.14,1.14s1-.35,1.57-.54a.44.44,0,0,0,.32-.53A22.34,22.34,0,0,1,19.29,43a1.46,1.46,0,0,1,.33-.89c.47-.56,1-1,1.54-1.58a1.17,1.17,0,0,1,1-.36c.75.06,1.5.08,2.25.14a.43.43,0,0,0,.52-.33c.16-.42.33-.84.52-1.25a.43.43,0,0,0-.13-.6c-.58-.49-1.12-1-1.69-1.5a1.24,1.24,0,0,1-.47-1c0-.7,0-1.41,0-2.11a1.54,1.54,0,0,1,.4-.91c.54-.56,1.13-1.05,1.71-1.56a.42.42,0,0,0,.16-.59c-.21-.42-.34-.88-.56-1.29a.67.67,0,0,0-.47-.29,6.84,6.84,0,0,0-1.5.09,2.6,2.6,0,0,1-2.45-1,3,3,0,0,1-1.17-3,2.43,2.43,0,0,0,0-1.54c-.26-.37-.94-.44-1.43-.67a.46.46,0,0,0-.64.15c-.48.57-1,1.12-1.5,1.69a1.21,1.21,0,0,1-1,.44c-.68,0-1.37.05-2,0a1.69,1.69,0,0,1-1-.43c-.56-.52-1-1.13-1.57-1.69-.09-.11-.29-.23-.39-.2a4.92,4.92,0,0,0-1.67.76c-.23.21,0,.88,0,1.35Z"/><path class="cls-2" d="M16.14,11.29h1.53v1.56H16.14Z"/><path class="cls-1" d="M20.9,11.29v1.55H19.34V11.29Z"/><path class="cls-2" d="M40.2,12.85H38.67V11.3H40.2Z"/><path class="cls-1" d="M41.87,12.84V11.3h1.56v1.54Z"/><path class="cls-2" d="M20.92,34.6a7.24,7.24,0,1,1-7.17-7.23A7.21,7.21,0,0,1,20.92,34.6Zm-7.28,5.65a5.64,5.64,0,1,0-5.59-5.63A5.68,5.68,0,0,0,13.64,40.25Z"/><path class="cls-2" d="M9.66,34.58a4,4,0,1,1,4,4.05A4,4,0,0,1,9.66,34.58Zm6.43,0A2.41,2.41,0,1,0,13.7,37,2.44,2.44,0,0,0,16.09,34.61Z"/></g></g></svg>