<svg xmlns="http://www.w3.org/2000/svg" viewBox="0 0 65.49 55.76"><defs><style>.cls-1{fill:#48494a;}.cls-2{fill:#f57f20;}</style></defs><g id="Layer_2" data-name="Layer 2"><g id="Layer_1-2" data-name="Layer 1"><path class="cls-1" d="M0,4A12.53,12.53,0,0,1,.92,2a4.37,4.37,0,0,1,3.8-2H47.81A4.66,4.66,0,0,1,52.7,3.65a6.41,6.41,0,0,1,.14,1.58c0,3.28,0,6.57,0,9.85v.79h2.51a2.73,2.73,0,0,1,.76.09A.94.94,0,0,1,56,17.78a7.68,7.68,0,0,1-.83,0H19.33c-.24,0-.47,0-.71,0a.6.6,0,0,0-.61.67q0,5.07,0,10.16a.57.57,0,0,0,.62.64h43.8c1,0,1.11-.08,1.11-1.14V18.83c0-.86-.15-1-1-1-.7,0-1.41,0-2.11,0s-1.11-.41-1.1-1,.44-.95,1.13-1,1.66,0,2.49,0a2.49,2.49,0,0,1,2.5,2.6c0,3.34,0,6.69,0,10a2.49,2.49,0,0,1-2.74,2.73c-3,0-6,0-9,0H52.9v3.42h.68c3,0,6,0,9,0a2.7,2.7,0,0,1,2.9,2.89c-.08,3.24,0,6.48,0,9.72a2.52,2.52,0,0,1-2.82,2.79H53a22.49,22.49,0,0,1-.41,2.5,4.58,4.58,0,0,1-4.14,3.18c-.34,0-.68,0-1,0H16c-.24,0-.47,0-.71,0a.92.92,0,0,1-.91-1,1,1,0,0,1,.92-.95c.21,0,.42,0,.64,0h31.9a2.8,2.8,0,0,0,3-2.19,9.82,9.82,0,0,0,.1-1.59H18.7a2.5,2.5,0,0,1-2.63-2.67c0-.89,0-1.79,0-2.69V37.61c0-2,1-2.94,3-2.94H50.87V31.25H19.26a9.65,9.65,0,0,1-1.08-.05,2.39,2.39,0,0,1-2.06-2.06,17.63,17.63,0,0,1-.05-1.78c0-2.84,0-5.67,0-8.51,0-2,1-3,3-3H50.85V12.12H1.93c0,1.37,0,2.73,0,4.08a2,2,0,0,1-.11.81c-.34.75-1.2.68-1.81-.13ZM40.79,48.1H62.53c.92,0,1-.1,1-1v-9.4c0-.91-.13-1-1-1H19.05c-.93,0-1,.1-1,1q0,4.71,0,9.4c0,1,0,1.06,1,1.06ZM2,10.07H50.85a.9.9,0,0,0,0-.16c0-1.49,0-3,0-4.47a6,6,0,0,0-.06-1.28,2.82,2.82,0,0,0-3.05-2.24H5.08c-.15,0-.3,0-.44,0A2.7,2.7,0,0,0,2,4.33C2,6.23,2,8.12,2,10.07Z"/><path class="cls-1" d="M0,20.72c.32-.33.65-.79,1.16-.56A2.1,2.1,0,0,1,1.9,21c.1.18,0,.46,0,.69V50.43c0,2.35,1.05,3.41,3.38,3.41h5.23c.78,0,1.23.38,1.21,1s-.44.93-1.21.93c-1.85,0-3.7,0-5.55,0A4.69,4.69,0,0,1,.11,52,.91.91,0,0,0,0,51.79Z"/><path class="cls-1" d="M48.76,24.91h5.75a4.42,4.42,0,0,1,.63,0,.87.87,0,0,1,.85.8.88.88,0,0,1-.66,1,1.88,1.88,0,0,1-.63.07H42.82a3.17,3.17,0,0,1-.44,0,1,1,0,0,1-.85-1,.87.87,0,0,1,.9-.88c.73,0,1.45,0,2.18,0Z"/><path class="cls-2" d="M35.87,20.31h5.49a4.22,4.22,0,0,1,.71,0,.94.94,0,0,1,.24,1.78,1.67,1.67,0,0,1-.62.12H30a1.38,1.38,0,0,1-.5-.08.88.88,0,0,1-.64-1,.85.85,0,0,1,.82-.83c.4,0,.81,0,1.21,0Z"/><path class="cls-2" d="M56.34,22.24c-.92,0-1.83,0-2.75,0-.75,0-1.17-.36-1.17-1s.39-1,1.16-1h5.49c.78,0,1.16.33,1.17,1s-.42,1-1.22,1S57.23,22.24,56.34,22.24Z"/><path class="cls-1" d="M37.12,24.92c.59,0,1.18,0,1.78,0a.92.92,0,0,1,1,.91.94.94,0,0,1-.93,1q-1.84,0-3.69,0a1,1,0,0,1-.94-1,.93.93,0,0,1,1-.9Z"/><path class="cls-2" d="M47.88,20.31c.59,0,1.19,0,1.79,0a.9.9,0,0,1,1,.9.91.91,0,0,1-.93,1c-1.24,0-2.47,0-3.71,0a.92.92,0,0,1-.9-1,.91.91,0,0,1,.94-.93c.61,0,1.23,0,1.85,0Z"/><path class="cls-1" d="M30.63,24.93c.32,0,.64,0,1,0a.89.89,0,0,1,.88.91.86.86,0,0,1-.81,1,12.1,12.1,0,0,1-2.17,0,.9.9,0,0,1-.83-1,.94.94,0,0,1,.95-.91c.34,0,.68,0,1,0Z"/><path class="cls-2" d="M7.47,47.43c-.34,0-.68,0-1,0a.93.93,0,0,1-.86-1,.88.88,0,0,1,.9-.89q1,0,2,0a.88.88,0,0,1,.87.92.9.9,0,0,1-.84,1,7.92,7.92,0,0,1-1.09,0Z"/><path class="cls-2" d="M23.91,22.23a8.66,8.66,0,0,1-1,0,.93.93,0,0,1-.9-1,.89.89,0,0,1,.93-.92c.66,0,1.32,0,2,0A.94.94,0,0,1,25,22.2a5.56,5.56,0,0,1-1.08,0Z"/><path class="cls-2" d="M23.91,24.93h1a.89.89,0,0,1,.93.87.87.87,0,0,1-.79,1,11.87,11.87,0,0,1-2.23,0,.84.84,0,0,1-.78-1,.87.87,0,0,1,.89-.89C23.23,24.91,23.57,24.93,23.91,24.93Z"/><path class="cls-2" d="M7.49,38.22c-.34,0-.68,0-1,0a.93.93,0,0,1-.88-1,.87.87,0,0,1,.88-.9q1,0,2,0a.86.86,0,0,1,.88.91.9.9,0,0,1-.82,1,7.77,7.77,0,0,1-1.08,0Z"/><path class="cls-2" d="M7.5,40.92c.34,0,.68,0,1,0a.89.89,0,0,1,.88.92.88.88,0,0,1-.84,1,13,13,0,0,1-2.16,0,.85.85,0,0,1-.8-1,.87.87,0,0,1,.88-.9c.34,0,.68,0,1,0Z"/><path class="cls-2" d="M7.51,17.9c.34,0,.68,0,1,0a.88.88,0,0,1,.87.92.85.85,0,0,1-.78.94,12.78,12.78,0,0,1-2.23,0,.85.85,0,0,1-.79-1,.86.86,0,0,1,.89-.89c.34,0,.68,0,1,0Z"/><path class="cls-2" d="M7.47,22.5c.34,0,.68,0,1,0a.91.91,0,0,1,.91.89.93.93,0,0,1-.87,1,15.43,15.43,0,0,1-2,0,.93.93,0,0,1-.9-1,.9.9,0,0,1,.93-.93c.31,0,.63,0,1,0Z"/><path class="cls-2" d="M7.54,27.1c.32,0,.64,0,1,0a.87.87,0,0,1,.89.89.86.86,0,0,1-.8,1,11.87,11.87,0,0,1-2.23,0,.84.84,0,0,1-.76-1,.86.86,0,0,1,.86-.86c.36,0,.72,0,1.08,0Z"/><path class="cls-2" d="M7.53,31.71c.32,0,.64,0,1,0a.95.95,0,0,1,0,1.89,14.86,14.86,0,0,1-2.11,0,.9.9,0,0,1-.83-1,.87.87,0,0,1,.91-.87C6.85,31.69,7.19,31.71,7.53,31.71Z"/><path class="cls-1" d="M59.27,24.93a.91.91,0,0,1,1,.93,1,1,0,0,1-1,1,1,1,0,0,1-1-.92A1,1,0,0,1,59.27,24.93Z"/><path class="cls-2" d="M31.58,38.8c0,.17-.11.39-.19.61Q30.21,42.7,29,46c0,.1-.07.2-.11.3a1,1,0,1,1-1.81-.67c.58-1.64,1.18-3.27,1.78-4.9.28-.78.54-1.57.86-2.33a.9.9,0,0,1,1.07-.6A1,1,0,0,1,31.58,38.8Z"/><path class="cls-1" d="M34.39,42.14c-.57-.54-1.09-1-1.58-1.51s-.58-1.08-.14-1.51a1,1,0,0,1,1.52.15c.7.69,1.4,1.37,2.07,2.08a1,1,0,0,1,0,1.61q-1.07,1.09-2.16,2.16a1,1,0,1,1-1.36-1.36C33.25,43.24,33.77,42.75,34.39,42.14Z"/><path class="cls-1" d="M24.32,42.17c.59.55,1.12,1,1.61,1.5s.59,1.1.19,1.51-1,.42-1.56-.15-1.36-1.34-2-2a1,1,0,0,1,0-1.66c.7-.72,1.41-1.42,2.12-2.12A1,1,0,1,1,26,40.59C25.49,41.1,25,41.58,24.32,42.17Z"/><path class="cls-1" d="M28.49,7H17.63a5.61,5.61,0,0,1-.58,0,1,1,0,0,1-1-1A.92.92,0,0,1,17,5.07a3.63,3.63,0,0,1,.57,0H39.32q.32,0,.63,0a.91.91,0,0,1,.91,1,.94.94,0,0,1-.93,1,4.56,4.56,0,0,1-.64,0Z"/><path class="cls-1" d="M45.21,7c-.6,0-1.19,0-1.79,0s-1.1-.42-1.09-1a1,1,0,0,1,1.07-1c1.23,0,2.47,0,3.7,0a1,1,0,0,1,1.07,1,1,1,0,0,1-1.11,1C46.44,7,45.83,7,45.21,7Z"/><path class="cls-1" d="M13,7a1,1,0,0,1-.95-1,.94.94,0,0,1,1-.9A.93.93,0,0,1,14,6,1,1,0,0,1,13,7Z"/><path class="cls-1" d="M10.73,6a1,1,0,0,1-1,1,1,1,0,0,1-.93-1,1,1,0,0,1,1-1A.94.94,0,0,1,10.73,6Z"/><path class="cls-1" d="M6.55,7a1,1,0,0,1-1-1,.93.93,0,0,1,1-1A1,1,0,0,1,7.5,6,1,1,0,0,1,6.55,7Z"/></g></g></svg>