<svg xmlns="http://www.w3.org/2000/svg" viewBox="0 0 54.71 46.61"><defs><style>.cls-1{fill:#34a0a4;}</style></defs><g id="Layer_2" data-name="Layer 2"><g id="Layer_1-2" data-name="Layer 1"><path class="cls-1" d="M54.71,40.18a2.41,2.41,0,0,1-2.66,1.65c-2.42-.06-4.84,0-7.26,0h-.65c0,.38,0,.69,0,1a3.91,3.91,0,0,1-3.72,3.76,5.81,5.81,0,0,1-.59,0H13.22c-.86,0-1.26-.27-1.25-.82S12.38,45,13.2,45H40a2.32,2.32,0,0,0,2.51-1.79,9.94,9.94,0,0,0,.09-1.39H16a4.86,4.86,0,0,1-1-.06,2,2,0,0,1-1.54-1.89q0-4.45,0-8.92A2,2,0,0,1,15.17,29a6.79,6.79,0,0,1,.9-.05H42.5V26.1H16A4.3,4.3,0,0,1,15,26a2,2,0,0,1-1.55-2q0-4.34,0-8.65a2,2,0,0,1,2-2.1c.21,0,.42,0,.64,0H42.5V10.1H1.61v.57c0,1,0,2.06,0,3.09,0,.56-.32.89-.79.89A.79.79,0,0,1,0,13.78c0-3.37,0-6.73,0-10.1A3.82,3.82,0,0,1,4,0H40a3.92,3.92,0,0,1,4.13,4.12c0,2.83,0,5.67,0,8.5v.65h2a3.82,3.82,0,0,1,.68,0,.78.78,0,0,1-.1,1.55,5.72,5.72,0,0,1-.59,0h-30c-1,0-1,0-1,1v7.8c0,.73.08.8.8.8q18.21,0,36.43,0c.74,0,.83-.09.83-.83v-8c0-.68-.14-.82-.81-.82H50.49a.8.8,0,1,1-.06-1.59,23,23,0,0,1,2.35,0A2.15,2.15,0,0,1,54.71,15v9.51a2.41,2.41,0,0,1-2.66,1.64c-2.42-.05-4.84,0-7.26,0h-.6V29h.62c2.42,0,4.85,0,7.27,0a2.4,2.4,0,0,1,2.63,1.7Zm-20.65,0H52.28c.74,0,.83-.09.83-.83V31.47c0-.77-.12-.88-.91-.88H16c-.86,0-.93.08-.93,1v7.69c0,.94,0,1,.95,1ZM42.52,8.44c0-1.63,0-3.21,0-4.79a1.2,1.2,0,0,0-.06-.32A2.37,2.37,0,0,0,39.9,1.6H3.8A2.21,2.21,0,0,0,1.69,3.53c-.1,1-.07,1.92-.09,2.88,0,.67,0,1.34,0,2Z"/><path class="cls-1" d="M0,30.23V18.05c0-.85.27-1.25.83-1.23s.77.39.77,1.23V42.36a2.36,2.36,0,0,0,1.8,2.55,3.06,3.06,0,0,0,.8.08H8.8c.47,0,.85.13,1,.63a.76.76,0,0,1-.73,1c-1.87,0-3.75.09-5.61,0A3.86,3.86,0,0,1,0,42.41C0,38.35,0,34.29,0,30.23Z"/><path class="cls-1" d="M40.75,20.83h5c.66,0,1,.3,1,.81s-.38.79-1,.79H35.7c-.64,0-1-.31-1-.8s.33-.8,1-.8Z"/><path class="cls-1" d="M30,17h4.7c.18,0,.41-.06.52,0a1.65,1.65,0,0,1,.61.71.62.62,0,0,1-.48.77,1.92,1.92,0,0,1-.63.09H25a.8.8,0,0,1-.83-.84c0-.46.33-.74.87-.75C26.64,17,28.3,17,30,17Z"/><path class="cls-1" d="M47.08,17c.78,0,1.57,0,2.35,0,.56,0,.89.29.9.76a.79.79,0,0,1-.89.83c-1.59,0-3.17,0-4.75,0a.79.79,0,0,1-.88-.79c0-.49.34-.79.93-.8C45.52,17,46.3,17,47.08,17Z"/><path class="cls-1" d="M31,20.83h1.44a.81.81,0,0,1,.85.78.8.8,0,0,1-.78.8q-1.55,0-3.09,0a.79.79,0,1,1,.08-1.58Z"/><path class="cls-1" d="M40,17c.48,0,1,0,1.44,0a.8.8,0,1,1,0,1.59c-1,0-2,0-3,0a.78.78,0,0,1-.82-.81c0-.47.33-.76.89-.78H40Z"/><path class="cls-1" d="M20,17a8,8,0,0,1,.85,0,.72.72,0,0,1,.7.74.67.67,0,0,1-.59.77,12.26,12.26,0,0,1-2,0,.66.66,0,0,1-.57-.78A.75.75,0,0,1,19.1,17c.29,0,.6,0,.9,0Z"/><path class="cls-1" d="M20,20.83h.8a.74.74,0,0,1,.76.74.71.71,0,0,1-.66.82,10.5,10.5,0,0,1-1.86,0,.7.7,0,0,1-.63-.84.72.72,0,0,1,.74-.7C19.41,20.82,19.69,20.83,20,20.83Z"/><path class="cls-1" d="M25.57,20.84a8,8,0,0,1,.85,0,.73.73,0,0,1,.71.73.66.66,0,0,1-.57.78,10.39,10.39,0,0,1-2,0,.68.68,0,0,1-.58-.83.73.73,0,0,1,.75-.69c.28,0,.57,0,.85,0Z"/><path class="cls-1" d="M6.28,26.5c.27,0,.53,0,.8,0a.73.73,0,0,1,.75.74.68.68,0,0,1-.61.8,10.16,10.16,0,0,1-1.91,0,.68.68,0,0,1-.62-.84.73.73,0,0,1,.74-.7C5.71,26.48,6,26.5,6.28,26.5Z"/><path class="cls-1" d="M6.25,30.35c.29,0,.57,0,.85,0a.74.74,0,0,1,.74.76.71.71,0,0,1-.64.79,11.55,11.55,0,0,1-1.86,0,.69.69,0,0,1-.65-.82.73.73,0,0,1,.76-.73c.27,0,.54,0,.8,0Z"/><path class="cls-1" d="M6.3,34.19c.26,0,.53,0,.79,0a.75.75,0,0,1,.75.75.69.69,0,0,1-.64.79,10.05,10.05,0,0,1-1.9,0,.68.68,0,0,1-.61-.81.72.72,0,0,1,.7-.73c.3,0,.6,0,.91,0Z"/><path class="cls-1" d="M6.25,15c.29,0,.57,0,.85,0a.72.72,0,0,1,.73.71.66.66,0,0,1-.59.81,11.54,11.54,0,0,1-1.95,0,.68.68,0,0,1-.6-.81A.72.72,0,0,1,5.4,15C5.68,14.94,6,15,6.25,15Z"/><path class="cls-1" d="M6.26,18.8a8.07,8.07,0,0,1,.85,0,.72.72,0,0,1,.72.71.67.67,0,0,1-.59.81,9.78,9.78,0,0,1-1.95,0,.68.68,0,0,1-.6-.81.72.72,0,0,1,.71-.72A8.23,8.23,0,0,1,6.26,18.8Z"/><path class="cls-1" d="M6.29,22.65a8,8,0,0,1,.85,0,.73.73,0,0,1,.7.74.67.67,0,0,1-.58.78,11.25,11.25,0,0,1-2,0c-.42,0-.61-.4-.56-.83a.73.73,0,0,1,.7-.68A9,9,0,0,1,6.29,22.65Z"/><path class="cls-1" d="M6.26,38a8,8,0,0,1,.85,0,.72.72,0,0,1,.72.71.71.71,0,0,1-.64.84,9.63,9.63,0,0,1-1.86,0,.7.7,0,0,1-.64-.83.72.72,0,0,1,.72-.72A8,8,0,0,1,6.26,38Z"/><path class="cls-1" d="M49.54,22.42a.84.84,0,0,1-.79-.84.79.79,0,0,1,.81-.74.77.77,0,0,1,.78.82A.8.8,0,0,1,49.54,22.42Z"/><path class="cls-1" d="M23.35,39.24a.78.78,0,0,1-.7-1.14c.47-1.34,1-2.67,1.44-4,.23-.61.45-1.23.68-1.85s.6-.78,1.06-.63.65.6.44,1.19l-2.11,5.8A.81.81,0,0,1,23.35,39.24Z"/><path class="cls-1" d="M28.77,35.23c-.5-.48-.94-.87-1.35-1.29s-.47-.91-.1-1.26a.84.84,0,0,1,1.23.13c.6.58,1.19,1.17,1.76,1.77a.81.81,0,0,1,0,1.3c-.59.62-1.19,1.22-1.8,1.81a.8.8,0,1,1-1.12-1.13C27.81,36.13,28.25,35.73,28.77,35.23Z"/><path class="cls-1" d="M20.34,35.24c.5.47.93.86,1.34,1.27s.47.93.11,1.27-.79.3-1.22-.12c-.58-.57-1.16-1.15-1.73-1.73a.85.85,0,0,1,0-1.39l1.73-1.73a.84.84,0,0,1,1.23-.13c.36.34.33.82-.1,1.26S20.84,34.76,20.34,35.24Z"/><path class="cls-1" d="M23.83,4.24h9.08c.86,0,1.25.26,1.23.82s-.4.78-1.23.78H14.65a2.84,2.84,0,0,1-.58,0A.71.71,0,0,1,13.46,5a.71.71,0,0,1,.66-.71,3.76,3.76,0,0,1,.58,0Z"/><path class="cls-1" d="M37.79,5.84H36.35c-.61,0-1-.34-1-.82s.37-.77,1-.78c1,0,2,0,3,0,.57,0,.9.29.92.75s-.33.81-.9.84-1,0-1.55,0Z"/><path class="cls-1" d="M10.91,4.26a.74.74,0,0,1,.77.77.79.79,0,1,1-1.57,0A.76.76,0,0,1,10.91,4.26Z"/><path class="cls-1" d="M6.25,5A.79.79,0,1,1,4.68,5a.75.75,0,0,1,.8-.74A.77.77,0,0,1,6.25,5Z"/><path class="cls-1" d="M9,5a.81.81,0,0,1-.78.79A.82.82,0,0,1,7.38,5a.8.8,0,0,1,.81-.75A.79.79,0,0,1,9,5Z"/></g></g></svg>