<svg xmlns="http://www.w3.org/2000/svg" viewBox="0 0 50.42 50.43"><defs><style>.cls-1{fill:#48494a;}.cls-2{fill:#f57f20;}</style></defs><g id="Layer_2" data-name="Layer 2"><g id="Layer_1-2" data-name="Layer 1"><path class="cls-1" d="M50.41,26.93a1.64,1.64,0,0,0-1.74-1.72h-5c0-.85,0-1.62,0-2.39a.5.5,0,0,1,.18-.32c-3.08.24-6.31-.06-9-.06-3.64,0-7.36.16-11.08.26h7.24v2.93c-1-.26-2.06-.48-3.06-.75A4.16,4.16,0,0,0,23.71,26a2.11,2.11,0,0,1-2.07.74,17,17,0,0,0-2.31-.15V24c0-.79,0-1.1.3-1.22h-2v3.66l-5.78-.36c0-.16-.07-.3-.1-.44a1.7,1.7,0,0,0-1.7-1.3c-.51,0-1,0-1.56,0V22.74H15c-1.58,0-3.15-.17-4.71-.32a5,5,0,0,1-1.39.21H8.72a4.51,4.51,0,0,1-1,.11,5.37,5.37,0,0,1-1.09-.11.34.34,0,0,1,.07.15c0,.51,0,1,0,1.58H5.2c-1,0-2,0-3,0A2,2,0,0,0,0,25.6V39.09a2.07,2.07,0,0,0,2.2,1.28c2.41,0,4.82,0,7.24,0,1.54,0,1.85-.2,2.4-1.64l1.79.38c-.39,1.72-.09,2.48,1.29,3.42-.78,2.29.29,3.74,2.79,3.74A2.55,2.55,0,0,0,20,48.05a2.55,2.55,0,0,0,2,2.31,2.87,2.87,0,0,0,2.88-1.27,3,3,0,0,0,2.59,1.32,2.6,2.6,0,0,0,2.22-1.8,2.66,2.66,0,0,0,3-1.77,2.61,2.61,0,0,0,3-3c1.6-.84,2-1.57,1.68-3.4.4-.16.81-.31,1.21-.49a.67.67,0,0,1,.79.07,1.79,1.79,0,0,0,1,.34c2.79,0,5.58,0,8.37,0a1.64,1.64,0,0,0,1.67-1.74Q50.43,32.77,50.41,26.93ZM10,38.61H1.72V26.11H10Zm5.24,1.94a1.12,1.12,0,0,1,.05-.86,2.07,2.07,0,0,1,.75-.75,1,1,0,0,1,.86-.08,1,1,0,0,1,.45.69c.08.51-.88,1.42-1.59,1.43C15.68,40.9,15.36,40.77,15.27,40.55Zm2.37,3.83c-.11.12-.32.14-.58.23-.2-.16-.52-.29-.61-.51a1,1,0,0,1,.06-.85,25.36,25.36,0,0,1,1.93-2,.81.81,0,0,1,1.08.05.75.75,0,0,1,.09,1.06C19,43.09,18.31,43.74,17.64,44.38Zm2.9,1.83a1.48,1.48,0,0,1-.52.17c-.18-.14-.51-.26-.6-.49a1,1,0,0,1,.06-.85,9.54,9.54,0,0,1,1.38-1.39.74.74,0,0,1,1,.06.71.71,0,0,1,.14,1A18.92,18.92,0,0,1,20.54,46.21Zm3.69,1.12c-.35.39-.73.75-1.11,1.11a.82.82,0,1,1-1.18-1.15,8.68,8.68,0,0,1,1.19-1.16A1.08,1.08,0,0,1,24,46c.23.07.39.4.61.64A5.09,5.09,0,0,1,24.23,47.33ZM35.53,42c-.39.38-.86.29-1.43-.28L31.41,39a.86.86,0,0,0-1.33,0,.85.85,0,0,0,.14,1.23l3.27,3.27a3.14,3.14,0,0,1,.31.32.82.82,0,0,1,0,1.11.8.8,0,0,1-1.11.05c-.37-.32-.71-.68-1.06-1l-2.4-2.4c-.46-.45-1-.49-1.33-.1s-.31.85.13,1.3l2.65,2.64c.47.48.52,1,.14,1.33s-.85.3-1.3-.14c-.28-.27-.55-.56-.84-.83a.85.85,0,1,0-1.21,1.18c.14.16.31.3.44.47a.82.82,0,0,1-1.17,1.14,3.64,3.64,0,0,1-.55-.56.46.46,0,0,1-.08-.38,2.52,2.52,0,0,0-2.21-3.4,2.52,2.52,0,0,0-2.37-2.35,2.54,2.54,0,0,0-2.36-2.38c0-.12-.07-.24-.1-.37a2.53,2.53,0,0,0-3.94-1.55.91.91,0,0,1-.61.09c-.87-.2-1.74-.45-2.66-.69V27.8l9.2.57c-.78.71-1.49,1.33-2.17,2a2.86,2.86,0,0,0-.85,3,3,3,0,0,0,4.85,1.45c1.3-1.1,2.57-2.24,4-3.46a2.75,2.75,0,0,0,.26.4L35.3,40.5C35.85,41.1,35.93,41.57,35.53,42Zm2.74-3.72c-.58.21-1.15.47-1.74.68a.56.56,0,0,1-.46-.07q-4-4.25-8-8.51a.36.36,0,0,1-.05-.12A1.19,1.19,0,0,0,28.3,30a.84.84,0,0,0,0-1.19.81.81,0,0,0-1.19,0c-.63.52-1.24,1.07-1.85,1.61-1.14,1-2.26,2-3.42,3a2.09,2.09,0,0,1-1.14.44,1.11,1.11,0,0,1-1.1-.84A1.24,1.24,0,0,1,20,31.62c1.74-1.57,3.48-3.15,5.24-4.7a2.25,2.25,0,0,1,2.08-.47q5.47,1.35,11,2.68c.3.07.4.19.4.49,0,2.69,0,5.39,0,8.08A.48.48,0,0,1,38.27,38.23ZM38.63,27c0,.16,0,.32,0,.51l-5.79-1.41V22.75H42v2.46H40.46A1.7,1.7,0,0,0,38.63,27ZM48.7,38.61H40.4V26.91h8.3Z"/><path class="cls-2" d="M45.29,19.48a2.57,2.57,0,0,0-2.65-1.85h-9V14.32c.44-.11.78-.34.8-.82a.85.85,0,0,0-.73-.91c-.1,0-.18-.2-.21-.33A7.47,7.47,0,0,0,29,6.72a25.38,25.38,0,0,0-2.91-.93V5h1.27c.43,0,.85,0,1.28,0a1.62,1.62,0,0,0,1.58-1.57c0-.41,0-.82,0-1.23A2,2,0,0,0,29.05,0H25.6a2,2,0,0,0-1.26,2.2c0,1.21,0,2.43,0,3.62a24.41,24.41,0,0,0-2.42.68,7.62,7.62,0,0,0-5,5.77c0,.12-.11.3-.2.32a.88.88,0,0,0-.74.86c0,.42.23.67.8.88v3.3H7.83a2.6,2.6,0,0,0-2.7,1.85,2.54,2.54,0,0,0,1.35,3,.44.44,0,0,1,.19.27,4.76,4.76,0,0,1,.66-.06,5.09,5.09,0,0,1,1.13.12v0H17.6V23a4.76,4.76,0,0,1,1.34-.2,6.33,6.33,0,0,1,.64.06,2.52,2.52,0,0,1,1.05-.11H31.06v0a4.65,4.65,0,0,1,.75-.07,5.42,5.42,0,0,1,1,.09H42v.11a4.85,4.85,0,0,1,1.36-.2c.15,0,.29,0,.43,0a.54.54,0,0,1,.19-.25A2.54,2.54,0,0,0,45.29,19.48ZM31.8,12.59H28.7c-.32-1.53-.62-3-.93-4.52C29.41,8.24,31.58,10.61,31.8,12.59ZM26.08,1.72h2.46v1.6H26.08ZM24.23,9c.21-.54.37-1.35,1-1.35s.83.82,1,1.38c.32,1.14.53,2.31.81,3.54H23.57A11,11,0,0,1,24.23,9ZM22.65,8c-.31,1.5-.61,3-.93,4.54H18.66C18.59,10.92,20.69,8.55,22.65,8ZM18.27,20.92a.67.67,0,0,1-.38.07H7.71c-.6,0-1-.32-1-.81a.85.85,0,0,1,.94-.85H20s.08,0,.2.06C19.55,19.93,18.92,20.44,18.27,20.92Zm.26-3.29V14.32H31.88v3.31c-1,0-1.93,0-2.89,0a2.33,2.33,0,0,1-1.9-.66,7.62,7.62,0,0,0-.89-.7,1.62,1.62,0,0,0-2,0,4.34,4.34,0,0,0-.58.46,2.94,2.94,0,0,1-2.57.88C20.23,17.57,19.41,17.63,18.53,17.63ZM21.07,21a2.15,2.15,0,0,1,.24-.26c1.19-.94,2.39-1.89,3.6-2.82a.54.54,0,0,1,.49-.05c1.32,1,2.61,2,4,3.13Zm21.38,0c-3.25,0-6.5,0-9.75,0a1.69,1.69,0,0,1-.88-.3c-.55-.38-1.06-.82-1.58-1.23l0-.11H42.46c.82,0,1.21.26,1.22.81S43.29,21,42.45,21Z"/></g></g></svg>