<svg xmlns="http://www.w3.org/2000/svg" viewBox="0 0 48.58 48.84"><defs><style>.cls-1{fill:#48494a;}.cls-2{fill:#f57f20;}</style></defs><g id="Layer_2" data-name="Layer 2"><g id="Layer_1-2" data-name="Layer 1"><path class="cls-1" d="M37.34,40.62c.7.26.81.41.81,1.12,0,2,0,4,0,6.07,0,.75-.26,1-1,1q-5.53,0-11.07,0c-.71,0-1-.27-1-1V41.78c0-.75.09-.89.81-1.18,0-2.45,0-4.91,0-7.38a7.29,7.29,0,0,1,3.82-6.69c2.26-1.34,4.54-2.65,6.8-4A1.22,1.22,0,0,0,37,21.9c1.19-3.35,2.35-6.72,3.52-10.08a3.27,3.27,0,0,1,6.39,1,.86.86,0,0,0,.29.57,3.17,3.17,0,0,1,1.22,3.43c-1.17,4.48-2.38,9-3.58,13.42a4,4,0,0,1-1.29,2c-1.71,1.51-3.39,3.05-5.12,4.54a2.94,2.94,0,0,0-1.14,2.48C37.35,39.71,37.34,40.17,37.34,40.62Zm-1.63,0c0-.54,0-1,0-1.48a4.29,4.29,0,0,1,1.64-3.62c1.69-1.47,3.38-3,5-4.48a3.33,3.33,0,0,0,1-1.41c1.21-4.39,2.37-8.8,3.54-13.21a1.65,1.65,0,0,0,0-.7,1.6,1.6,0,0,0-1.43-1.31,1.68,1.68,0,0,0-1.71,1.18q-1.24,3.8-2.46,7.6a1,1,0,0,0,.06.61A3.27,3.27,0,0,1,40,28.08c-1.47.88-3,1.72-4.45,2.58a2,2,0,0,1-.36.18.7.7,0,0,1-.9-.37,1.61,1.61,0,0,1,.07-.94c0-.14.27-.24.43-.33q2.13-1.24,4.28-2.47A1.66,1.66,0,0,0,40,25.46a1.57,1.57,0,0,0-.73-1.58,1.6,1.6,0,0,0-1.78,0L30.55,28a5.75,5.75,0,0,0-3,5.25c0,2.32,0,4.63,0,6.94,0,.17,0,.33,0,.51Zm.79,1.68H26.77v4.84H36.5Zm3.34-20.06L40,21.9c.72-2.23,1.44-4.45,2.15-6.68a3.36,3.36,0,0,1,2.52-2.36c.2,0,.42-.06.62-.1a1.63,1.63,0,0,0-1.37-1.58,1.74,1.74,0,0,0-1.78,1.16c-.09.24-.17.48-.25.72Q40.34,17.5,38.79,22Z"/><path class="cls-1" d="M22.64,40.6c.73.3.82.43.82,1.23v6c0,.77-.26,1-1,1-3.65,0-7.31,0-11,0-.81,0-1.06-.25-1.06-1.07v-6c0-.71.12-.87.81-1.12,0-.6,0-1.21,0-1.82a2.63,2.63,0,0,0-1-1.89c-1.71-1.51-3.39-3-5.11-4.54a4.93,4.93,0,0,1-1.59-2.6C2.44,25.59,1.31,21.42.18,17.25a3.37,3.37,0,0,1,1.26-3.93.6.6,0,0,0,.18-.42,3.3,3.3,0,0,1,2.7-3.34A3.41,3.41,0,0,1,8.07,12c1.13,3.33,2.3,6.66,3.47,10a1,1,0,0,0,.4.48c2.28,1.35,4.57,2.68,6.85,4a7.36,7.36,0,0,1,3.86,6.77C22.63,35.72,22.64,38.16,22.64,40.6Zm-1.62,0v-.44c0-2.37,0-4.73,0-7.1A5.68,5.68,0,0,0,18.1,28l-7-4.09a2.17,2.17,0,0,0-.81-.28,1.61,1.61,0,0,0-1,3c1.48.87,3,1.72,4.45,2.58.59.34.76.8.49,1.25s-.72.51-1.29.19c-1.47-.85-2.95-1.69-4.41-2.55A3.25,3.25,0,0,1,7.22,23.8a.76.76,0,0,0,.08-.48q-1.25-3.9-2.53-7.79A1.69,1.69,0,0,0,3,14.45a1.57,1.57,0,0,0-1.37,1.31,2.44,2.44,0,0,0,.09,1C2.85,20.85,4,24.94,5,29a4.53,4.53,0,0,0,1.5,2.4c1.64,1.4,3.24,2.86,4.85,4.29A4.11,4.11,0,0,1,12.85,39c0,.54,0,1.08,0,1.63Zm.77,6.54V42.33H12.07v4.86ZM9.77,22l-3-8.64c-.13-.35-.23-.71-.36-1.06a1.77,1.77,0,0,0-1.94-1.06,1.52,1.52,0,0,0-1.16,1.57,3.53,3.53,0,0,1,3.22,2.8c.37,1.32.84,2.61,1.26,3.92l.9,2.78Z"/><path class="cls-2" d="M24.28,2.38a8.49,8.49,0,0,1,3.47-2,8.14,8.14,0,0,1,10.42,7,7.85,7.85,0,0,1-2.31,6.55C32.27,17.56,28.63,21.16,25,24.78c-.54.54-.92.54-1.48,0C19.94,21.17,16.32,17.6,12.76,14a7.77,7.77,0,0,1-2-8.35A7.78,7.78,0,0,1,17.31.11a7.81,7.81,0,0,1,6.38,1.76C23.88,2,24.05,2.18,24.28,2.38Zm0,20.76a.48.48,0,0,0,.15-.1c3.49-3.48,7-6.95,10.45-10.47A6,6,0,0,0,36.48,7.2,6.15,6.15,0,0,0,32.08,2a6.29,6.29,0,0,0-6.63,1.56c-1.18,1.12-1.17,1.12-2.35,0A6.28,6.28,0,0,0,16.61,2a6.5,6.5,0,0,0-2.7,10.84c3.35,3.39,6.73,6.74,10.1,10.11Z"/><path class="cls-2" d="M26.73,13.73c0,.82,0,1.56,0,2.31s-.28.95-1,1h-3c-.69,0-1-.29-1-1V13.73H19.64c-.82,0-1.07-.25-1.07-1.05,0-1,0-1.94,0-2.91,0-.64.29-.92.93-.93h2.33V6.56c0-.71.28-1,1-1h2.91c.73,0,1,.28,1,1V8.84H29c.72,0,1,.27,1,1v3c0,.68-.29,1-1,1ZM25.1,15.36c0-.81,0-1.57,0-2.33s.29-.92.94-.92h2.29V10.47H26.11c-.74,0-1-.27-1-1s0-1.48,0-2.22H23.46V9.46c0,.74-.27,1-1,1h-2.2V12.1h2.13c.85,0,1.09.25,1.09,1.09v2.17Z"/></g></g></svg>