<svg xmlns="http://www.w3.org/2000/svg" viewBox="0 0 50.58 50.59"><defs><style>.cls-1{fill:#48494a;}.cls-2{fill:#f57f20;}</style></defs><g id="Layer_2" data-name="Layer 2"><g id="Layer_1-2" data-name="Layer 1"><path class="cls-1" d="M19.76,50.59a2.88,2.88,0,0,1-.39-.3.9.9,0,0,1-.22-1,1,1,0,0,1,1-.64h8.78V45.53a3,3,0,0,1,3.16-3.14h3.07a22.14,22.14,0,0,1,0-2.58A1.89,1.89,0,0,0,34,37.68a14.29,14.29,0,0,1-7.4-10.88c0-.06,0-.13,0-.23H18.79a1.74,1.74,0,0,1-.72-.13,1,1,0,0,1,.3-1.83,3.82,3.82,0,0,1,.59,0h7.48V15.8H18.71A1,1,0,0,1,17.56,15a1,1,0,0,1,.84-1.12,3.82,3.82,0,0,1,.59,0H29.66a4.25,4.25,0,0,0,1.06-.16c1.35-.41,2.69-.85,4-1.25.3-.09.42-.21.42-.54,0-2.11,0-4.21,0-6.32A1.05,1.05,0,0,0,34,4.34H27.42l-.45,0c0,.4,0,.77,0,1.14a2.07,2.07,0,0,1-2.06,2H12.22a2.07,2.07,0,0,1-2.05-2c0-.36,0-.72,0-1.14l-.51,0H3.2C2.33,4.34,2,4.71,2,5.59V47.37c0,.87.37,1.24,1.23,1.24h7.61c.56,0,1.08,0,1.3.65s-.11,1-.55,1.33H2.37s0-.06-.07-.07A3,3,0,0,1,0,47.28V5.55A2.94,2.94,0,0,1,3.16,2.37c2.13,0,4.27,0,6.41,0h.59c0-.45,0-.84,0-1.23,0-.8.35-1.14,1.15-1.14H25.82C26.62,0,27,.34,27,1.13c0,.41,0,.81,0,1.24h.63c2.2,0,4.41,0,6.62,0a2.89,2.89,0,0,1,2.82,2.25,3.62,3.62,0,0,1,.09.87v6.13a4.36,4.36,0,0,1,.74-.2,3.46,3.46,0,0,1,1.24,0c3.5,1.06,7,2.17,10.48,3.25a1.48,1.48,0,0,1,1,.76V26.28a1.43,1.43,0,0,0-.09.27A14.18,14.18,0,0,1,44.24,37c-2.09,1.44-4.34,2.67-7.1,2.16,0,1.3,0,2.63,0,4a1.56,1.56,0,0,1-.51,1.23c-1.9,1.88-3.79,3.79-5.7,5.68-.22.22-.47.4-.71.6Zm8.69-34.15c0,.88,0,1.77,0,2.66,0,2.33-.11,4.68.11,7C29,31,31.65,34.42,36.05,36.55a5.33,5.33,0,0,0,4.94,0c4.41-2.13,7.09-5.55,7.49-10.44.26-3.17.09-6.38.11-9.57a.37.37,0,0,0,0-.11c-3.26-1-6.53-2-9.8-3.06a1,1,0,0,0-.53,0ZM12.14,2c0,1,0,2,0,3,0,.45.13.55.56.55H24.44a.75.75,0,0,0,.3,0c.09,0,.24-.14.24-.22C25,4.2,25,3.1,25,2ZM30.92,47l2.64-2.65c-.53,0-1.12,0-1.7,0a1,1,0,0,0-.93,1C30.9,45.92,30.92,46.49,30.92,47Z"/><path class="cls-2" d="M15.31,50.59a1.14,1.14,0,0,1-.67-1.1,1,1,0,0,1,.82-.87.93.93,0,0,1,1.05.55,1,1,0,0,1-.23,1.17l-.28.25Z"/><path class="cls-1" d="M23,37.34H18.6a1,1,0,0,1-1-.71A.9.9,0,0,1,18,35.55a1.18,1.18,0,0,1,.6-.19H27.4a1,1,0,0,1,1,1,1,1,0,0,1-1.08,1Z"/><path class="cls-1" d="M9.35,39.33c1.18-1.18,2.26-2.28,3.36-3.37a1,1,0,0,1,1.74.31.92.92,0,0,1-.24,1c-1.37,1.38-2.74,2.76-4.12,4.12a.93.93,0,0,1-1.41,0c-.6-.56-1.18-1.15-1.75-1.74a1,1,0,0,1,0-1.42,1,1,0,0,1,1.41,0C8.67,38.56,9,38.93,9.35,39.33Z"/><path class="cls-2" d="M9.35,17.77l3.39-3.39a1,1,0,0,1,1.64.16.94.94,0,0,1-.17,1.18c-1.37,1.38-2.73,2.76-4.12,4.12a.93.93,0,0,1-1.41,0c-.6-.57-1.18-1.15-1.75-1.75a1,1,0,0,1,0-1.41,1,1,0,0,1,1.42,0C8.67,17,9,17.38,9.35,17.77Z"/><path class="cls-2" d="M9.35,28.54c1.18-1.18,2.28-2.29,3.39-3.38a1,1,0,0,1,1.7.38,1.19,1.19,0,0,1-.24.93c-1.34,1.4-2.72,2.77-4.11,4.13a.93.93,0,0,1-1.44,0q-.87-.84-1.71-1.71a1,1,0,0,1,0-1.41,1,1,0,0,1,1.45,0l.49.49C9,28.14,9.15,28.32,9.35,28.54Z"/><path class="cls-2" d="M21.9,41.68H18.6a1,1,0,0,1-1-.66A.89.89,0,0,1,17.88,40a1.24,1.24,0,0,1,.72-.26q3.31,0,6.65,0a1,1,0,0,1,1,1,1,1,0,0,1-1.07,1Z"/><path class="cls-2" d="M20.84,30.91H18.71c-.71,0-1.16-.39-1.17-1a1,1,0,0,1,1.15-1H23a1,1,0,0,1,1.15,1,1,1,0,0,1-1.17,1Z"/><path class="cls-1" d="M20.76,20.14H18.69a1,1,0,1,1,0-2c1.39,0,2.79,0,4.18,0a1,1,0,0,1,1.14,1,1.06,1.06,0,0,1-1.16,1Z"/><path class="cls-1" d="M46.53,22.21a41.79,41.79,0,0,1,0,4.19,10.59,10.59,0,0,1-7.65,8.82,1.68,1.68,0,0,1-.77,0,10.62,10.62,0,0,1-7.56-8.85A9.76,9.76,0,0,1,30.43,25c0-2.09,0-4.19,0-6.28a1,1,0,0,1,.79-1.09q3.45-1.1,6.91-2.15a1.63,1.63,0,0,1,.82,0q3.42,1,6.82,2.12c.66.2.85.49.85,1.2v3.4Zm-14.13.32h0c0,.9-.06,1.81,0,2.71A8.6,8.6,0,0,0,37.93,33a1.43,1.43,0,0,0,1.18,0,8.74,8.74,0,0,0,5.54-8.18c0-1.69,0-3.39,0-5.08,0-.36-.12-.48-.44-.57-1.79-.55-3.57-1.12-5.36-1.66a1.23,1.23,0,0,0-.66,0c-1.82.55-3.63,1.14-5.45,1.69a.41.41,0,0,0-.36.47C32.41,20.65,32.4,21.59,32.4,22.53Z"/><path class="cls-1" d="M37.64,25.93c-.53-.54-1-1-1.5-1.51a1,1,0,0,0-1.48-.07,1,1,0,0,0,.09,1.48c.69.69,1.37,1.38,2.06,2.06a1,1,0,0,0,1.66,0c.8-.79,1.58-1.58,2.37-2.37l1.57-1.58a.82.82,0,0,0,.17-1,1.38,1.38,0,0,0-.82-.58,1.3,1.3,0,0,0-.89.38C39.79,23.74,38.75,24.81,37.64,25.93Z"/><path class="cls-2" d="M37.64,25.93c1.11-1.12,2.15-2.19,3.23-3.23a1.3,1.3,0,0,1,.89-.38,1.38,1.38,0,0,1,.82.58.82.82,0,0,1-.17,1l-1.57,1.58c-.79.79-1.57,1.58-2.37,2.37a1,1,0,0,1-1.66,0c-.69-.68-1.37-1.37-2.06-2.06a1,1,0,0,1-.09-1.48,1,1,0,0,1,1.48.07C36.63,24.9,37.11,25.39,37.64,25.93Z"/></g></g></svg>