<svg xmlns="http://www.w3.org/2000/svg" viewBox="0 0 55.26 39.88"><defs><style>.cls-1{fill:#34a0a4;}</style></defs><g id="Layer_2" data-name="Layer 2"><g id="Layer_1-2" data-name="Layer 1"><path class="cls-1" d="M0,3.32a2.44,2.44,0,0,0,.1-.24A4.07,4.07,0,0,1,4,0H44.25A3.83,3.83,0,0,1,45,.05a.8.8,0,0,1,0,1.56,3.51,3.51,0,0,1-.8.06H4.48a4.22,4.22,0,0,0-1.07.08A2.29,2.29,0,0,0,1.66,3.85c-.06,1.27,0,2.55,0,3.87H53.58c0-.12,0-.26,0-.39,0-1,0-2.09,0-3.13a2.39,2.39,0,0,0-2.5-2.52c-.79,0-1.58,0-2.37,0a3.88,3.88,0,0,1-.48,0,.78.78,0,0,1-.71-.81.74.74,0,0,1,.72-.8A24.28,24.28,0,0,1,52.1.14a3.72,3.72,0,0,1,3,2.68c.06.17.12.33.19.5v27.3c-.09.09-.16.23-.27.26a1.51,1.51,0,0,1-.84.13c-.23-.09-.38-.42-.51-.68a1.33,1.33,0,0,1,0-.53V9.49h-52v1.82c0,.51,0,1,0,1.51a.87.87,0,0,1-.52.93.8.8,0,0,1-1-.3.58.58,0,0,0-.12-.1Z"/><path class="cls-1" d="M55.26,36.56a.81.81,0,0,0-.1.18,4,4,0,0,1-3.8,3.12c-.22,0-.43,0-.65,0H4.54A6.06,6.06,0,0,1,3,39.69,3.92,3.92,0,0,1,.2,37.1L0,36.56V16.16a1,1,0,0,1,.83-.52.83.83,0,0,1,.79.74,4.87,4.87,0,0,1,0,.54q0,9.33,0,18.66a2.33,2.33,0,0,0,.88,2,4.06,4.06,0,0,0,1.32.55,3,3,0,0,0,.85,0c15.3,0,30.6,0,45.89,0,2.21,0,3.22-1.25,3.06-3.08a11.81,11.81,0,0,1,0-1.19c0-.61.17-.92.57-1.05s.7,0,1.07.52Z"/><path class="cls-1" d="M42.86,25H36.65a4.16,4.16,0,0,1-1.17-.13,2.4,2.4,0,0,1-1.7-2.62,2.48,2.48,0,0,1,2.34-2.15H49.39A2.46,2.46,0,0,1,52,21.93a2.41,2.41,0,0,1-2,3,17.56,17.56,0,0,1-1.78,0Zm0-1.68c2.12,0,4.24,0,6.36,0,.75,0,1.12-.26,1.13-.77s-.37-.79-1.12-.79H36.55c-.76,0-1.13.26-1.13.78s.38.78,1.11.78C38.65,23.3,40.77,23.29,42.89,23.29Z"/><path class="cls-1" d="M40.86,31.44H36.5a2.55,2.55,0,0,1-2.06-.77A2.33,2.33,0,0,1,34,28.08a2.28,2.28,0,0,1,2.21-1.53q4.74-.06,9.49,0A2.4,2.4,0,0,1,48.05,29a2.36,2.36,0,0,1-2.34,2.46c-1.61.05-3.23,0-4.85,0Zm0-1.67h4.64a.76.76,0,0,0,.85-.77c0-.46-.3-.75-.84-.78h-9a3.27,3.27,0,0,0-.54,0,.73.73,0,0,0-.59.74.75.75,0,0,0,.63.76,3.26,3.26,0,0,0,.54,0Z"/><path class="cls-1" d="M38.71,18.46c-.92,0-1.84.05-2.75,0A2.38,2.38,0,0,1,33.77,16a2.42,2.42,0,0,1,2.39-2.42c1.73,0,3.45,0,5.18,0A2.43,2.43,0,0,1,43.72,16a2.39,2.39,0,0,1-2.32,2.48c-.89.05-1.79,0-2.69,0Zm0-1.64c.8,0,1.61,0,2.42,0a.81.81,0,0,0,.91-.77.79.79,0,0,0-.9-.78H36.33c-.57,0-.91.31-.91.77s.35.78.9.78C37.12,16.83,37.93,16.82,38.74,16.82Z"/><path class="cls-1" d="M14.27,31.4a.8.8,0,0,1-.83-.95,2.76,2.76,0,0,1,.16-.51q2.76-7.25,5.5-14.49l.1-.25a.83.83,0,1,1,1.54.59c-.5,1.34-1,2.68-1.52,4q-2.05,5.4-4.1,10.81C15,31,14.77,31.39,14.27,31.4Z"/><path class="cls-1" d="M26.88,23a7.4,7.4,0,0,1-.61-.46q-1.82-1.8-3.62-3.62c-.44-.44-.49-.92-.14-1.28a.81.81,0,0,1,1.27.08q2.34,2.31,4.65,4.65a.85.85,0,0,1,0,1.4q-2.28,2.3-4.57,4.57c-.45.44-.91.47-1.28.1s-.33-.82.12-1.27Z"/><path class="cls-1" d="M7.37,23.07c.37.34.69.6,1,.89Q10,25.57,11.59,27.2a.82.82,0,0,1,0,1.24.8.8,0,0,1-1.2-.07Q8.07,26,5.75,23.69a.83.83,0,0,1,0-1.29Q8.11,20,10.48,17.68a.83.83,0,1,1,1.16,1.16L8.06,22.43C7.87,22.62,7.67,22.8,7.37,23.07Z"/><path class="cls-1" d="M18.57,2.32A2.42,2.42,0,0,1,21,4.77a2.45,2.45,0,0,1-2.44,2.44,2.45,2.45,0,1,1,0-4.89Zm.75,2.42a.77.77,0,0,0-.8-.76.78.78,0,0,0-.76.8.81.81,0,0,0,.81.77A.8.8,0,0,0,19.32,4.74Z"/><path class="cls-1" d="M6,2.32A2.45,2.45,0,0,1,6,7.21,2.45,2.45,0,0,1,3.55,4.72,2.43,2.43,0,0,1,6,2.32ZM6,5.55a.82.82,0,0,0,.82-.77.79.79,0,0,0-1.58,0A.82.82,0,0,0,6,5.55Z"/><path class="cls-1" d="M14.7,4.73a2.44,2.44,0,1,1-2.45-2.41A2.42,2.42,0,0,1,14.7,4.73Zm-1.65,0a.79.79,0,0,0-1.57,0,.79.79,0,1,0,1.57,0Z"/></g></g></svg>