<svg xmlns="http://www.w3.org/2000/svg" viewBox="0 0 87.87 63.4"><defs><style>.cls-1{fill:#48494a;}.cls-2{fill:#f57f20;}</style></defs><g id="Layer_2" data-name="Layer 2"><g id="Layer_1-2" data-name="Layer 1"><path class="cls-1" d="M87.87,48.69c-.14.14-.25.35-.41.4-.45.12-1,.35-1.35.21a1.84,1.84,0,0,1-.78-1.09,4.73,4.73,0,0,1,0-1.36V15.07H2.59c0,1.83,0,3.62,0,5.42a1.25,1.25,0,0,1-1,1.43A1.23,1.23,0,0,1,0,20.69C0,15.75,0,10.8.06,5.86.14,2.67,3.06.13,6.47,0h64a2.33,2.33,0,0,1,1.17.12c.4.28.88.77.88,1.17a1.82,1.82,0,0,1-.84,1.2,2.42,2.42,0,0,1-1.25.15c-21.1,0-42.21,0-63.31,0C4,2.62,2.43,4.78,2.57,7.16c.1,1.7,0,3.42,0,5.17H85.3c0-1,0-2,0-3.06a25,25,0,0,0-.15-3.58,3.6,3.6,0,0,0-3.63-3c-1.4,0-2.81,0-4.21,0-1.08,0-1.65-.48-1.65-1.32S76.22,0,77.29,0c1.58,0,3.16-.08,4.72.07a6.29,6.29,0,0,1,5.68,4.83,3,3,0,0,0,.18.36Z"/><path class="cls-1" d="M87.87,58.13s-.1.07-.12.11c-1.2,3.65-3.28,5.16-7.11,5.16H7.14c-3.75,0-6.37-2-7-5.36A5,5,0,0,1,0,57Q0,41.75,0,26.49c0-1,.49-1.6,1.27-1.61s1.29.59,1.3,1.57v29.6c0,3.34,1.38,4.71,4.75,4.71H80.76a5.9,5.9,0,0,0,2.1-.28,3.72,3.72,0,0,0,2.43-3.6c0-.94,0-1.89,0-2.83,0-.74.09-1.41.87-1.68s1.31.16,1.71.79Z"/><path class="cls-2" d="M68.21,39.69H58.09a4.14,4.14,0,0,1-3.39-1.33A3.69,3.69,0,0,1,54,34.29a3.61,3.61,0,0,1,3.48-2.36q10.71-.06,21.44,0a3.86,3.86,0,0,1,.23,7.7,19.23,19.23,0,0,1-2.15.06C74.1,39.7,71.15,39.69,68.21,39.69Zm0-2.64c3.48,0,7,0,10.45,0a1.31,1.31,0,0,0,1.48-1.21c0-.75-.56-1.26-1.49-1.29H58.17a4.84,4.84,0,0,0-.85,0,1.2,1.2,0,0,0-1,1.38,1.33,1.33,0,0,0,1.51,1.09Z"/><path class="cls-2" d="M65.08,42.2c2.49,0,5,0,7.46,0a3.92,3.92,0,0,1,3.82,3.19,3.83,3.83,0,0,1-2.64,4.36,5.42,5.42,0,0,1-1.6.22C67.4,50,62.69,50,58,50c-2.53,0-4.23-1.59-4.24-3.84a3.87,3.87,0,0,1,4-3.93C60.17,42.19,62.62,42.2,65.08,42.2Zm0,2.64c-2.43,0-4.85,0-7.28,0-.89,0-1.45.5-1.46,1.22a1.28,1.28,0,0,0,1.41,1.27H72.44c.27,0,.67-.05.78-.23a2.28,2.28,0,0,0,.51-1.32c-.07-.67-.64-.95-1.32-.95Z"/><path class="cls-2" d="M61.61,21.61c1.29,0,2.57,0,3.86,0a3.89,3.89,0,0,1,4,3.62,3.73,3.73,0,0,1-3.68,4.1c-2.79.11-5.6.11-8.4,0a3.74,3.74,0,0,1-3.69-4.09,3.9,3.9,0,0,1,4-3.63C59,21.6,60.32,21.61,61.61,21.61Zm0,2.64c-1.29,0-2.57,0-3.86,0-.88,0-1.44.5-1.45,1.22s.58,1.27,1.5,1.28h7.62c.91,0,1.51-.53,1.5-1.28s-.58-1.21-1.46-1.22C64.18,24.24,62.9,24.25,61.62,24.25Z"/><path class="cls-2" d="M33.12,24.66c0,.15-.11.43-.21.69Q28.47,37.05,24,48.75a2,2,0,0,1-1,1.07,1.37,1.37,0,0,1-1.27-.33A1.84,1.84,0,0,1,21.54,48c.72-2.1,1.55-4.16,2.34-6.23l6.54-17.26c.27-.71.61-1.3,1.51-1.23A1.33,1.33,0,0,1,33.12,24.66Z"/><path class="cls-1" d="M42.72,36.7l-6.47-6.44a4.68,4.68,0,0,1-.53-.56,1.23,1.23,0,0,1,.09-1.65,1.18,1.18,0,0,1,1.69-.17,3.66,3.66,0,0,1,.51.46l7,7c1,1,1,1.55,0,2.58L38.16,44.8a5.7,5.7,0,0,1-.43.42,1.25,1.25,0,0,1-1.77,0,1.22,1.22,0,0,1,0-1.83c1.25-1.29,2.53-2.56,3.81-3.83C40.71,38.61,41.68,37.7,42.72,36.7Z"/><path class="cls-1" d="M11.61,36.64c.66.57,1.18,1,1.64,1.44q2.63,2.58,5.21,5.21a1.29,1.29,0,0,1,.06,1.91,1.26,1.26,0,0,1-1.9-.09q-3.73-3.7-7.45-7.45a1.3,1.3,0,0,1,0-2q3.75-3.76,7.52-7.51a1.3,1.3,0,1,1,1.82,1.83c-1.91,1.93-3.83,3.84-5.76,5.76C12.47,36,12.11,36.23,11.61,36.64Z"/><path class="cls-2" d="M29.51,3.72a3.82,3.82,0,0,1,3.85,3.87,3.87,3.87,0,0,1-3.87,3.86,3.93,3.93,0,0,1-3.88-3.89A3.89,3.89,0,0,1,29.51,3.72Zm0,2.59a1.25,1.25,0,0,0-1.25,1.24,1.3,1.3,0,0,0,1.21,1.3,1.28,1.28,0,0,0,1.29-1.3A1.26,1.26,0,0,0,29.5,6.31Z"/><path class="cls-2" d="M9.51,3.72A3.82,3.82,0,0,1,13.4,7.54a3.86,3.86,0,1,1-7.71.06A3.81,3.81,0,0,1,9.51,3.72Zm1.31,3.83a1.28,1.28,0,1,0-2.55.09A1.33,1.33,0,0,0,9.59,8.85,1.33,1.33,0,0,0,10.82,7.55Z"/><path class="cls-2" d="M19.54,3.72A3.8,3.8,0,0,1,23.37,7.6a3.85,3.85,0,0,1-3.87,3.85,3.87,3.87,0,1,1,0-7.73Zm0,2.59a1.29,1.29,0,0,0-1.27,1.25,1.33,1.33,0,0,0,1.24,1.29,1.31,1.31,0,0,0,1.3-1.3A1.29,1.29,0,0,0,19.52,6.31Z"/></g></g></svg>