<svg xmlns="http://www.w3.org/2000/svg" viewBox="0 0 31.65 51.96"><defs><style>.cls-1{fill:#48494a;}.cls-2{fill:#f57f20;}</style></defs><g id="Layer_2" data-name="Layer 2"><g id="Layer_1-2" data-name="Layer 1"><path class="cls-1" d="M2,52l-.34-.17A2.59,2.59,0,0,1,0,49.44c0-.11,0-.23,0-.35V2.87A2.62,2.62,0,0,1,2,.07,2.4,2.4,0,0,1,2.61,0H7.07C7.69,0,8,.26,8,.75s-.32.77-1,.77h-4c-1.23,0-1.53.3-1.53,1.52V46.11c0,1,0,2,0,3S2,50.44,2.87,50.44H28.74c1,0,1.33-.38,1.33-1.37,0-4.68,0-9.37,0-14a3.12,3.12,0,0,1,0-.61.69.69,0,0,1,.7-.61.69.69,0,0,1,.76.53,2,2,0,0,1,.06.6c0,4.55,0,9.1,0,13.65,0,1.61-.45,2.8-2,3.38Z"/><path class="cls-1" d="M28.31,24.15c0,5.57,0,11.13,0,16.7a1.74,1.74,0,0,1-1.88,1.9c-7.14,0-14.28,0-21.41,0-1.29,0-1.88-.6-1.88-1.9V7.4A1.67,1.67,0,0,1,5,5.49H26.45a1.64,1.64,0,0,1,1.86,1.87ZM4.75,7.07V41.18h22V7.07Z"/><path class="cls-1" d="M31.63,16.72V30.57c0,.13,0,.27,0,.4a.82.82,0,0,1-.76.86.8.8,0,0,1-.79-.82c0-.18,0-.37,0-.56q0-13.72,0-27.45a2.27,2.27,0,0,0-.18-1c-.23-.46-.7-.51-1.18-.51H11a.79.79,0,0,1-.89-.76A.79.79,0,0,1,11,0H29.07a2.6,2.6,0,0,1,2.56,2.76c0,4.15,0,8.29,0,12.43Z"/><path class="cls-1" d="M15.81,48.72a2.2,2.2,0,0,1-2.22-2.22,2.23,2.23,0,1,1,4.45,0A2.19,2.19,0,0,1,15.81,48.72Zm0-2.87a.67.67,0,0,0-.71.63.69.69,0,0,0,1.37.05A.67.67,0,0,0,15.84,45.85Z"/><path class="cls-2" d="M10,9.74h2a1.37,1.37,0,0,1,1.49,1.38c0,1.42,0,2.84,0,4.26a1.32,1.32,0,0,1-1.29,1.38c-1.5.05-3,.05-4.51,0a1.32,1.32,0,0,1-1.27-1.44c0-1.36,0-2.73,0-4.1A1.4,1.4,0,0,1,8,9.75Zm-2,5.48H12V11.3H8.05Z"/><path class="cls-2" d="M10,25.79c-.69,0-1.39,0-2.08,0a1.38,1.38,0,0,1-1.44-1.44c0-1.38,0-2.77,0-4.15a1.37,1.37,0,0,1,1.4-1.43c1.41,0,2.83,0,4.25,0a1.36,1.36,0,0,1,1.42,1.41c0,1.4,0,2.8,0,4.21a1.4,1.4,0,0,1-1.47,1.41H10Zm2-1.55V20.33H8.06v3.91Z"/><path class="cls-2" d="M17.88,25.79c-.69,0-1.38,0-2.07,0a1.35,1.35,0,0,1-1.43-1.38q0-2.13,0-4.26a1.32,1.32,0,0,1,1.37-1.39c1.44,0,2.87,0,4.31,0a1.31,1.31,0,0,1,1.35,1.41q0,2.1,0,4.2A1.36,1.36,0,0,1,20,25.78C19.27,25.8,18.58,25.79,17.88,25.79Zm-1.95-1.56h3.92V20.32H15.93Z"/><path class="cls-2" d="M10,34.7a3.54,3.54,0,0,1,0-7.08,3.54,3.54,0,1,1,0,7.08Zm0-5.51a2,2,0,0,0-2,2,2,2,0,0,0,2,2,2,2,0,0,0,2-2A2,2,0,0,0,10,29.19Z"/><path class="cls-2" d="M21.45,13.73A3.56,3.56,0,0,1,18,17.25c-.53,0-.85-.25-.88-.7s.26-.76.82-.82A2,2,0,0,0,19.88,14a2,2,0,1,0-4-.37c-.05.58-.3.89-.75.91s-.79-.35-.78-.91a3.52,3.52,0,0,1,6.9-.86C21.37,13.05,21.39,13.39,21.45,13.73Z"/><path class="cls-1" d="M10,38.37c-.46,0-.91,0-1.37,0a.76.76,0,1,1,0-1.52h2.78a.77.77,0,0,1,.81.79.76.76,0,0,1-.81.73C10.94,38.38,10.47,38.37,10,38.37Z"/><path class="cls-2" d="M15.79,38.37c-.46,0-.91,0-1.37,0a.76.76,0,1,1,0-1.52h2.78a.79.79,0,0,1,.81.74.77.77,0,0,1-.81.78C16.73,38.38,16.26,38.37,15.79,38.37Z"/><path class="cls-1" d="M21.59,36.85h1.32a.76.76,0,0,1,.81.78.75.75,0,0,1-.79.74c-.94,0-1.89,0-2.83,0a.71.71,0,0,1-.76-.76.75.75,0,0,1,.79-.75Z"/></g></g></svg>