<svg xmlns="http://www.w3.org/2000/svg" viewBox="0 0 30.42 50.66"><defs><style>.cls-1{fill:#34a0a4;}</style></defs><g id="Layer_2" data-name="Layer 2"><g id="Layer_1-2" data-name="Layer 1"><path class="cls-1" d="M4.42,50.66a14.19,14.19,0,0,1-2.32-1A5,5,0,0,1,0,45.29Q0,39,0,32.73,0,19.08,0,5.43A5.2,5.2,0,0,1,2,1,5.12,5.12,0,0,1,5.27,0H25.15a5.1,5.1,0,0,1,5.26,5.14c0,.44,0,.89,0,1.33q0,19.38,0,38.77a5,5,0,0,1-2.11,4.4,13.47,13.47,0,0,1-2.32,1ZM2.54,25.33V45.26a2.57,2.57,0,0,0,2.84,2.86H25a2.57,2.57,0,0,0,2.85-2.88V5.42A2.57,2.57,0,0,0,25,2.54H5.38a4.13,4.13,0,0,0-.93.08A2.53,2.53,0,0,0,2.55,5.3Q2.54,15.32,2.54,25.33Z"/><path class="cls-1" d="M15.2,46.42a2.52,2.52,0,0,1-2.52-2.51,2.53,2.53,0,1,1,5.06,0A2.52,2.52,0,0,1,15.2,46.42Z"/><path class="cls-1" d="M17.29,6.75H14.87a1.28,1.28,0,0,1-1.34-1.28,1.25,1.25,0,0,1,1.33-1.23c1.65,0,3.29,0,4.94,0a1.27,1.27,0,0,1,1.32,1.25,1.29,1.29,0,0,1-1.31,1.26Z"/><path class="cls-1" d="M10.58,6.74A1.29,1.29,0,0,1,9.3,5.5a1.27,1.27,0,0,1,2.53,0A1.29,1.29,0,0,1,10.58,6.74Z"/><path class="cls-1" d="M25.58,35.59a.43.43,0,0,1-.44.25H6a.34.34,0,0,1-.35-.35A.32.32,0,0,1,6,35.16H7V32.2a.69.69,0,0,1,.78-.79H9a.66.66,0,0,1,.7.72c0,.92,0,1.85,0,2.77v.24h1v-5c0-.54.25-.8.77-.8h1.15a.66.66,0,0,1,.73.75c0,1.59,0,3.18,0,4.76v.26h1v-7c0-.56.24-.81.78-.81h1.12a.67.67,0,0,1,.75.76v7.05h1v-5c0-.57.23-.81.79-.81h1.14a.67.67,0,0,1,.72.74v5h1V34.9c0-.9,0-1.8,0-2.71a.68.68,0,0,1,.76-.78h1.16a.68.68,0,0,1,.73.75v3h.88a.42.42,0,0,1,.44.24ZM15,28v7.12h1.3V28Zm-3.65,2v5.08h1.3V30.06Zm8.6,5.08V30.07h-1.3v5.07Zm-12.25-3v3H9v-3Zm14.6,3h1.3v-3h-1.3Z"/><path class="cls-1" d="M15.79,15.42c.16.13.34.24.48.38l4,4.13a1.06,1.06,0,0,1,.26.41.67.67,0,0,1-.64.86c-.47,0-.93,0-1.4,0h-.24v4.31c0,.54-.25.8-.77.8H13.74c-.51,0-.76-.26-.76-.79V21.21H11.39a.67.67,0,0,1-.68-.43A.69.69,0,0,1,10.9,20q2.1-2.16,4.21-4.31a1.6,1.6,0,0,1,.37-.25ZM13.64,25.61h4V21c0-.32.12-.44.42-.44H19.9l-4.3-4.36L11.4,20.5h1.78c.36,0,.46.11.46.48v4.61Z"/><path class="cls-1" d="M25.58,27c-.11.15-.22.31-.34.45-.82.88-1.65,1.76-2.47,2.65-.35.36-.64.37-1,0l-2.62-2.78a.63.63,0,0,1-.18-.68.58.58,0,0,1,.62-.36h.66V22.62c0-.55.19-.74.71-.74h2.63c.44,0,.65.22.65.68v3.75c.21,0,.42,0,.62,0a.64.64,0,0,1,.7.44Zm-3.31,2.64L24.77,27h-.72c-.35,0-.45-.1-.45-.46v-4H20.94V26c0,1,0,.95-.91.95h-.27Z"/><path class="cls-1" d="M7,26.31V22.57c0-.48.21-.69.66-.69h2.66c.46,0,.67.21.67.68v3.75h.71a.53.53,0,0,1,.56.34.55.55,0,0,1-.14.65L9.45,30.17a.54.54,0,0,1-.88,0L5.88,27.32a.59.59,0,0,1-.15-.67.57.57,0,0,1,.58-.35Zm.67-3.74v3.95c0,.36-.1.46-.45.47H6.49L9,29.66,11.47,27l-.05,0h-.61c-.4,0-.49-.09-.49-.5V22.57Z"/></g></g></svg>