<svg xmlns="http://www.w3.org/2000/svg" viewBox="0 0 50.51 84.05"><defs><style>.cls-1{fill:#48494a;}.cls-2{fill:#f57f20;}</style></defs><g id="Layer_2" data-name="Layer 2"><g id="Layer_1-2" data-name="Layer 1"><path class="cls-1" d="M43.32,0a10.71,10.71,0,0,1,4,1.84A8.49,8.49,0,0,1,50.5,8.3c0,.49,0,1,0,1.47q0,32.67,0,65.34a8.56,8.56,0,0,1-3.5,7.3A7.48,7.48,0,0,1,42.45,84q-17.19,0-34.39,0c-4.25,0-7.84-3.72-8-8.19,0-.21,0-.43,0-.65Q0,42,0,8.87A8.26,8.26,0,0,1,3.58,1.62,20.77,20.77,0,0,1,7.2,0ZM4.24,42V75.14c0,3,1.68,4.67,4.6,4.67,10.94,0,21.89,0,32.83,0a4.4,4.4,0,0,0,4.61-4.62q0-33.19,0-66.39a4.4,4.4,0,0,0-4.61-4.62c-10.94.06-21.88,0-32.83,0a5.77,5.77,0,0,0-1.38.12C5.36,4.9,4.24,6.5,4.24,8.91Z"/><path class="cls-1" d="M25.14,77a4.2,4.2,0,1,1,4.34-4.1A4.24,4.24,0,0,1,25.14,77Z"/><path class="cls-1" d="M28.76,11.21c-1.34,0-2.68,0-4,0a2.11,2.11,0,0,1-2.27-2.07A2.08,2.08,0,0,1,24.67,7q4.09,0,8.2,0a2.16,2.16,0,0,1,2.18,1.74A2.1,2.1,0,0,1,33.8,11a3.18,3.18,0,0,1-1.19.21C31.33,11.23,30,11.21,28.76,11.21Z"/><path class="cls-1" d="M17.55,11.19a2.17,2.17,0,0,1-2.12-2.07A2.19,2.19,0,0,1,17.52,7a2.14,2.14,0,0,1,2.14,2.12A2.13,2.13,0,0,1,17.55,11.19Z"/><path class="cls-2" d="M8.94,57.3c-.06-.07-.17-.12-.19-.2s-.14-.43-.06-.57a.67.67,0,0,1,.49-.32c.54,0,1.08,0,1.66,0V51.32a1.13,1.13,0,0,1,1.25-1.25H14a1.14,1.14,0,0,1,1.26,1.25v4.59c0,.08,0,.16,0,.26H17v-.39c0-2.6,0-5.21,0-7.81a1.09,1.09,0,0,1,1.22-1.22h2A1.11,1.11,0,0,1,21.4,48v8.18h1.67v-.4c0-3.68,0-7.35,0-11a1.21,1.21,0,0,1,1.35-1.35c.62,0,1.24,0,1.86,0a1.12,1.12,0,0,1,1.24,1.25V56.17h1.67V48.09a2.55,2.55,0,0,1,0-.55,1.06,1.06,0,0,1,1-.79h2.18a1.08,1.08,0,0,1,1.19,1.19v8.23h1.66V51.41c0-.92.42-1.34,1.33-1.34h2a1.1,1.1,0,0,1,1.15,1.15v5c.49,0,1,0,1.43,0a.83.83,0,0,1,.79.33v.78Zm17.44-1.12V44.56H24.21V56.18Zm-8.29-8.31v8.3h2.17v-8.3Zm14.4,8.31v-8.3H30.32v8.3Zm-18.34-5H12v5h2.18Zm24.45,0H36.43v5H38.6Z"/><path class="cls-2" d="M42,42.91a7.33,7.33,0,0,1-.54.68q-2.06,2.17-4.14,4.33c-.63.66-1.09.67-1.72,0-1.47-1.51-2.93-3-4.39-4.54a1,1,0,0,1-.3-.94.91.91,0,0,1,.9-.71H33l.08,0v-6c0-.83.33-1.17,1.16-1.17h4.43c.76,0,1.1.35,1.1,1.12v6.11c.34,0,.66,0,1,0a1.15,1.15,0,0,1,1.25.66Zm-7.77-7.26V42.1c0,.57-.18.75-.76.75H32.22l4.2,4.36,4.16-4.36H39.4c-.63,0-.78-.15-.78-.79V35.65Z"/><path class="cls-2" d="M29.74,33.45v.4c0,2.21,0,4.42,0,6.64a1.12,1.12,0,0,1-.61,1.12,1.69,1.69,0,0,1-.63.13H22.09a1.11,1.11,0,0,1-1.25-1.24V33.41H18.05a1.06,1.06,0,0,1-1-.66,1.09,1.09,0,0,1,.17-1.19,2,2,0,0,1,.2-.21l6.93-6.93a1.15,1.15,0,0,1,1.84,0q3.49,3.5,7,7a1.15,1.15,0,0,1-.38,2,1.91,1.91,0,0,1-.48,0H29.84Zm-4.51-8.27-7,7.06.23,0,2.73,0c.61,0,.77.17.77.77v7.54h6.65V33.08c0-.62.17-.78.8-.78h3Z"/><path class="cls-2" d="M17.52,41.74h1.24a.91.91,0,0,1,.89.54.89.89,0,0,1-.2,1L14.88,48.1a.9.9,0,0,1-1.4,0q-2.3-2.36-4.57-4.73a.89.89,0,0,1-.22-1,.92.92,0,0,1,.94-.57h1.21V35.61c0-.75.34-1.1,1.08-1.1h4.5c.75,0,1.1.35,1.1,1.12v6.11Zm-3.33,5.47,4.17-4.36H17.17c-.62,0-.79-.17-.79-.8V35.66H12v6.47c0,.55-.17.72-.71.72H10Z"/></g></g></svg>