<svg xmlns="http://www.w3.org/2000/svg" viewBox="0 0 28.46 40.26"><defs><style>.cls-1{fill:#48494a;}.cls-2{fill:#f57f20;}</style></defs><g id="Layer_2" data-name="Layer 2"><g id="Layer_1-2" data-name="Layer 1"><path class="cls-1" d="M3.07,5,1.75,4.34A3.61,3.61,0,0,1,1,4a1,1,0,0,1-.41-.6A.78.78,0,0,1,1,2.83C3.33,1.88,5.62,1,7.93.05a.77.77,0,0,1,.71.08.83.83,0,0,1,.12.7c-.17.63-.43,1.23-.62,1.85a1.13,1.13,0,0,0,0,.63c.17.48.4.94.57,1.43a.49.49,0,0,0,.56.39c3.73,0,7.47,0,11.2,0a1.16,1.16,0,0,1,.91.39c2.14,2.15,4.28,4.31,6.45,6.43a1.89,1.89,0,0,1,.62,1.49q0,12.92,0,25.84a2.81,2.81,0,0,1,0,.41.58.58,0,0,1-.63.58H1c-.85,0-1-.13-1-1Q0,22.7,0,6.14C0,6,0,5.89,0,5.77a.61.61,0,0,1,.7-.65H3ZM1.21,39.07h26V13.38H21c-.65,0-.83-.18-.83-.84V6.3h-10a5.66,5.66,0,0,1,2.28,1.63c.43.52.33.9-.28,1.15l-1.8.73c.27,2.17.53,4.3.8,6.43.05.35,0,.67-.31.82s-.62,0-.84-.33C8.83,15.13,7.61,13.55,6.42,12c-.23-.31-.4-.41-.77-.23a11.79,11.79,0,0,1-1.42.59c-.53.2-.87,0-.91-.6a5.12,5.12,0,0,1,.86-3.35A.52.52,0,0,0,4.25,8c-.18-.5-.38-1-.59-1.46a.42.42,0,0,0-.3-.21c-.71,0-1.41,0-2.15,0ZM21.34,12.18h4.81L21.34,7.37ZM11.12,8.25C10.19,7.18,8.21,7,6.63,7.75c-1.16.56-2.25,2.11-2.1,3.17ZM4.29,4.91l.9,2.22L8,6l-.9-2.21Zm5.4,9.42.08,0-.49-4-2,.83Zm-7-10.9a1.33,1.33,0,0,0,1.64.21,23,23,0,0,1,2.17-.9,1.06,1.06,0,0,0,.71-1.15Z"/><path class="cls-2" d="M14.24,20.49h9.94c.47,0,.7.22.69.59s-.26.55-.68.57a1.47,1.47,0,0,1-.21,0H4.47c-.18,0-.41,0-.52-.07A.88.88,0,0,1,3.6,21c0-.18.27-.37.45-.5s.3,0,.45,0Z"/><path class="cls-2" d="M14.26,25.1H24a2.26,2.26,0,0,1,.37,0,.57.57,0,0,1,0,1.14,2.29,2.29,0,0,1-.37,0H4.44a2.29,2.29,0,0,1-.37,0,.57.57,0,0,1,0-1.14,2.29,2.29,0,0,1,.37,0Z"/><path class="cls-2" d="M14.18,30.86H4.48c-.65,0-.91-.16-.91-.58s.28-.59.92-.59H24.08c.52,0,.79.22.79.6s-.25.57-.79.57C20.78,30.87,17.48,30.86,14.18,30.86Z"/><path class="cls-2" d="M14.27,34.32H24.34a.53.53,0,0,1,.53.49.54.54,0,0,1-.42.63,1.71,1.71,0,0,1-.45,0q-9.78,0-19.56,0a1.6,1.6,0,0,1-.49,0,.48.48,0,0,1-.36-.62,1.17,1.17,0,0,1,.49-.47c.11-.07.3,0,.45,0Z"/></g></g></svg>