<svg xmlns="http://www.w3.org/2000/svg" viewBox="0 0 127.94 127.88"><defs><style>.cls-1{fill:#48494a;}.cls-2{fill:#f57f20;}.cls-3{fill:#494949;}</style></defs><g id="Layer_2" data-name="Layer 2"><g id="Layer_1-2" data-name="Layer 1"><path class="cls-1" d="M0,118.89V9a5.46,5.46,0,0,0,.26-.67A9.93,9.93,0,0,1,4.43,2.08,32,32,0,0,1,9,0h109.9c.06.05.12.14.19.15,5.55,1.06,8.92,5.91,8.85,11.72-.16,14.4-.05,28.8-.05,43.2,0,20.47,0,40.94,0,61.42a12.89,12.89,0,0,1-1.06,5.29c-2,4.17-5.46,6.1-10,6.1H11.12c-.37,0-.75,0-1.12,0A9.66,9.66,0,0,1,2.59,124,34.93,34.93,0,0,1,0,118.89ZM4.25,21.41v1.26q0,46.89,0,93.78c0,4.56,2.64,7.18,7.24,7.18H116.39c4.64,0,7.24-2.63,7.24-7.31V21.41ZM123.62,17c0-2.19.08-4.23,0-6.26a7.66,7.66,0,0,0-.78-3c-1.34-2.64-3.72-3.46-6.54-3.46H10.79c-3,.15-5.5,1.67-6,4.33A65.91,65.91,0,0,0,4.08,17Z"/><path class="cls-2" d="M106.62,72.52c-.1,23.41-19.44,42.76-42.73,42.59a42.63,42.63,0,1,1,42.73-42.59ZM34.41,96.84c3.05-1.77,6-3.44,8.83-5.17a1.25,1.25,0,0,0,.38-1.11,73,73,0,0,1-1.95-14.8,6.29,6.29,0,0,0-.15-1H25.73A38.12,38.12,0,0,0,34.41,96.84Zm67.75-22.1H86.4a1.22,1.22,0,0,0-.12.33,78.7,78.7,0,0,1-2.06,15.66,1,1,0,0,0,.35.92c2.91,1.74,5.86,3.43,8.9,5.19A38,38,0,0,0,102.16,74.74ZM25.73,70.29c5.15,0,10.13,0,15.12,0,.28,0,.77-.59.78-.92a76.31,76.31,0,0,1,2-15,1.2,1.2,0,0,0-.36-1c-2.91-1.74-5.86-3.42-8.89-5.17A38.07,38.07,0,0,0,25.73,70.29Zm60.6-.09h15.82a37.8,37.8,0,0,0-8.7-22.11C90.54,49.8,87.81,51.45,85,53c-.77.43-.88.81-.73,1.65q.92,5.09,1.62,10.2C86.15,66.6,86.2,68.39,86.33,70.2ZM61.7,74.73H45.91a70.31,70.31,0,0,0,2,14.77L61.7,87ZM80,89.5A69.67,69.67,0,0,0,82,74.75H66.2V87ZM66.21,58V70.22H82A68.09,68.09,0,0,0,80,55.43ZM46,70.2H61.66V58L47.94,55.44C47.05,57.44,45.75,67.11,46,70.2ZM66.21,91.63v19c7.34-3.37,10.05-9.85,12.6-16.6A43.73,43.73,0,0,0,66.21,91.63ZM49.11,94c1.56,4.58,3.47,8.87,6.7,12.45a12.12,12.12,0,0,0,5.85,3.9V91.62A44.44,44.44,0,0,0,49.11,94ZM61.7,34.36c-7.41,3.21-10,9.77-12.59,16.38,2.35,1.32,10.09,2.77,12.59,2.37Zm17,16.46A33.27,33.27,0,0,0,72,38.34a11.81,11.81,0,0,0-5.78-3.8V53.16A34.94,34.94,0,0,0,78.7,50.82ZM45,49.48a43.14,43.14,0,0,1,6.85-13.22,36.12,36.12,0,0,0-14.38,8.59Zm38-.08,7.35-4.57A37.87,37.87,0,0,0,76,36.15c1.38,2.19,2.79,4.16,3.92,6.27S81.92,46.87,83,49.4ZM37.48,100.07a38.17,38.17,0,0,0,14.74,8.81A41.18,41.18,0,0,1,45,95.47ZM76,108.69a36.45,36.45,0,0,0,14.42-8.62l-7.52-4.61A43,43,0,0,1,76,108.69Z"/><path class="cls-3" d="M78.79,12.78H43.84a12.61,12.61,0,0,1-1.37,0,2.11,2.11,0,0,1-2-2,2.16,2.16,0,0,1,1.75-2.13,6.86,6.86,0,0,1,1.36-.07h70.52a5.17,5.17,0,0,1,1.72.2A1.91,1.91,0,0,1,117.16,11a1.91,1.91,0,0,1-1.8,1.76,12.46,12.46,0,0,1-1.5,0Z"/><path class="cls-2" d="M13.81,12.78h-.38c-1.81,0-2.76-.76-2.75-2.14s1-2.12,2.78-2.13a15,15,0,0,1,1.5,0A2.1,2.1,0,0,1,17,10.73a2,2,0,0,1-2.08,2c-.37,0-.75,0-1.12,0Z"/><path class="cls-2" d="M32,8.51a2.17,2.17,0,0,1,2.08,2.19,2.14,2.14,0,0,1-4.27-.11A2.17,2.17,0,0,1,32,8.51Z"/><path class="cls-2" d="M23.47,8.52a2.14,2.14,0,0,1,2.08,2.19,2.06,2.06,0,0,1-2.2,2,2.16,2.16,0,0,1-2.06-2.09A2.25,2.25,0,0,1,23.47,8.52Z"/></g></g></svg>