<svg xmlns="http://www.w3.org/2000/svg" viewBox="0 0 261.36 261.36"><defs><style>.cls-1{fill:#f57f20;}</style></defs><g id="Layer_2" data-name="Layer 2"><g id="Layer_1-2" data-name="Layer 1"><path d="M129.15,261.36l-17.75-8.74a20.29,20.29,0,0,1-2.92-1.54c-1.75-1.23-2.34-3-1.27-4.89s2.69-2.67,4.73-1.75c4.26,1.9,8.47,3.93,12.7,5.9.59.28,1.22.49,2.1.84v-2.75q0-34.06,0-68.14c0-1.5-.06-2.61-1.79-3.43-18-8.46-35.88-17.05-53.81-25.59-.51-.25-1.07-.4-1.88-.7v2.73c0,22.71,0,45.43,0,68.14a3.4,3.4,0,0,0,2.28,3.65c8.31,3.86,16.57,7.85,24.84,11.8a21.81,21.81,0,0,1,2.05,1c2,1.2,2.68,3.15,1.78,5-1,2.12-2.83,2.6-4.93,2a27.08,27.08,0,0,1-3.48-1.57c-8.89-4.24-17.75-8.54-26.69-12.66-2.7-1.25-3.71-3.08-3.71-6q.08-39.43,0-78.86A5.65,5.65,0,0,1,65,140c9.77-4.55,19.45-9.29,29.23-13.83a3.18,3.18,0,0,0,2.14-3.47c-.1-5.43,0-10.86,0-16.69-4.26,0-8.31,0-12.35,0-1.18,0-2.63.17-3.47-.42-1.18-.82-2.62-2.29-2.63-3.49s1.46-2.6,2.6-3.52c.67-.54,2-.41,3-.41,4.77,0,9.53,0,14.29,0,5.23,0,6.35,1.1,6.35,6.22v17c1-.44,1.77-.73,2.49-1.08,6.75-3.2,13.55-6.29,20.21-9.69a7.58,7.58,0,0,1,7.9.07c2.41,1.37,5,2.4,7.75,3.68V28.22H113.73c0,2.56,0,5.15,0,7.75s.07,5.27,0,7.91c-.11,3.24-1.54,4.59-4.79,4.59q-19.39,0-38.8,0c-3.75,0-5.07-1.35-5.08-5.34,0-9.86,0-19.73,0-29.6,0-2.89-.06-5.79,0-8.68.09-3.55,1.47-4.85,5-4.85h38.54c3.68,0,5.06,1.35,5.09,5.07.05,5,0,10,0,15.34h31c4.52,0,5.73,1.2,5.73,5.72,0,29.7,0,59.39-.06,89.08,0,2.34.76,3.4,2.8,4.33,6.4,2.89,12.7,6,19.37,9.17V72.55c0-5,1.07-6,6.18-6h34.15c0-5.08,0-9.9,0-14.73,0-4.4,1.21-5.68,5.52-5.68q18.75,0,37.51,0c4.18,0,5.44,1.31,5.44,5.5q0,18.89,0,37.78c0,4.14-1.28,5.42-5.52,5.42q-18.75,0-37.51,0c-4.18,0-5.44-1.31-5.44-5.5,0-4.84,0-9.68,0-14.71H180.19v2.49c0,17.61,0,35.22-.05,52.83a3.33,3.33,0,0,0,2.33,3.6c4.73,2.1,9.33,4.49,14.05,6.61a5.23,5.23,0,0,1,3.46,5.35c-.07,5.44,0,10.89,0,16.33a11.45,11.45,0,0,1-.28,2.26A3.42,3.42,0,0,1,196,167c-1.95,0-3.37-1-3.61-2.89-.29-2.35-.27-4.74-.33-7.11,0-2,0-4.07,0-6.43-.92.38-1.61.63-2.26.93q-26.55,12.64-53.12,25.27c-1.31.63-2.13,1.24-2.12,3q.09,35,0,69.93c0,.42.06.84.12,1.54,1-.4,1.8-.71,2.6-1.09,17.47-8.32,34.93-16.68,52.43-24.93,1.85-.87,2.36-1.91,2.35-3.86-.09-12.94,0-25.87,0-38.8,0-.59,0-1.19,0-1.78.11-3.11,1.65-5,4-4.94s3.83,1.85,3.84,4.83c0,15,0,29.95,0,44.92,0,2.71-1.52,4.07-3.78,5.14Q165.35,245.26,134.56,260c-.82.39-1.57.92-2.35,1.39Zm-2.59-92.27V119.32c-7.28,3.48-14.32,6.79-21.29,10.24a2.85,2.85,0,0,0-1.13,2.18q-.12,12.48,0,25a2.71,2.71,0,0,0,.94,2C112.12,162.23,119.23,165.59,126.56,169.09Zm24-7.93a2.65,2.65,0,0,0,.86,0c6.66-3.16,13.34-6.3,20-9.57a2.92,2.92,0,0,0,1.11-2.19c.12-3.31,0-6.63.09-9.94a2.82,2.82,0,0,0-1.9-3.1c-5.4-2.46-10.74-5.07-16.1-7.61-1.27-.6-2.56-1.14-4-1.79ZM105.68,25.39V7.82H73V25.39Zm115,46.09h32.93V54.14H220.63Zm-85.9,97.61c2.49-1.17,4.81-2.17,7-3.37a2.51,2.51,0,0,0,.78-1.92q.08-19.62,0-39.22a2.66,2.66,0,0,0-1-2c-2.11-1.18-4.35-2.13-6.75-3.26Zm-29-135.78H73.06v7.35h32.66ZM253.59,79.68H220.65v7.09h32.94ZM74.35,144.2,96.2,154.61V133.8Zm112.65,0-6.63-3.1v6.27Z"/><path class="cls-1" d="M0,80.14A6.78,6.78,0,0,1,5.78,77.7c12.33.07,24.66,0,37,0,4.52,0,5.71,1.22,5.72,5.74V98.15h5.87c3.4,0,6.81-.07,10.2,0,2.93.08,4.68,1.71,4.59,4s-1.75,3.72-4.59,3.78c-4.33.09-8.67,0-13,0H48.49V120.7c0,4.52-1.2,5.74-5.72,5.74-12.33,0-24.66,0-37,0A6.78,6.78,0,0,1,0,124ZM40.72,85.8H7.77v17.31h33Zm0,25.52H7.86v7.11H40.72Z"/><path class="cls-1" d="M89.43,20.39c-1.28,0-2.56.06-3.83,0a3.82,3.82,0,0,1-3.89-3.86,3.76,3.76,0,0,1,3.77-3.72c2.63-.1,5.27-.11,7.9,0A3.66,3.66,0,0,1,97,16.65a3.74,3.74,0,0,1-3.73,3.73C92,20.46,90.7,20.39,89.43,20.39Z"/><path class="cls-1" d="M237.05,66.86c-1.58-.15-3.38.1-4.72-.58a5.72,5.72,0,0,1-2.73-3.43,3,3,0,0,1,2.75-3.64,44.44,44.44,0,0,1,9.58.12c1.09.16,2.42,2.07,2.7,3.39a3.09,3.09,0,0,1-2.74,3.67C240.31,66.68,238.69,66.71,237.05,66.86Z"/></g></g></svg>