<svg xmlns="http://www.w3.org/2000/svg" viewBox="0 0 51.92 51.94"><defs><style>.cls-1{fill:#48494a;}.cls-2{fill:#f57f20;}</style></defs><g id="Layer_2" data-name="Layer 2"><g id="Layer_1-2" data-name="Layer 1"><path class="cls-1" d="M0,51.21V27.79a1.42,1.42,0,0,1,1.26-.69c2.48,0,5,0,7.45,0a3.33,3.33,0,0,1,3.39,2.58,9.08,9.08,0,0,1,.14,1.22h1.42v-8.6h-.52c-1.1,0-2.2,0-3.3,0a1,1,0,0,1-1-1.25,1.45,1.45,0,0,1,.36-.59L18,11.65c.11-.1.23-.25.36-.27a2.41,2.41,0,0,1,1,0,.74.74,0,0,1,.49.9,2.15,2.15,0,0,1-.52.93c-2.2,2.23-4.42,4.43-6.63,6.64l-.43.44c1.1,0,2.08,0,3.06,0a1,1,0,0,0,.84-.34q6.45-6.46,12.91-12.9c.81-.81,1.24-.81,2,0,4.1,4.09,8.22,8.17,12.29,12.3a2.6,2.6,0,0,0,2.32.95,17.46,17.46,0,0,1,2,0L30,2.47c-.23.26-.47.54-.73.8L25.39,7.18A1,1,0,0,1,23.62,7,1.09,1.09,0,0,1,24,5.69L28.93.75c.28-.27.59-.5.89-.75h.6a7,7,0,0,1,.66.54L50.93,20.35a1.17,1.17,0,0,1,.41,1.35c-.22.54-.69.62-1.21.61H46.57V38.39l.41-.11A3.91,3.91,0,0,1,51.92,42a3.68,3.68,0,0,1-1.5,2.87c-1.76,1.42-3.51,2.86-5.28,4.26a12.28,12.28,0,0,1-7.76,2.79c-5.07,0-10.14,0-15.21,0a14.15,14.15,0,0,1-4-.65,22.27,22.27,0,0,1-5.22-2.64l-.69-.41a1.48,1.48,0,0,0,0,.32,3.43,3.43,0,0,1-3.72,3.4c-2.36-.08-4.73,0-7.1,0A1.36,1.36,0,0,1,0,51.21ZM12.23,33.05a2.51,2.51,0,0,0,0,.31c0,4,0,8,0,12.07a.76.76,0,0,0,.31.55c1,.63,2,1.2,3,1.82A13.48,13.48,0,0,0,23,49.9c4.51,0,9,0,13.54,0a11.48,11.48,0,0,0,7.79-2.73c1.6-1.35,3.25-2.64,4.87-4a1.54,1.54,0,0,0,.09-2.52,1.85,1.85,0,0,0-2.46-.07q-2.74,2-5.47,4.11a2.85,2.85,0,0,1-1.78.6c-4,0-8,0-12.07,0a4.43,4.43,0,0,1-2.05-.41c-1.51-.81-2.95-1.77-4.39-2.7a.87.87,0,0,1-.34-.68,1.53,1.53,0,0,1,.43-.9.93.93,0,0,1,1.18,0c1,.63,2,1.25,2.93,1.9a4.45,4.45,0,0,0,2.58.77h11.4c.85,0,1.17-.31,1.16-1.15A1.24,1.24,0,0,0,39,40.77c-2.51,0-5,0-7.51,0A4.61,4.61,0,0,1,28,39.31c-1.63-1.67-3.29-3.3-4.93-5a3.57,3.57,0,0,0-2.3-1.27C17.94,33,15.12,33,12.3,33Zm3.52-10.76v8.65h4.09a6.15,6.15,0,0,1,3.24.84,2.45,2.45,0,0,0,.34.13V24.57c0-1,.33-1.34,1.32-1.34h10.7c1,0,1.37.32,1.37,1.36V38.74H39.3a2.6,2.6,0,0,1,2,.76,18.57,18.57,0,0,1,1.26,1.77c.47-.35,1-.79,1.6-1.19a.85.85,0,0,0,.39-.8q0-8.2,0-16.42v-.58a1.72,1.72,0,0,1-1.71-.68Q36.69,15.47,30.55,9.35l-.5-.48a5.13,5.13,0,0,1-.38.47L17.45,21.56A1.75,1.75,0,0,1,15.75,22.29ZM2,49.9H8.57a1.38,1.38,0,0,0,1.58-1.57V30.74c0-1.07-.47-1.56-1.53-1.56H2.49a3.58,3.58,0,0,0-.45,0Zm32.7-11.17V25.28H25.5a.53.53,0,0,0,0,.16c0,2.72,0,5.43,0,8.15a.76.76,0,0,0,.22.48c1.31,1.33,2.61,2.68,4,4A2.48,2.48,0,0,0,31,38.7C32.24,38.79,33.48,38.73,34.74,38.73Z"/><path class="cls-2" d="M22.71,9.41a1,1,0,0,1-1,1,1.05,1.05,0,0,1-1-1,1,1,0,0,1,1-1A1,1,0,0,1,22.71,9.41Z"/><path class="cls-2" d="M30.1,13.36a4,4,0,0,1,4,3.95,4,4,0,1,1-7.91,0A4,4,0,0,1,30.1,13.36Zm0,2a1.93,1.93,0,0,0-1.9,1.9,1.92,1.92,0,0,0,3.84,0A1.93,1.93,0,0,0,30.09,15.4Z"/><path class="cls-2" d="M40.16,33.71V30.62c0-.7.4-1.14,1-1.13s1,.43,1,1.14c0,2,0,4.09,0,6.13,0,.7-.38,1.15-1,1.16s-1-.44-1-1.17Z"/><path class="cls-2" d="M42.18,26.61a1,1,0,1,1-1-1A1,1,0,0,1,42.18,26.61Z"/><path class="cls-2" d="M7.1,45.44a1,1,0,0,1-1,1,1,1,0,1,1,0-2A1,1,0,0,1,7.1,45.44Z"/><path class="cls-2" d="M27.76,33a1,1,0,0,1-1-1,1,1,0,0,1,1-1,1.05,1.05,0,0,1,1,1A1,1,0,0,1,27.76,33Z"/></g></g></svg>