<svg xmlns="http://www.w3.org/2000/svg" viewBox="0 0 55.34 49.49"><defs><style>.cls-1{fill:#48494a;}.cls-2{fill:#f57f20;}</style></defs><g id="Layer_2" data-name="Layer 2"><g id="Layer_1-2" data-name="Layer 1"><path class="cls-1" d="M0,42.25c.44-.63.44-.63,1.84-.81V13.32A4.34,4.34,0,0,1,6.53,8.65h6.22v-.6c0-2.31,0-4.61,0-6.92A1.06,1.06,0,0,1,13.82,0,1.08,1.08,0,0,1,14.9,1.12c0,.16,0,.32,0,.48V20.75H44.72a1.15,1.15,0,0,0,.89-.37c2.1-2.13,4.22-4.24,6.33-6.35A3.35,3.35,0,0,0,52,8.9c-2.12-2.13-4.25-4.25-6.36-6.39a1.08,1.08,0,0,0-.85-.35H23c-.82,0-1.35-.42-1.35-1.08S22.16,0,23,0H45.45a1.65,1.65,0,0,1,1.24.53c2.29,2.3,4.58,4.58,6.86,6.89a5.54,5.54,0,0,1,.17,7.94.9.9,0,0,0-.23.55q0,12.7,0,25.39a1.88,1.88,0,0,0,0,.2c.25,0,.51,0,.77,0a1,1,0,0,1,1,.94,6.09,6.09,0,0,1-5.92,7q-21.72,0-43.43,0A6,6,0,0,1,.11,44.6,1.82,1.82,0,0,0,0,44.3Zm8-.8h39.3V26.08a3.84,3.84,0,0,1,0-.59,1.07,1.07,0,0,1,2.12,0,3.84,3.84,0,0,1,0,.59v15.4h1.8V17.8c-1.55,1.55-3.05,3-4.52,4.53a1.84,1.84,0,0,1-1.39.59q-15.6,0-31.22,0c-1,0-1.4-.36-1.4-1.39V10.81H6.59A2.26,2.26,0,0,0,4,13.38V41.46H5.84V14.15c0-1,.36-1.39,1.39-1.39H10a1.1,1.1,0,0,1,1.25,1.06c0,.65-.49,1.09-1.26,1.09H8ZM2.1,43.67a10.2,10.2,0,0,0,.54,1.59,3.9,3.9,0,0,0,3.75,2.07H42.74c2.11,0,4.22,0,6.32,0a3.83,3.83,0,0,0,4-3.66Z"/><path class="cls-2" d="M31.74,11.46a5.41,5.41,0,1,1,5.37,5.4A5.42,5.42,0,0,1,31.74,11.46Zm2.18,0a3.22,3.22,0,1,0,3.23-3.23A3.24,3.24,0,0,0,33.92,11.45Z"/><path class="cls-2" d="M21.25,6.06a3.34,3.34,0,0,1,3.43,3,1.13,1.13,0,0,1-.87,1.3,1.08,1.08,0,0,1-1.25-.91c-.25-1-1-1.46-1.85-1.11a1,1,0,0,0,0,1.91,3,3,0,0,0,.8.13,3.31,3.31,0,0,1,3.13,3.74,3.46,3.46,0,0,1-4.09,2.68,3.29,3.29,0,0,1-2.75-2.92,1.12,1.12,0,0,1,.88-1.33,1.09,1.09,0,0,1,1.23.94,1.32,1.32,0,0,0,1.82,1.1,1,1,0,0,0,0-1.94,2.7,2.7,0,0,0-.69-.12,3.37,3.37,0,0,1-3.28-3.29A3.37,3.37,0,0,1,21.25,6.06Z"/><path class="cls-2" d="M28,12.54V14.7c1.09,0,2.14,0,3.2,0a1.06,1.06,0,0,1,1,1.48,1,1,0,0,1-1,.66c-1.48,0-2.95,0-4.43,0-.68,0-1.06-.53-1.06-1.36V9.11c0-.57,0-1.15,0-1.73a1.16,1.16,0,0,1,1.32-1.32H31c.78,0,1.29.44,1.29,1.07S31.77,8.21,31,8.21H28v2.17c.67,0,1.32,0,2,0a1.08,1.08,0,1,1,0,2.15Z"/><path class="cls-2" d="M47.16,14.7a3.24,3.24,0,1,1,3.26-3.22A3.27,3.27,0,0,1,47.16,14.7Zm1.05-3.22a1,1,0,1,0-2.09,0,1,1,0,0,0,1,1.06A1.07,1.07,0,0,0,48.21,11.48Z"/><path class="cls-2" d="M17.16,1.09A1.07,1.07,0,0,1,18.21,0a1.11,1.11,0,0,1,1.1,1.1,1.11,1.11,0,0,1-1.1,1.05A1.07,1.07,0,0,1,17.16,1.09Z"/><path class="cls-1" d="M27.61,30.15H13.52a4,4,0,0,1-.6,0A1.06,1.06,0,0,1,12,29a1.05,1.05,0,0,1,.92-1,2.57,2.57,0,0,1,.48,0H41.86c.86,0,1.31.32,1.37,1a1,1,0,0,1-.93,1.17,3.25,3.25,0,0,1-.54,0Z"/><path class="cls-2" d="M37,35.55c-1.69,0-3.38,0-5.07,0a1.05,1.05,0,0,1-1.1-1.43,1,1,0,0,1,1-.72H42.14a1.07,1.07,0,1,1,0,2.14Z"/><path class="cls-2" d="M18.21,35.55H13.35c-.84,0-1.34-.4-1.35-1.07s.5-1.09,1.32-1.09h9.77c.78,0,1.28.42,1.3,1.06s-.51,1.1-1.33,1.1Z"/><path class="cls-2" d="M27.67,33.4a1.07,1.07,0,1,1-.05,2.14,1.07,1.07,0,0,1,.05-2.14Z"/><path class="cls-1" d="M27.66,46.57H23.13c-.77,0-1.28-.43-1.29-1.07a1.12,1.12,0,0,1,1.27-1.09h9.06c.78,0,1.29.43,1.3,1.07s-.51,1.08-1.28,1.09Z"/></g></g></svg>