<svg xmlns="http://www.w3.org/2000/svg" viewBox="0 0 118.19 106.44"><defs><style>.cls-1{fill:#f57f20;}</style></defs><g id="Layer_2" data-name="Layer 2"><g id="Layer_1-2" data-name="Layer 1"><path d="M0,8.45A11.56,11.56,0,0,1,3.14,2.68,10.91,10.91,0,0,1,10.88,0h96.34A11.35,11.35,0,0,1,113,1.26a9.49,9.49,0,0,1,5.12,8.21c.13,2.73,0,5.46,0,8.19a2,2,0,0,1-2,2.08,1.94,1.94,0,0,1-1.91-2c0-2.38,0-4.77,0-7.15C114.3,6.23,111.14,4,107.7,4q-48.63.09-97.26,0C7.06,4,3.93,6.17,3.93,10.33V62.26c0,.19,0,.38,0,.71.41,0,.81.07,1.21.08,2.39,0,4.77,0,7.16,0a4.14,4.14,0,0,1,1.58.2A1.81,1.81,0,0,1,15,65.32,1.85,1.85,0,0,1,13.16,67c-1.15.09-2.3,0-3.46,0H3.83a72.31,72.31,0,0,0,.38,7.3C4.59,77,7,78.66,9.91,78.83h97.72c3.39,0,5.83-1.79,6.4-4.67a8.52,8.52,0,0,0,.18-1.6c0-1.79,0-3.59,0-5.51H24.73a6.08,6.08,0,0,1-1.6-.14,1.92,1.92,0,0,1,.18-3.75,11,11,0,0,1,1.72-.1h89.19V61.59q0-14.48,0-29c0-.42,0-.85,0-1.27a1.95,1.95,0,0,1,3.88,0,9,9,0,0,1,0,1V72.23c0,6.4-4.12,10.53-10.51,10.53H76.56a8.94,8.94,0,0,0,.41.86c2.11,3.39,4.24,6.77,6.33,10.17a1.5,1.5,0,0,0,1.49.78c2.46,0,4.93,0,7.37.21a9.65,9.65,0,0,1,8.24,9.49,1.91,1.91,0,0,1-1.82,2.11,8.79,8.79,0,0,1-1.26.06q-38.25,0-76.5,0a9,9,0,0,1-1.37-.09,1.85,1.85,0,0,1-1.7-2,9.69,9.69,0,0,1,8.15-9.58c2.43-.26,4.91-.2,7.36-.22a1.67,1.67,0,0,0,1.67-.88c2-3.32,4.09-6.59,6.15-9.88.17-.29.32-.58.58-1H40.27c-9.88,0-19.77-.09-29.65,0C5.5,82.87,1.11,79.65.18,74.74c0-.1-.12-.19-.18-.28Zm39.1,86H79a5.08,5.08,0,0,0-.28-.57c-2.19-3.52-4.37-7-6.61-10.54a1.79,1.79,0,0,0-1.31-.59c-7.8,0-15.61,0-23.41-.05a1.59,1.59,0,0,0-1.54.9c-1.84,3-3.74,6-5.61,9ZM96,102.35a5.37,5.37,0,0,0-.22-.6c-1.3-2.42-3.43-3.22-6-3.22H28.4a12.71,12.71,0,0,0-1.95.15c-2,.3-4,2-4.17,3.66Z"/><path class="cls-1" d="M80.76,55.14H88c.18,0,.37,0,.66-.07,0-1.5,0-3,0-4.4A2.35,2.35,0,0,1,90,48.27c1-.53,2-1.13,3-1.76a2.28,2.28,0,0,1,2.59-.11c1.86,1.08,3.74,2.13,5.59,3.23,1.26.74,1.61,1.85,1,2.89s-1.75,1.23-3,.5-2.63-1.58-4-2.35a1.91,1.91,0,0,0-2.63,1.5c0,1.54,0,3.08,0,4.61s-.72,2.37-2.3,2.39c-3.69,0-7.39,0-11.08,0a2.08,2.08,0,0,1-2.35-2.34c0-1.46,0-2.92,0-4.39a1.88,1.88,0,0,0-2.91-1.63c-1.24.69-2.47,1.41-3.72,2.09A2.1,2.1,0,0,1,67,52q-2.79-4.78-5.53-9.59c-.82-1.44-.52-2.4.94-3.26,1.29-.76,2.6-1.48,3.89-2.23a1.82,1.82,0,0,0,0-2.92c-1.33-.77-2.68-1.5-4-2.29s-1.72-1.81-.89-3.27q2.76-4.86,5.58-9.69A2.06,2.06,0,0,1,70.18,18c1.33.76,2.64,1.57,4,2.35a1.88,1.88,0,0,0,2.66-1.54c0-1.54,0-3.08,0-4.62s.7-2.25,2.26-2.26q5.6,0,11.19,0c1.6,0,2.26.73,2.27,2.37,0,1.42.09,2.85,0,4.27-.07,1,.46,1.3,1.14,1.74a1.4,1.4,0,0,0,1.76-.05c1.19-.77,2.42-1.48,3.65-2.19,1.45-.84,2.45-.61,3.29.82q2.82,4.82,5.59,9.68c.82,1.44.53,2.39-.93,3.26-1.26.74-2.54,1.44-3.8,2.17a1.82,1.82,0,0,0,0,3.12c1.26.73,2.54,1.43,3.8,2.18a2,2,0,0,1,1,2.81c-.57,1.07-1.72,1.32-3,.61-1.84-1-3.65-2.12-5.49-3.17a2.27,2.27,0,0,1-1.25-2.27,35.43,35.43,0,0,0,0-3.57,2.3,2.3,0,0,1,1.34-2.33l4-2.24-3.91-6.77c-1.34.77-2.62,1.46-3.85,2.22a2.57,2.57,0,0,1-3.19-.1A21.93,21.93,0,0,0,90,22.8a2.23,2.23,0,0,1-1.34-2.2c0-1.54,0-3.07,0-4.69H80.76c0,1.48-.05,3,0,4.45a2.5,2.5,0,0,1-1.54,2.57,28.34,28.34,0,0,0-2.86,1.7,2.29,2.29,0,0,1-2.6.1L69.6,22.34l-3.91,6.77c1.38.8,2.65,1.59,4,2.29A2.48,2.48,0,0,1,71.07,34a17.56,17.56,0,0,0,0,3,2.56,2.56,0,0,1-1.58,2.77c-1.26.65-2.47,1.37-3.8,2.11l3.91,6.77c1.37-.79,2.68-1.5,4-2.28a2.41,2.41,0,0,1,3,.1,17.48,17.48,0,0,0,2.66,1.59,2.45,2.45,0,0,1,1.58,2.54C80.72,52.08,80.76,53.54,80.76,55.14Z"/><path class="cls-1" d="M44.41,44.14l1.94-3.35c-.68-.41-1.32-.81-2-1.18a2.2,2.2,0,0,1-1.25-2.26,22,22,0,0,0,0-3.44,2.42,2.42,0,0,1,1.52-2.68c.56-.25,1.07-.59,1.69-.94l-1.93-3.35c-.65.37-1.26.69-1.84,1.07a2.34,2.34,0,0,1-2.88-.07,19.6,19.6,0,0,0-2.77-1.61A2.38,2.38,0,0,1,35.41,24V21.84H31.68c-.05.15-.12.26-.1.36.35,2.4-.8,3.56-2.85,4.82-2.28,1.39-4,1.57-6,0,0,0-.07,0-.23,0-.3.5-.64,1-1,1.59s-.6,1.06-.95,1.7c.72.42,1.37.81,2,1.18a2.2,2.2,0,0,1,1.19,2.29,20.92,20.92,0,0,0,0,3.45,2.35,2.35,0,0,1-1.45,2.59c-.55.27-1.08.59-1.73.94.34.61.64,1.18,1,1.73s.61,1.05,1,1.66l1.93-1.13a2.3,2.3,0,0,1,2.69.07,28.49,28.49,0,0,0,3,1.71,2.31,2.31,0,0,1,1.4,2.19c0,1.35,0,2.69,0,4s-.81,2.24-2,2.26-2-.83-2-2.29c0-.53,0-1.07,0-1.61,0-2-1.36-2.77-3.05-1.8-3.33,1.92-3.51,1.87-5.42-1.42-.84-1.47-1.69-2.93-2.53-4.39-1.11-1.93-.87-2.78,1.08-3.92a9,9,0,0,1,.9-.51,1.72,1.72,0,0,0,1.17-2,1.44,1.44,0,0,0-.87-1.42,17,17,0,0,1-1.9-1.09,2,2,0,0,1-.75-2.8c1.24-2.25,2.53-4.48,3.85-6.69a2,2,0,0,1,2.79-.77,7.84,7.84,0,0,1,1.59.92,1.77,1.77,0,0,0,2.55-.09,1.66,1.66,0,0,0,.56-1c.09-.8,0-1.62,0-2.42a2.1,2.1,0,0,1,2.28-2.23q3.69-.07,7.38,0A2.1,2.1,0,0,1,39.42,20a7.22,7.22,0,0,1,0,1.61,1.73,1.73,0,0,0,1.34,2.16,2,2,0,0,0,1.23,0c.7-.31,1.32-.77,2-1.13a2,2,0,0,1,3,.74c1.3,2.17,2.57,4.37,3.79,6.59A2,2,0,0,1,50,32.83a7.15,7.15,0,0,1-1.49.85,1.74,1.74,0,0,0-1.19,2.25,1.79,1.79,0,0,0,.58,1c.69.49,1.47.84,2.17,1.3A1.94,1.94,0,0,1,50.81,41Q49,44.39,47,47.69a2,2,0,0,1-2.88.73,7.86,7.86,0,0,1-1.49-.87,1.72,1.72,0,0,0-2.46,0,2.13,2.13,0,0,0-.66,1.16c-.11.75,0,1.54,0,2.3a2,2,0,0,1-1.94,2.17,1.93,1.93,0,0,1-2-2c-.09-1.46-.05-2.92,0-4.38a2.17,2.17,0,0,1,1.36-2,19.09,19.09,0,0,0,2.79-1.58,2.44,2.44,0,0,1,3.08-.11C43.2,43.47,43.77,43.77,44.41,44.14Z"/><path d="M84.68,43.37a7.88,7.88,0,1,1,7.86-7.81A7.84,7.84,0,0,1,84.68,43.37Zm0-4a4,4,0,0,0,4-3.85,3.93,3.93,0,1,0-7.85,0A3.92,3.92,0,0,0,84.66,39.39Z"/><path d="M33.64,29.6a5.92,5.92,0,1,1-6.09,5.77A6,6,0,0,1,33.64,29.6Zm-.11,7.79a1.9,1.9,0,0,0-.05-3.8,1.9,1.9,0,1,0,.05,3.8Z"/><path d="M58,7.71c2.34.39,4.68.74,7,1.2,1.61.32,2.26,1.28,1.93,2.55s-1.36,1.7-2.87,1.3a22.41,22.41,0,0,0-8.66-.69,22,22,0,0,0-7.84,2.47c-2.21,1.19-3.34,1.18-4-.09s-.12-2.18,2.15-3.4A28.54,28.54,0,0,1,58,7.71Z"/><path d="M58.49,59.18a27.67,27.67,0,0,1-13.62-3.63,5.92,5.92,0,0,1-.68-.42,2,2,0,0,1-.62-2.56,1.89,1.89,0,0,1,2.49-.78c1.48.63,2.9,1.41,4.4,2a21.28,21.28,0,0,0,11.77,1,5.06,5.06,0,0,1,.68-.1,2,2,0,0,1,2.15,1.66,1.86,1.86,0,0,1-1.54,2.21C61.55,58.83,59.57,59,58.49,59.18Z"/><path class="cls-1" d="M94.54,73a2.07,2.07,0,0,1-2.05,1.94,2,2,0,0,1-1.89-2.07,1.92,1.92,0,0,1,2-1.84A2,2,0,0,1,94.54,73Z"/><path class="cls-1" d="M102.41,72.89a2.06,2.06,0,0,1-2,2,2,2,0,0,1-2-1.88,1.9,1.9,0,0,1,1.88-2A2,2,0,0,1,102.41,72.89Z"/></g></g></svg>