<svg xmlns="http://www.w3.org/2000/svg" viewBox="0 0 48.81 49.62"><defs><style>.cls-1{fill:#48494a;}.cls-2{fill:#f57f20;}</style></defs><g id="Layer_2" data-name="Layer 2"><g id="Layer_1-2" data-name="Layer 1"><path class="cls-1" d="M4.09,26.84V43.08H25.22V35.21a.81.81,0,1,1,1.62,0v7.9h.76c1.67,0,1.69,0,1.68,1.71a8.77,8.77,0,0,1-.11,1.62,4,4,0,0,1-3.88,3.18H4a4,4,0,0,1-4-4c0-.55,0-1.11,0-1.67a.77.77,0,0,1,.82-.83c.52,0,1,0,1.61,0V26.3c0-.84.24-1.08,1.09-1.08h7.22a.79.79,0,0,1,.88.66.76.76,0,0,1-.49.9,1.41,1.41,0,0,1-.55.06H4.09ZM23.62,48c2.92.26,4.49-1,4-3.18h-26c0,.29,0,.54,0,.8a2.3,2.3,0,0,0,1.61,2.23,17.66,17.66,0,0,0,2.46.25c0-.36,0-.58,0-.8,0-.56.32-.9.82-.89s.79.34.8.91V48H21.94c.08-1.28.22-1.57.8-1.59S23.49,46.63,23.62,48Z"/><path class="cls-2" d="M24.38,20,14.21,28.36c.38.67.76,1.32,1.14,2,.27.48.56,1,.83,1.45s.26,1.07-.2,1.32-.88.08-1.23-.52c-.55-.93-1.09-1.87-1.63-2.81l-.3-.49c-1,.61-2,1.16-3,1.82a1.46,1.46,0,0,0-.37,2c.52,1,1.06,1.89,1.63,2.81a1.51,1.51,0,0,0,2.16.58c3.35-2.22,7.2-3.3,10.89-4.74C26,31,28,30.28,29.91,29.55l-1.5-2.61c-.66-1.15-1.33-2.29-2-3.43-.32-.56-.24-1,.21-1.28s.9-.08,1.21.46l3.83,6.64c.43.75.28,1.18-.54,1.49L19.81,35.08l-.61.24c.49.85,1,1.68,1.44,2.51a2.43,2.43,0,0,1-1.84,3.7,2.32,2.32,0,0,1-2.38-1.24c-.55-.91-1.07-1.84-1.52-2.62a23.24,23.24,0,0,1-2.43.65,2.4,2.4,0,0,1-2-.67.49.49,0,0,0-.7,0,2.77,2.77,0,0,1-2,.54,2.42,2.42,0,0,1-2-1.89,2.2,2.2,0,0,1,1-2.5,1.49,1.49,0,0,0,.88-1.64A2.89,2.89,0,0,1,9,29.6a1.64,1.64,0,0,1,.22-.14c3.12-1.5,5.66-3.8,8.29-6L24,18.18a.85.85,0,0,1,1.43.24c.25.4.49.81.71,1.23a.82.82,0,1,1-1.42.82ZM17.61,35.91l-1.38.8c.56,1,1.07,1.88,1.61,2.78a.79.79,0,0,0,1.09.31.73.73,0,0,0,.33-1C18.74,37.84,18.18,36.91,17.61,35.91ZM8.43,34.64c-.49.31-1.12.44-1.08,1.12a.92.92,0,0,0,.44.66c.56.3,1-.13,1.43-.42Z"/><path class="cls-1" d="M41.47.81h4.82A2.41,2.41,0,0,1,48.8,3.3V13a2.4,2.4,0,0,1-2.5,2.49c-3.22,0-6.44,0-9.66,0A2.39,2.39,0,0,1,34.17,13q0-2.34,0-4.68c0-.64.29-1,.82-1s.8.36.8,1v4.42c0,.78.29,1.07,1.08,1.07h9.25c.75,0,1.06-.3,1.06-1V3.48c0-.74-.3-1-1-1H36.82c-.74,0-1,.3-1,1.06,0,.46,0,.91,0,1.37a.78.78,0,0,1-.78.82.79.79,0,0,1-.83-.83q0-.84,0-1.68A2.4,2.4,0,0,1,36.54.82C38.18.8,39.82.81,41.47.81Z"/><path class="cls-1" d="M41.46,40.67H36.68a2.4,2.4,0,0,1-2.51-2.53q0-4.8,0-9.6A2.4,2.4,0,0,1,36.65,26h9.66a2.4,2.4,0,0,1,2.49,2.5v4.63c0,.65-.29,1-.81,1s-.81-.35-.81-1V28.74c0-.79-.29-1.08-1.07-1.08-3.08,0-6.17,0-9.25,0-.78,0-1.07.29-1.07,1.07V38c0,.75.3,1,1,1.06h9.3c.75,0,1-.31,1-1.06,0-.45,0-.91,0-1.37a.81.81,0,1,1,1.62,0c0,.61,0,1.22,0,1.83a2.4,2.4,0,0,1-2.35,2.23Z"/><path class="cls-1" d="M11.39,15.48v6.25c0,.78-.26,1-1,1H1c-.74,0-1-.27-1-1q0-6.3,0-12.61c0-.75.26-1,1-1h9.4c.7,0,1,.27,1,1ZM9.73,21.13V9.8H1.65V21.13Z"/><path class="cls-1" d="M20.33,14.64a7.32,7.32,0,1,1,7.32-7.32A7.3,7.3,0,0,1,20.33,14.64ZM26,7.35a5.7,5.7,0,0,0-11.39-.06A5.7,5.7,0,0,0,26,7.35Z"/><path class="cls-2" d="M41.45,36.6a3.25,3.25,0,1,1,3.28-3.21A3.22,3.22,0,0,1,41.45,36.6Zm1.66-3.26A1.63,1.63,0,1,0,41.5,35,1.66,1.66,0,0,0,43.11,33.34Z"/><path class="cls-1" d="M41.48,9v2.26c0,.6-.3.95-.81.95s-.81-.35-.81-.95V8.94h-.81a.81.81,0,1,1,0-1.62c.25,0,.5,0,.8,0V6.48a2.41,2.41,0,0,1,2.42-2.41c.53,0,1,0,1.58,0a.81.81,0,1,1,0,1.62H42.59c-.84,0-1.11.28-1.11,1.14V7.3c.67.09,1.55-.22,1.62.85C43.13,8.71,42.86,8.84,41.48,9Z"/><path class="cls-2" d="M33.56,24.4c-.71,0-1.06-.26-1.11-.72a.83.83,0,0,1,.75-.91L37.06,22c.63-.13,1.06.11,1.16.59s-.16.91-.81,1.05C36.07,23.91,34.73,24.17,33.56,24.4Z"/><path class="cls-2" d="M30.81,21.21a2.56,2.56,0,0,1-.63-.56.68.68,0,0,1,.18-.92c1.11-.85,2.23-1.69,3.37-2.52a.78.78,0,0,1,1.08.19.77.77,0,0,1-.1,1.09c-1.12.87-2.27,1.71-3.41,2.55A1.76,1.76,0,0,1,30.81,21.21Z"/><path class="cls-2" d="M28.59,17.89c-.75,0-1.18-.69-.82-1.19.82-1.17,1.69-2.31,2.57-3.45a.78.78,0,0,1,1.1-.05.81.81,0,0,1,.1,1.14c-.72,1-1.45,1.95-2.18,2.92a2,2,0,0,1-.28.36A4.65,4.65,0,0,1,28.59,17.89Z"/><path class="cls-1" d="M5.71,14.64c.53,0,1,0,1.58,0a.81.81,0,1,1,0,1.61H4.13a.78.78,0,0,1-.87-.79.8.8,0,0,1,.88-.83Z"/><path class="cls-1" d="M5.73,17.9H7.3a.81.81,0,1,1,0,1.62c-1.08,0-2.16,0-3.25,0a.77.77,0,0,1-.8-.8.78.78,0,0,1,.79-.81C4.61,17.88,5.17,17.9,5.73,17.9Z"/><path class="cls-1" d="M6.52,11.39h.86a.78.78,0,0,1,.75.81.76.76,0,0,1-.74.8,17.61,17.61,0,0,1-1.78,0,.76.76,0,0,1-.72-.82.74.74,0,0,1,.71-.78A7.06,7.06,0,0,1,6.52,11.39Z"/><path class="cls-2" d="M17.9,7.3c0-.78,0-1.56,0-2.33a.81.81,0,0,1,1.25-.78c1.58.77,3.16,1.55,4.71,2.37a1.08,1.08,0,0,1,.5.78,1,1,0,0,1-.49.73c-1.57.83-3.16,1.62-4.75,2.39a.8.8,0,0,1-1.22-.77C17.89,8.9,17.9,8.1,17.9,7.3Zm1.65-1.08v2.2l2.19-1.1Z"/></g></g></svg>