<svg xmlns="http://www.w3.org/2000/svg" viewBox="0 0 51.8 51.81"><defs><style>.cls-1{fill:#48494a;}.cls-2{fill:#f57f20;}</style></defs><g id="Layer_2" data-name="Layer 2"><g id="Layer_1-2" data-name="Layer 1"><path class="cls-1" d="M51.8,10.63v5.06a1.4,1.4,0,0,1-1.45.67c-.15,0-.31,0-.46,0-.5-.09-.75.11-.88.61s-.6,1-.51,1.38.65.77,1,1.15a1,1,0,0,1,0,1.38,2.91,2.91,0,0,1-.43.43,1,1,0,0,0-.35.84q0,8,0,15.92a4.05,4.05,0,0,1-4.23,4.23H28.66v3.44h2.41a3.57,3.57,0,0,1,3.53,2.89c.12.6,0,1.24.11,1.86A1.25,1.25,0,0,1,34,51.81H14.77a1.2,1.2,0,0,1-.72-1.31c0-.34,0-.68,0-1a3.62,3.62,0,0,1,3.77-3.75h2.26V42.3H4.28A4,4,0,0,1,0,38V10.56A4,4,0,0,1,4.27,6.28q11.3,0,22.61,0h.52a3.29,3.29,0,0,1,.4-.86c1-1.06,2.05-2.09,3.1-3.12a1,1,0,0,1,1.41,0c.18.16.34.33.51.5.58.58.55.48,1.33.27a1.53,1.53,0,0,0,1.32-1.95C35.37.39,35.86,0,36.63,0h3.44c1.62,0,1.81.16,1.77,1.8,0,.57.12.88.71,1s.94.55,1.34.47.71-.62,1.07-1a1,1,0,0,1,1.44,0c1.06,1,2.09,2.06,3.11,3.12a1,1,0,0,1,0,1.37,5.81,5.81,0,0,1-.43.43c-.66.66-.66.66-.28,1.54l.16.37c.31.81.31.83,1.18.8A1.61,1.61,0,0,1,51.8,10.63ZM2,33.91H39.73a1,1,0,0,1,.93,1,1,1,0,0,1-.95,1H2v1.89a2.13,2.13,0,0,0,2.43,2.45H44.26c1.7,0,2.46-.76,2.46-2.48v-14c-1.16.66-1.26.65-2.22-.32a.52.52,0,0,1-.11-.1.72.72,0,0,0-1.13-.23c-.41.24-1.08.25-1.3.59s-.08,1-.11,1.47a1,1,0,0,1-1.15,1.07H36.61a1,1,0,0,1-1.16-1.11c0-.38,0-.78,0-1.16a.56.56,0,0,0-.26-.39c-.57-.26-1.15-.48-1.87-.77-.11.14-.25.36-.41.55a6.75,6.75,0,0,1-.54.53A1,1,0,0,1,30.9,24c-1-1-2.09-2.06-3.11-3.12a1,1,0,0,1,0-1.41,6.44,6.44,0,0,1,.64-.64.65.65,0,0,0,.2-1c-.22-.35-.3-.78-.49-1.16a.65.65,0,0,0-.42-.3c-.4,0-.8,0-1.21,0a1,1,0,0,1-1-1.11c0-1.39,0-2.77,0-4.15A1,1,0,0,1,26.58,10c.38,0,.77,0,1.16,0,.13,0,.33-.06.37-.15.21-.47.38-1,.57-1.49H4.32A2.08,2.08,0,0,0,2,10.63V29.05h.62c2.31,0,4.62,0,6.93,0,.75,0,1.18.38,1.18,1s-.44,1-1.18,1H2Zm37.75-9.65c0-.39,0-.76,0-1.13a1.13,1.13,0,0,1,.91-1.21c.93-.34,1.84-.73,2.73-1.14a1.07,1.07,0,0,1,1.38.18c.29.28.54.59.74.82l1.71-1.71c-.22-.2-.51-.44-.77-.71a1.09,1.09,0,0,1-.19-1.45c.41-.88.78-1.78,1.12-2.69.24-.65.51-.91,1.2-.92h1.13V12H48.62c-.69,0-1-.28-1.2-.93-.33-.91-.71-1.81-1.12-2.69A1.11,1.11,0,0,1,46.47,7c.28-.28.58-.54.82-.77L45.58,4.5c-.22.25-.47.56-.74.83a1.11,1.11,0,0,1-1.42.18c-.88-.41-1.78-.79-2.69-1.12-.67-.25-.93-.52-.94-1.24,0-.37,0-.73,0-1.13h-2l-.29,0c0,.42,0,.82,0,1.22a1.13,1.13,0,0,1-.87,1.1c-.94.35-1.86.74-2.78,1.16a1.09,1.09,0,0,1-1.38-.18c-.28-.28-.53-.6-.78-.88L30,6.12s0,0,0,.07c.25.25.5.5.74.76A1.1,1.1,0,0,1,31,8.41c-.4.87-.77,1.75-1.09,2.64-.25.7-.53,1-1.28,1H27.55v2.27h1.13a1.12,1.12,0,0,1,1.21.91c.34.91.71,1.81,1.12,2.69a1.09,1.09,0,0,1-.2,1.46c-.27.27-.57.51-.84.75l1.73,1.73c.23-.27.47-.57.75-.84a1.07,1.07,0,0,1,1.45-.21c.88.41,1.78.79,2.69,1.12.65.24.91.51.92,1.21,0,.38,0,.76,0,1.14ZM32.64,49.77a1.66,1.66,0,0,0-1.79-2h-9.2c-1.3,0-2.59,0-3.89,0a1.6,1.6,0,0,0-1.61,2ZM22.2,42.31v3.4h4.37v-3.4Z"/><path class="cls-2" d="M16.53,28c-.5,0-1,0-1.52,0-.8,0-1.15-.39-1.17-1.19v-.36a1.27,1.27,0,0,0-1-1.12.52.52,0,0,0-.32.11c-.24.12-.46.27-.7.39a1,1,0,0,1-1.37-.36c-.59-1-1.16-2-1.72-3a1,1,0,0,1,.35-1.37,3,3,0,0,1,.3-.18c.72-.42.81-.59.67-1.4a.58.58,0,0,0-.3-.34c-1.55-.78-1.33-1.34-.64-2.45.43-.71.82-1.43,1.24-2.14A1,1,0,0,1,12,14.18c.1.05.2.12.31.17a1.2,1.2,0,0,0,1.45-.27.6.6,0,0,0,.07-.33c0-.28,0-.57,0-.86a.94.94,0,0,1,1-.94c1.15,0,2.3,0,3.44,0a.94.94,0,0,1,1,.79,3,3,0,0,1,.05.6c0,.72.2,1,.88,1.22a.66.66,0,0,0,.46-.11c1.32-.89,1.79-.5,2.38.63.36.69.77,1.35,1.16,2,.52.92.42,1.41-.51,1.89A1,1,0,0,0,23,20.07c0,.34.07.58.41.71a3.3,3.3,0,0,1,.57.34,1,1,0,0,1,.35,1.37c-.55,1-1.11,2-1.7,2.93a1,1,0,0,1-1.44.38l-.3-.17a1.07,1.07,0,0,0-1.5.16.53.53,0,0,0-.11.31c0,.2,0,.4,0,.61,0,.9-.39,1.28-1.3,1.29Zm5.54-5.63c-.15-.09-.27-.18-.4-.25a1.17,1.17,0,0,1-.73-1.43,2.27,2.27,0,0,0,0-.86c-.18-1-.12-1.9,1.13-2.23l-.71-1.21-.42.22c-.76.42-1,.4-1.64-.11a2.61,2.61,0,0,0-.86-.53,1.55,1.55,0,0,1-1.26-1.88s0-.05,0-.09H15.89a2,2,0,0,0,0,.34,1.32,1.32,0,0,1-1,1.53,4.71,4.71,0,0,0-1.12.66,1.13,1.13,0,0,1-1.56.11l-.45-.25a2,2,0,0,0-.16.22c-.18.31-.35.62-.54.94l.45.27c.68.4.79.67.68,1.46a2.39,2.39,0,0,0,0,.8c.19,1,.12,1.9-1.13,2.24l.71,1.21.4-.21c.76-.44,1-.41,1.68.12a3,3,0,0,0,.86.52,1.51,1.51,0,0,1,1.23,1.84s0,.06,0,.09h1.29c0-.16,0-.28,0-.4,0-.87.16-1.07.95-1.4a2.87,2.87,0,0,0,.85-.45,1.56,1.56,0,0,1,2.29-.16s.06,0,.12,0Z"/><path class="cls-2" d="M23.37,38a1,1,0,0,1,1-1,1,1,0,0,1,0,2A1,1,0,0,1,23.37,38Z"/><path class="cls-2" d="M12.75,30.07a1,1,0,0,1,1-1,1,1,0,0,1,0,2A1,1,0,0,1,12.75,30.07Z"/><path class="cls-2" d="M43.69,35.93a1,1,0,0,1-1-1,1,1,0,0,1,1-1,1,1,0,0,1,1.05,1A1,1,0,0,1,43.69,35.93Z"/><path class="cls-2" d="M32.38,13.15a6.27,6.27,0,1,1,6.25,6.28A6.26,6.26,0,0,1,32.38,13.15Zm10.52,0a4.25,4.25,0,1,0-4.25,4.25A4.28,4.28,0,0,0,42.9,13.15Z"/><path class="cls-1" d="M16.58,21a1,1,0,0,1-1-1,1,1,0,0,1,1-1,1,1,0,0,1,1,1A1,1,0,0,1,16.58,21Z"/></g></g></svg>