<svg xmlns="http://www.w3.org/2000/svg" viewBox="0 0 56.81 56.84"><defs><style>.cls-1{fill:#48494a;}.cls-2{fill:#f57f20;}</style></defs><g id="Layer_2" data-name="Layer 2"><g id="Layer_1-2" data-name="Layer 1"><path class="cls-1" d="M56.81,26.75v3.33c0,.4-.09.8-.13,1.2a28.11,28.11,0,0,1-7.14,16.09,27.86,27.86,0,0,1-16.25,9c-1.07.19-2.15.3-3.23.44H26.73c-.95-.12-1.91-.2-2.85-.36a27.63,27.63,0,0,1-15.36-7.8A27.74,27.74,0,0,1,.14,25.56,27.07,27.07,0,0,1,7.08,9.68,27.8,27.8,0,0,1,27.2,0,27,27,0,0,1,42.88,4,28,28,0,0,1,56.37,23.53C56.57,24.59,56.67,25.68,56.81,26.75ZM28.37,4.41a24,24,0,1,0,24,24A24,24,0,0,0,28.37,4.41Z"/><path class="cls-2" d="M24.87,33.51l6.61-7.29,6.71-7.39a2.2,2.2,0,0,1,2.34-.77,2.09,2.09,0,0,1,1.58,1.74,2.26,2.26,0,0,1-.68,2L36.77,27c-3.31,3.65-6.61,7.3-9.94,10.92a3.52,3.52,0,0,1-1.39.93,2,2,0,0,1-2.12-.66c-2.66-2.7-5.33-5.39-8-8.11A2.2,2.2,0,1,1,18.48,27c2,2,4,4,5.95,6.05A6.27,6.27,0,0,1,24.87,33.51Z"/></g></g></svg>