<svg xmlns="http://www.w3.org/2000/svg" viewBox="0 0 50.94 50.94"><defs><style>.cls-1{fill:#48494a;}.cls-2{fill:#f57f20;}</style></defs><g id="Layer_2" data-name="Layer 2"><g id="Layer_1-2" data-name="Layer 1"><path class="cls-1" d="M50.68,22.34a5.12,5.12,0,0,0-4.89-3.53H33.44A4.57,4.57,0,0,0,31.76,15a5.38,5.38,0,0,0-4.08-1c0-.12,0-.21,0-.31a3.65,3.65,0,0,1-1.67.33,3.72,3.72,0,0,1-1.37-.23V14H8.78v-.29A5.18,5.18,0,0,1,7.2,14a5.63,5.63,0,0,1-1.34-.18H5.77V14H4.64A4.45,4.45,0,0,0,0,18.66V47.8a3,3,0,0,0,3.15,3.14H6.08a3,3,0,0,0,3-3V46H24.38c0,.62,0,1.24,0,1.87a3,3,0,0,0,3.06,3.07h3a3,3,0,0,0,3-2.94c0-.66,0-1.32,0-2h8.46c0,.66,0,1.3,0,1.95a3,3,0,0,0,3,3h3a3,3,0,0,0,3-2.17,1.51,1.51,0,0,1,.11-.22V23.18C50.85,22.9,50.77,22.62,50.68,22.34ZM6,48H3V45.84L6,46Zm24.39,0H27.37V46l3.05-.18ZM28.69,43h-6v-.32a2.23,2.23,0,0,1-.27,0c-.14,0-.27,0-.4,0s-.26,0-.41,0a2.61,2.61,0,0,1-1.09-.23l-.27,0h-.15a2.45,2.45,0,0,1-.39,0V43h-6v-.12a2.87,2.87,0,0,1-.68.09,1.86,1.86,0,0,1-.34,0,2.19,2.19,0,0,1-.27,0,2,2,0,0,1-.34,0,1.83,1.83,0,0,1-.62.09h-.25a2,2,0,0,1-.49-.07V43h-6A1.56,1.56,0,0,1,3,41.24V33.42a8.18,8.18,0,0,0,5.1,1.31q8.64,0,17.26,0a8.12,8.12,0,0,0,5.07-1.29c0,.21,0,.35,0,.49,0,2.44,0,4.87,0,7.31A1.56,1.56,0,0,1,28.69,43Zm1.75-15.64a4.12,4.12,0,0,1-4.38,4.4H7.36A4.13,4.13,0,0,1,3,27.34V18.79A1.57,1.57,0,0,1,4.75,17H28.63c1.24,0,1.81.57,1.81,1.83C30.45,21.67,30.45,24.51,30.44,27.34ZM47.93,47.93h-3V46.07l3-.42Zm0-11.07c0,1.28,0,2.55,0,3.83A2.18,2.18,0,0,1,45.71,43c-4,0-8,0-12,0l-.22,0V41h3.67a1.49,1.49,0,1,0,0-3H33.44v-2H48ZM48,33H33.45V21.79h12A2.23,2.23,0,0,1,48,24.28c0,2.73,0,5.47,0,8.2Z"/><path class="cls-2" d="M22.68,42.76v-2a3.26,3.26,0,0,0-3.36-3.35H14.05a3.26,3.26,0,0,0-3.3,3.31c0,.73,0,1.46,0,2.26h-.49l.09.09A4.88,4.88,0,0,1,11,43a5,5,0,0,1,1,.1,27.75,27.75,0,0,1,3.41-.05l.37-.08h-2c0-.76,0-1.52,0-2.27,0-.11.27-.29.42-.29,1.69,0,3.37,0,5.06,0,.31,0,.46.14.46.45v1.72A16.41,16.41,0,0,1,22.68,42.76Z"/><path class="cls-2" d="M29.1,2.91c1.16-1.16,1.09-2-.25-2.91H28c-.4.34-.83.65-1.19,1L20,7.75a.94.94,0,0,1-.58.3c-2,0-4,0-6,0l-.26,0,.41-.44,4.75-4.74C19.48,1.74,19.36.78,18,0h-.8a12.61,12.61,0,0,0-1.08.85L9.24,7.74a.94.94,0,0,1-.78.33c-.39,0-.79,0-1.19,0a1.48,1.48,0,0,0-1.5,1.52v4.31a5.18,5.18,0,0,1,.56.17,5.06,5.06,0,0,1,1.27-.17,5.3,5.3,0,0,1,.91.09,2.23,2.23,0,0,1,.27,0V11.07H24.63V14h-.72a.52.52,0,0,1,.06.13,13.44,13.44,0,0,1,4,.17,2.53,2.53,0,0,1,.42-.1c0-.06,0-.11,0-.17-.22,0-.44,0-.67,0,0-.2,0-.36,0-.52,0-1.29,0-2.59,0-3.88a1.48,1.48,0,0,0-1.57-1.59H24l.41-.44Z"/><path class="cls-2" d="M7.23,40.11A1.25,1.25,0,0,1,6,38.86a1.27,1.27,0,1,1,1.26,1.25Z"/><path class="cls-2" d="M27.45,38.88a1.24,1.24,0,0,1-1.28,1.23,1.26,1.26,0,1,1,.06-2.52A1.25,1.25,0,0,1,27.45,38.88Z"/><path class="cls-2" d="M43.29,38a1.49,1.49,0,0,1,0,3,1.49,1.49,0,1,1,0-3Z"/></g></g></svg>