<svg xmlns="http://www.w3.org/2000/svg" viewBox="0 0 395.86 350.97"><defs><style>.cls-1{fill:#b6b9d1;}.cls-2{fill:#c46c3b;}.cls-3{fill:#aa5327;}.cls-4{fill:#171923;}.cls-5{fill:#2a2b3d;}.cls-6{fill:#d0e6ef;}.cls-32,.cls-33,.cls-7{fill:#fff;}.cls-8{fill:#d35473;}.cls-9{fill:#ffc55a;}.cls-10{fill:#54d15f;}.cls-11,.cls-12,.cls-13,.cls-14,.cls-15,.cls-16,.cls-30{fill:none;}.cls-11,.cls-30{stroke:#61648a;}.cls-11,.cls-12,.cls-13,.cls-14,.cls-15,.cls-16{stroke-linecap:round;}.cls-11,.cls-12,.cls-13,.cls-14,.cls-15,.cls-16,.cls-30,.cls-31{stroke-miterlimit:10;}.cls-11{stroke-width:0.5px;}.cls-12{stroke:#54d15f;}.cls-13{stroke:#2d292a;}.cls-14{stroke:#ffc55a;}.cls-15{stroke:#d35473;}.cls-16{stroke:#383952;opacity:0.21;}.cls-17,.cls-18,.cls-31{fill:#61648a;}.cls-17{opacity:0.33;}.cls-19{fill:#55597c;}.cls-20{fill:#383952;opacity:0.36;}.cls-21{fill:#f4b8ab;}.cls-22{fill:#dd6595;opacity:0.53;}.cls-23{fill:#6d3744;}.cls-24{fill:#542633;}.cls-25{fill:#8e253e;opacity:0.38;}.cls-26{fill:#7d819e;}.cls-27{fill:#f49947;}.cls-28{fill:#14161e;}.cls-29{fill:#1f202d;}.cls-30,.cls-31{stroke-width:4px;}.cls-31{stroke:#2a2b3d;}.cls-32{font-size:18.12px;font-family:Lato-Black, Lato Black;font-weight:800;letter-spacing:-0.1em;}.cls-33{font-size:12.95px;font-family:FontAwesome5FreeSolid;letter-spacing:-0.1em;}.cls-34{fill:#424866;}</style></defs><g id="Layer_2" data-name="Layer 2"><g id="OBJECTS"><path class="cls-1" d="M391,351H4.88A4.87,4.87,0,0,1,0,346.09H0a4.88,4.88,0,0,1,4.88-4.88H391a4.89,4.89,0,0,1,4.88,4.88h0A4.88,4.88,0,0,1,391,351Z"/><rect class="cls-2" x="45.71" y="216.76" width="240.15" height="9.51"/><rect class="cls-2" x="65.72" y="225.45" width="10.64" height="120.64"/><rect class="cls-2" x="256.16" y="225.45" width="10.64" height="120.64"/><rect class="cls-3" x="65.72" y="225.45" width="10.64" height="12.06"/><rect class="cls-3" x="256.16" y="225.45" width="10.64" height="12.06"/><polygon class="cls-4" points="216.3 212.19 190.17 212.19 191.92 195.05 214.56 195.05 216.3 212.19"/><path class="cls-5" d="M223.52,216.39H183.08a4.91,4.91,0,0,1,4.91-4.91h30.62a4.91,4.91,0,0,1,4.91,4.91Z"/><rect class="cls-5" x="151.01" y="126.6" width="104.58" height="69.92" rx="9.51"/><rect class="cls-6" x="155.46" y="130.6" width="95.68" height="56.84"/><path class="cls-4" d="M206,192.34a2.71,2.71,0,1,1-2.71-2.71A2.71,2.71,0,0,1,206,192.34Z"/><rect class="cls-7" x="159.94" y="134.14" width="86.72" height="4.45"/><path class="cls-8" d="M163.52,136.47a.95.95,0,1,1-.94-.95A.95.95,0,0,1,163.52,136.47Z"/><path class="cls-9" d="M167.06,136.47a.95.95,0,1,1-.95-.95A.95.95,0,0,1,167.06,136.47Z"/><path class="cls-10" d="M170.6,136.47a1,1,0,1,1-.95-.95A.95.95,0,0,1,170.6,136.47Z"/><line class="cls-11" x1="242.53" y1="135.39" x2="245.41" y2="135.39"/><line class="cls-11" x1="242.53" y1="136.37" x2="245.41" y2="136.37"/><line class="cls-11" x1="242.53" y1="137.35" x2="245.41" y2="137.35"/><line class="cls-12" x1="219" y1="143.62" x2="225.72" y2="143.62"/><line class="cls-13" x1="227.06" y1="143.62" x2="230.21" y2="143.62"/><line class="cls-12" x1="231.37" y1="143.62" x2="241.32" y2="143.62"/><line class="cls-14" x1="215.64" y1="147.86" x2="225.5" y2="147.86"/><line class="cls-15" x1="226.84" y1="147.86" x2="233.17" y2="147.86"/><line class="cls-12" x1="234.34" y1="147.86" x2="238.56" y2="147.86"/><line class="cls-15" x1="239.88" y1="147.86" x2="244.11" y2="147.86"/><line class="cls-13" x1="216.52" y1="152.1" x2="222.23" y2="152.1"/><line class="cls-15" x1="223.57" y1="152.1" x2="228.05" y2="152.1"/><line class="cls-14" x1="229.22" y1="152.1" x2="237.33" y2="152.1"/><line class="cls-13" x1="238.42" y1="152.1" x2="240.94" y2="152.1"/><line class="cls-14" x1="213.82" y1="160.58" x2="215.29" y2="160.58"/><line class="cls-12" x1="216.63" y1="160.58" x2="224.92" y2="160.58"/><line class="cls-15" x1="226.08" y1="160.58" x2="232.05" y2="160.58"/><line class="cls-12" x1="232.94" y1="160.58" x2="240.58" y2="160.58"/><line class="cls-14" x1="230.7" y1="169.06" x2="241.77" y2="169.06"/><line class="cls-12" x1="216.52" y1="164.82" x2="222.23" y2="164.82"/><line class="cls-15" x1="223.57" y1="164.82" x2="226.62" y2="164.82"/><line class="cls-13" x1="227.78" y1="164.82" x2="233.99" y2="164.82"/><line class="cls-15" x1="235.43" y1="164.82" x2="241.64" y2="164.82"/><line class="cls-14" x1="216.79" y1="169.06" x2="221.14" y2="169.06"/><line class="cls-13" x1="222.49" y1="169.06" x2="224.34" y2="169.06"/><line class="cls-12" x1="225.5" y1="169.06" x2="229.32" y2="169.06"/><line class="cls-15" x1="223.57" y1="177.03" x2="227.78" y2="177.03"/><line class="cls-13" x1="229.12" y1="177.03" x2="233.99" y2="177.03"/><line class="cls-14" x1="235.15" y1="177.03" x2="242.92" y2="177.03"/><line class="cls-15" x1="219.71" y1="181.27" x2="222.9" y2="181.27"/><line class="cls-13" x1="224.24" y1="181.27" x2="229.32" y2="181.27"/><line class="cls-14" x1="230.48" y1="181.27" x2="235.09" y2="181.27"/><line class="cls-12" x1="236.41" y1="181.27" x2="243.56" y2="181.27"/><line class="cls-16" x1="214.92" y1="143.62" x2="216.35" y2="143.62"/><line class="cls-16" x1="211.16" y1="147.86" x2="212.59" y2="147.86"/><line class="cls-16" x1="212.89" y1="152.1" x2="214.33" y2="152.1"/><line class="cls-16" x1="209.48" y1="156.34" x2="210.91" y2="156.34"/><line class="cls-16" x1="209.48" y1="160.58" x2="210.91" y2="160.58"/><line class="cls-16" x1="212.72" y1="164.82" x2="214.15" y2="164.82"/><line class="cls-16" x1="213.11" y1="169.06" x2="214.54" y2="169.06"/><line class="cls-16" x1="209.48" y1="173.3" x2="210.91" y2="173.3"/><line class="cls-16" x1="218.66" y1="177.03" x2="220.09" y2="177.03"/><line class="cls-16" x1="215.29" y1="181.27" x2="216.72" y2="181.27"/><rect class="cls-17" x="159.94" y="142.57" width="21.71" height="20.52"/><rect class="cls-18" x="184.37" y="142.57" width="19" height="1.86"/><rect class="cls-18" x="184.37" y="147.23" width="19" height="1.86"/><rect class="cls-17" x="184.37" y="151.9" width="19" height="1.86"/><rect class="cls-17" x="184.37" y="156.56" width="19" height="1.86"/><rect class="cls-17" x="184.37" y="161.22" width="19" height="1.86"/><rect class="cls-18" x="160.01" y="166.21" width="21.65" height="15.06"/><rect class="cls-8" x="184.37" y="166.21" width="19" height="7.09"/><rect class="cls-18" x="184.37" y="176.88" width="19" height="4.39"/><path class="cls-5" d="M198.84,329.62c-1.08,10-2.5,14.41,0,15.84s16.71,0,19.79,0,3.07-6.49-2.06-9.19-6.15-12.39-6.15-12.39Z"/><path class="cls-5" d="M134.4,329.62c-1.08,10-2.51,14.41,0,15.84s16.7,0,19.78,0,3.08-6.49-2.05-9.19S146,323.88,146,323.88Z"/><path class="cls-19" d="M151.27,291.14c-.28,10.71-1.06,20.76-2.4,27h-19.8L121.69,275l-.75-4.44a7.61,7.61,0,0,1-7.63-7.59v-.13c.14-8.56,1.62-21.84,9-26.94,8.2-5.68,24.65,6.29,26.12,9.24s2.41,12.74,2.8,24.58C151.43,276.49,151.46,284,151.27,291.14Z"/><path class="cls-20" d="M151.27,291.14c-7,3-12.7,21.66-14.21,27h-8L121.69,275a10,10,0,0,1,3-3.34c3.59-2.25,24.35-2,26.57-1.94C151.43,276.49,151.46,284,151.27,291.14Z"/><path class="cls-21" d="M216.34,209.08c6.31-2.38,10.7.38,11.84,2.34s1.79,3.74,1.3,4.72-2.11,0-2.11,0a36.56,36.56,0,0,1-9.77.43C213.37,216,216.34,209.08,216.34,209.08Z"/><path class="cls-22" d="M217.4,210.91c3.43,1.84,9.41,4.44,9.38,4.89s-5.36,1.66-8.76.71S217.4,210.91,217.4,210.91Z"/><path class="cls-21" d="M156.38,133.88c2.39,9.79.65,21.34-7.75,22.26l0,3.44a4.62,4.62,0,0,1-4.58,4.67h0a4.61,4.61,0,0,1-4.66-4.57l0-3.45s-6.74-2.79-8.13-7,0-.68,0-.68l-.76-17.13,26.08-.26Z"/><path class="cls-22" d="M148.63,156.14a78.75,78.75,0,0,1-8,.28l8.07,3.16Z"/><path class="cls-23" d="M156.78,135.78c7.41-4.68,6-14.32.76-10.9a20.28,20.28,0,0,0-21.1-3.87c-12.83,4.64-14.44,15.38-11.73,22.07S144,153.25,144,153.25l7.68-8.15Z"/><path class="cls-23" d="M157.54,124.88c1.28-3.73-1.94-8.47-4.93-8.47s-2.83,5.14-2.83,5.14l5.11,6.78Z"/><path class="cls-24" d="M152,142.17c-.09,1.16-1,11.67-3.38,14l-10.34.14S126.88,154,125,144.47a31.14,31.14,0,0,1-.47-3.09c3.37,6.85,17.6,8,25.28-.64C149.79,140.74,150.76,141.34,152,142.17Z"/><path class="cls-21" d="M154.91,140.12c-2.16-3.84-4.62-2.2-5.1,0s4.05,7.64,5.15,5.71S154.91,140.12,154.91,140.12Z"/><path class="cls-22" d="M154.69,141.15c-1.9-2-2.82-1.14-2.67.92s2.63,3.5,3.43,2.9S154.69,141.15,154.69,141.15Z"/><path class="cls-8" d="M218,216.51c-1,2-27,6-33.69,4.67s-12-11-12-11v25.68h-50s-4.86-23.6-7.57-39.39c-1.11-6.49-1.87-11.66-1.77-13.31a15,15,0,0,1,1.37-6.12h0a3,3,0,0,1,.64-.87,27.46,27.46,0,0,1,20.34-12.68l.33-4.33c11.67-2.33,20,0,20.35,2a13.73,13.73,0,0,1,0,4s14-3.64,24,10.7,14,25.68,14,25.68,19,4,21.34,6.35a10.74,10.74,0,0,1,2.28,3.58C218.39,213.34,218.61,215.33,218,216.51Z"/><path class="cls-25" d="M218,216.51c-1,2-27,6-33.69,4.67s-12-11-12-11v25.68h-50s-4.86-23.6-7.57-39.39l-.4-19.43h0s12.22.41,30.92.54,19.73,11.7,24.82,18.71,8.4,18.83,17.44,19,28,1.65,29.9-3.75l.23-.06C218.39,213.34,218.61,215.33,218,216.51Z"/><path class="cls-18" d="M213.61,316.63c-.1.52-.2,1-.31,1.52H193.51l-8.13-47.64h-35.6l-10.11-12.74-17.38-21.92h50l2.35,0c13.65.24,34.89,2.62,38.17,9.21,1.18,2.38,2.05,9.55,2.53,18.66C216.29,280.7,215.87,304.39,213.61,316.63Z"/><path class="cls-20" d="M213.61,316.63l-1.73,1.52H193.51l-8.13-47.64h-35.6l-10.11-12.74.93-14.61,6.79-7.31h24.94l2.35,0c-2.81,24.09,14.7,30.38,25.91,29.76a102.88,102.88,0,0,0,14.79-1.89C216.29,280.7,215.87,304.39,213.61,316.63Z"/><polygon class="cls-26" points="213.16 329.62 193.44 329.62 191.64 318.14 214.97 318.14 213.16 329.62"/><polygon class="cls-26" points="148.72 329.62 129 329.62 127.19 318.14 150.52 318.14 148.72 329.62"/><rect class="cls-19" x="113.55" y="336.75" width="1.79" height="6.74"/><rect class="cls-19" x="126.3" y="336.75" width="1.79" height="6.74"/><rect class="cls-19" x="139.05" y="336.75" width="1.79" height="6.74"/><path class="cls-9" d="M125.37,182h16a24.31,24.31,0,0,1,24.31,24.31v57.13a7,7,0,0,1-7,7H108.1a7,7,0,0,1-7-7V206.33A24.31,24.31,0,0,1,125.37,182Z"/><path class="cls-27" d="M125.37,182h16a24.31,24.31,0,0,1,24.31,24.31v57.13a7,7,0,0,1-7,7H108.1a7,7,0,0,1-7-7V206.33A24.31,24.31,0,0,1,125.37,182Z"/><path class="cls-9" d="M114.32,182h16a24.31,24.31,0,0,1,24.31,24.31v57.13a7,7,0,0,1-7,7H97.05a7,7,0,0,1-7-7V206.33A24.31,24.31,0,0,1,114.32,182Z"/><rect class="cls-27" x="107.07" y="270.51" width="69.05" height="12.93" rx="6.47"/><rect class="cls-9" x="90.61" y="270.51" width="69.05" height="12.93" rx="6.47"/><rect class="cls-28" x="124.72" y="288.68" width="5.22" height="46.02"/><path class="cls-29" d="M117.38,283.45h19.29a0,0,0,0,1,0,0v3.07a2.17,2.17,0,0,1-2.17,2.17h-15a2.17,2.17,0,0,1-2.17-2.17v-3.07A0,0,0,0,1,117.38,283.45Z"/><rect class="cls-29" x="111.64" y="333.54" width="30.76" height="4.58"/><rect class="cls-5" x="117.81" y="233" width="6.83" height="50.45"/><rect class="cls-29" x="113.31" y="223.54" width="15.83" height="17.6" rx="4.02"/><rect class="cls-5" x="117.26" y="227.94" width="7.93" height="8.81" rx="3.96"/><path class="cls-28" d="M117.24,344a2.8,2.8,0,1,1-2.8-2.8A2.8,2.8,0,0,1,117.24,344Z"/><path class="cls-28" d="M130,344a2.81,2.81,0,1,1-2.81-2.8A2.81,2.81,0,0,1,130,344Z"/><path class="cls-28" d="M142.75,344a2.8,2.8,0,1,1-2.8-2.8A2.81,2.81,0,0,1,142.75,344Z"/><polyline class="cls-30" points="73.03 214.1 45.71 157.86 75.59 129.47"/><path class="cls-31" d="M50.94,157.86a5.23,5.23,0,1,1-5.23-5.23A5.23,5.23,0,0,1,50.94,157.86Z"/><path class="cls-18" d="M74.22,119.5h0A5,5,0,0,1,81.34,121l1.08,1.72-8.14,5.38-1-1.14A5,5,0,0,1,74.22,119.5Z"/><path class="cls-9" d="M97.54,145.72a4.41,4.41,0,1,1-4.41-4.41A4.42,4.42,0,0,1,97.54,145.72Z"/><path class="cls-5" d="M74.28,128.07l8.24,21a2.71,2.71,0,0,0,3.6,1.51c3.54-1.53,9.79-4.63,13.07-8.57A2.73,2.73,0,0,0,99,138.3L82.42,122.69Z"/><rect class="cls-5" x="59.71" y="211.95" width="26.65" height="4.3"/><rect class="cls-6" x="161.63" y="15.3" width="83.79" height="83.79"/><circle class="cls-18" cx="206.01" cy="15.3" r="15.3" transform="translate(144.12 212.39) rotate(-76.81)"/><rect class="cls-18" x="184.88" y="45.61" width="48.4" height="8.46"/><rect class="cls-7" x="176.42" y="45.61" width="8.46" height="8.46"/><rect class="cls-18" x="184.88" y="58.68" width="48.4" height="8.46"/><rect class="cls-17" x="208.63" y="71.74" width="24.65" height="4.23"/><rect class="cls-7" x="176.42" y="58.68" width="8.46" height="8.46"/><rect class="cls-8" x="238.07" y="22.3" width="41.42" height="21.07"/><polygon class="cls-8" points="249.87 40.5 242.83 53.08 261.34 41.61 249.87 40.5"/><path class="cls-7" d="M251.38,32.83a1.95,1.95,0,1,1-1.95-1.94A1.95,1.95,0,0,1,251.38,32.83Z"/><path class="cls-7" d="M260.72,32.83a1.95,1.95,0,1,1-1.94-1.94A1.94,1.94,0,0,1,260.72,32.83Z"/><circle class="cls-7" cx="268.12" cy="32.83" r="1.94"/><rect class="cls-9" x="132.51" y="69.7" width="36.2" height="25.08"/><text class="cls-32" transform="translate(138.26 88.44)">&lt;/&gt;</text><text class="cls-33" transform="translate(199.37 19.47)">user</text><path class="cls-8" d="M266.4,323.88c1.09,10,2.17,20.15-.33,21.58s-16.71,0-19.79,0-3.08-6.49,2.06-9.19,6.15-12.39,6.15-12.39Z"/><path class="cls-8" d="M328.26,329.62c1.09,10,2.51,14.41,0,15.84s-16.7,0-19.78,0-3.08-6.49,2-9.19a9.36,9.36,0,0,0,5.16-7.72Z"/><path class="cls-24" d="M245.77,83.49c-4.19,8.4-3.68,17,4.7,17.33S245.77,83.49,245.77,83.49Z"/><path class="cls-21" d="M247.09,92.28c2.64,10.32,10,20.24,18.29,16.93l1.68,3.23a4.88,4.88,0,0,0,6.59,2.08h0a4.88,4.88,0,0,0,2.08-6.59l-1.68-3.23s4.92-6,4.13-10.55-.33-.63-.33-.63l-7.79-16.38L245.58,89.86Z"/><path class="cls-22" d="M265.38,109.21a82.19,82.19,0,0,0,7.64-3.73l-6,7Z"/><path class="cls-23" d="M278.43,91.35c-.28,5.21-1.61,9.73-2.62,10.82-2.16,2.34-9.58,4.94-9.58,4.94-3.38-.46-9.05-2.91-13.65-6.76-4.88-4.08-8.55-9.7-7-16.16,2.63-11,18.79-16.2,27.44-9.4C277.65,78.43,278.74,85.35,278.43,91.35Z"/><path class="cls-24" d="M278.43,91.35c-.28,5.21-1.61,9.73-2.62,10.82-2.16,2.34-9.58,4.94-9.58,4.94-3.38-.46-9.05-2.91-13.65-6.76a6.3,6.3,0,0,1,1.69-4.24c3.21-2.88,12.6,3.88,14.72-7l2-.68S275.29,90.11,278.43,91.35Z"/><path class="cls-21" d="M251.56,97.36c.11-4.64,3.23-4.34,4.79-2.48s0,9.15-2,7.9S251.56,97.36,251.56,97.36Z"/><path class="cls-22" d="M252.28,98.22c.8-2.77,2.07-2.46,2.95-.47s-.72,4.58-1.76,4.42S252.28,98.22,252.28,98.22Z"/><path class="cls-9" d="M271.73,77.92A7.38,7.38,0,0,0,269,89.11c2.13,2.72,5.92,1.47,5.92,1.47Z"/><path class="cls-23" d="M269.72,84.27c-1.26-6.15,5.11-11.37,10.67-8.47a6.75,6.75,0,0,1,3.21,3.45c2.09,5.22,2,12,8.35,12.91,0,0-7.7,8.22-15.39,3.26C272.25,92.65,270.46,87.91,269.72,84.27Z"/><path class="cls-34" d="M292.7,108.12c12.43.21,25.85,16.14,29.64,26.59s-6.2,23.15-6.2,23.15Z"/><path class="cls-21" d="M217.4,166.43c-5.35-6.86-7.81-7.24-9.51-5.92s-8.12,5-9.26,5.92.19,2.21,2.27,1.83l2.08-.38s-.95,4.91,1.51,7.18,10.2-.94,10.2-.94Z"/><path class="cls-9" d="M315.8,212c-1.2,5.33-4.54,15-8.9,26.65-13.67,36.42-37.45,91.89-37.45,91.89l-20.23-1.94,30.17-149.92.64-3.2s13.41-19.79,23.85-15.32a14.23,14.23,0,0,1,5.72,5,39,39,0,0,1,5.53,12.44A74.07,74.07,0,0,1,315.8,212Z"/><path class="cls-9" d="M331,329.86l-17.39.63L306.9,238.6l-3-41.59v-31.9h19.83c3.2,4.13,6,9.84,8.24,16.91h0C341.74,212.35,342.63,267.65,331,329.86Z"/><polygon class="cls-27" points="306.38 239.98 323.19 209.24 308.14 255.8 306.38 239.98"/><path class="cls-27" d="M332,182c-.27-.14-6.2-2.94-16.82-4.47a95.9,95.9,0,0,0-11.25-.94,116.2,116.2,0,0,0-24.49,2l.64-3.2s13.41-19.79,23.85-15.32a14.23,14.23,0,0,1,5.72,5h14.11C326.91,169.24,329.67,175,332,182Z"/><path class="cls-18" d="M323.71,165.11,280,175.43,265.5,156.14s-7.85,18.61-13.06,21.36-38.15-1.72-38.15-1.72c-.86-1-.94-2.87-.68-4.9h0a39.71,39.71,0,0,1,2-7.79l25.84-2.45s7.82-21.07,11-31.18,9.79-11.57,9.79-11.57a19.19,19.19,0,0,0-.07-3.21C262,114,272.72,106,280,106l1.7,1.55s6.88-3,15.83,3.21c4.7,3.25,11.69,18.09,17.25,31.45h0C319.83,154.27,323.71,165.11,323.71,165.11Z"/><path class="cls-20" d="M323.71,165.11,280,175.43,265.5,156.14s-7.85,18.61-13.06,21.36-38.15-1.72-38.15-1.72c-.86-1-.94-2.87-.68-4.9h0c9.13-4.16,31.87,6.16,37.52-1.12s11.63-27.82,14.37-22,8.33,14.48,15.25,16,35.37-5.82,34.05-21.47C319.83,154.27,323.71,165.11,323.71,165.11Z"/></g></g></svg>