<svg xmlns="http://www.w3.org/2000/svg" viewBox="0 0 51.22 49.22"><defs><style>.cls-1{fill:#48494a;}.cls-2{fill:#f57f20;}</style></defs><g id="Layer_2" data-name="Layer 2"><g id="Layer_1-2" data-name="Layer 1"><path class="cls-1" d="M51.22,11.6a1.32,1.32,0,0,1-1.35.72H1.35C.32,12.31,0,12,0,11V1.33C0,.36.35,0,1.33,0H49.89a1.41,1.41,0,0,1,1.33.7Zm-2-9.54H2v8.21H49.21Z"/><path class="cls-1" d="M51.22,48.52a1.49,1.49,0,0,1-1.43.7H20.39c-1.09,0-1.41-.32-1.41-1.44,0-3.16,0-6.33,0-9.49,0-1.09.3-1.39,1.4-1.39H49.83a1.31,1.31,0,0,1,1.39.73ZM21,38.92v8.23H49.19V38.92Z"/><path class="cls-1" d="M16.27,35.49H1.61C.42,35.49.11,35.17.11,34V15.17c0-1.12.33-1.45,1.46-1.45H31c1.15,0,1.48.32,1.48,1.49V34.06c0,1.08-.35,1.43-1.44,1.43Zm14.2-19.7H2.17V32.15l.62-.71,5.66-6.55c.67-.78,1.27-.77,1.94,0l4,4.61c.12.15.26.28.41.44l.4-.51q2.87-3.81,5.72-7.64c.65-.86,1.32-.86,2,0L30,31.3l.48.63ZM18.14,28.94l.53,0c.95,0,1.9,0,2.85,0a.94.94,0,0,1,.88.92,1,1,0,0,1-.75,1,2.32,2.32,0,0,1-.59.06H16.91a.65.65,0,0,0-.45.13c-.57.73-1.11,1.47-1.71,2.28H29c0-.08,0-.11,0-.13-1.25-1.67-2.49-3.34-3.75-5a.79.79,0,0,0-.56-.22c-1.73,0-3.46,0-5.2,0C18.71,28,18.45,28.4,18.14,28.94Zm-4.6,2.7L9.41,26.86,3.76,33.4a2.09,2.09,0,0,0,.28.05h7.85a.67.67,0,0,0,.46-.22C12.75,32.72,13.13,32.19,13.54,31.64Zm8.35-7.77L20.32,26h3.15Z"/><path class="cls-1" d="M8.81,36.89h7.3c1.08,0,1.39.32,1.39,1.4v9.55c0,1-.35,1.37-1.34,1.37H1.45c-1,0-1.34-.37-1.34-1.37q0-4.8,0-9.6c0-1,.33-1.35,1.35-1.35Zm6.66,2H2.15v8.23H15.47Z"/><path class="cls-2" d="M20.67,7h9.9a4.72,4.72,0,0,1,.65,0,1,1,0,0,1,.23,1.88,1.66,1.66,0,0,1-.59.1H10.51C9.72,9,9.27,8.58,9.3,7.93A.94.94,0,0,1,10.12,7a4.79,4.79,0,0,1,.65,0Z"/><path class="cls-2" d="M40.1,5.79a3.2,3.2,0,0,1,6.39-.06,3.64,3.64,0,0,1-.21,1.12.54.54,0,0,0,.15.66,4.64,4.64,0,0,1,.64.69A1,1,0,0,1,47,9.44a1,1,0,0,1-1.23.14,4.22,4.22,0,0,1-.7-.64.56.56,0,0,0-.69-.16A3.16,3.16,0,0,1,40.1,5.79Zm4.35,0A1.19,1.19,0,0,0,43.28,4.6a1.23,1.23,0,0,0-1.17,1.19A1.21,1.21,0,0,0,43.29,7,1.17,1.17,0,0,0,44.45,5.78Z"/><path class="cls-2" d="M34.87,7a1,1,0,0,1,1,1,1.06,1.06,0,0,1-1,1,1,1,0,0,1-1-1A1,1,0,0,1,34.87,7Z"/><path class="cls-1" d="M36.71,44h-7.9a4,4,0,0,1-.6,0A1,1,0,0,1,28,42.12a1.94,1.94,0,0,1,.64-.09h16.2c.84,0,1.3.39,1.27,1.06a.94.94,0,0,1-.82.92,6.11,6.11,0,0,1-.74,0Z"/><path class="cls-1" d="M24.57,44a1,1,0,0,1-1-1,1,1,0,0,1,1-1,1,1,0,0,1,1,1A1,1,0,0,1,24.57,44Z"/><path class="cls-2" d="M42.57,21.41c1.38,0,2.76,0,4.15,0a1,1,0,0,1,1.18,1,1.06,1.06,0,0,1-1.2,1c-2.78,0-5.57,0-8.35,0-.73,0-1.17-.38-1.16-1s.44-1,1.18-1C39.77,21.4,41.17,21.41,42.57,21.41Z"/><path class="cls-2" d="M42.5,19.4H38.3a1,1,0,0,1-1-.63.87.87,0,0,1,.2-1.05,1.36,1.36,0,0,1,.81-.31c2.85,0,5.69,0,8.54,0a1,1,0,0,1,1.09,1,1,1,0,0,1-1.1,1C45.37,19.41,43.94,19.4,42.5,19.4Z"/><path class="cls-2" d="M42.2,26.86H38.33c-.74,0-1.15-.27-1.14-.72s.42-.72,1.16-.72h7.87c.59,0,1,.24,1.05.63a.7.7,0,0,1-.56.75,2.4,2.4,0,0,1-.6.06Z"/><path class="cls-2" d="M44.42,31.44c-.76,0-1.53,0-2.3,0a1,1,0,0,1-1.15-1,1,1,0,0,1,1.17-1c1.51,0,3,0,4.55,0a1.07,1.07,0,0,1,1.21,1c0,.58-.46,1-1.18,1S45.19,31.44,44.42,31.44Z"/><path class="cls-2" d="M38.15,31.42a1,1,0,0,1-1-1,1,1,0,0,1,1-1,1.05,1.05,0,0,1,1,1A1,1,0,0,1,38.15,31.42Z"/><path class="cls-2" d="M13.79,16.9a3.52,3.52,0,0,1,3.51,3.53A3.58,3.58,0,0,1,13.77,24a3.62,3.62,0,0,1-3.55-3.59A3.56,3.56,0,0,1,13.79,16.9Zm0,5a1.53,1.53,0,0,0,1.55-1.5,1.56,1.56,0,0,0-1.51-1.54,1.53,1.53,0,0,0-1.54,1.51A1.5,1.5,0,0,0,13.75,21.94Z"/></g></g></svg>