<svg xmlns="http://www.w3.org/2000/svg" viewBox="0 0 52.99 46.89"><defs><style>.cls-1{fill:#34a0a4;}</style></defs><g id="Layer_2" data-name="Layer 2"><g id="Layer_1-2" data-name="Layer 1"><path class="cls-1" d="M53,33.37c-.21.32-.45.59-.9.51s-.59-.41-.69-.78-.23-.71-.34-1.06a.77.77,0,1,1,1.46-.5c.17.43.32.88.47,1.32Z"/><path class="cls-1" d="M20.68,42.07V38.36H3.84A3.5,3.5,0,0,1,.38,36.44,3.85,3.85,0,0,1,0,34.84Q0,21.52,0,8.2A3.55,3.55,0,0,1,4.24,4.66a.75.75,0,0,1,0,1.5c-.24,0-.49,0-.73,0A1.91,1.91,0,0,0,1.56,8v.16q0,13.32,0,26.64a1.89,1.89,0,0,0,2.13,2H36.08a2.88,2.88,0,0,1,.72.06.67.67,0,0,1,.56.74.69.69,0,0,1-.63.69,4.22,4.22,0,0,1-.62,0h-9c0,1.22,0,2.37,0,3.53,0,.09.26.22.41.26L34,43.46a1.27,1.27,0,0,1,1.2,1.43c0,1.71-.27,2-2,2-6.31,0-12.63,0-18.94,0a2.58,2.58,0,0,1-1.12-.28c-.2-.1-.31-.41-.44-.64a.75.75,0,0,1,0-.3c0-1.56-.15-2,1.82-2.35.48-.07,1-.19,1.42-.27s.92.12,1,.54-.15.81-.7.94-1.12.21-1.67.35c-.14,0-.26.21-.39.32l.1.18H33c.08,0,.18,0,.25,0a1.85,1.85,0,0,0,.33-.21c-.09-.09-.17-.24-.28-.27l-2.83-.58c-.68-.14-1.36-.24-2-.42a15.31,15.31,0,0,0-4.11-.27,21,21,0,0,0-4.94.25.75.75,0,0,1-1-.6.79.79,0,0,1,.67-.88C19.63,42.26,20.15,42.17,20.68,42.07Zm4.79-3.68H22.29V42h3.18Z"/><path class="cls-1" d="M33.68,8.28H8.08V28.72c0,1,.27,1.29,1.32,1.29h13c.8,0,1.17.23,1.17.74s-.39.78-1.17.78H9.3A2.48,2.48,0,0,1,6.52,28.8V2.72A2.47,2.47,0,0,1,9.3,0H32.43a2.47,2.47,0,0,1,2.8,2.74v18.4c0,.79-.23,1.15-.75,1.17s-.8-.37-.8-1.18c0-4,0-8.08,0-12.13Zm0-1.57c0-1.5,0-2.94,0-4.39,0-.53-.41-.8-1.06-.8H9.16c-.75,0-1.08.33-1.08,1.06,0,.92,0,1.85,0,2.78V6.71Z"/><path class="cls-1" d="M23.29,22.85l8.61.74,8.76.77c.46,0,.87.13,1,.65s-.25.76-.67.94c-1.09.48-2.17.95-3.24,1.45a1.46,1.46,0,0,0-.63.6c-.84,1.62-1.64,3.26-2.45,4.9-.38.75-.77.85-1.47.37s-1.66-1.15-2.48-1.74a.59.59,0,0,0-.7-.06c-.9.49-1.82.94-2.74,1.4-.74.36-1.11.23-1.42-.52q-1.71-4.11-3.41-8.22C22,23.24,22.37,22.8,23.29,22.85Zm8.49,6-7.25-3.65,2.52,6.05Zm3.79-1.35L29.91,26.1c1.17.69,2.37,1.32,3.58,1.9a1.13,1.13,0,0,1,.79,1.16,3.09,3.09,0,0,0,.08.6h.09Zm-2.29-2.27,0,.11c.91.24,1.84.42,2.73.71.66.22,1.14-.06,1.79-.42ZM31.9,30.52l1,.69-.12-1.14Z"/><path class="cls-1" d="M47.76,21.53c0,4.38,0,8.76,0,13.14A3.44,3.44,0,0,1,45.84,38a4.07,4.07,0,0,1-2.31.35.68.68,0,0,1-.68-.7.7.7,0,0,1,.66-.77c.31,0,.62,0,.93,0a1.85,1.85,0,0,0,1.74-1.69,5.24,5.24,0,0,0,0-.56q0-13.07,0-26.13a3.07,3.07,0,0,0-.26-1.31,1.84,1.84,0,0,0-1.8-1H37.87c-.2,0-.47,0-.59-.1a1.11,1.11,0,0,1-.43-.71c0-.23.3-.48.52-.66s.33,0,.5,0H44a3.45,3.45,0,0,1,3.72,3.69Q47.77,14.93,47.76,21.53Z"/><path class="cls-1" d="M14.24,18.9c.2-.65.35-1.2.56-1.73a.67.67,0,0,1,.44-.37c.11,0,.32.21.38.37.2.53.35,1.08.56,1.75l.71-2c.12-.35.28-.56.71-.4s.4.43.25.77c-.36.88-.68,1.76-1.06,2.63-.09.19-.34.43-.52.43s-.42-.24-.52-.43c-.2-.41-.33-.86-.54-1.44A13.14,13.14,0,0,1,14.67,20a.82.82,0,0,1-.52.43c-.15,0-.42-.21-.49-.39-.4-.91-.75-1.84-1.13-2.76-.14-.34-.07-.54.28-.67a.47.47,0,0,1,.7.34C13.72,17.54,14,18.16,14.24,18.9Z"/><path class="cls-1" d="M19.91,18.91c.22-.69.37-1.24.57-1.78.06-.15.27-.34.41-.33a.57.57,0,0,1,.4.35,17.07,17.07,0,0,0,.62,1.61c.22-.61.45-1.21.66-1.82.11-.33.26-.54.67-.4s.44.4.29.76c-.37.89-.69,1.79-1.08,2.67a.72.72,0,0,1-.53.41c-.18,0-.4-.26-.5-.45-.2-.42-.34-.87-.54-1.41-.21.56-.34,1-.55,1.46a.69.69,0,0,1-.49.4.68.68,0,0,1-.51-.37c-.4-.92-.75-1.87-1.14-2.81-.15-.35,0-.53.31-.65a.45.45,0,0,1,.67.32C19.38,17.51,19.62,18.13,19.91,18.91Z"/><path class="cls-1" d="M26.55,18.51c-.21.57-.34,1-.55,1.48a.74.74,0,0,1-.5.39A.68.68,0,0,1,25,20c-.4-.91-.75-1.85-1.12-2.77-.14-.33-.08-.54.27-.67s.58,0,.7.34a13.82,13.82,0,0,0,.77,1.86c.16-.5.29-1,.49-1.49.08-.2.3-.34.46-.5a2,2,0,0,1,.43.49,15.31,15.31,0,0,0,.57,1.52c.23-.63.47-1.26.69-1.9a.45.45,0,0,1,.71-.31c.29.12.41.3.29.6-.39,1-.77,1.95-1.18,2.91a.7.7,0,0,1-.51.31.63.63,0,0,1-.43-.33C26.93,19.6,26.78,19.11,26.55,18.51Z"/><path class="cls-1" d="M50.67,37.64c.33-.73.57-1.38.91-2a.57.57,0,0,1,.86-.15c.22.17.46.54.41.76a6.21,6.21,0,0,1-.72,1.7.94.94,0,0,1-.83.27C51.05,38.19,50.87,37.86,50.67,37.64Z"/><path class="cls-1" d="M37.35,35.57c-.56,0-1.85-1.58-1.73-2.11a.76.76,0,0,1,1.26-.38A9.84,9.84,0,0,1,38,34.45.74.74,0,0,1,37.35,35.57Z"/><path class="cls-1" d="M50.76,29.16a.74.74,0,0,1-1.1.71,6.93,6.93,0,0,1-1.46-1.18.86.86,0,0,1,0-.84.92.92,0,0,1,.82-.26,12.7,12.7,0,0,1,1.61,1.23C50.73,28.9,50.74,29.09,50.76,29.16Z"/><path class="cls-1" d="M43.29,38.7a16.34,16.34,0,0,1,2,.85c.18.1.25.57.19.84a.64.64,0,0,1-.82.43A14,14,0,0,1,43,40.19a.62.62,0,0,1-.35-.85C42.78,39.09,43.07,38.92,43.29,38.7Z"/><path class="cls-1" d="M41.5,37.85c0,.6-.58,1-1,.78a7.4,7.4,0,0,1-1.56-1.28.86.86,0,0,1,.08-.84.84.84,0,0,1,.79-.2,14.82,14.82,0,0,1,1.59,1.25C41.47,37.64,41.48,37.8,41.5,37.85Z"/><path class="cls-1" d="M48,41.07c-.43-.09-.72-.24-.82-.62a.69.69,0,0,1,.42-.88c.5-.22,1-.41,1.54-.58a.67.67,0,0,1,.87.34.64.64,0,0,1-.19.94C49.24,40.58,48.61,40.81,48,41.07Z"/><path class="cls-1" d="M25.9,6.08a2,2,0,0,1-2-1.91,2,2,0,0,1,3.94,0A1.94,1.94,0,0,1,25.9,6.08Zm.59-1.9c-.3-.2-.47-.39-.63-.39a.54.54,0,0,0-.36.37.52.52,0,0,0,.35.37C26,4.54,26.18,4.36,26.49,4.18Z"/><path class="cls-1" d="M30.57,6.08a1.94,1.94,0,0,1-2-1.93,2,2,0,0,1,1.95-1.91,2,2,0,0,1,2,1.92A1.93,1.93,0,0,1,30.57,6.08Zm.59-1.91c-.27-.19-.45-.41-.56-.38s-.28.26-.42.4c.14.12.26.33.41.34S30.89,4.36,31.16,4.17Z"/><path class="cls-1" d="M21.2,6.08a1.92,1.92,0,0,1-2-1.91,2,2,0,0,1,3.93,0A1.94,1.94,0,0,1,21.2,6.08Zm0-1.33c.21-.27.43-.44.4-.55s-.25-.29-.39-.43c-.13.13-.34.25-.36.4S21,4.47,21.16,4.75Z"/></g></g></svg>