<svg xmlns="http://www.w3.org/2000/svg" viewBox="0 0 76.84 69.62"><defs><style>.cls-1{fill:#f57f20;}.cls-2{fill:#48494a;}</style></defs><g id="Layer_2" data-name="Layer 2"><g id="Layer_1-2" data-name="Layer 1"><path class="cls-1" d="M76.84,49.68c-.39.37-.74.8-1.4.62s-.8-.74-1-1.29-.32-1-.46-1.49a1.15,1.15,0,0,1,.7-1.52,1.11,1.11,0,0,1,1.42.75c.27.67.48,1.36.71,2Z"/><path class="cls-2" d="M39.28,57c0,1.76,0,3.43,0,5.09,0,.17.37.43.6.48q4.47.94,8.94,1.83a2.85,2.85,0,0,1,1.89,4.36,2,2,0,0,1-1.87.87H20.65c-1.75,0-2.34-.59-2.35-2.32,0-.35,0-.7,0-1a1.67,1.67,0,0,1,1.34-1.68c1.16-.28,2.34-.51,3.51-.73a1.13,1.13,0,0,1,1.33.83A1.08,1.08,0,0,1,23.65,66c-.86.23-1.75.36-2.62.59-.2.05-.35.31-.52.48l.15.21H47.8a1.13,1.13,0,0,0,.37,0,4.25,4.25,0,0,0,.52-.27c-.15-.15-.29-.38-.47-.42-2.14-.46-4.31-.82-6.44-1.37-2.81-.72-5.66-.48-8.49-.48-1.67,0-3.33.21-5,.36-.86.07-1.45-.24-1.55-.91s.29-1.15,1.1-1.34L30,62.42V57H5.66a5.64,5.64,0,0,1-3.6-1,5,5,0,0,1-2-4.07v-.53c0-13,.05-25.9,0-38.85A5.29,5.29,0,0,1,6.14,6.94a1.12,1.12,0,0,1,0,2.23c-.35,0-.7,0-1,0A2.83,2.83,0,0,0,2.29,12c0,.17,0,.35,0,.52q0,19.47,0,38.93a5.35,5.35,0,0,0,.14,1.26,2.66,2.66,0,0,0,2.45,2c.35,0,.7,0,1,0H52.36a2,2,0,0,1,1.09.14,1.7,1.7,0,0,1,.69,1.08c0,.33-.41.74-.74,1a1.79,1.79,0,0,1-.94.12H39.28Zm-2.35.06H32.34v5.36h4.59Z"/><path class="cls-1" d="M48.82,12.34H11.73V42.58c0,1.55.39,2,1.95,2h18.6a7.48,7.48,0,0,1,.82,0,1.13,1.13,0,0,1,1.1,1.11,1.15,1.15,0,0,1-1,1.13,3.76,3.76,0,0,1-.67,0c-6.33,0-12.65,0-19,0a3.86,3.86,0,0,1-4.08-4.1q.11-19.35,0-38.7A3.87,3.87,0,0,1,13.5,0Q30.3.11,47.1,0a3.8,3.8,0,0,1,4,4.06c0,9.12,0,18.25,0,27.37v.23c0,.92-.45,1.47-1.13,1.49s-1.18-.56-1.18-1.52c0-5.4,0-10.8,0-16.2ZM11.74,9.93H48.82V4.2c0-1.56-.38-1.92-2-1.92H13.72c-.22,0-.45,0-.67,0a1.28,1.28,0,0,0-1.3,1.3C11.71,5.69,11.74,7.78,11.74,9.93Z"/><path class="cls-1" d="M34.28,34l10.89,1,10.74,1c1.09.1,2.18.21,3.28.29a1.14,1.14,0,0,1,1.18.94,1.11,1.11,0,0,1-.75,1.31c-1.66.76-3.32,1.49-5,2.28a2,2,0,0,0-.87.83c-1.18,2.37-2.32,4.75-3.48,7.13-.66,1.36-1.17,1.49-2.42.59s-2.29-1.61-3.41-2.44a.8.8,0,0,0-1-.08c-1.29.71-2.6,1.37-3.91,2-1.13.58-1.68.38-2.15-.8L32.56,36C32,34.47,32.37,33.86,34.28,34Zm1.33,3.5,3.63,8.94,6.82-3.54Zm8,1.38,0,.18,4,2.05c2.32,1.21,2.08.83,2.27,3,0,0,0,0,.1.14l1.63-3.36Zm4.68-1.32,0,.15c1.31.34,2.64.62,3.92,1a2.84,2.84,0,0,0,2.47-.63Zm-2.05,7.8,1.37,1-.1-1.65Z"/><path class="cls-2" d="M69.28,32q0,9.67,0,19.35A5.63,5.63,0,0,1,68,55.26a5.44,5.44,0,0,1-4.83,1.68,1,1,0,0,1-1-1.09,1.07,1.07,0,0,1,1-1.15,11.84,11.84,0,0,1,1.19-.05,2.7,2.7,0,0,0,2.6-2.6c0-.25,0-.5,0-.75,0-12.9,0-25.8,0-38.7a3.09,3.09,0,0,0-3.44-3.44c-2.92.08-5.85,0-8.77,0a1.81,1.81,0,0,1-1.17-.47,1.13,1.13,0,0,1-.11-1.08,1.5,1.5,0,0,1,1-.65c1.83-.06,3.65,0,5.48,0,1.22,0,2.45.07,3.67,0a5.22,5.22,0,0,1,5.6,5.61C69.25,19,69.28,25.48,69.28,32Z"/><path class="cls-2" d="M22,27.77a19,19,0,0,1-.7,2,1.07,1.07,0,0,1-.75.55.91.91,0,0,1-.69-.5c-.6-1.42-1.12-2.87-1.7-4.3-.22-.53.06-.74.47-.9s.77-.13.95.38c.34,1,.7,1.95,1.1,3.07.3-1,.52-1.77.82-2.55.09-.24.4-.57.56-.54a1,1,0,0,1,.63.55c.3.78.52,1.6.82,2.56.39-1.11.72-2,1-3,.17-.48.45-.71,1-.51s.73.45.49,1c-.56,1.38-1.07,2.79-1.66,4.16a1,1,0,0,1-.74.54,1.09,1.09,0,0,1-.71-.58c-.29-.62-.48-1.29-.71-1.93Z"/><path class="cls-2" d="M37.11,28c.29-1,.48-1.74.77-2.46.1-.28.43-.46.65-.69.21.24.52.44.63.71.27.72.45,1.47.75,2.45.41-1.13.76-2.07,1.08-3,.21-.62.63-.71,1.09-.38a1,1,0,0,1,.35.82c-.52,1.48-1.1,2.94-1.71,4.38a.87.87,0,0,1-.68.43,1,1,0,0,1-.69-.51c-.31-.67-.53-1.39-.83-2.24-.29.8-.48,1.49-.78,2.12a1.2,1.2,0,0,1-.77.62c-.23,0-.62-.31-.73-.57-.57-1.35-1.07-2.74-1.61-4.1-.22-.53-.11-.86.44-1.05s.82,0,1,.56C36.36,26,36.71,26.92,37.11,28Z"/><path class="cls-2" d="M28.89,28c.29-1,.5-1.77.79-2.53.09-.25.4-.57.61-.57s.53.33.62.58c.29.75.49,1.54.79,2.53.4-1.13.74-2,1-2.94.18-.52.45-.75,1-.54s.64.54.43,1.06c-.54,1.36-1,2.74-1.62,4.09a1,1,0,0,1-.73.56,1.24,1.24,0,0,1-.75-.63c-.3-.62-.49-1.29-.79-2.11-.29.83-.49,1.52-.78,2.15a1.07,1.07,0,0,1-.72.59,1,1,0,0,1-.75-.54c-.59-1.39-1.11-2.82-1.67-4.23-.2-.5,0-.76.44-.93s.81-.11,1,.43C28.12,26,28.48,26.92,28.89,28Z"/><path class="cls-1" d="M76.83,53.79c-.43.92-.8,1.87-1.31,2.73a.94.94,0,0,1-1.34.23,1,1,0,0,1-.53-1.26c.29-.8.6-1.59,1-2.35a1,1,0,0,1,1.26-.53A1.38,1.38,0,0,1,76.83,53.79Z"/><path class="cls-1" d="M56.2,55c0-.9.93-1.51,1.59-1.08A11.39,11.39,0,0,1,60,55.72a1.29,1.29,0,0,1,0,1.25c-.22.29-1,.54-1.2.38a17.68,17.68,0,0,1-2.32-1.84C56.26,55.38,56.25,55.1,56.2,55Z"/><path class="cls-1" d="M52.8,48.8l.23,0c.56.15,2.28,2.19,2.21,2.77a1.56,1.56,0,0,1-.62,1,1.19,1.19,0,0,1-1.13-.13,11.72,11.72,0,0,1-1.72-2.13A1.08,1.08,0,0,1,52.8,48.8Z"/><path class="cls-1" d="M65.07,60.82a26.13,26.13,0,0,1-2.89-1.33,1.39,1.39,0,0,1-.24-1.25,1.25,1.25,0,0,1,1-.61,10.73,10.73,0,0,1,2.7,1A1.32,1.32,0,0,1,66,59.86C65.93,60.22,65.44,60.47,65.07,60.82Z"/><path class="cls-1" d="M69.39,61.07a5.24,5.24,0,0,1-1-1.11A.94.94,0,0,1,69,58.74c.75-.34,1.52-.63,2.29-.89a1,1,0,0,1,1.26.53,1,1,0,0,1-.27,1.39C71.4,60.25,70.47,60.59,69.39,61.07Z"/><path class="cls-1" d="M73.64,43.33c0,.82-.84,1.46-1.46,1.09a12,12,0,0,1-2.35-1.91,1.24,1.24,0,0,1,.07-1.19c.21-.28.91-.53,1.13-.39a22.38,22.38,0,0,1,2.44,1.92C73.6,43,73.6,43.21,73.64,43.33Z"/><path class="cls-2" d="M36.93,57.05v5.36H32.34V57.05Z"/><path class="cls-2" d="M30.73,9.06a2.87,2.87,0,0,1-2.88-2.83,2.88,2.88,0,1,1,5.76,0A2.89,2.89,0,0,1,30.73,9.06Zm0-2c.26-.43.53-.68.49-.87s-.34-.39-.53-.57c-.18.19-.48.38-.5.59S30.46,6.66,30.75,7.08Z"/><path class="cls-2" d="M44.38,9.06a2.88,2.88,0,0,1-2.91-2.8,2.88,2.88,0,1,1,5.76-.07A2.87,2.87,0,0,1,44.38,9.06Zm0-3.69c-.26.41-.53.65-.5.85s.33.38.52.56c.18-.19.49-.37.51-.58S44.61,5.77,44.34,5.37Z"/><path class="cls-2" d="M40.39,6.2a2.85,2.85,0,1,1-5.7,0,2.85,2.85,0,0,1,5.7,0Zm-2.82-.8c-.28.36-.58.57-.58.77s.32.41.49.61c.22-.19.54-.34.61-.57S37.83,5.78,37.57,5.4Z"/></g></g></svg>