<svg xmlns="http://www.w3.org/2000/svg" viewBox="0 0 636.08 353.83"><defs><style>.cls-1{isolation:isolate;}.cls-2{fill:#97a0a3;}.cls-3{fill:#889193;}.cls-4{fill:#d0dcdd;}.cls-5{fill:#1a6b6d;}.cls-6{fill:#126063;}.cls-7{fill:#2e9194;}.cls-8{font-size:13.85px;fill:#231f20;font-family:Poppins-Medium, Poppins;font-weight:500;}.cls-9{fill:#34a0a4;}.cls-10{fill:#eaf6f6;}.cls-11{fill:#eaf6f7;}.cls-12{fill:#f3f3f3;}</style></defs><g id="Layer_2" data-name="Layer 2"><g id="Layer_1-2" data-name="Layer 1"><g class="cls-1"><polygon class="cls-2" points="599.87 50.24 593.99 47.84 617.81 48.63 623.7 51.04 599.87 50.24"/><polygon class="cls-3" points="598.27 91.77 592.39 89.36 581.27 68.2 587.15 70.61 598.27 91.77"/><polygon class="cls-4" points="623.7 51.04 634.82 72.2 622.1 92.56 598.27 91.77 587.15 70.61 599.87 50.24 623.7 51.04"/><polygon class="cls-3" points="587.15 70.61 581.27 68.2 593.99 47.84 599.87 50.24 587.15 70.61"/><polygon class="cls-5" points="526.42 144.76 520.54 142.35 595.32 144.84 601.21 147.24 526.42 144.76"/><polygon class="cls-6" points="486.52 208.66 480.64 206.26 520.54 142.35 526.42 144.76 486.52 208.66"/><polygon class="cls-7" points="601.21 147.24 636.08 213.64 596.18 277.55 521.4 275.06 486.52 208.66 526.42 144.76 601.21 147.24"/><polygon class="cls-6" points="521.4 275.06 515.51 272.66 480.64 206.26 486.52 208.66 521.4 275.06"/><polygon class="cls-2" points="528.63 62.03 522.75 59.63 565.07 61.04 570.95 63.45 528.63 62.03"/><polygon class="cls-3" points="506.04 98.21 500.15 95.81 522.75 59.63 528.63 62.03 506.04 98.21"/><polygon class="cls-3" points="525.78 135.79 519.9 133.38 500.15 95.81 506.04 98.21 525.78 135.79"/><polygon class="cls-4" points="570.95 63.45 590.7 101.03 568.11 137.2 525.78 135.79 506.04 98.21 528.63 62.03 570.95 63.45"/><polygon class="cls-2" points="404.42 207.91 398.54 205.5 473.32 207.99 479.2 210.39 404.42 207.91"/><polygon class="cls-3" points="399.39 338.2 393.51 335.8 358.63 269.4 364.52 271.81 399.39 338.2"/><polygon class="cls-4" points="479.2 210.39 514.08 276.79 474.17 340.7 399.39 338.2 364.52 271.81 404.42 207.91 479.2 210.39"/><polygon class="cls-3" points="364.52 271.81 358.63 269.4 398.54 205.5 404.42 207.91 364.52 271.81"/><polygon class="cls-5" points="410.47 72.85 404.58 70.44 479.37 72.93 485.25 75.34 410.47 72.85"/><polygon class="cls-7" points="485.25 75.34 520.13 141.74 480.22 205.64 405.44 203.15 370.56 136.76 410.47 72.85 485.25 75.34"/><polygon class="cls-6" points="370.56 136.76 364.68 134.35 404.58 70.44 410.47 72.85 370.56 136.76"/><polygon class="cls-6" points="405.44 203.15 399.56 200.74 364.68 134.35 370.56 136.76 405.44 203.15"/><polygon class="cls-5" points="288.24 137.54 282.36 135.14 357.14 137.63 363.02 140.04 288.24 137.54"/><polygon class="cls-7" points="363.02 140.04 397.91 206.44 358 270.35 283.21 267.85 248.34 201.46 288.24 137.54 363.02 140.04"/><polygon class="cls-6" points="283.21 267.85 277.33 265.45 242.45 199.06 248.34 201.46 283.21 267.85"/><polygon class="cls-6" points="248.34 201.46 242.45 199.06 282.36 135.14 288.24 137.54 248.34 201.46"/><polygon class="cls-2" points="292.67 2.41 286.78 0 361.56 2.5 367.45 4.9 292.67 2.41"/><polygon class="cls-3" points="252.76 66.32 246.88 63.92 286.78 0 292.67 2.41 252.76 66.32"/><polygon class="cls-3" points="287.64 132.71 281.75 130.31 246.88 63.92 252.76 66.32 287.64 132.71"/><polygon class="cls-4" points="367.45 4.9 402.32 71.29 362.42 135.21 287.64 132.71 252.76 66.32 292.67 2.41 367.45 4.9"/><polygon class="cls-2" points="164.02 198.73 158.14 196.33 232.92 198.81 238.8 201.22 164.02 198.73"/><polygon class="cls-2" points="113.67 311.51 107.79 309.11 131.61 309.9 137.49 312.31 113.67 311.51"/><polygon class="cls-3" points="112.06 353.04 106.18 350.63 95.07 329.47 100.95 331.88 112.06 353.04"/><polygon class="cls-3" points="100.95 331.88 95.07 329.47 107.79 309.11 113.67 311.51 100.95 331.88"/><polygon class="cls-4" points="137.49 312.31 148.6 333.46 135.89 353.83 112.06 353.04 100.95 331.88 113.67 311.51 137.49 312.31"/><polygon class="cls-4" points="238.8 201.22 273.68 267.62 233.78 331.53 158.99 329.04 124.12 262.64 164.02 198.73 238.8 201.22"/><polygon class="cls-3" points="124.12 262.64 118.23 260.23 158.14 196.33 164.02 198.73 124.12 262.64"/><polygon class="cls-3" points="158.99 329.04 153.11 326.63 118.23 260.23 124.12 262.64 158.99 329.04"/><polygon class="cls-5" points="171.79 62.13 165.9 59.72 240.68 62.21 246.57 64.61 171.79 62.13"/><polygon class="cls-7" points="246.57 64.61 281.44 131.02 241.54 194.92 166.76 192.44 131.88 126.03 171.79 62.13 246.57 64.61"/><polygon class="cls-6" points="131.88 126.03 126 123.63 165.9 59.72 171.79 62.13 131.88 126.03"/><polygon class="cls-6" points="166.76 192.44 160.88 190.03 126 123.63 131.88 126.03 166.76 192.44"/><polygon class="cls-2" points="84.66 45.17 78.77 42.77 121.1 44.17 126.98 46.58 84.66 45.17"/><polygon class="cls-5" points="50.11 127.93 44.23 125.53 119.01 128.01 124.89 130.42 50.11 127.93"/><polygon class="cls-3" points="81.8 118.93 75.92 116.52 56.19 78.95 62.07 81.35 81.8 118.93"/><polygon class="cls-4" points="126.98 46.58 146.72 84.17 124.13 120.34 81.8 118.93 62.07 81.35 84.66 45.17 126.98 46.58"/><polygon class="cls-3" points="62.07 81.35 56.19 78.95 78.77 42.77 84.66 45.17 62.07 81.35"/><polygon class="cls-6" points="10.21 191.84 4.33 189.43 44.23 125.53 50.11 127.93 10.21 191.84"/><polygon class="cls-6" points="45.09 258.24 39.2 255.84 4.33 189.43 10.21 191.84 45.09 258.24"/><polygon class="cls-7" points="124.89 130.42 159.77 196.82 119.87 260.73 45.09 258.24 10.21 191.84 50.11 127.93 124.89 130.42"/></g><text class="cls-8" transform="translate(117.28 12.52)">Trustful Comunication</text><text class="cls-8" transform="translate(389.57 20.55)">Full Stack Team</text><text class="cls-8" transform="translate(537.2 326.35)">Flexibility</text><text class="cls-8" transform="translate(262.53 323.35)">Agile Approach</text><text class="cls-8" transform="translate(0 306.16)">High Quality Code</text><circle class="cls-9" cx="199.92" cy="29.59" r="2.17"/><circle class="cls-9" cx="199.92" cy="34.89" r="2.17"/><circle class="cls-9" cx="199.92" cy="40.2" r="1.85"/><circle class="cls-9" cx="199.92" cy="44.5" r="1.53"/><circle class="cls-9" cx="199.92" cy="48.81" r="1.31"/><circle class="cls-9" cx="199.92" cy="52.11" r="1.12"/><circle class="cls-9" cx="199.92" cy="55.42" r="0.95"/><circle class="cls-9" cx="440.57" cy="36.5" r="2.17"/><circle class="cls-9" cx="440.57" cy="41.8" r="2.17"/><circle class="cls-9" cx="440.57" cy="47.11" r="1.85"/><circle class="cls-9" cx="440.57" cy="51.41" r="1.53"/><circle class="cls-9" cx="440.57" cy="55.72" r="1.31"/><circle class="cls-9" cx="440.57" cy="59.02" r="1.12"/><circle class="cls-9" cx="440.57" cy="62.33" r="0.95"/><circle class="cls-9" cx="561.3" cy="282.86" r="2.17"/><circle class="cls-9" cx="561.3" cy="288.16" r="2.17"/><circle class="cls-9" cx="561.3" cy="293.47" r="1.85"/><circle class="cls-9" cx="561.3" cy="297.77" r="1.53"/><circle class="cls-9" cx="561.3" cy="302.08" r="1.31"/><circle class="cls-9" cx="561.3" cy="305.38" r="1.12"/><circle class="cls-9" cx="561.3" cy="308.69" r="0.95"/><circle class="cls-9" cx="321.35" cy="277.85" r="2.17"/><circle class="cls-9" cx="321.35" cy="283.16" r="2.17"/><circle class="cls-9" cx="321.35" cy="288.46" r="1.85"/><circle class="cls-9" cx="321.35" cy="292.77" r="1.53"/><circle class="cls-9" cx="321.35" cy="297.07" r="1.31"/><circle class="cls-9" cx="321.35" cy="300.38" r="1.12"/><circle class="cls-9" cx="321.35" cy="303.68" r="0.95"/><circle class="cls-9" cx="70.56" cy="263.38" r="2.17"/><circle class="cls-9" cx="70.56" cy="268.68" r="2.17"/><circle class="cls-9" cx="70.56" cy="273.99" r="1.85"/><circle class="cls-9" cx="70.56" cy="278.29" r="1.53"/><circle class="cls-9" cx="70.56" cy="282.6" r="1.31"/><circle class="cls-9" cx="70.56" cy="285.9" r="1.12"/><circle class="cls-9" cx="70.56" cy="289.21" r="0.95"/><path class="cls-10" d="M115.26,208a2.68,2.68,0,0,1-3,1.84c-2.68-.06-5.37,0-8.06,0h-.73c0,.42,0,.77,0,1.12a4.36,4.36,0,0,1-4.14,4.18H69.19c-1,0-1.4-.29-1.39-.91s.45-.87,1.37-.87H98.89a2.58,2.58,0,0,0,2.78-2,9.19,9.19,0,0,0,.1-1.54H72.29a5.19,5.19,0,0,1-1.12-.07,2.18,2.18,0,0,1-1.71-2.09q0-5,0-9.91a2.17,2.17,0,0,1,1.89-2.11,6.77,6.77,0,0,1,1-.06h29.35v-3.21H72.22a4.69,4.69,0,0,1-1.06-.08A2.21,2.21,0,0,1,69.45,190c0-3.2,0-6.41,0-9.61a2.27,2.27,0,0,1,2.21-2.33c.24,0,.48,0,.71,0h29.35v-3.52H56.29v.63c0,1.15,0,2.29,0,3.44a.89.89,0,1,1-1.77,0c0-3.74-.05-7.48,0-11.22a4.26,4.26,0,0,1,4.33-4.08H98.94a4.34,4.34,0,0,1,4.59,4.57c0,3.15,0,6.29,0,9.44v.72h2.16a4.85,4.85,0,0,1,.76,0,.81.81,0,0,1,.72.88.82.82,0,0,1-.83.84c-.22,0-.44,0-.65,0H72.36c-1.1,0-1.14,0-1.14,1.14v8.66c0,.8.08.89.89.89h40.46c.82,0,.91-.1.91-.93v-8.84c0-.76-.15-.91-.89-.91s-1.34,0-2,0a.88.88,0,1,1-.06-1.76,25.25,25.25,0,0,1,2.61,0,2.4,2.4,0,0,1,2.14,1.85v10.56a2.68,2.68,0,0,1-3,1.83c-2.69-.07-5.38,0-8.07,0h-.66v3.21h.69c2.69,0,5.38,0,8.07,0a2.65,2.65,0,0,1,2.92,1.88Zm-22.93,0h20.23c.83,0,.92-.1.92-.93v-8.78c0-.85-.12-1-1-1H72.25c-1,0-1,.08-1,1.06v8.54c0,1.05,0,1.08,1.06,1.08Zm9.4-35.28v-5.33a1.37,1.37,0,0,0-.07-.34,2.62,2.62,0,0,0-2.84-1.93H58.72a2.44,2.44,0,0,0-2.33,2.14c-.12,1-.08,2.13-.1,3.19,0,.75,0,1.49,0,2.26Z"/><path class="cls-10" d="M54.51,196.92V183.39c0-.94.31-1.39.93-1.37s.85.44.85,1.38q0,13.48,0,27a2.61,2.61,0,0,0,2,2.84,3.7,3.7,0,0,0,.88.08h5.1a1,1,0,0,1,1.1.69.85.85,0,0,1-.81,1.07c-2.08,0-4.16.1-6.23,0a4.28,4.28,0,0,1-3.82-4.58Q54.51,203.68,54.51,196.92Z"/><path class="cls-10" d="M99.76,186.47h5.58c.73,0,1.15.35,1.14.9s-.42.88-1.13.88H94.15c-.7,0-1.1-.34-1.1-.89s.37-.88,1.08-.88Z"/><path class="cls-10" d="M87.77,182.2H93c.2,0,.45-.06.58,0a1.85,1.85,0,0,1,.67.78.69.69,0,0,1-.53.86,2.07,2.07,0,0,1-.7.09H82.22c-.61-.06-1-.41-.93-.94a.86.86,0,0,1,1-.83Z"/><path class="cls-10" d="M106.79,182.2h2.61c.63,0,1,.33,1,.85s-.35.91-1,.92c-1.76,0-3.51,0-5.27,0a.88.88,0,0,1-1-.89c0-.53.38-.87,1-.88Z"/><path class="cls-10" d="M89,186.48c.54,0,1.07,0,1.6,0a.89.89,0,0,1,1,.86.88.88,0,0,1-.86.89c-1.15,0-2.29,0-3.44,0a.88.88,0,1,1,.09-1.75C87.85,186.46,88.4,186.48,89,186.48Z"/><path class="cls-10" d="M99,182.2h1.6a.89.89,0,0,1,.94.86.87.87,0,0,1-.9.9c-1.1,0-2.21,0-3.32,0a.85.85,0,0,1-.9-.89c0-.53.36-.84,1-.87H99Z"/><path class="cls-10" d="M76.72,182.21c.31,0,.63,0,.94,0a.82.82,0,0,1,.78.83.74.74,0,0,1-.66.85,12.78,12.78,0,0,1-2.23,0,.73.73,0,0,1-.63-.86.81.81,0,0,1,.79-.81c.34,0,.67,0,1,0Z"/><path class="cls-10" d="M76.69,186.48h.89a.82.82,0,0,1,.85.82.79.79,0,0,1-.74.91,12.88,12.88,0,0,1-2.06,0,.78.78,0,0,1-.7-.94.8.8,0,0,1,.82-.77C76.06,186.46,76.38,186.48,76.69,186.48Z"/><path class="cls-10" d="M82.91,186.49c.31,0,.63,0,.94,0a.82.82,0,0,1,.79.81.74.74,0,0,1-.64.87,11.87,11.87,0,0,1-2.23,0,.74.74,0,0,1-.64-.91.83.83,0,0,1,.83-.78h1Z"/><path class="cls-10" d="M61.48,192.77c.3,0,.59,0,.89,0a.82.82,0,0,1,.84.82.76.76,0,0,1-.69.88,11.44,11.44,0,0,1-2.11,0,.77.77,0,0,1-.69-.94.79.79,0,0,1,.82-.77C60.85,192.75,61.17,192.77,61.48,192.77Z"/><path class="cls-10" d="M61.45,197.05c.32,0,.63,0,.94,0a.82.82,0,0,1,.82.85.77.77,0,0,1-.71.87,11.81,11.81,0,0,1-2.06,0,.78.78,0,0,1-.73-.91.82.82,0,0,1,.85-.81c.3,0,.59,0,.89,0Z"/><path class="cls-10" d="M61.5,201.32c.29,0,.59,0,.88,0a.83.83,0,0,1,.83.84.77.77,0,0,1-.7.88,11.55,11.55,0,0,1-2.12,0,.76.76,0,0,1-.68-.89.81.81,0,0,1,.78-.81,8.51,8.51,0,0,1,1,0Z"/><path class="cls-10" d="M61.45,180a7.53,7.53,0,0,1,.95,0,.8.8,0,0,1,.8.79.74.74,0,0,1-.65.9,11.24,11.24,0,0,1-2.17,0,.75.75,0,0,1-.67-.89.8.8,0,0,1,.8-.8C60.82,179.93,61.14,180,61.45,180Z"/><path class="cls-10" d="M61.45,184.23c.32,0,.64,0,.95,0a.8.8,0,0,1,.8.79.75.75,0,0,1-.65.91,12.1,12.1,0,0,1-2.17,0,.76.76,0,0,1-.67-.9.82.82,0,0,1,.8-.8C60.82,184.2,61.14,184.23,61.45,184.23Z"/><path class="cls-10" d="M61.49,188.5c.32,0,.64,0,.95,0a.81.81,0,0,1,.77.82.74.74,0,0,1-.64.86,11.87,11.87,0,0,1-2.23,0c-.47-.05-.67-.45-.62-.92a.79.79,0,0,1,.77-.76C60.82,188.48,61.16,188.5,61.49,188.5Z"/><path class="cls-10" d="M61.46,205.59c.31,0,.63,0,.94,0a.82.82,0,0,1,.81.79.79.79,0,0,1-.72.93,11.81,11.81,0,0,1-2.06,0,.79.79,0,0,1-.72-.92.82.82,0,0,1,.8-.8C60.82,205.57,61.14,205.59,61.46,205.59Z"/><path class="cls-10" d="M109.52,188.25a.92.92,0,0,1-.87-.94.88.88,0,0,1,.9-.83.86.86,0,0,1,.86.92A.89.89,0,0,1,109.52,188.25Z"/><path class="cls-10" d="M80.43,206.93a.88.88,0,0,1-.77-1.27c.52-1.49,1.07-3,1.61-4.45.24-.69.49-1.38.75-2.06s.66-.87,1.17-.7.73.67.49,1.32c-.77,2.15-1.56,4.29-2.34,6.44A.93.93,0,0,1,80.43,206.93Z"/><path class="cls-10" d="M86.46,202.47c-.56-.53-1-1-1.5-1.43s-.52-1-.11-1.4a.92.92,0,0,1,1.36.14c.66.64,1.32,1.3,2,2a.91.91,0,0,1,0,1.45c-.65.68-1.32,1.35-2,2a.9.9,0,0,1-1.32.11.89.89,0,0,1,.07-1.36C85.39,203.47,85.88,203,86.46,202.47Z"/><path class="cls-10" d="M77.09,202.48c.56.52,1,1,1.5,1.42a.92.92,0,0,1,.12,1.4c-.39.37-.88.34-1.36-.13-.65-.64-1.29-1.28-1.92-1.93a.92.92,0,0,1,0-1.53c.63-.65,1.27-1.29,1.92-1.93a.93.93,0,0,1,1.36-.14c.4.37.37.91-.11,1.4S77.65,201.94,77.09,202.48Z"/><path class="cls-10" d="M81,168.05H91.05c1,0,1.39.29,1.37.92s-.44.86-1.37.86H70.78a3.49,3.49,0,0,1-.65-.05.86.86,0,0,1,.06-1.7,4.64,4.64,0,0,1,.65,0Z"/><path class="cls-10" d="M96.47,169.83c-.53,0-1.06,0-1.59,0-.69,0-1.1-.38-1.08-.91s.41-.85,1.06-.86c1.11,0,2.21,0,3.31,0,.63,0,1,.33,1,.84s-.36.9-1,.93-1.14,0-1.72,0Z"/><path class="cls-10" d="M66.62,168.08a.83.83,0,0,1,.86.85.88.88,0,0,1-.85.89.87.87,0,0,1-.89-.91A.82.82,0,0,1,66.62,168.08Z"/><path class="cls-10" d="M61.45,168.94a.88.88,0,1,1-1.75,0,.85.85,0,0,1,.89-.83A.86.86,0,0,1,61.45,168.94Z"/><path class="cls-10" d="M64.47,168.93a.88.88,0,1,1-.87-.86A.89.89,0,0,1,64.47,168.93Z"/><path class="cls-11" d="M238.41,135.31a4.65,4.65,0,0,1-1,.92c-2.58,1.3-5.19,2.55-7.78,3.83a2.15,2.15,0,0,0-.82.67,13.15,13.15,0,0,1-4.34,4,.83.83,0,0,0-.39.49,3.83,3.83,0,0,1-3.95,3.28,4,4,0,0,1-4,3.52,4,4,0,0,1-4,3.48,3.84,3.84,0,0,1-6,2.8l-2.22,1.18h-1.5a6.9,6.9,0,0,1-1.89-1.1,13.1,13.1,0,0,1-1.36-2.38c-2.05-.06-3.46-1.17-3.79-3.59a4,4,0,0,1-2.86-1.13,3.72,3.72,0,0,1-1-3,3.9,3.9,0,0,1-2.82-1.95,1.31,1.31,0,0,0-.49-.35,20.21,20.21,0,0,1-6.48-5.36,1.91,1.91,0,0,0-.71-.5c-3.71-1.83-7.42-3.63-11.12-5.47a5.51,5.51,0,0,1-1-.9v-.41c.53-.89.89-1,1.82-.56,3.86,1.89,7.72,3.76,11.57,5.68a3.93,3.93,0,0,1,1.16,1,16.34,16.34,0,0,0,5,4.24c.29-1.4,1.43-2.13,2.39-3s1.94-1.77,2.91-2.65c.67-.61,1.28-.68,1.72-.21s.37,1.06-.32,1.69L191,143.33a1.69,1.69,0,0,0-.59,1.77,1.47,1.47,0,0,0,1.2,1.15,2.25,2.25,0,0,0,1.06-.1,1.05,1.05,0,0,1,1.29.27,1,1,0,0,1,0,1.31,1.65,1.65,0,0,0,.09,2.18,1.74,1.74,0,0,0,2.3,0c.49-.37,1-.52,1.47-.06s.37,1,0,1.53a1.6,1.6,0,0,0,.12,2.05,1.77,1.77,0,0,0,2.19.19l.27-.21a1,1,0,0,1,1.41,0,1,1,0,0,1,.11,1.41,1.58,1.58,0,0,0,.21,2.29,1.8,1.8,0,0,0,2.56-.48c-1.23-1.2-2.15-2.57-1.52-4.38a3.83,3.83,0,0,1,3.78-2.65,4,4,0,0,1,4-3.48c.92-2.6,1.72-3.29,3.81-3.48a13.08,13.08,0,0,1,1.49-2.41,3.49,3.49,0,0,1,5.24.18c.72.78,1.4,1.6,2.16,2.48a14.55,14.55,0,0,0,1.3-.92,7.76,7.76,0,0,0,1.6-1.64,7.12,7.12,0,0,1,3.36-2.7c2.24-1,4.44-2.15,6.65-3.23,1-.49,1.33-.4,1.9.51Zm-23.48,9.35a1.91,1.91,0,0,0-1.74,1,1.42,1.42,0,0,0,.17,1.65c.57.69,1.16,1.38,1.77,2.05a1.64,1.64,0,0,0,2.45-2.18,24.65,24.65,0,0,0-1.65-1.88A4.76,4.76,0,0,0,214.93,144.66Zm2.12-1.66a1.42,1.42,0,0,0,.2.62,32.24,32.24,0,0,0,2.17,2.49,1.47,1.47,0,0,0,2.08-.14,1.49,1.49,0,0,0,.25-2.07c-.61-.78-1.27-1.53-1.95-2.25a1.39,1.39,0,0,0-1.68-.32A1.69,1.69,0,0,0,217.05,143Zm-9,14a1.93,1.93,0,0,0,1.75-1,1.44,1.44,0,0,0-.2-1.65c-.58-.69-1.16-1.38-1.78-2a1.63,1.63,0,0,0-2.45,2.16c.54.66,1.09,1.33,1.69,1.93A4.54,4.54,0,0,0,208.08,157Zm4-3.52a1.86,1.86,0,0,0,1.78-1,1.45,1.45,0,0,0-.17-1.66c-.56-.68-1.14-1.35-1.73-2a1.64,1.64,0,1,0-2.46,2.17c.52.62,1,1.26,1.61,1.83A5,5,0,0,0,212.05,153.45Z"/><path class="cls-11" d="M168.84,114.39c.63-.84.92-.91,1.88-.46q8.67,4.06,17.33,8.11a2,2,0,0,0,1.09.14c2.22-.32,4.42-.76,6.64-1a13.62,13.62,0,0,1,10.54,3.21,1.11,1.11,0,0,0,1.15.25,13.69,13.69,0,0,1,9.13.32,4.5,4.5,0,0,0,4.49-.45c5-3,10.06-5.93,15.1-8.87l.41-.23a1,1,0,1,1,1,1.75c-1.81,1.08-3.63,2.13-5.44,3.19-3.87,2.26-7.75,4.5-11.61,6.78a3.17,3.17,0,0,1-3,.29,15.45,15.45,0,0,0-6.33-1.32c-.87,0-1.73.17-2.76.28.23.28.33.44.46.57l3.87,3.92a3.74,3.74,0,0,1-4.86,5.69c-1.58-1.1-3.14-2.22-4.71-3.33-.2-.15-.41-.28-.65-.44l-3.43,3.12c-.2.18-.39.37-.61.54a1,1,0,0,1-1.33-1.51c.84-.8,1.7-1.56,2.56-2.34.45-.41.89-.83,1.36-1.23a2,2,0,0,1,2.77-.15c1.73,1.2,3.42,2.45,5.17,3.62a2.67,2.67,0,0,0,1.5.43,1.46,1.46,0,0,0,1.31-1.13,1.66,1.66,0,0,0-.45-1.75c-1.28-1.31-2.56-2.62-3.86-3.91a34.36,34.36,0,0,0-2.9-2.77,12.16,12.16,0,0,0-10.32-2.3c-1.79.35-3.61.64-5.42.88a2.62,2.62,0,0,1-1.43-.22q-8.88-4.12-17.75-8.32a4.75,4.75,0,0,1-.95-.8Z"/><path class="cls-11" d="M204,89.93c1.75.36,3.49.73,5.24,1.08,2,.41,4,.79,6,1.21a2.49,2.49,0,0,1,2.22,2.65c0,2.36,0,4.71,0,7.07,0,.78-.36,1.2-1,1.21s-1-.41-1-1.22c0-2.26,0-4.53,0-6.79,0-.57-.17-.87-.76-1-3.58-.68-7.14-1.41-10.73-2.06a5.18,5.18,0,0,0-1.86.17c-3.26.62-6.52,1.27-9.79,1.89a.79.79,0,0,0-.77.9c0,2.94,0,5.89,0,8.83a13.76,13.76,0,0,0,9.08,12.66,7.73,7.73,0,0,1,1.08.4,4,4,0,0,0,3.54,0,14.29,14.29,0,0,0,8.21-6.41,26.79,26.79,0,0,0,1.63-4.07c.25-.7.58-1.06,1.16-1s1,.64.84,1.47a15.8,15.8,0,0,1-9.77,11.37c-1,.37-1.93.76-2.93,1.06a2.65,2.65,0,0,1-1.52.09,24.71,24.71,0,0,1-6-2.56A15.5,15.5,0,0,1,189.61,104c-.1-3,0-6.07,0-9.11a2.49,2.49,0,0,1,2.27-2.67c3.66-.73,7.32-1.44,11-2.16.13,0,.25-.09.38-.13Z"/><path class="cls-11" d="M213.66,101a41.8,41.8,0,0,1-.69,5.83,11,11,0,0,1-6.65,7.58c-2.73,1.19-2.77,1.23-5.48,0a11.35,11.35,0,0,1-7.14-10.29c-.13-2.34,0-4.7,0-7.06,0-.79.27-1.09,1.05-1.24,2.78-.54,5.54-1.12,8.33-1.6a6.9,6.9,0,0,1,2.2.2c2.34.43,4.66.91,7,1.37,1,.2,1.23.42,1.23,1.51s0,2.44,0,3.66Zm-2.11.47h-.11c0-1,0-2.09,0-3.13,0-.48-.14-.67-.61-.76-1.6-.28-3.19-.63-4.8-.92a9.46,9.46,0,0,0-2.86-.35c-2.32.32-4.62.86-6.93,1.3-.38.07-.57.2-.56.65,0,1.81,0,3.62,0,5.43a9.74,9.74,0,0,0,6.43,9.11,3.49,3.49,0,0,0,2.83,0,9.54,9.54,0,0,0,6.15-6.9A30.92,30.92,0,0,0,211.55,101.43Z"/><path class="cls-11" d="M201.81,106.27c-.31-.28-.55-.52-.81-.74a1,1,0,0,0-1.46,0,1,1,0,0,0,.07,1.51c.44.43.9.83,1.34,1.25.77.72,1.27.7,1.93-.1q2.16-2.61,4.31-5.24c.28-.33.56-.65.81-1a1,1,0,0,0-.12-1.4,1,1,0,0,0-1.45.14c-.11.11-.21.24-.31.36Z"/><path class="cls-11" d="M201.81,106.27l4.31-5.24c.1-.12.2-.25.31-.36a1,1,0,0,1,1.45-.14,1,1,0,0,1,.12,1.4c-.25.35-.53.67-.81,1q-2.15,2.63-4.31,5.24c-.66.8-1.16.82-1.93.1-.44-.42-.9-.82-1.34-1.25a1,1,0,0,1-.07-1.51,1,1,0,0,1,1.46,0C201.26,105.75,201.5,106,201.81,106.27Z"/><path class="cls-12" d="M441.3,170.6c-.53-.19-1.08-.33-1.58-.56a5.69,5.69,0,0,1-3.13-6.48c.05-.18.08-.36.13-.59l-3.49-2q-6.32-3.64-12.62-7.29a.7.7,0,0,0-1,.1,5.62,5.62,0,0,1-6.43,1,5.75,5.75,0,0,1-3.16-5.64,5.69,5.69,0,0,1,4.12-5c.43-.13.53-.32.53-.74q0-9.06,0-18.13c0-.36,0-.58-.47-.71a5.71,5.71,0,1,1,5.63-9.46l.27.22,16.65-9.62a5.88,5.88,0,0,1-.06-3.52,5.68,5.68,0,0,1,4.17-4l.46-.15H443c.38.11.76.22,1.13.36a5.71,5.71,0,0,1,3.58,6.67c0,.18-.08.37-.13.59l16.64,9.61c.25-.22.48-.44.74-.64a5.72,5.72,0,0,1,9.34,4.83,5.53,5.53,0,0,1-3.78,4.91c-.74.24-.88.59-.88,1.29,0,5.85,0,11.71,0,17.56a.78.78,0,0,0,.68.92,5.66,5.66,0,0,1,4,4.92,5.74,5.74,0,0,1-3.16,5.64,5.61,5.61,0,0,1-6.32-.88.88.88,0,0,0-1.26-.12q-7.67,4.47-15.37,8.89l-.62.38a5.81,5.81,0,0,1,.06,3.5,5.66,5.66,0,0,1-4.1,3.93l-.53.17Zm26.22-26.85c0,.1,0,0,0,0q0-9.27,0-18.55c0-.38-.17-.47-.49-.63a17.16,17.16,0,0,1-2.42-1.41.65.65,0,0,0-.85-.07c-.95.58-1.91,1.12-2.88,1.67-.72.4-1.32.28-1.64-.31s-.11-1.12.59-1.53c.95-.56,1.91-1.12,2.88-1.65.35-.19.39-.4.35-.79a15.44,15.44,0,0,1,0-2.72.73.73,0,0,0-.42-.88c-2.13-1.21-4.25-2.45-6.38-3.67l-9.51-5.5c-1.19.61-2.23,1.13-3.24,1.69a.81.81,0,0,0-.29.6c0,1.14,0,2.27,0,3.4a1.05,1.05,0,0,1-.83,1.16,1,1,0,0,1-1.28-1.12c0-1.16,0-2.31,0-3.47a.89.89,0,0,0-.39-.61c-1-.54-2-1-3-1.56,0-.17,0-.18,0-.16q-8.08,4.66-16.17,9.35a.86.86,0,0,0-.27.66c0,1,0,1.92,0,2.87,0,.36,0,.55.33.73,1,.53,1.93,1.09,2.88,1.66.73.43.94,1,.6,1.57s-.92.68-1.66.26c-1-.54-1.92-1.1-2.87-1.67-.31-.18-.48-.14-.8.07a18,18,0,0,1-2.48,1.44.6.6,0,0,0-.44.66q0,9.13,0,18.27c0,.42.19.51.53.67a14.28,14.28,0,0,1,2.36,1.38.66.66,0,0,0,.9.06c.93-.56,1.87-1.09,2.82-1.63.73-.41,1.32-.31,1.65.28s.12,1.14-.61,1.57c-1,.56-1.91,1.13-2.88,1.66-.33.18-.35.38-.32.73a11.84,11.84,0,0,1,0,2.66.83.83,0,0,0,.5,1c3.53,2,7,4.05,10.55,6.08l5.3,3c1.06-.58,2-1.15,2.91-1.57.44-.2.61-.37.6-.85q0-1.67,0-3.33a1,1,0,0,1,1.35-1.1,1.06,1.06,0,0,1,.76,1.14c0,1.14,0,2.27,0,3.4a.79.79,0,0,0,.29.6c1,.57,2.06,1.08,3.24,1.69,5.21-3,10.64-6.14,16.06-9.29.16-.1.23-.45.24-.68a21.48,21.48,0,0,1,0-2.66.8.8,0,0,0-.5-1,31.57,31.57,0,0,1-2.86-1.69,1.39,1.39,0,0,1-.48-1.11c.05-.31.49-.66.84-.8s.64.1.91.25c1.11.61,2.2,1.25,3.1,1.77Zm-28.95-39.94a3.58,3.58,0,1,0,3.57-3.62A3.6,3.6,0,0,0,438.57,103.81Zm30.05,49.38a3.59,3.59,0,0,0,0-7.18,3.59,3.59,0,1,0,0,7.18Zm-22.89,11.65a3.58,3.58,0,1,0-3.56,3.63A3.58,3.58,0,0,0,445.73,164.84Zm-30-11.65a3.59,3.59,0,1,0-3.61-3.58A3.56,3.56,0,0,0,415.72,153.19Zm-3.61-34.11a3.6,3.6,0,1,0,3.58-3.61A3.58,3.58,0,0,0,412.11,119.08Zm56.52-3.61a3.59,3.59,0,1,0,3.56,3.63A3.56,3.56,0,0,0,468.63,115.47Z"/><path class="cls-12" d="M437.4,132.68c-.46-.76-.88-1.47-1.33-2.15a.81.81,0,0,0-.53-.3c-1-.15-2.08-.29-3.13-.39a1.7,1.7,0,0,0-.86.17,7.22,7.22,0,0,0-4.07,6l0,.42c-.06.77-.48,1.22-1.12,1.18a1.05,1.05,0,0,1-1-1.3,18,18,0,0,1,.78-3.43,8.58,8.58,0,0,1,3.4-4.15l.41-.27a1.16,1.16,0,0,0,.09-.14,6.77,6.77,0,0,1-1.79-3.6,6.57,6.57,0,0,1,12.4-3.92c.26.56.55.75,1.11.58a.09.09,0,0,1,.07,0c1.22.33,1.7-.39,2.3-1.34a6.5,6.5,0,0,1,9.43-1.59,6.58,6.58,0,0,1,1.05,9.49l-.36.41.45.33a9.43,9.43,0,0,1,4.27,7.46c.06.87-.3,1.41-1,1.47s-1.08-.41-1.15-1.29a7.2,7.2,0,0,0-4.07-6.27,2.32,2.32,0,0,0-1.12-.1c-.91.08-1.82.24-2.73.28a.74.74,0,0,0-.8.47c-.34.66-.78,1.28-1.22,2l.55.38a9.33,9.33,0,0,1,4.07,7.27c.06,1-.28,1.52-1,1.54s-1-.43-1.11-1.42a7.1,7.1,0,0,0-4-6.13,1.66,1.66,0,0,0-1.12-.09,7.33,7.33,0,0,1-4.25,0,1.38,1.38,0,0,0-.92,0,7.09,7.09,0,0,0-4.17,6.11,4.48,4.48,0,0,1-.06.64,1,1,0,0,1-1.11.86c-.6-.05-1-.43-.94-1a18,18,0,0,1,.7-3.58A8.7,8.7,0,0,1,437.4,132.68Zm4.66-.29a4.45,4.45,0,0,0,4.56-4.41,4.47,4.47,0,0,0-8.94-.11A4.44,4.44,0,0,0,442.06,132.39ZM435.53,128a6.76,6.76,0,0,1,3.38-5.85,4.42,4.42,0,0,0-5.46-2.78,4.48,4.48,0,0,0-3,5.4A4.41,4.41,0,0,0,435.53,128Zm13.24,0a4.43,4.43,0,0,0,5.21-3.72,4.49,4.49,0,0,0-3.4-5,4.34,4.34,0,0,0-5.16,2.88A6.73,6.73,0,0,1,448.77,128Z"/><path class="cls-12" d="M442.22,149.48h8.5c.91,0,1.37.36,1.37,1.06s-.48,1.06-1.37,1.06q-8.57,0-17.14,0c-1.08,0-1.68-.74-1.26-1.54a1.14,1.14,0,0,1,1.19-.58C436.41,149.49,439.32,149.48,442.22,149.48Z"/><path class="cls-12" d="M449.46,147.42c-.52,0-1,0-1.55,0a1.05,1.05,0,0,1-1.08-1,1,1,0,0,1,1.05-1.09q1.59-.06,3.18,0a1,1,0,0,1,1,1.1,1,1,0,0,1-1.07,1C450.5,147.44,450,147.42,449.46,147.42Z"/><path class="cls-12" d="M438,146.38a1.07,1.07,0,0,1-1.11,1,1,1,0,1,1,.08-2.09A1.07,1.07,0,0,1,438,146.38Z"/><path class="cls-12" d="M440.64,147.42a1,1,0,1,1,0-2.09,1,1,0,1,1,0,2.09Z"/><path class="cls-12" d="M433.23,147.42a1,1,0,1,1,.06-2.09,1,1,0,1,1-.06,2.09Z"/><path class="cls-10" d="M523.12,222.12c.12-.53.22-1.06.37-1.58a9.25,9.25,0,0,1,7.85-6.64,1,1,0,0,0,.9-.74c2-5.42,5.94-8.75,11.67-9.53s10.33,1.34,13.8,6l.38.52a12.39,12.39,0,0,1,16.3,1.25,1.19,1.19,0,0,0,1,.41c.59,0,1.18,0,1.77,0a.59.59,0,0,1,.72.5c.1.36.25.71.37,1.07s.48.59.93.37l.12-.05c1.37-.65,1.37-.65,2.47.44,1.32,1.33,2.64,2.66,4,4a.56.56,0,0,1,.14.81c-.19.32-.33.68-.5,1-.25.49-.08.8.41,1l.06,0c1.47.55,1.47.55,1.47,2.1,0,1.85,0,3.7,0,5.55,0,.39-.08.63-.5.72a8,8,0,0,0-1.07.37c-.47.16-.62.46-.39.92s.47,1,.73,1.53c-1.74,1.73-3.47,3.45-5.21,5.15a.63.63,0,0,1-.54.07,10.55,10.55,0,0,1-1.14-.52c-.48-.24-.8-.13-1,.39l0,.06c-.54,1.46-.54,1.46-2.1,1.46-1.83,0-3.66,0-5.48,0-.5,0-.73-.14-.83-.62a9.12,9.12,0,0,0-.35-1,.56.56,0,0,0-.85-.35l-.29.13c-1.25.61-1.25.61-2.22-.36-1.2-1.21-2.42-2.4-3.6-3.62a1.26,1.26,0,0,0-1-.4q-14.34,0-28.7,0a9.31,9.31,0,0,1-9.55-8,.88.88,0,0,0-.1-.22Zm34.42-8.74c-2.73-5.5-7-8.44-13.16-7.71-6,.71-9.41,4.47-10.8,10.23h-1a7.24,7.24,0,1,0,.18,14.47h29c.22,0,.44,0,.66,0l.1-.19a2.92,2.92,0,0,0-.62-.55,4.5,4.5,0,0,0-1.06-.39c-.38-.09-.48-.29-.48-.66,0-1.81,0-3.62,0-5.43,0-.56-.17-1.26.09-1.66s1-.43,1.47-.62a.61.61,0,0,0,.37-1c-.23-.46-.45-.94-.69-1.45L566,214c1-1,1-1,2.37-.42.69.33.9.24,1.16-.49.48-1.34.48-1.33,1.85-1.36a1.45,1.45,0,0,0,.25-.07,9.79,9.79,0,0,0-4.84-1.93A10.59,10.59,0,0,0,557.54,213.38Zm18.71.42c-1.46,0-2.85,0-4.23,0-.45,0-.66.14-.74.55a1.36,1.36,0,0,1-1.21,1.23,1,1,0,0,0-.29.12,1.46,1.46,0,0,1-1.85,0c-.33-.25-.58-.13-.86.16-.83.86-1.67,1.72-2.54,2.54-.37.34-.43.62-.15,1a1.25,1.25,0,0,1,0,1.61.85.85,0,0,0-.14.34,1.6,1.6,0,0,1-1.37,1.35.69.69,0,0,0-.4.49c0,1.35,0,2.69,0,4,0,.15.17.42.3.44.91.15,1.24.78,1.58,1.56a1.88,1.88,0,0,1-.06,2,.68.68,0,0,0,.08.63c.92,1,1.86,1.89,2.81,2.81a.62.62,0,0,0,.57.12,2.16,2.16,0,0,1,2.22,0,1.88,1.88,0,0,1,1.35,1.45c0,.32.25.42.58.41,1.28,0,2.56,0,3.84,0,.2,0,.53-.18.55-.32.16-1,.82-1.26,1.62-1.6a1.72,1.72,0,0,1,1.85.05c.32.24.55.12.81-.14.85-.88,1.7-1.75,2.59-2.59a.63.63,0,0,0,.14-1,1.34,1.34,0,0,1,0-1.67.91.91,0,0,0,.15-.35,1.53,1.53,0,0,1,1.32-1.3.74.74,0,0,0,.43-.54c0-1.32,0-2.65,0-4,0-.17-.19-.46-.33-.48-.89-.15-1.2-.77-1.53-1.52a1.78,1.78,0,0,1,0-2c.22-.29.14-.5-.12-.75-.89-.86-1.77-1.73-2.63-2.63-.3-.32-.55-.39-.91-.15a1.67,1.67,0,0,1-1.69.08C577,215.41,576.32,214.94,576.25,213.8Z"/><path class="cls-10" d="M587.72,182.86c-.31.28-.63.54-.92.83l-3.88,3.88L581.51,186l2.29-2.18c-.36,0-.5-.07-.65-.07H570c-1,0-1.36.35-1.36,1.37v18.26h-2c0-.22,0-.44,0-.66,0-5.84,0-11.69,0-17.53,0-2.29,1.22-3.5,3.51-3.5h13.57l-2.32-2.15,1.66-1.64,4.7,4.81Z"/><path class="cls-10" d="M530.93,180.85l2.27,2.08-1.52,1.43L527,179.65l4.72-4.72,1.41,1.39-2.23,2.08.07.21h.69q14.73,0,29.46,0a3.14,3.14,0,0,1,3.32,2.43,3.74,3.74,0,0,1,.07.75q0,10.59,0,21.2c0,.12,0,.24,0,.41h-2V182.25c0-1.28-.27-1.55-1.55-1.55H531Z"/><path class="cls-10" d="M560.33,205.51h-2v-12c0-1.14-.32-1.46-1.47-1.46H537.13l2.29,2.18-1.56,1.48-4.64-4.68,4.75-4.76,1.4,1.48-2.27,2.07.08.16H557a3.07,3.07,0,0,1,3.29,2.27,3.19,3.19,0,0,1,.11.87q0,6,0,11.92C560.37,205.2,560.35,205.32,560.33,205.51Z"/><path class="cls-10" d="M572.81,205.51h-2c0-.23,0-.45,0-.67v-8.27a3.17,3.17,0,0,1,3.5-3.47h3.16l-2.32-2.23,1.63-1.36,4.65,4.65-4.75,4.69-1.32-1.42,2.29-2.13a3.6,3.6,0,0,0-.57-.12c-1,0-2,0-3,0s-1.2.37-1.2,1.25c0,2.78,0,5.55,0,8.33Z"/><path class="cls-10" d="M551.06,212.81h2.08c0,1.24,0,2.46,0,3.67a.83.83,0,0,0,.49.88,2.89,2.89,0,0,1,1.57,2.69,3,3,0,0,1-1.6,2.67.74.74,0,0,0-.46.77c0,1.57,0,3.14,0,4.77h-2.08c0-1.46,0-2.91,0-4.35a1.31,1.31,0,0,0-.68-1.36,3,3,0,0,1,.15-5.17.88.88,0,0,0,.53-.93C551.05,215.26,551.06,214.06,551.06,212.81Zm2.08,7.21a1.07,1.07,0,0,0-1.06-1,1,1,0,0,0,0,2.07A1.07,1.07,0,0,0,553.14,220Z"/><path class="cls-10" d="M544.84,228.28h-2.05v-.68q0-3.12,0-6.24a.64.64,0,0,0-.4-.68,3.06,3.06,0,0,1,0-5.45.62.62,0,0,0,.41-.67c0-.57,0-1.13,0-1.74h2.05c0,.59,0,1.19,0,1.79a.83.83,0,0,0,.33.56,3.06,3.06,0,0,1,1.73,2.81,2.92,2.92,0,0,1-1.73,2.72c-.35.18-.35.41-.35.71,0,2,0,4.08,0,6.12Zm-1-11.35a1,1,0,0,0-1,1,1,1,0,0,0,2,0A1,1,0,0,0,543.81,216.93Z"/><path class="cls-10" d="M536.58,212.8h2.06v.68c0,2.75,0,5.5,0,8.26a.74.74,0,0,0,.46.77,3.05,3.05,0,0,1,1.53,3.47,3.13,3.13,0,0,1-3,2.32,3.1,3.1,0,0,1-3-2.27,3,3,0,0,1,1.47-3.49.85.85,0,0,0,.5-.88q0-4.07,0-8.13Zm1,11.37a1,1,0,0,0,0,2.06,1,1,0,1,0,0-2.06Z"/><path class="cls-10" d="M573.84,216.93a8.28,8.28,0,1,1-8.29,8.24A8.28,8.28,0,0,1,573.84,216.93Zm-6.2,8.29a6.2,6.2,0,1,0,6.19-6.24A6.22,6.22,0,0,0,567.64,225.22Z"/><path class="cls-10" d="M567.64,225.22a6.2,6.2,0,1,1,6.23,6.2A6.22,6.22,0,0,1,567.64,225.22Zm6.22,4.11a4.13,4.13,0,1,0-4.17-4.09A4.14,4.14,0,0,0,573.86,229.33Z"/><path class="cls-10" d="M573.86,229.33a4.13,4.13,0,1,1,4.12-4.14A4.14,4.14,0,0,1,573.86,229.33Zm2-4.15a2.05,2.05,0,0,0-2-2.05,2.08,2.08,0,1,0,2,2.05Z"/><path class="cls-12" d="M307.59,205.71c0-2.34,0-4.62,0-6.89a.63.63,0,0,1,.34-.46,11.08,11.08,0,0,1,1.14-.42.54.54,0,0,0,.34-.86s0,0,0-.05c-.62-1.39-.62-1.39.43-2.45,1.21-1.2,2.43-2.4,3.62-3.63a.67.67,0,0,1,.94-.17c1.63.84,1.5.83,2.1-.85.06-.17.12-.34.19-.52h7.24c.17.48.35,1,.52,1.43s.44.58.89.38,1-.61,1.43-.54.74.65,1.1,1c1.2,1.19,2.38,2.4,3.6,3.57a.64.64,0,0,1,.14.94c-.17.27-.28.58-.43.88s-.07.72.39.88.95.34,1.43.51v7.24c-.45.16-.92.36-1.39.51s-.64.43-.42.91.6,1,.52,1.44-.64.74-1,1.1c-1.21,1.21-2.43,2.41-3.62,3.63a.56.56,0,0,1-.79.14c-.33-.19-.69-.34-1-.5a.52.52,0,0,0-.78.31,1.27,1.27,0,0,0-.08.23c-.49,1.32-.49,1.32-1.86,1.32h-5.85c-.18-.5-.36-1-.53-1.48a.54.54,0,0,0-.85-.36l-.11,0c-1.33.61-1.33.61-2.35-.4-1.24-1.24-2.46-2.49-3.72-3.71A.6.6,0,0,1,309,208a6.82,6.82,0,0,0,.37-.77c.31-.65.24-.82-.46-1.08Zm18.7,5.61c1-1,2-2,3-3a.49.49,0,0,0,.07-.46,2,2,0,0,1,0-2.19,1.64,1.64,0,0,1,1.29-1.18c.33-.06.44-.26.43-.6,0-1.18,0-2.37,0-3.55a.6.6,0,0,0-.51-.68c-.29-.08-.7-.13-.82-.34a7.66,7.66,0,0,1-.78-1.84c-.07-.27.18-.63.32-.94s.24-.47,0-.74c-.89-.86-1.75-1.76-2.65-2.62-.12-.11-.44-.19-.54-.11a1.93,1.93,0,0,1-2.09,0,1.81,1.81,0,0,1-1.29-1.34.62.62,0,0,0-.49-.37q-1.86,0-3.72,0c-.17,0-.45.17-.47.3-.15.86-.75,1.16-1.48,1.48a1.74,1.74,0,0,1-1.86,0,.62.62,0,0,0-.56,0c-1,1-2,1.94-2.95,2.93a2.28,2.28,0,0,0,.18.41,1.67,1.67,0,0,1,.05,1.8c-.32.76-.64,1.36-1.52,1.51-.12,0-.27.28-.27.43,0,1.26,0,2.52,0,3.79,0,.14.17.4.29.41.9.14,1.19.79,1.51,1.53a1.57,1.57,0,0,1-.05,1.74c-.22.29-.14.52.13.77.69.66,1.36,1.35,2,2s.78.79,1.79.33c.59-.27.93.26,1.41.35a1.36,1.36,0,0,1,1.22,1.23c.05.4.31.48.69.47,1.14,0,2.28,0,3.42,0,.43,0,.66-.12.72-.53.1-.63.51-.88,1.07-1.15A2,2,0,0,1,326.29,211.32Z"/><path class="cls-12" d="M309.26,226l.79-1.7a24.43,24.43,0,0,0,30.7-9l-5.55,1.37-.47-1.88,8.88-2.23c.37,3,.74,5.89,1.12,8.89l-1.93.27-.64-5a26.33,26.33,0,0,1-18.22,11.41A25.53,25.53,0,0,1,309.26,226Z"/><path class="cls-12" d="M303.74,171.79h4.7a2.92,2.92,0,0,1,3.06,3c0,3.2,0,6.39,0,9.59a2.92,2.92,0,0,1-3.06,3h-9.53a2.91,2.91,0,0,1-3.05-3c0-3.19,0-6.39,0-9.58a2.92,2.92,0,0,1,3.06-3Zm5.8,7.82c0-1.54,0-3.09,0-4.64,0-.87-.34-1.22-1.22-1.22H299c-.87,0-1.22.35-1.22,1.22v9.29c0,.87.35,1.22,1.22,1.22h9.29c.88,0,1.22-.35,1.22-1.22C309.55,182.71,309.54,181.16,309.54,179.61Z"/><path class="cls-12" d="M342.85,194.27h4.7a2.92,2.92,0,0,1,3.05,3c0,3.19,0,6.39,0,9.58a2.92,2.92,0,0,1-3,3H338a2.9,2.9,0,0,1-3-3c0-3.24,0-6.47,0-9.71a2.9,2.9,0,0,1,3-2.95Zm-.06,2h-4.64c-.88,0-1.23.34-1.23,1.21,0,3.09,0,6.19,0,9.28,0,.89.34,1.23,1.21,1.24h9.28c.89,0,1.23-.34,1.24-1.21v-9.29c0-.9-.35-1.23-1.27-1.23Z"/><path class="cls-12" d="M297.81,232.39c-1.56,0-3.13,0-4.7,0a2.94,2.94,0,0,1-3.12-3.08v-9.47a2.93,2.93,0,0,1,3.12-3.08h9.4a2.92,2.92,0,0,1,3.12,3.14c0,3.11,0,6.23,0,9.34a2.94,2.94,0,0,1-3.18,3.15ZM292,224.51c0,1.57,0,3.14,0,4.7,0,.88.34,1.22,1.22,1.23h9.28c.88,0,1.22-.35,1.23-1.23v-9.28c0-.88-.35-1.22-1.23-1.22h-9.28c-.88,0-1.22.34-1.22,1.22C291.94,221.46,292,223,292,224.51Z"/><path class="cls-12" d="M343.77,189.88l-1.73.91q-7.77-13.41-23.22-13l3,2-1.08,1.62-7.08-4.72,7.08-4.72,1.09,1.62-3.11,2.08C329.89,175.56,338.19,180.24,343.77,189.88Z"/><path class="cls-12" d="M296.35,190.93l1.78.84a24.7,24.7,0,0,0-2.26,9.38,23,23,0,0,0,1.75,9.58l.61-2.52c.19-.79.39-1.58.59-2.43l1.9.45-2.15,9-8.07-4.44.94-1.71,4.34,2.38A25.59,25.59,0,0,1,296.35,190.93Z"/><path class="cls-12" d="M328.12,202.09a7.82,7.82,0,1,1-7.81-7.82A7.84,7.84,0,0,1,328.12,202.09Zm-2,0a5.87,5.87,0,1,0-5.84,5.89A5.88,5.88,0,0,0,326.16,202.07Z"/><path class="cls-12" d="M300.54,179.86l1.12,1.31,5.19-5.21,1.25,1.33-6.41,6.41-2.49-2.52Z"/><path class="cls-12" d="M340.75,206.24l-2.49-2.49,1.47-1.31,1,1.29,5.26-5.28,1.23,1.35Z"/><path class="cls-12" d="M295.85,228.73l-2.54-2.54,1.33-1.31,1.1,1.26,5.18-5.27,1.31,1.47Z"/><path class="cls-12" d="M324.2,202.08a3.91,3.91,0,1,1-3.93-3.89A3.91,3.91,0,0,1,324.2,202.08Zm-3.91,2a2,2,0,1,0-2-2A2,2,0,0,0,320.29,204.05Z"/></g></g></svg>