<svg xmlns="http://www.w3.org/2000/svg" viewBox="0 0 104.95 130"><defs><style>.cls-1{fill:#48494a;}.cls-2{fill:#f57f20;}</style></defs><g id="Layer_2" data-name="Layer 2"><g id="Layer_1-2" data-name="Layer 1"><path class="cls-1" d="M101.78,0c2.53,1.46,3.17,3.71,3.16,6.52-.07,21.2,0,42.4,0,63.6,0,.51,0,1,0,1.53A1.76,1.76,0,0,1,103,73.4a1.85,1.85,0,0,1-2-1.65,6,6,0,0,1,0-1.27q0-22.44,0-44.9V24H3.83v1.37q0,49.23,0,98.46c0,2,.34,2.38,2.34,2.38h92.6c2,0,2.27-.32,2.27-2.29q0-22.14,0-44.27a5.85,5.85,0,0,1,.06-1.39A1.81,1.81,0,0,1,103,76.71a1.76,1.76,0,0,1,1.85,1.72c0,.3,0,.6,0,.89q0,22.52,0,45c0,2.87-1.35,4.77-3.82,5.46a5.92,5.92,0,0,1-1.63.19h-94A5.11,5.11,0,0,1,0,124.6Q0,64.89,0,5.16C0,2.75,1.28,1.26,3.07,0ZM101,20.05V5.8c0-1.9-.33-2.24-2.19-2.24H6c-1.76,0-2.17.41-2.17,2.16q0,6.62,0,13.23c0,.37,0,.73.07,1.1Z"/><path class="cls-1" d="M21.31,34.34c3,1.43,6.08,2.88,9.13,4.3,7,3.28,14,6.57,21,9.81a2.37,2.37,0,0,0,1.75.1q15.08-7,30.12-14.06a4.39,4.39,0,0,0,.48-.34c-.6,0-1-.06-1.46-.06H56.93a7.34,7.34,0,0,1-1.15,0,1.77,1.77,0,0,1-1.65-1.92,1.73,1.73,0,0,1,1.71-1.85c1.1-.07,2.21,0,3.31,0H90.31c2.83,0,4.41,1.53,4.41,4.38q0,16.41,0,32.81c0,3-1.63,4.46-4.78,4.47H42.13c-9,0-17.89-.06-26.84,0-2.81,0-5.19-1.3-5.14-5.06.14-10.72,0-21.45,0-32.18,0-2.92,1.53-4.45,4.45-4.45H48.48c1.46,0,2.37.75,2.36,1.91s-.91,1.88-2.37,1.9H21.38ZM14.06,66.92,47.91,51.07,14.06,35.23ZM57,51.07l33.73,15.8V35.28ZM21.51,67.7l0,.19h62.1c-.38-.23-.52-.32-.67-.39q-14.88-7-29.78-13.91a2.15,2.15,0,0,0-1.61.07c-5.61,2.57-11.2,5.2-16.79,7.81Z"/><path class="cls-2" d="M10.2,99c0-5.47,0-10.94,0-16.41a4,4,0,0,1,4.35-4.34q15.21,0,30.4,0a4.06,4.06,0,0,1,4.37,4.38q0,16.47,0,32.94c0,2.7-1.68,4.3-4.4,4.31H14.52c-2.75,0-4.32-1.59-4.32-4.34C10.19,110,10.2,104.46,10.2,99Zm3.9-13.83V115.9H42.85Zm2.54-3,28.69,30.74V82.17Z"/><path class="cls-2" d="M94.73,99.1c0,5.34-.09,10.68,0,16A4.37,4.37,0,0,1,90,119.87c-10-.11-19.92,0-29.88,0-2.91,0-4.49-1.54-4.5-4.46q0-16.34,0-32.68c0-2.9,1.62-4.49,4.5-4.5H90.25c2.9,0,4.46,1.57,4.47,4.5C94.74,88.16,94.73,93.63,94.73,99.1ZM88.35,116,59.58,85.15V116Zm2.43-3V82.22H62.13Z"/><path class="cls-2" d="M81.07,11.85a5.9,5.9,0,1,1-11.79-.11,5.9,5.9,0,0,1,11.79.11Zm-5.89,1.94a1.9,1.9,0,0,0,2-2,1.9,1.9,0,0,0-2-1.93,1.87,1.87,0,0,0-1.9,1.92A1.89,1.89,0,0,0,75.18,13.79Z"/><path class="cls-2" d="M94.71,11.89a5.87,5.87,0,0,1-5.81,5.83A6,6,0,0,1,83,11.83,6,6,0,0,1,88.9,5.94,5.86,5.86,0,0,1,94.71,11.89Zm-5.79-2a2,2,0,1,0,1.94,2A1.94,1.94,0,0,0,88.92,9.87Z"/></g></g></svg>